<svg width="268" height="321" viewBox="0 0 268 321" fill="none" xmlns="http://www.w3.org/2000/svg">
<path d="M72.1912 121.106C54.5343 134.86 37.8238 166.999 37.8238 166.999C37.8238 166.999 9.65944 168.964 3.45639 182.297C-0.5325 190.871 -0.5325 197.944 3.45639 206.518C9.65944 219.852 37.8238 221.816 37.8238 221.816C37.8238 221.816 55.9893 247.569 72.1912 258.785C115.126 288.51 165.832 292.353 205.842 258.785C219.713 247.148 233.845 221.816 233.845 221.816C233.845 221.816 258.612 218.557 264.394 206.518C268.488 197.994 268.488 190.821 264.394 182.297C258.612 170.259 233.845 166.999 233.845 166.999C233.845 166.999 221.244 135.362 205.842 121.106C167.512 85.6269 113.391 89.0135 72.1912 121.106Z" fill="#9ABC04" stroke="#474646" stroke-width="0.929324"/>
<path d="M127.792 200.809C127.792 199.276 127.557 196.182 127.082 194.754C126.606 193.327 125.898 191.904 125.185 190.594C124.854 189.989 123.528 190.115 122.343 190.291C121.463 190.422 121.15 191.537 120.736 192.248C118.879 195.432 120.552 201.871 121.027 203.299C121.264 204.01 121.503 204.726 121.857 205.437C122.048 205.822 122.446 206.149 123.156 206.33C124.877 206.771 126.364 206.277 127.016 205.744C127.315 205.446 127.55 205.093 127.671 204.441C127.792 203.789 128.148 202.135 127.792 200.809Z" fill="#3A3A3A" stroke="#3A3A3A" stroke-width="1.35795" stroke-linecap="round"/>
<path d="M140.449 200.809C140.449 199.276 140.214 196.182 139.739 194.754C139.263 193.327 138.555 191.905 137.842 190.595C137.511 189.989 136.185 190.115 135 190.292C134.12 190.423 133.807 191.537 133.393 192.249C131.536 195.432 133.209 201.871 133.684 203.299C133.921 204.01 134.16 204.726 134.514 205.437C134.705 205.822 135.103 206.149 135.813 206.33C137.534 206.771 139.021 206.277 139.673 205.744C139.972 205.446 140.207 205.093 140.328 204.441C140.449 203.789 140.805 202.135 140.449 200.809Z" fill="#3A3A3A" stroke="#3A3A3A" stroke-width="1.35795" stroke-linecap="round"/>
<path d="M66.9536 119.678C67.7163 120.808 68.4116 122.22 68.756 123.227C69.1396 124.029 69.3283 124.271 69.5535 124.294C70.5482 123.744 71.5716 122.981 73.3994 122.199C74.5848 121.43 75.8005 120.654 77.2301 120.06C79.3901 119.162 80.7471 118.589 82.1909 117.635C83.3289 116.882 84.8195 116.203 86.2907 115.35C87.5936 114.596 89.1705 114.093 90.6959 113.169C92.0729 112.334 93.3277 111.646 94.7467 110.901C96.4413 110.012 98.6845 109.076 100.255 108.341C102.307 107.38 105.168 106.355 107.412 105.265C109.214 104.39 111.362 103.692 112.887 102.767C114.264 101.933 116.064 102.256 119.036 99.4129C119.637 98.8388 119.451 98.1838 119.196 97.7086C118.753 96.885 117.952 96.1848 117.387 95.0862C116.432 93.2296 115.494 90.4556 114.46 88.5649C113.748 87.262 113.115 86.0416 112.351 85.0653C111.588 84.0891 110.692 83.2051 110.064 82.1402C109.302 80.8481 108.764 79.1389 107.942 77.9725C107.211 76.9342 106.422 75.5696 105.754 74.0811C105.531 73.5841 105.155 72.6322 106.528 72.0175C110.435 70.2678 113.319 69.085 113.984 68.7913C115.568 68.0913 119.028 67.1926 121.122 65.6696C122.197 64.8879 123.263 64.1748 124.281 63.2959C125.566 62.1851 126.953 61.4799 127.712 60.3136C128.844 58.5738 130.421 55.5913 130.998 53.9274C131.486 52.5215 132.316 50.8643 132.649 49.3412C132.941 48.0025 133.137 46.7005 133.24 45.4277C133.344 44.1538 133.645 42.7765 133.882 41.4969C134.127 40.1746 134.863 38.8861 134.667 37.5172C134.397 35.6356 133.519 33.2002 132.577 32.3599C131.574 31.4657 130.86 30.4568 130.05 29.5169C129.157 28.4802 128.017 27.3597 126.483 26.4638C125.207 25.7179 123.75 25.1468 122.384 24.9879C120.928 24.8185 119.283 24.4426 113.675 26.8478C110.675 28.1346 107.975 29.4996 106.349 30.187C104.381 31.0189 103.045 31.6368 101.82 32.4638C100.73 33.1999 99.0445 34.2124 97.7643 35.662C97.0929 36.4222 96.4455 37.2725 95.7684 38.2189C95.7085 38.438 95.6508 38.6555 95.5981 38.8716C95.2602 40.2556 94.8192 41.6111 94.4291 42.9834C94.0389 44.3556 93.6502 45.7228 93.4991 47.013C93.42 47.6886 93.0629 48.4011 92.6784 48.8439C92.5449 48.9976 92.2967 48.6735 92.2002 48.3959C91.8039 47.256 92.2412 45.7057 92.5516 44.2556C92.8243 42.9819 93.3425 41.7161 94.5965 39.8957C95.0026 39.3061 95.3901 38.7475 95.7684 38.2189C96.1152 36.9512 96.5393 35.6335 96.5445 34.2689C96.5499 32.8726 97.7456 30.7381 94.5368 24.6402C93.4619 22.5975 92.6025 21.4734 91.6028 20.4545C90.6939 19.5282 89.7115 18.6791 88.5289 18.0576C87.2833 17.4031 85.9144 16.887 84.4923 16.7658C83.1646 16.6527 81.8244 16.4233 80.4983 16.5401C78.8814 16.6824 77.4173 16.8016 75.8959 16.8834C74.4705 16.9599 72.7993 16.5349 68.229 18.6421C66.0494 19.6471 63.9537 20.0502 62.0859 21.3696C60.2206 22.6871 58.3388 24.2216 57.292 25.2339C55.6388 26.8327 54.5395 27.878 53.5856 29.1346L53.5146 29.2282C52.3111 30.8131 51.026 32.5055 49.948 34.9736C49.0471 37.036 48.5906 38.566 48.2972 40.486C48.064 42.0116 47.7776 43.7458 47.7471 45.6221C47.7251 46.97 48.6522 52.8214 50.7568 55.5128C51.5202 56.489 54.1805 58.505 52.7015 58.8616C51.6578 59.1132 50.3833 59.1373 49.0078 58.8883C47.6338 58.6396 46.3585 58.6368 45.0789 58.6927C43.7011 58.753 42.0067 58.6318 40.668 58.9703C37.2658 59.8307 31.876 61.6365 30.6509 62.4635C29.5605 63.1996 28.5391 63.9639 27.6049 65.0058C26.6718 66.0466 25.6593 66.9605 24.6492 68.4431C23.6828 69.8618 22.9763 71.5421 22.5861 72.9144C22.196 74.2867 22.4783 75.8805 22.4719 77.2824C22.4663 78.5227 21.9504 79.7613 22.162 81.8738C22.4495 84.7434 24.1705 88.4047 24.7032 89.6079C25.4167 91.2197 26.3799 92.2461 27.2437 93.2686C28.0546 94.2285 28.6309 95.3811 29.6275 96.1605C30.728 97.021 31.5127 98.2976 33.3244 98.8073C34.8093 99.2251 36.2158 99.5246 37.5374 99.6783C38.9937 99.8478 40.4616 99.8293 41.7877 99.7125C43.4046 99.5702 44.921 99.5668 46.4547 99.3981C48.0056 99.2274 52.0122 95.9816 53.9866 97.2775C54.3994 97.5486 54.6234 98.8701 55.4753 100.225C56.3005 101.537 57.0568 102.701 57.6303 104.019C58.3902 105.767 59.0097 107.896 60.1782 109.429C60.9572 110.451 61.6669 111.459 62.5602 112.631C63.3392 113.653 63.8799 114.749 64.7017 115.915C65.4332 116.953 65.8826 118.092 66.9536 119.678Z" fill="white"/>
<path d="M95.7684 38.2189C96.4455 37.2725 97.0929 36.4222 97.7643 35.662C99.0445 34.2124 100.73 33.1999 101.82 32.4638C103.045 31.6368 104.381 31.0189 106.349 30.187C107.975 29.4996 110.675 28.1346 113.675 26.8478C119.283 24.4426 120.928 24.8185 122.384 24.9879C123.75 25.1468 125.207 25.7179 126.483 26.4638C128.017 27.3597 129.157 28.4802 130.05 29.5169C130.86 30.4568 131.574 31.4657 132.577 32.3599C133.519 33.2002 134.397 35.6356 134.667 37.5172C134.863 38.8861 134.127 40.1746 133.882 41.4969C133.645 42.7765 133.344 44.1538 133.24 45.4277C133.137 46.7005 132.941 48.0025 132.649 49.3412C132.316 50.8643 131.486 52.5215 130.998 53.9274C130.421 55.5913 128.844 58.5738 127.712 60.3136C126.953 61.4799 125.566 62.1851 124.281 63.2959C123.263 64.1748 122.197 64.8879 121.122 65.6696C119.028 67.1926 115.568 68.0913 113.984 68.7913C113.319 69.085 110.435 70.2678 106.528 72.0175C105.155 72.6322 105.531 73.5841 105.754 74.0811C106.422 75.5696 107.211 76.9342 107.942 77.9725C108.764 79.1389 109.302 80.8481 110.064 82.1402C110.692 83.2051 111.588 84.0891 112.351 85.0653C113.115 86.0416 113.748 87.262 114.46 88.5649C115.494 90.4556 116.432 93.2296 117.387 95.0862C117.952 96.1848 118.753 96.885 119.196 97.7086C119.451 98.1838 119.637 98.8388 119.036 99.4129C116.064 102.256 114.264 101.933 112.887 102.767C111.362 103.692 109.214 104.39 107.412 105.265C105.168 106.355 102.307 107.38 100.255 108.341C98.6845 109.076 96.4413 110.012 94.7467 110.901C93.3277 111.646 92.0729 112.334 90.6959 113.169C89.1705 114.093 87.5936 114.596 86.2907 115.35C84.8195 116.203 83.3289 116.882 82.1909 117.635C80.7471 118.589 79.3901 119.162 77.2301 120.06C75.8005 120.654 74.5848 121.43 73.3994 122.199C71.5716 122.981 70.5482 123.744 69.5535 124.294C69.3283 124.271 69.1396 124.029 68.756 123.227C68.4116 122.22 67.7163 120.808 66.9536 119.678C65.8826 118.092 65.4332 116.953 64.7017 115.915C63.8799 114.749 63.3392 113.653 62.5602 112.631C61.6669 111.459 60.9572 110.451 60.1782 109.429C59.0097 107.896 58.3902 105.767 57.6303 104.019C57.0568 102.701 56.3005 101.537 55.4753 100.225C54.6234 98.8701 54.3994 97.5486 53.9866 97.2775C52.0122 95.9816 48.0056 99.2274 46.4547 99.3981C44.921 99.5668 43.4046 99.5702 41.7877 99.7125C40.4616 99.8293 38.9937 99.8478 37.5374 99.6783C36.2158 99.5246 34.8093 99.2251 33.3244 98.8073C31.5127 98.2976 30.728 97.0211 29.6275 96.1605C28.6309 95.3811 28.0546 94.2285 27.2437 93.2686C26.3799 92.2461 25.4167 91.2197 24.7032 89.6079C24.1705 88.4047 22.4495 84.7434 22.162 81.8738C21.9504 79.7613 22.4663 78.5227 22.4719 77.2824C22.4783 75.8805 22.196 74.2867 22.5861 72.9144C22.9763 71.5421 23.6828 69.8618 24.6493 68.4431C25.6593 66.9605 26.6718 66.0466 27.6049 65.0058C28.5391 63.9639 29.5605 63.1996 30.6509 62.4635C31.876 61.6365 37.2658 59.8307 40.668 58.9703C42.0067 58.6318 43.7011 58.753 45.0789 58.6927C46.3585 58.6368 47.6338 58.6396 49.0078 58.8883C50.3833 59.1373 51.6578 59.1132 52.7015 58.8616C54.1805 58.505 51.5202 56.489 50.7568 55.5128C48.6522 52.8214 47.7251 46.97 47.7471 45.6221C47.7776 43.7458 48.064 42.0116 48.2972 40.486C48.5906 38.566 49.0471 37.036 49.948 34.9736C51.026 32.5055 52.3111 30.8131 53.5146 29.2282C53.5383 29.197 53.5619 29.1658 53.5856 29.1346C54.5395 27.878 55.6388 26.8327 57.292 25.2339C58.3388 24.2216 60.2206 22.6871 62.0859 21.3696C63.9537 20.0502 66.0494 19.6471 68.229 18.6421C72.7993 16.5349 74.4705 16.9599 75.8959 16.8834C77.4173 16.8016 78.8814 16.6824 80.4983 16.5401C81.8244 16.4233 83.1646 16.6527 84.4923 16.7658C85.9144 16.887 87.2832 17.4031 88.5289 18.0576C89.7115 18.6791 90.6939 19.5282 91.6028 20.4545C92.6025 21.4734 93.4619 22.5975 94.5368 24.6402C97.7456 30.7381 96.5499 32.8726 96.5445 34.2689C96.5393 35.6335 96.1152 36.9512 95.7684 38.2189ZM53.5856 29.1346L53.5146 29.2282M95.7684 38.2189C95.7085 38.438 95.6508 38.6555 95.5981 38.8716C95.2602 40.2556 94.8192 41.6111 94.4291 42.9834C94.0389 44.3556 93.6502 45.7228 93.4991 47.013C93.42 47.6886 93.0629 48.4011 92.6784 48.8439C92.5449 48.9976 92.2967 48.6735 92.2002 48.3959C91.8039 47.256 92.2412 45.7057 92.5516 44.2556C92.8243 42.9819 93.3425 41.7161 94.5965 39.8957C95.0026 39.3061 95.3901 38.7475 95.7684 38.2189Z" stroke="#3A3A3A" stroke-width="1.34744" stroke-linecap="round"/>
<path d="M78.3725 106.015C78.1509 105.549 77.6682 104.872 77.3326 104.169C76.9645 103.399 76.3845 102.774 76.0581 102.099C75.7528 101.467 75.3253 100.781 74.7764 99.8219C73.8647 98.2289 73.5788 97.3306 72.6173 94.7981C72.4011 94.2284 72.2635 94.0367 71.6752 92.4103C71.0868 90.784 70.0431 87.7323 69.5058 86.0703C68.897 83.8292 68.7499 83.0349 68.7162 82.2905C68.68 82.0909 68.6067 81.8767 68.8691 81.5401" stroke="#3A3A3A" stroke-width="1.34744" stroke-linecap="round"/>
<path d="M97.4021 95.4967C96.8706 93.9425 95.6462 90.7264 95.0692 89.776C94.4626 88.7768 93.9164 87.8758 93.4796 86.8773C92.9916 85.7616 91.7524 82.8394 91.3399 81.084C91.1619 80.3265 91.2544 79.3631 91.2115 78.4098C91.1693 77.4714 91.2668 76.6397 91.2608 75.7943C91.3324 74.4418 91.4893 72.6985 91.5327 71.6222C91.552 71.4026 91.6085 71.2037 91.8357 70.9408" stroke="#3A3A3A" stroke-width="1.34744" stroke-linecap="round"/>
<path d="M168.648 278.944C166.992 279.236 151.196 283.46 149.397 284.498C147.787 285.428 145.188 286.677 141.598 289.14C138.878 291.007 136.328 293.852 134.208 295.695C132.166 297.469 131.113 299.777 130.056 301.469C129.029 303.113 129.138 309.175 130.537 313.018C131.663 316.113 134.615 316.68 138.056 318.583C139.974 319.645 141.788 319.925 146.629 319.999C149.152 320.038 151.07 318.945 152.76 317.96C155.092 316.602 157.678 313.46 159.23 311.554C160.964 309.425 161.905 307.823 163.169 306.06C164.459 304.262 165.137 302.05 165.844 300.214C166.485 298.55 166.969 296.836 167.462 295.073C168.017 293.094 168.234 291.063 168.728 288.807C168.939 286.55 169.709 281.803 168.728 278.932C168.725 278.935 168.722 278.937 168.719 278.94C168.682 278.971 168.659 278.963 168.648 278.944Z" fill="#9ABC04"/>
<path d="M168.648 278.944C168.68 278.939 168.707 278.934 168.728 278.932C169.709 281.803 168.939 286.55 168.728 288.807C168.234 291.063 168.017 293.094 167.462 295.073C166.969 296.836 166.485 298.55 165.844 300.214C165.137 302.05 164.459 304.262 163.169 306.06C161.905 307.823 160.964 309.425 159.23 311.554C157.678 313.46 155.092 316.602 152.76 317.96C151.07 318.945 149.152 320.038 146.629 319.999C141.788 319.925 139.974 319.645 138.056 318.583C134.615 316.68 131.663 316.113 130.537 313.018C129.138 309.175 129.029 303.113 130.056 301.469C131.113 299.777 132.166 297.469 134.208 295.695C136.328 293.852 138.878 291.007 141.598 289.14C145.188 286.677 147.787 285.428 149.397 284.498C151.196 283.46 166.992 279.236 168.648 278.944ZM168.728 278.932C168.725 278.935 168.722 278.937 168.719 278.94C168.682 278.971 168.659 278.963 168.648 278.944M168.777 279.081C168.676 278.777 168.62 278.896 168.648 278.944" stroke="#474646" stroke-width="1.15512" stroke-linecap="round"/>
<path d="M129.373 282.049C126.723 282.049 108.558 278.507 103.297 280.193C99.9146 281.277 97.1662 282.589 94.776 283.717C92.8924 284.606 91.2592 285.547 89.4997 286.325C87.3354 287.281 85.2171 289.207 80.0885 294.125C77.5817 296.53 76.77 298.782 76.0633 300.688C74.9546 303.678 75.9177 307.8 77.3206 309.773C78.5467 311.498 80.694 311.89 82.523 312.524C84.9457 313.364 92.7275 313.724 98.3434 312.883C100.841 312.509 102.634 311.054 105.445 309.925C108.135 308.845 110.229 306.549 111.919 305.207C113.752 303.752 115.571 301.622 117.335 299.435C118.847 297.56 120.499 295.562 121.626 293.8C122.883 291.833 123.875 290.069 124.581 288.376C124.862 287.533 125.284 286.684 125.845 285.841C126.128 285.416 128.664 282.48 129.373 282.049Z" fill="#9ABC04" stroke="#474646" stroke-width="1.15512" stroke-linecap="round"/>
<path d="M111.173 226.077C112.531 226.077 115.266 226.349 116.909 226.897C118.552 227.445 120.189 227.992 121.831 228.54C123.474 229.089 125.111 229.635 127.775 229.842C130.052 230.02 132.494 230.457 138.903 230.461C141.647 230.462 143.158 229.093 144.801 228.136C146.446 227.177 148.081 226.628 149.723 225.671C151.366 224.574 152.597 223.752 153.415 223.138C153.827 222.795 154.233 222.388 155.472 221.969" stroke="#2C2C2C" stroke-width="2" stroke-linecap="round"/>
<path d="M152.601 224.845C153.007 225.527 154.102 226.891 155.466 228.195C156.268 228.962 156.973 229.771 157.451 230.59C157.898 231.357 157.933 233.049 157.798 235.101C157.742 235.942 157.392 236.339 156.643 236.685C154.771 237.547 153.015 237.445 152.197 237.171C150.57 236.628 149.598 234.713 148.503 233.067C147.958 232.248 147.273 231.558 146.522 230.944C146.177 230.601 145.907 230.194 144.807 228.953" stroke="#2C2C2C" stroke-width="2" stroke-linecap="round"/>
<path d="M148.499 226.488C148.769 226.488 149.044 226.895 149.452 227.647C149.725 227.992 150.131 228.263 150.408 228.606C150.685 228.949 150.82 229.356 151.78 230.596" stroke="#2C2C2C" stroke-width="0.5" stroke-linecap="round"/>
</svg>
