<svg width="28" height="30" viewBox="0 0 28 30" fill="none" xmlns="http://www.w3.org/2000/svg">
<path d="M25.2002 0C26.7463 0.000267637 28 1.25457 28 2.80078V26.6006C27.9995 28.1464 26.7461 29.4001 25.2002 29.4004H2.80078C1.25469 29.4004 0.000473139 28.1466 0 26.6006V2.80078C0 1.2544 1.2544 0 2.80078 0H25.2002ZM6.2998 19.5996C5.14007 19.5997 4.2002 20.5404 4.2002 21.7002C4.20042 22.8598 5.1402 23.7998 6.2998 23.7998C7.45945 23.7998 8.39919 22.8598 8.39941 21.7002C8.39941 20.5404 7.45959 19.5996 6.2998 19.5996ZM12.5996 20.999C11.8267 20.9992 11.1994 21.6265 11.1992 22.3994C11.1992 23.1725 11.8266 23.7996 12.5996 23.7998H22.3994C23.1726 23.7998 23.7998 23.1726 23.7998 22.3994C23.7996 21.6264 23.1725 20.999 22.3994 20.999H12.5996ZM6.2998 12.5996C5.14007 12.5997 4.2002 13.5404 4.2002 14.7002C4.20039 15.8598 5.14018 16.7998 6.2998 16.7998C7.45947 16.7998 8.39922 15.8598 8.39941 14.7002C8.39941 13.5404 7.45959 12.5996 6.2998 12.5996ZM12.5996 13.999C11.8267 13.9992 11.1995 14.6265 11.1992 15.3994C11.1992 16.1725 11.8266 16.7996 12.5996 16.7998H22.3994C23.1726 16.7998 23.7998 16.1726 23.7998 15.3994C23.7996 14.6264 23.1724 13.999 22.3994 13.999H12.5996ZM12.5996 7C11.8266 7.00016 11.1992 7.6273 11.1992 8.40039C11.1995 9.17327 11.8267 9.80062 12.5996 9.80078H22.3994C23.1725 9.80078 23.7996 9.17337 23.7998 8.40039C23.7998 7.6272 23.1726 7 22.3994 7H12.5996ZM6.2998 5.59961C5.14007 5.59966 4.2002 6.54044 4.2002 7.7002C4.20032 8.85984 5.14014 9.79975 6.2998 9.7998C7.45951 9.7998 8.39929 8.85987 8.39941 7.7002C8.39941 6.54041 7.45959 5.59961 6.2998 5.59961Z" fill="black"/>
</svg>
