<svg width="30" height="30" viewBox="0 0 30 30" fill="none" xmlns="http://www.w3.org/2000/svg">
<path d="M4.80046 4.80046C10.2678 -0.666884 19.1321 -0.666884 24.5994 4.80046C30.0668 10.2678 30.0668 19.1321 24.5994 24.5994C19.1321 30.0668 10.2678 30.0668 4.80046 24.5994C-0.666884 19.1321 -0.666884 10.2678 4.80046 4.80046Z" stroke="black" stroke-width="1.4"/>
<ellipse cx="14.7" cy="11.9" rx="7" ry="5.6" fill="black"/>
<path d="M5.78906 24.3946C4.81334 23.8428 4.84957 22.4251 5.85219 21.9238L8.8044 20.4477C8.99879 20.3505 9.21315 20.2999 9.4305 20.2999H19.9695C20.1868 20.2999 20.4012 20.3505 20.5956 20.4477L23.5478 21.9238C24.5504 22.4251 24.5867 23.8428 23.6109 24.3946L17.8207 27.6696C17.6105 27.7885 17.3731 27.851 17.1315 27.851H12.2685C12.0269 27.851 11.7895 27.7885 11.5793 27.6696L5.78906 24.3946Z" fill="black" stroke="black" stroke-width="1.4"/>
</svg>
