<svg width="31" height="31" viewBox="0 0 31 31" fill="none" xmlns="http://www.w3.org/2000/svg">
<path d="M5.50041 5.50053C10.9677 0.0331894 19.8321 0.0331894 25.2994 5.50053C30.7667 10.9679 30.7667 19.8322 25.2994 25.2995C19.8321 30.7669 10.9677 30.7669 5.50041 25.2995C0.0330673 19.8322 0.0330673 10.9679 5.50041 5.50053Z" stroke="#9ABC04" stroke-width="2.8"/>
<path d="M15.3999 8.40039C18.8002 8.40039 20.9992 10.5555 20.9995 12.5996C20.9995 14.6438 18.8004 16.7998 15.3999 16.7998C11.9994 16.7998 9.80029 14.6438 9.80029 12.5996C9.80057 10.5555 11.9997 8.40039 15.3999 8.40039Z" stroke="#9ABC04" stroke-width="2.8"/>
<path d="M9.50435 21.1478L6.55214 22.6239C5.54952 23.1252 5.51329 24.5428 6.48901 25.0947L12.2792 28.3696C12.4895 28.4885 12.7269 28.551 12.9684 28.551H17.8315C18.073 28.551 18.3104 28.4885 18.5207 28.3696L24.3109 25.0947C25.2866 24.5428 25.2504 23.1252 24.2478 22.6239L21.2956 21.1478C21.1012 21.0506 20.8868 21 20.6695 21H10.1304C9.9131 21 9.69874 21.0506 9.50435 21.1478Z" stroke="#9ABC04" stroke-width="2.8"/>
</svg>
