<svg width="30" height="29" viewBox="0 0 30 29" fill="none" xmlns="http://www.w3.org/2000/svg">
<path d="M16.0369 4.09264C13.4517 1.7498 9.53144 1.68278 6.86766 3.93589L6.06955 4.61095C2.85562 7.32941 2.77138 12.2564 5.89052 15.0831L6.23685 15.3969C8.82206 17.7398 12.7424 17.8068 15.4061 15.5537L16.2042 14.8786C19.4182 12.1602 19.5024 7.23322 16.3833 4.4065L16.0369 4.09264Z" fill="#9ABC04" stroke="#9ABC04" stroke-width="3.48028"/>
<path d="M27.9786 23.7144C28.724 24.4175 28.7151 25.6057 27.9594 26.2976C27.278 26.9215 26.2306 26.9137 25.5586 26.2798L16.5331 17.7654C15.7877 17.0623 15.7966 15.8741 16.5523 15.1822C17.2337 14.5583 18.2811 14.5661 18.9531 15.2001L23.5599 19.5459L27.9786 23.7144Z" fill="#9ABC04" stroke="#9ABC04" stroke-width="2.78422"/>
</svg>
