<svg width="24" height="30" viewBox="0 0 24 30" fill="none" xmlns="http://www.w3.org/2000/svg">
<path d="M8.99988 27L14.9999 27C14.9999 28.6569 13.6567 30 11.9999 30C10.343 30 8.99988 28.6569 8.99988 27Z" fill="#9ABC04"/>
<path d="M6.74988 25.5C6.33566 25.5 5.99988 25.1642 5.99988 24.75C5.99988 24.3358 6.33566 24 6.74988 24H17.2499C17.6641 24 17.9999 24.3358 17.9999 24.75C17.9999 25.1642 17.6641 25.5 17.2499 25.5H6.74988Z" fill="#9ABC04" stroke="#9ABC04" stroke-width="1.5"/>
<path d="M12 0C18.6274 0 24 5.39787 24 12.0565C24 16.5191 21.5868 20.4154 18 22.5H6C2.41319 20.4154 -3.12632e-06 16.5191 -3.12632e-06 12.0565C-3.12632e-06 5.39787 5.37258 0 12 0Z" fill="#9ABC04"/>
</svg>
