<svg width="24" height="30" viewBox="0 0 24 30" fill="none" xmlns="http://www.w3.org/2000/svg">
<path d="M12 1.5C17.7924 1.5 22.5 6.21981 22.5 12.0566C22.4999 15.8253 20.5365 19.1312 17.5801 21H6.41992C3.46353 19.1312 1.50006 15.8253 1.5 12.0566C1.5 6.21981 6.20764 1.5 12 1.5Z" stroke="black" stroke-width="3"/>
<path d="M6.75 25.5C6.33579 25.5 6 25.1642 6 24.75C6 24.3358 6.33579 24 6.75 24H17.25C17.6642 24 18 24.3358 18 24.75C18 25.1642 17.6642 25.5 17.25 25.5H6.75Z" fill="black" stroke="black" stroke-width="1.5"/>
<path d="M9 27L15 27C15 28.6569 13.6569 30 12 30C10.3431 30 9 28.6569 9 27Z" fill="black"/>
</svg>
