<svg width="25" height="15" viewBox="0 0 25 15" fill="none" xmlns="http://www.w3.org/2000/svg">
<path d="M23.0227 6.36401C23.575 6.36401 24.0227 6.81173 24.0227 7.36401C24.0227 7.9163 23.575 8.36401 23.0227 8.36401V7.36401V6.36401ZM0.292883 8.07112C-0.097641 7.6806 -0.097641 7.04743 0.292883 6.65691L6.65685 0.292946C7.04737 -0.0975785 7.68053 -0.0975785 8.07106 0.292946C8.46158 0.68347 8.46158 1.31664 8.07106 1.70716L2.4142 7.36401L8.07106 13.0209C8.46158 13.4114 8.46158 14.0446 8.07106 14.4351C7.68053 14.8256 7.04737 14.8256 6.65685 14.4351L0.292883 8.07112ZM23.0227 7.36401V8.36401H0.99999V7.36401V6.36401H23.0227V7.36401Z" fill="#9ABC04"/>
</svg>
