<svg width="20" height="20" viewBox="0 0 20 20" fill="none" xmlns="http://www.w3.org/2000/svg">
<path d="M9.99984 2.91675C10.3314 2.91675 10.6493 3.04844 10.8837 3.28286C11.1181 3.51729 11.2498 3.83523 11.2498 4.16675V8.75008H15.8332C16.1647 8.75008 16.4826 8.88178 16.7171 9.1162C16.9515 9.35062 17.0832 9.66856 17.0832 10.0001C17.0832 10.3316 16.9515 10.6495 16.7171 10.884C16.4826 11.1184 16.1647 11.2501 15.8332 11.2501H11.2498V15.8334C11.2498 16.1649 11.1181 16.4829 10.8837 16.7173C10.6493 16.9517 10.3314 17.0834 9.99984 17.0834C9.66832 17.0834 9.35037 16.9517 9.11595 16.7173C8.88153 16.4829 8.74984 16.1649 8.74984 15.8334V11.2501H4.1665C3.83498 11.2501 3.51704 11.1184 3.28262 10.884C3.0482 10.6495 2.9165 10.3316 2.9165 10.0001C2.9165 9.66856 3.0482 9.35062 3.28262 9.1162C3.51704 8.88178 3.83498 8.75008 4.1665 8.75008H8.74984V4.16675C8.74984 3.83523 8.88153 3.51729 9.11595 3.28286C9.35037 3.04844 9.66832 2.91675 9.99984 2.91675Z" fill="#9ABC04"/>
</svg>
