<svg width="35" height="35" viewBox="0 0 35 35" fill="none" xmlns="http://www.w3.org/2000/svg">
<path d="M17.5001 5.10413C18.0802 5.10413 18.6366 5.33459 19.0469 5.74483C19.4571 6.15507 19.6876 6.71147 19.6876 7.29163V15.3125H27.7084C28.2886 15.3125 28.845 15.5429 29.2552 15.9532C29.6654 16.3634 29.8959 16.9198 29.8959 17.5C29.8959 18.0801 29.6654 18.6365 29.2552 19.0468C28.845 19.457 28.2886 19.6875 27.7084 19.6875H19.6876V27.7083C19.6876 28.2885 19.4571 28.8449 19.0469 29.2551C18.6366 29.6653 18.0802 29.8958 17.5001 29.8958C16.9199 29.8958 16.3635 29.6653 15.9533 29.2551C15.543 28.8449 15.3126 28.2885 15.3126 27.7083V19.6875H7.29175C6.71159 19.6875 6.15519 19.457 5.74495 19.0468C5.33472 18.6365 5.10425 18.0801 5.10425 17.5C5.10425 16.9198 5.33472 16.3634 5.74495 15.9532C6.15519 15.5429 6.71159 15.3125 7.29175 15.3125H15.3126V7.29163C15.3126 6.71147 15.543 6.15507 15.9533 5.74483C16.3635 5.33459 16.9199 5.10413 17.5001 5.10413Z" fill="#F2F0E7"/>
</svg>
