<svg width="12" height="12" viewBox="0 0 12 12" fill="none" xmlns="http://www.w3.org/2000/svg">
<path d="M0 9.50163V12.0016H2.5L9.87333 4.6283L7.37333 2.1283L0 9.50163ZM11.8067 2.69496C11.8685 2.63329 11.9175 2.56003 11.951 2.47938C11.9844 2.39873 12.0016 2.31228 12.0016 2.22496C12.0016 2.13765 11.9844 2.0512 11.951 1.97055C11.9175 1.8899 11.8685 1.81664 11.8067 1.75496L10.2467 0.194963C10.185 0.13316 10.1117 0.0841286 10.0311 0.0506743C9.95043 0.01722 9.86398 0 9.77667 0C9.68936 0 9.6029 0.01722 9.52225 0.0506743C9.4416 0.0841286 9.36834 0.13316 9.30667 0.194963L8.08667 1.41496L10.5867 3.91496L11.8067 2.69496Z" fill="#9ABC04"/>
</svg>
