<svg width="25" height="15" viewBox="0 0 25 15" fill="none" xmlns="http://www.w3.org/2000/svg">
<rect width="22.0227" height="0" transform="translate(1 7.36401)" fill="#F2F0E7"/>
<path d="M1 6.36401C0.447715 6.36401 0 6.81173 0 7.36401C0 7.9163 0.447715 8.36401 1 8.36401V7.36401V6.36401ZM23.7298 8.07112C24.1203 7.6806 24.1203 7.04743 23.7298 6.65691L17.3659 0.292946C16.9753 -0.0975785 16.3422 -0.0975785 15.9516 0.292946C15.5611 0.68347 15.5611 1.31664 15.9516 1.70716L21.6085 7.36401L15.9516 13.0209C15.5611 13.4114 15.5611 14.0446 15.9516 14.4351C16.3422 14.8256 16.9753 14.8256 17.3659 14.4351L23.7298 8.07112ZM1 7.36401V8.36401H23.0227V7.36401V6.36401H1V7.36401Z" fill="#F2F0E7"/>
</svg>




