<svg width="24" height="21" viewBox="0 0 24 21" fill="none" xmlns="http://www.w3.org/2000/svg">
<path d="M11.9218 3.60759C11.8173 3.7823 11.5389 3.79302 11.4386 3.61584C11.4145 3.57319 11.3849 3.53529 11.3489 3.50203C11.0473 3.22335 9.53145 1.84038 8.51986 1.2456C6.92491 0.307832 4.58987 0.781712 3.04162 1.82208C1.31061 2.98524 1.01768 3.9481 0.735728 6.26896C0.541141 7.87071 1.27347 9.41192 2.28143 10.6719L3.04162 11.6221L11.1345 19.7696C11.4086 20.0455 11.8544 20.047 12.1303 19.7729L20.3358 11.6221C20.3358 11.6221 23.0285 8.48084 22.6417 6.43385C22.2092 4.14525 22.0297 3.05844 20.3358 1.82207C18.6313 0.578007 16.4278 0.352395 14.5711 1.2456C13.0722 1.96662 12.2758 3.01567 11.9218 3.60759Z" fill="black" stroke="black" stroke-width="1.40833"/>
</svg>

