<svg width="24" height="22" viewBox="0 0 24 22" fill="none" xmlns="http://www.w3.org/2000/svg">
<path d="M12.2177 3.90349C12.1132 4.0782 11.8348 4.08892 11.7345 3.91174C11.7104 3.86909 11.6808 3.83119 11.6448 3.79793C11.3432 3.51925 9.82735 2.13628 8.81576 1.5415C7.22081 0.60373 4.88577 1.07761 3.33752 2.11797C1.60651 3.28114 1.31358 4.244 1.03163 6.56486C0.837039 8.16661 1.56937 9.70782 2.57733 10.9678L3.33752 11.918L11.4304 20.0655C11.7045 20.3414 12.1503 20.3429 12.4262 20.0688L20.6317 11.918C20.6317 11.918 23.3244 8.77674 22.9376 6.72975C22.5051 4.44115 22.3256 3.35434 20.6317 2.11797C18.9272 0.873906 16.7237 0.648294 14.867 1.5415C13.3681 2.26252 12.5717 3.31157 12.2177 3.90349Z" stroke="black" stroke-width="2"/>
</svg>

