<svg width="29" height="32" viewBox="0 0 29 32" fill="none" xmlns="http://www.w3.org/2000/svg">
<path d="M1 2C1 1.44772 1.44772 1 2 1H8.1086C8.66089 1 9.1086 1.44772 9.1086 2V9.12218C9.1086 9.67446 8.66089 10.1222 8.1086 10.1222H2C1.44772 10.1222 1 9.67446 1 9.12218V2Z" stroke="black" stroke-width="2"/>
<path d="M10.1086 2C10.1086 1.44772 10.5564 1 11.1086 1H17.2172C17.7695 1 18.2172 1.44772 18.2172 2V9.12218C18.2172 9.67446 17.7695 10.1222 17.2172 10.1222H11.1086C10.5564 10.1222 10.1086 9.67446 10.1086 9.12218V2Z" stroke="black" stroke-width="2"/>
<path d="M19.2173 2C19.2173 1.44772 19.665 1 20.2173 1H26.3259C26.8782 1 27.3259 1.44772 27.3259 2V9.12218C27.3259 9.67446 26.8782 10.1222 26.3259 10.1222H20.2173C19.665 10.1222 19.2173 9.67446 19.2173 9.12218V2Z" stroke="black" stroke-width="2"/>
<path d="M1 12.2413C1 11.689 1.44772 11.2413 2 11.2413H8.1086C8.66089 11.2413 9.1086 11.689 9.1086 12.2413V19.3635C9.1086 19.9158 8.66089 20.3635 8.1086 20.3635H2C1.44772 20.3635 1 19.9158 1 19.3635V12.2413Z" stroke="black" stroke-width="2"/>
<path d="M10.1086 12.2413C10.1086 11.689 10.5564 11.2413 11.1086 11.2413H17.2172C17.7695 11.2413 18.2172 11.689 18.2172 12.2413V19.3635C18.2172 19.9158 17.7695 20.3635 17.2172 20.3635H11.1086C10.5564 20.3635 10.1086 19.9158 10.1086 19.3635V12.2413Z" stroke="black" stroke-width="2"/>
<path d="M19.2173 12.2413C19.2173 11.689 19.665 11.2413 20.2173 11.2413H26.3259C26.8782 11.2413 27.3259 11.689 27.3259 12.2413V19.3635C27.3259 19.9158 26.8782 20.3635 26.3259 20.3635H20.2173C19.665 20.3635 19.2173 19.9158 19.2173 19.3635V12.2413Z" stroke="black" stroke-width="2"/>
<path d="M1 22.4827C1 21.9304 1.44772 21.4827 2 21.4827H8.1086C8.66089 21.4827 9.1086 21.9304 9.1086 22.4827V29.6048C9.1086 30.1571 8.66089 30.6048 8.1086 30.6048H2C1.44772 30.6048 1 30.1571 1 29.6048V22.4827Z" stroke="black" stroke-width="2"/>
<path d="M10.1086 22.4827C10.1086 21.9304 10.5564 21.4827 11.1086 21.4827H17.2172C17.7695 21.4827 18.2172 21.9304 18.2172 22.4827V29.6048C18.2172 30.1571 17.7695 30.6048 17.2172 30.6048H11.1086C10.5564 30.6048 10.1086 30.1571 10.1086 29.6048V22.4827Z" stroke="black" stroke-width="2"/>
<path d="M19.2173 22.4827C19.2173 21.9304 19.665 21.4827 20.2173 21.4827H26.3259C26.8782 21.4827 27.3259 21.9304 27.3259 22.4827V29.6048C27.3259 30.1571 26.8782 30.6048 26.3259 30.6048H20.2173C19.665 30.6048 19.2173 30.1571 19.2173 29.6048V22.4827Z" stroke="black" stroke-width="2"/>
</svg>

