<svg width="36" height="38" viewBox="0 0 36 38" fill="none" xmlns="http://www.w3.org/2000/svg">
<path d="M4.83716 1C4.83716 0.447717 5.28487 0 5.83716 0H11.9458C12.498 0 12.9458 0.447715 12.9458 1V8.12218C12.9458 8.67446 12.498 9.12218 11.9458 9.12218H5.83716C5.28487 9.12218 4.83716 8.67446 4.83716 8.12218V1Z" fill="black"/>
<path d="M13.9458 1C13.9458 0.447717 14.3935 0 14.9458 0H21.0544C21.6067 0 22.0544 0.447715 22.0544 1V8.12218C22.0544 8.67446 21.6067 9.12218 21.0544 9.12218H14.9458C14.3935 9.12218 13.9458 8.67446 13.9458 8.12218V1Z" fill="black"/>
<path d="M23.0544 1C23.0544 0.447717 23.5022 0 24.0544 0H30.163C30.7153 0 31.163 0.447715 31.163 1V8.12218C31.163 8.67446 30.7153 9.12218 30.163 9.12218H24.0544C23.5022 9.12218 23.0544 8.67446 23.0544 8.12218V1Z" fill="black"/>
<path d="M4.83716 11.2017C4.83716 10.6494 5.28487 10.2017 5.83716 10.2017H11.9458C12.498 10.2017 12.9458 10.6494 12.9458 11.2017V18.3238C12.9458 18.8761 12.498 19.3238 11.9458 19.3238H5.83716C5.28487 19.3238 4.83716 18.8761 4.83716 18.3238V11.2017Z" fill="black"/>
<path d="M13.9458 11.2017C13.9458 10.6494 14.3935 10.2017 14.9458 10.2017H21.0544C21.6067 10.2017 22.0544 10.6494 22.0544 11.2017V18.3238C22.0544 18.8761 21.6067 19.3238 21.0544 19.3238H14.9458C14.3935 19.3238 13.9458 18.8761 13.9458 18.3238V11.2017Z" fill="black"/>
<path d="M23.0544 11.2017C23.0544 10.6494 23.5022 10.2017 24.0544 10.2017H30.163C30.7153 10.2017 31.163 10.6494 31.163 11.2017V18.3238C31.163 18.8761 30.7153 19.3238 30.163 19.3238H24.0544C23.5022 19.3238 23.0544 18.8761 23.0544 18.3238V11.2017Z" fill="black"/>
<path d="M4.83716 21.4032C4.83716 20.8509 5.28487 20.4032 5.83716 20.4032H11.9458C12.498 20.4032 12.9458 20.8509 12.9458 21.4032V28.5254C12.9458 29.0777 12.498 29.5254 11.9458 29.5254H5.83716C5.28487 29.5254 4.83716 29.0777 4.83716 28.5254V21.4032Z" fill="black"/>
<path d="M13.9458 21.4032C13.9458 20.8509 14.3935 20.4032 14.9458 20.4032H21.0544C21.6067 20.4032 22.0544 20.8509 22.0544 21.4032V28.5254C22.0544 29.0777 21.6067 29.5254 21.0544 29.5254H14.9458C14.3935 29.5254 13.9458 29.0777 13.9458 28.5254V21.4032Z" fill="black"/>
<path d="M23.0544 21.4032C23.0544 20.8509 23.5022 20.4032 24.0544 20.4032H30.163C30.7153 20.4032 31.163 20.8509 31.163 21.4032V28.5254C31.163 29.0777 30.7153 29.5254 30.163 29.5254H24.0544C23.5022 29.5254 23.0544 29.0777 23.0544 28.5254V21.4032Z" fill="black"/>
<rect y="33.6049" width="36" height="4" rx="2" fill="black"/>
</svg>

