<svg width="29" height="32" viewBox="0 0 29 32" fill="none" xmlns="http://www.w3.org/2000/svg">
<path d="M24.8887 1L24.8887 0H24.8887V1ZM27.8887 4H28.8887V4H27.8887ZM27.8887 28L28.8887 28V28H27.8887ZM24.8887 31V32H24.8887L24.8887 31ZM1 28H0V28L1 28ZM1 4L0 4V4H1ZM10.2217 6.41602V5.41602H10.2215L10.2217 6.41602ZM7.97168 8.66602L6.97168 8.66578V8.66602H7.97168ZM7.97168 16.6025H6.97168V19.0168L8.67879 17.3096L7.97168 16.6025ZM11.3564 13.2178L11.9566 12.4179L11.2627 11.8973L10.6493 12.5107L11.3564 13.2178ZM14.2939 15.4219L13.6938 16.2217L13.6946 16.2223L14.2939 15.4219ZM14.6943 15.7217L14.095 16.5221L15.6943 17.7197V15.7217H14.6943ZM14.6943 8.66602H15.6943V8.66578L14.6943 8.66602ZM12.4443 6.41602L12.4445 5.41602H12.4443V6.41602ZM24.8887 1L24.8886 2C25.9932 2.00004 26.8887 2.8955 26.8887 4H27.8887H28.8887C28.8887 1.79086 27.0977 7.81417e-05 24.8887 0L24.8887 1ZM27.8887 4H26.8887V28H27.8887H28.8887V4H27.8887ZM27.8887 28L26.8887 28C26.8886 29.1045 25.9931 30 24.8886 30L24.8887 31L24.8887 32C27.0977 31.9999 28.8886 30.2091 28.8887 28L27.8887 28ZM24.8887 31V30H4V31V32H24.8887V31ZM4 31V30C2.8955 30 2.00004 29.1045 2 28L1 28L0 28C7.82609e-05 30.2091 1.79086 32 4 32V31ZM1 28H2V4H1H0V28H1ZM1 4L2 4C2 2.89543 2.89543 2 4 2V1V0C1.79086 0 5.36442e-07 1.79086 0 4L1 4ZM4 1V2H24.8887V1V0H4V1ZM10.2217 6.41602L10.2215 5.41602C8.42705 5.41636 6.9721 6.87148 6.97168 8.66578L7.97168 8.66602L8.97168 8.66625C8.97184 7.97606 9.53179 7.41615 10.2219 7.41602L10.2217 6.41602ZM7.97168 8.66602H6.97168V16.6025H7.97168H8.97168V8.66602H7.97168ZM7.97168 16.6025L8.67879 17.3096L12.0636 13.9249L11.3564 13.2178L10.6493 12.5107L7.26457 15.8954L7.97168 16.6025ZM11.3564 13.2178L10.7563 14.0176L13.6938 16.2217L14.2939 15.4219L14.8941 14.622L11.9566 12.4179L11.3564 13.2178ZM14.2939 15.4219L13.6946 16.2223L14.095 16.5221L14.6943 15.7217L15.2937 14.9212L14.8933 14.6214L14.2939 15.4219ZM14.6943 15.7217H15.6943V8.66602H14.6943H13.6943V15.7217H14.6943ZM14.6943 8.66602L15.6943 8.66578C15.6939 6.87148 14.239 5.41636 12.4445 5.41602L12.4443 6.41602L12.4441 7.41602C13.1342 7.41615 13.6942 7.97606 13.6943 8.66625L14.6943 8.66602ZM12.4443 6.41602V5.41602H10.2217V6.41602V7.41602H12.4443V6.41602Z" fill="black"/>
</svg>

