<svg width="30" height="27" viewBox="0 0 30 27" fill="none" xmlns="http://www.w3.org/2000/svg">
<path d="M15.2771 4.69532C15.1441 4.91767 14.7898 4.93132 14.6622 4.70582C14.6315 4.65153 14.5939 4.60329 14.548 4.56097C14.1641 4.20628 12.2349 2.44614 10.9474 1.68915C8.91746 0.495624 5.94559 1.09874 3.97509 2.42284C1.77199 3.90323 1.39916 5.12869 1.04032 8.08252C0.792662 10.1211 1.72472 12.0826 3.00758 13.6862L3.97509 14.8956L14.4105 25.4014C14.6845 25.6773 15.1304 25.6788 15.4063 25.4047L25.9858 14.8956C25.9858 14.8956 29.4129 10.8976 28.9206 8.29238C28.3702 5.37961 28.1417 3.9964 25.9858 2.42284C23.8165 0.839483 21.0121 0.552341 18.6489 1.68915C16.7413 2.60681 15.7277 3.94197 15.2771 4.69532Z" stroke="#9ABC04" stroke-width="2"/>
</svg>
