<svg width="36" height="34" viewBox="0 0 36 34" fill="none" xmlns="http://www.w3.org/2000/svg">
<path d="M18.3081 4.39942C18.1751 4.62178 17.8208 4.63542 17.6932 4.40992C17.6625 4.35563 17.6249 4.3074 17.579 4.26507C17.1951 3.91038 15.2659 2.15024 13.9784 1.39325C11.9485 0.199725 8.9766 0.802845 7.00609 2.12694C4.803 3.60733 4.43017 4.83279 4.07132 7.78662C3.82367 9.8252 4.75573 11.7867 6.03859 13.3903L7.00609 14.5997L17.4415 25.1055C17.7155 25.3814 18.1614 25.3829 18.4373 25.1088L29.0168 14.5997C29.0168 14.5997 32.4439 10.6017 31.9516 7.99648C31.4012 5.08372 31.1727 3.7005 29.0168 2.12694C26.8475 0.543585 24.0431 0.256442 21.6799 1.39325C19.7723 2.31092 18.7587 3.64607 18.3081 4.39942Z" fill="#9ABC04" stroke="#9ABC04" stroke-width="1.40833"/>
<rect y="29.6051" width="36" height="4" rx="2" fill="#9ABC04"/>
</svg>
