<svg width="26" height="26" viewBox="0 0 26 26" fill="none" xmlns="http://www.w3.org/2000/svg">
<circle cx="13" cy="13" r="13" fill="#E5DAC6"/>
<path d="M9.06676 15.0852C8.80398 15.0852 8.57848 14.9911 8.39027 14.8029C8.20206 14.6147 8.10795 14.3892 8.10795 14.1264C8.10795 13.8636 8.20206 13.6381 8.39027 13.4499C8.57848 13.2617 8.80398 13.1676 9.06676 13.1676C9.32955 13.1676 9.55504 13.2617 9.74325 13.4499C9.93146 13.6381 10.0256 13.8636 10.0256 14.1264C10.0256 14.3004 9.98118 14.4602 9.8924 14.6058C9.80717 14.7514 9.69176 14.8686 9.54616 14.9574C9.40412 15.0426 9.24432 15.0852 9.06676 15.0852ZM13.1976 15.0852C12.9348 15.0852 12.7093 14.9911 12.5211 14.8029C12.3329 14.6147 12.2388 14.3892 12.2388 14.1264C12.2388 13.8636 12.3329 13.6381 12.5211 13.4499C12.7093 13.2617 12.9348 13.1676 13.1976 13.1676C13.4604 13.1676 13.6859 13.2617 13.8741 13.4499C14.0623 13.6381 14.1564 13.8636 14.1564 14.1264C14.1564 14.3004 14.112 14.4602 14.0233 14.6058C13.938 14.7514 13.8226 14.8686 13.677 14.9574C13.535 15.0426 13.3752 15.0852 13.1976 15.0852ZM17.3285 15.0852C17.0657 15.0852 16.8402 14.9911 16.652 14.8029C16.4638 14.6147 16.3697 14.3892 16.3697 14.1264C16.3697 13.8636 16.4638 13.6381 16.652 13.4499C16.8402 13.2617 17.0657 13.1676 17.3285 13.1676C17.5913 13.1676 17.8168 13.2617 18.005 13.4499C18.1932 13.6381 18.2873 13.8636 18.2873 14.1264C18.2873 14.3004 18.2429 14.4602 18.1541 14.6058C18.0689 14.7514 17.9535 14.8686 17.8079 14.9574C17.6658 15.0426 17.506 15.0852 17.3285 15.0852Z" fill="#2C2C2C"/>
</svg>
