<svg width="36" height="39" viewBox="0 0 36 39" fill="none" xmlns="http://www.w3.org/2000/svg">
<path fill-rule="evenodd" clip-rule="evenodd" d="M28.8848 0C30.5415 0.000107974 31.8848 1.34321 31.8848 3V27.9912C31.8846 29.6478 30.5414 30.9911 28.8848 30.9912H7.11523C5.4585 30.9912 4.11544 29.6479 4.11523 27.9912V3C4.11523 1.34315 5.45838 0 7.11523 0H28.8848ZM13.5576 5.58105C12.3152 5.58113 11.3079 6.58872 11.3076 7.83105V16.0986L11.7344 15.6719L14.8018 12.6035L17.8496 14.8896L18.25 15.1895V7.83105C18.2497 6.58876 17.2423 5.5812 16 5.58105H13.5576Z" fill="black"/>
<rect y="34.9912" width="36" height="4" rx="2" fill="black"/>
</svg>
