<svg width="22" height="25" viewBox="0 0 22 25" fill="none" xmlns="http://www.w3.org/2000/svg">
<path d="M1.08447 12.9732C1.08447 13.568 1.56663 14.0502 2.1614 14.0502C2.75616 14.0502 3.23832 13.568 3.23832 12.9732V6.51171H15.2997H17.7768L15.8425 8.0591L15.712 8.1635C15.3773 8.43132 15.3496 8.93068 15.6528 9.23384C15.9337 9.51475 16.3891 9.51475 16.67 9.23384L20.2049 5.69895C20.6412 5.26267 20.6224 4.54974 20.1638 4.13698L16.435 0.781027C16.0068 0.395679 15.3364 0.47991 15.0169 0.9592C14.7491 1.36092 14.8273 1.89994 15.1982 2.20903L15.4917 2.45362L17.7768 4.35786H14.8023H1.08447V12.9732Z" fill="#9ABC04"/>
<path d="M17.7768 6.51171H3.23832V12.9732C3.23832 13.568 2.75616 14.0502 2.1614 14.0502C1.56663 14.0502 1.08447 13.568 1.08447 12.9732V4.35786H17.7768L15.1982 2.20903M3.23832 6.51171H15.2997M15.2997 6.51171H17.7768L15.712 8.1635M15.712 8.1635L15.8425 8.0591L17.7768 6.51171M15.1982 2.20903L15.4917 2.45362L17.7768 4.35786M17.7768 4.35786H14.8023M1.08447 4.35786H14.8023M15.2997 6.51171C16.1211 6.51171 16.4839 7.54601 15.8425 8.0591M15.712 8.1635C15.3773 8.43132 15.3496 8.93068 15.6527 9.23384M15.712 8.1635C15.3773 8.43132 15.3496 8.93068 15.6527 9.23384M15.6527 9.23384C15.9337 9.51475 16.3891 9.51475 16.67 9.23384L20.2049 5.69895C20.6412 5.26267 20.6224 4.54974 20.1638 4.13698M16.67 9.23384L20.2049 5.69895M16.67 9.23384C16.3891 9.51475 15.9337 9.51475 15.6527 9.23384M20.2049 5.69895C20.6412 5.26267 20.6224 4.54974 20.1638 4.13698M20.1638 4.13698L16.435 0.781025C16.0068 0.395678 15.3364 0.47991 15.0169 0.9592M20.1638 4.13698L16.435 0.781027C16.0068 0.395679 15.3364 0.47991 15.0169 0.9592M15.1982 2.20903C14.8273 1.89994 14.7491 1.36092 15.0169 0.9592M15.1982 2.20903C14.8273 1.89994 14.7491 1.36092 15.0169 0.9592M15.4917 2.45362C16.2655 3.09845 15.8095 4.35786 14.8023 4.35786" stroke="#9ABC04" stroke-width="1.07692"/>
<path d="M20.0456 12.0746C20.051 11.4799 19.5731 10.9934 18.9784 10.9881C18.3837 10.9828 17.8972 11.4606 17.8919 12.0554L17.834 18.5166L5.7731 18.4086L3.29616 18.3865L5.24418 16.8564L5.3756 16.7532C5.71277 16.4884 5.74489 15.9893 5.44447 15.6835C5.16608 15.4 4.71065 15.396 4.42723 15.6743L0.86084 19.1774C0.420662 19.6098 0.433028 20.3229 0.88793 20.7397L4.58657 24.1289C5.01127 24.5181 5.68239 24.4399 6.00619 23.9635C6.2776 23.5641 6.20425 23.0245 5.83613 22.7121L5.54481 22.4648L3.27687 20.5402L6.25127 20.5669L19.9685 20.6897L20.0456 12.0746Z" fill="#9ABC04"/>
<path d="M3.29616 18.3865L17.834 18.5166L17.8919 12.0554C17.8972 11.4606 18.3837 10.9828 18.9784 10.9881C19.5731 10.9934 20.051 11.4799 20.0456 12.0746L19.9685 20.6897L3.27687 20.5402L5.83613 22.7121M17.834 18.5166L5.7731 18.4086M5.7731 18.4086L3.29616 18.3865L5.3756 16.7532M5.3756 16.7532L5.24418 16.8564L3.29616 18.3865M5.83613 22.7121L5.54481 22.4648L3.27687 20.5402M3.27687 20.5402L6.25127 20.5669M19.9685 20.6897L6.25127 20.5669M5.7731 18.4086C4.95178 18.4013 4.59824 17.3638 5.24418 16.8564M5.3756 16.7532C5.71277 16.4884 5.74489 15.9893 5.44447 15.6835M5.3756 16.7532C5.71277 16.4884 5.74489 15.9893 5.44447 15.6835M5.44447 15.6835C5.16608 15.4 4.71065 15.396 4.42723 15.6743L0.860839 19.1774C0.420662 19.6098 0.433028 20.3229 0.88793 20.7397M4.42723 15.6743L0.860839 19.1774M4.42723 15.6743C4.71065 15.396 5.16608 15.4 5.44447 15.6835M0.860839 19.1774C0.420663 19.6098 0.433028 20.3229 0.88793 20.7397M0.88793 20.7397L4.58658 24.1289C5.01127 24.5181 5.68239 24.4399 6.00619 23.9635M0.88793 20.7397L4.58657 24.1289C5.01127 24.5181 5.68239 24.4399 6.00619 23.9635M5.83613 22.7121C6.20425 23.0245 6.2776 23.5641 6.00619 23.9635M5.83613 22.7121C6.20425 23.0244 6.2776 23.5641 6.00619 23.9635M5.54481 22.4648C4.77683 21.8131 5.24406 20.5578 6.25127 20.5669" stroke="#9ABC04" stroke-width="1.07692"/>
</svg>
