<svg width="27" height="27" viewBox="0 0 27 27" fill="none" xmlns="http://www.w3.org/2000/svg">
<path d="M9.81708 2.94893L9.45005 4.05002H5.40005C4.65333 4.05002 4.05005 4.65331 4.05005 5.40002C4.05005 6.14674 4.65333 6.75002 5.40005 6.75002H21.6C22.3468 6.75002 22.95 6.14674 22.95 5.40002C22.95 4.65331 22.3468 4.05002 21.6 4.05002H17.55L17.183 2.94893C16.9974 2.39627 16.4827 2.02502 15.9005 2.02502H11.0996C10.5174 2.02502 10.0027 2.39627 9.81708 2.94893ZM21.6 8.77502H5.40005L6.29021 22.4058C6.35771 23.4731 7.24364 24.3 8.31099 24.3H18.6891C19.7565 24.3 20.6424 23.4731 20.7099 22.4058L21.6 8.77502Z" fill="black"/>
</svg>

