<svg width="30" height="29" viewBox="0 0 30 29" fill="none" xmlns="http://www.w3.org/2000/svg">
<path d="M6.06955 4.61095L6.86766 3.93589C9.53144 1.68278 13.4517 1.7498 16.0369 4.09264L16.3833 4.40649C19.5024 7.23322 19.4182 12.1602 16.2042 14.8786L15.4061 15.5537C12.7424 17.8068 8.82206 17.7398 6.23685 15.3969L5.89053 15.0831C2.77139 12.2564 2.85562 7.32941 6.06955 4.61095Z" stroke="black" stroke-width="3.48028"/>
<path d="M27.9786 23.7144C28.724 24.4175 28.7151 25.6057 27.9594 26.2976C27.278 26.9215 26.2306 26.9137 25.5586 26.2798L16.5331 17.7654C15.7877 17.0623 15.7966 15.8741 16.5523 15.1822C17.2337 14.5583 18.2811 14.5661 18.9531 15.2001L23.5599 19.5459L27.9786 23.7144Z" fill="black" stroke="black" stroke-width="2.78422"/>
</svg>

