<svg width="185" height="102" viewBox="0 0 185 102" fill="none" xmlns="http://www.w3.org/2000/svg">
<mask id="path-1-inside-1_327_2210" fill="white">
<path d="M180 0C182.761 0 185 2.23858 185 5V75C185 77.7614 182.761 80 180 80H29.1641L21.8311 100.665C21.5161 101.552 20.2613 101.552 19.9463 100.665L12.6133 80H5C2.2386 80 3.29865e-05 77.7614 0 75V5C0 2.23858 2.23858 6.54331e-08 5 0H180Z"/>
</mask>
<path d="M180 0C182.761 0 185 2.23858 185 5V75C185 77.7614 182.761 80 180 80H29.1641L21.8311 100.665C21.5161 101.552 20.2613 101.552 19.9463 100.665L12.6133 80H5C2.2386 80 3.29865e-05 77.7614 0 75V5C0 2.23858 2.23858 6.54331e-08 5 0H180Z" fill="#E5DAC6"/>
<path d="M185 75L186 75V75H185ZM180 80V81V81V80ZM29.1641 80V79H28.4578L28.2216 79.6656L29.1641 80ZM21.8311 100.665L22.7734 101L22.7735 100.999L21.8311 100.665ZM19.9463 100.665L19.0039 100.999L19.0039 101L19.9463 100.665ZM12.6133 80L13.5557 79.6656L13.3195 79H12.6133V80ZM0 75H-1V75L0 75ZM5 0V-1V-1V0ZM180 0V1C182.209 1 184 2.79086 184 5H185H186C186 1.68629 183.314 -1 180 -1V0ZM185 5H184V75H185H186V5H185ZM185 75L184 75C184 77.2091 182.209 79 180 79V80V81C183.314 81 186 78.3137 186 75L185 75ZM180 80V79H29.1641V80V81H180V80ZM29.1641 80L28.2216 79.6656L20.8886 100.331L21.8311 100.665L22.7735 100.999L30.1065 80.3344L29.1641 80ZM21.8311 100.665L20.8887 100.331L20.8887 100.331L19.9463 100.665L19.0039 101C19.6338 102.774 22.1435 102.774 22.7734 101L21.8311 100.665ZM19.9463 100.665L20.8887 100.331L13.5557 79.6656L12.6133 80L11.6709 80.3344L19.0039 100.999L19.9463 100.665ZM12.6133 80V79H5V80V81H12.6133V80ZM5 80V79C2.79089 79 1.00003 77.2091 1 75L0 75L-1 75C-0.99996 78.3137 1.6863 81 5 81V80ZM0 75H1V5H0H-1V75H0ZM0 5H1C1 2.79086 2.79086 1 5 1V0V-1C1.68629 -1 -1 1.68629 -1 5H0ZM5 0V1H180V0V-1H5V0Z" fill="#2C2C2C" mask="url(#path-1-inside-1_327_2210)"/>
<path d="M7.8457 12.0186C7.55273 12.0186 7.40625 11.8916 7.40625 11.6377V10.8994C7.40625 10.6455 7.55273 10.5186 7.8457 10.5186H13.8691C14.1621 10.5186 14.3086 10.6455 14.3086 10.8994V11.6377C14.3086 11.8916 14.1621 12.0186 13.8691 12.0186H11.7129V18.5986C11.7129 18.8135 11.6152 18.9209 11.4199 18.9209H10.2949C10.0996 18.9209 10.002 18.8135 10.002 18.5986V12.0186H7.8457ZM15.6562 18.9209C15.4219 18.9209 15.3047 18.8037 15.3047 18.5693V13.1201C15.3047 12.8857 15.4219 12.7686 15.6562 12.7686H16.5938C16.8281 12.7686 16.9453 12.8857 16.9453 13.1201V18.5693C16.9453 18.8037 16.8281 18.9209 16.5938 18.9209H15.6562ZM15.6562 11.8662C15.4219 11.8662 15.3047 11.749 15.3047 11.5146V10.7646C15.3047 10.5303 15.4219 10.4131 15.6562 10.4131H16.5938C16.8281 10.4131 16.9453 10.5303 16.9453 10.7646V11.5146C16.9453 11.749 16.8281 11.8662 16.5938 11.8662H15.6562ZM18.8906 21.2646C18.6562 21.2646 18.5391 21.1475 18.5391 20.9131V13.1201C18.5391 12.8857 18.6562 12.7686 18.8906 12.7686H19.8164C20.0117 12.7686 20.1172 12.8857 20.1328 13.1201L20.1562 13.46H20.1797C20.3828 13.124 20.6094 12.9053 20.8594 12.8037C21.1094 12.7021 21.4102 12.6514 21.7617 12.6514C22.6797 12.6514 23.3242 12.9697 23.6953 13.6064C24.0703 14.2393 24.2578 14.9854 24.2578 15.8447C24.2578 16.7041 24.0703 17.4521 23.6953 18.0889C23.3242 18.7217 22.6797 19.0381 21.7617 19.0381C21.4102 19.0381 21.1094 18.9873 20.8594 18.8857C20.6094 18.7842 20.3828 18.5654 20.1797 18.2295H20.1562C20.1719 18.3857 20.1797 18.542 20.1797 18.6982V20.9131C20.1797 21.1475 20.0625 21.2646 19.8281 21.2646H18.8906ZM20.1797 16.1084C20.1797 16.6357 20.2832 17.0654 20.4902 17.3975C20.7012 17.7256 20.9531 17.8896 21.2461 17.8896C21.7734 17.8896 22.1172 17.7061 22.2773 17.3389C22.4414 16.9678 22.5234 16.4697 22.5234 15.8447C22.5234 15.2197 22.4414 14.7236 22.2773 14.3564C22.1172 13.9854 21.7734 13.7998 21.2461 13.7998C20.9531 13.7998 20.7012 13.9658 20.4902 14.2979C20.2832 14.626 20.1797 15.0537 20.1797 15.5811V16.1084ZM25.4004 18.5107C25.209 18.374 25.1562 18.2275 25.2422 18.0713L25.541 17.5264C25.6465 17.3311 25.8105 17.3076 26.0332 17.4561C26.2559 17.6045 26.5176 17.7139 26.8184 17.7842C27.123 17.8545 27.4004 17.8896 27.6504 17.8896C27.8262 17.8896 27.9902 17.8721 28.1426 17.8369C28.2949 17.8018 28.4238 17.7334 28.5293 17.6318C28.6348 17.5303 28.6875 17.3818 28.6875 17.1865C28.6875 17.0693 28.6562 16.9697 28.5938 16.8877C28.5312 16.8057 28.4512 16.7432 28.3535 16.7002C28.2559 16.6572 28.1523 16.6221 28.043 16.5947C27.8984 16.5596 27.6895 16.501 27.416 16.4189C27.1465 16.3369 26.8867 16.2412 26.6367 16.1318C26.4297 16.042 26.2266 15.917 26.0273 15.7568C25.832 15.5928 25.6875 15.4111 25.5938 15.2119C25.5039 15.0127 25.459 14.7666 25.459 14.4736C25.459 14.0791 25.5723 13.7334 25.7988 13.4365C26.0293 13.1396 26.3262 12.9346 26.6895 12.8213C27.0527 12.708 27.5059 12.6514 28.0488 12.6514C28.416 12.6514 28.7734 12.7041 29.1211 12.8096C29.4688 12.915 29.7168 13.0146 29.8652 13.1084C30.0996 13.2568 30.1582 13.415 30.041 13.583L29.6836 14.1045C29.5742 14.2607 29.3984 14.2725 29.1562 14.1396C28.9727 14.0381 28.791 13.9561 28.6113 13.8936C28.4355 13.8311 28.2383 13.7998 28.0195 13.7998C27.8711 13.7998 27.7285 13.8154 27.5918 13.8467C27.4551 13.8779 27.3379 13.9365 27.2402 14.0225C27.1465 14.1084 27.0996 14.2217 27.0996 14.3623C27.0996 14.5107 27.1426 14.6279 27.2285 14.7139C27.3184 14.7959 27.4199 14.8564 27.5332 14.8955C27.6504 14.9346 27.7617 14.9717 27.8672 15.0068C28.0859 15.0771 28.3066 15.1455 28.5293 15.2119C28.752 15.2744 28.9785 15.3506 29.209 15.4404C29.4082 15.5186 29.6016 15.6299 29.7891 15.7744C29.9766 15.9189 30.1133 16.1025 30.1992 16.3252C30.2852 16.5479 30.3281 16.8018 30.3281 17.0869C30.3281 17.4658 30.2148 17.8174 29.9883 18.1416C29.7617 18.4658 29.4629 18.6963 29.0918 18.833C28.7207 18.9697 28.2891 19.0381 27.7969 19.0381C27.2461 19.0381 26.7773 18.999 26.3906 18.9209C26.0039 18.8428 25.6738 18.7061 25.4004 18.5107ZM35.1914 15.8447C35.1914 14.8486 35.4473 14.0674 35.959 13.501C36.4746 12.9346 37.2402 12.6514 38.2559 12.6514C39.2715 12.6514 40.0352 12.9346 40.5469 13.501C41.0625 14.0674 41.3203 14.8486 41.3203 15.8447C41.3203 16.8408 41.0625 17.6221 40.5469 18.1885C40.0352 18.7549 39.2715 19.0381 38.2559 19.0381C37.2402 19.0381 36.4746 18.7549 35.959 18.1885C35.4473 17.6221 35.1914 16.8408 35.1914 15.8447ZM36.9258 15.8447C36.9258 16.5869 37.0391 17.1143 37.2656 17.4268C37.4961 17.7354 37.8262 17.8896 38.2559 17.8896C38.6855 17.8896 39.0137 17.7354 39.2402 17.4268C39.4707 17.1143 39.5859 16.5869 39.5859 15.8447C39.5859 15.1025 39.4707 14.5771 39.2402 14.2686C39.0137 13.9561 38.6855 13.7998 38.2559 13.7998C37.8262 13.7998 37.4961 13.9561 37.2656 14.2686C37.0391 14.5771 36.9258 15.1025 36.9258 15.8447ZM42.3809 13.9404C42.1504 13.9404 42.0352 13.8428 42.0352 13.6475V13.0615C42.0352 12.8662 42.1504 12.7686 42.3809 12.7686H42.709V11.9482C42.709 11.2295 42.9141 10.751 43.3242 10.5127C43.7344 10.2744 44.2227 10.1553 44.7891 10.1553C45.0586 10.1553 45.2891 10.1709 45.4805 10.2021C45.6758 10.2334 45.8477 10.2725 45.9961 10.3193C46.1367 10.3662 46.1875 10.4639 46.1484 10.6123L45.9727 11.2744C45.9375 11.4033 45.8477 11.4424 45.7031 11.3916C45.6172 11.3604 45.4961 11.3389 45.3398 11.3271C45.1875 11.3115 45.0664 11.3037 44.9766 11.3037C44.6914 11.3037 44.5156 11.4033 44.4492 11.6025C44.3828 11.8018 44.3496 12.1123 44.3496 12.5342V12.7686H45.123C45.3535 12.7686 45.4688 12.8662 45.4688 13.0615V13.6475C45.4688 13.8428 45.3535 13.9404 45.123 13.9404H44.3496V18.5693C44.3496 18.8037 44.2324 18.9209 43.998 18.9209H43.0605C42.8262 18.9209 42.709 18.8037 42.709 18.5693V13.9404H42.3809ZM50.4785 13.9404C50.248 13.9404 50.1328 13.8428 50.1328 13.6475V13.0615C50.1328 12.8662 50.248 12.7686 50.4785 12.7686H50.877V12.5635C50.877 12.3877 50.918 12.2275 51 12.083L51.4512 11.292C51.5371 11.1436 51.6387 11.0693 51.7559 11.0693H52.166C52.4004 11.0693 52.5176 11.1865 52.5176 11.4209V12.7686H53.4668C53.6973 12.7686 53.8125 12.8662 53.8125 13.0615V13.6475C53.8125 13.8428 53.6973 13.9404 53.4668 13.9404H52.5176V16.8467C52.5176 17.2451 52.5449 17.5322 52.5996 17.708C52.6582 17.8799 52.8066 17.9658 53.0449 17.9658C53.166 17.9658 53.3027 17.9463 53.4551 17.9072C53.6074 17.8643 53.7266 17.8232 53.8125 17.7842C53.9492 17.7217 54.0391 17.7666 54.082 17.9189L54.2578 18.5869C54.293 18.7197 54.2422 18.8174 54.1055 18.8799C53.9766 18.9385 53.7988 18.9912 53.5723 19.0381C53.3496 19.0889 53.125 19.1143 52.8984 19.1143C52.3398 19.1143 51.8633 18.999 51.4688 18.7686C51.0742 18.5381 50.877 18.0635 50.877 17.3447V13.9404H50.4785ZM55.7109 18.9209C55.4766 18.9209 55.3594 18.8037 55.3594 18.5693V13.1201C55.3594 12.8857 55.4766 12.7686 55.7109 12.7686H56.6367C56.8711 12.7686 56.9883 12.8857 56.9883 13.1201V13.6006H57.0117C57.1133 13.3506 57.2832 13.1299 57.5215 12.9385C57.7598 12.7471 58.041 12.6514 58.3652 12.6514C58.5879 12.6514 58.7715 12.6787 58.916 12.7334C59.0527 12.7842 59.1055 12.8779 59.0742 13.0146L58.9102 13.7119C58.875 13.8682 58.7695 13.915 58.5938 13.8525C58.4922 13.8174 58.3945 13.7998 58.3008 13.7998C57.9258 13.7998 57.6152 14.0244 57.3691 14.4736C57.123 14.9229 57 15.5771 57 16.4365V18.5693C57 18.8037 56.8828 18.9209 56.6484 18.9209H55.7109ZM60.3164 18.9209C60.082 18.9209 59.9648 18.8037 59.9648 18.5693V13.1201C59.9648 12.8857 60.082 12.7686 60.3164 12.7686H61.2539C61.4883 12.7686 61.6055 12.8857 61.6055 13.1201V18.5693C61.6055 18.8037 61.4883 18.9209 61.2539 18.9209H60.3164ZM60.3164 11.8662C60.082 11.8662 59.9648 11.749 59.9648 11.5146V10.7646C59.9648 10.5303 60.082 10.4131 60.3164 10.4131H61.2539C61.4883 10.4131 61.6055 10.5303 61.6055 10.7646V11.5146C61.6055 11.749 61.4883 11.8662 61.2539 11.8662H60.3164ZM62.8711 15.8447C62.8711 14.8486 63.1211 14.0674 63.6211 13.501C64.1211 12.9346 64.8887 12.6514 65.9238 12.6514C66.5293 12.6514 67 12.7314 67.3359 12.8916C67.6719 13.0518 67.9414 13.2861 68.1445 13.5947C68.2656 13.7783 68.2461 13.9229 68.0859 14.0283L67.4648 14.4385C67.2891 14.5557 67.1348 14.5107 67.002 14.3037C66.9355 14.2021 66.8086 14.0928 66.6211 13.9756C66.4336 13.8584 66.2012 13.7998 65.9238 13.7998C65.4824 13.7998 65.1523 13.9561 64.9336 14.2686C64.7148 14.5771 64.6055 15.1025 64.6055 15.8447C64.6055 16.5869 64.7148 17.1143 64.9336 17.4268C65.1523 17.7354 65.4824 17.8896 65.9238 17.8896C66.2402 17.8896 66.4961 17.8232 66.6914 17.6904C66.8867 17.5576 67.0703 17.3857 67.2422 17.1748C67.3906 16.9951 67.5469 16.9697 67.7109 17.0986L68.2559 17.5264C68.4199 17.6553 68.4297 17.8271 68.2852 18.042C68.1328 18.2686 67.873 18.4912 67.5059 18.71C67.1426 18.9287 66.6152 19.0381 65.9238 19.0381C64.8887 19.0381 64.1211 18.7549 63.6211 18.1885C63.1211 17.6221 62.8711 16.8408 62.8711 15.8447ZM69.9141 18.9209C69.6797 18.9209 69.5625 18.8037 69.5625 18.5693V10.624C69.5625 10.3896 69.6797 10.2725 69.9141 10.2725H70.8516C71.0859 10.2725 71.2031 10.3896 71.2031 10.624V14.9307C71.2031 15.0869 71.1953 15.2432 71.1797 15.3994H71.2031L73.0605 13.0088C73.1855 12.8486 73.3379 12.7686 73.5176 12.7686H74.4785C74.8379 12.7686 74.8984 12.9131 74.6602 13.2021L72.8906 15.3408L74.9414 18.4873C75.1289 18.7764 75.0684 18.9209 74.7598 18.9209H73.7578C73.5625 18.9209 73.4023 18.8193 73.2773 18.6162L71.9473 16.4775L71.2031 17.374V18.5693C71.2031 18.8037 71.0859 18.9209 70.8516 18.9209H69.9141ZM75.9785 18.5107C75.7871 18.374 75.7344 18.2275 75.8203 18.0713L76.1191 17.5264C76.2246 17.3311 76.3887 17.3076 76.6113 17.4561C76.834 17.6045 77.0957 17.7139 77.3965 17.7842C77.7012 17.8545 77.9785 17.8896 78.2285 17.8896C78.4043 17.8896 78.5684 17.8721 78.7207 17.8369C78.873 17.8018 79.002 17.7334 79.1074 17.6318C79.2129 17.5303 79.2656 17.3818 79.2656 17.1865C79.2656 17.0693 79.2344 16.9697 79.1719 16.8877C79.1094 16.8057 79.0293 16.7432 78.9316 16.7002C78.834 16.6572 78.7305 16.6221 78.6211 16.5947C78.4766 16.5596 78.2676 16.501 77.9941 16.4189C77.7246 16.3369 77.4648 16.2412 77.2148 16.1318C77.0078 16.042 76.8047 15.917 76.6055 15.7568C76.4102 15.5928 76.2656 15.4111 76.1719 15.2119C76.082 15.0127 76.0371 14.7666 76.0371 14.4736C76.0371 14.0791 76.1504 13.7334 76.377 13.4365C76.6074 13.1396 76.9043 12.9346 77.2676 12.8213C77.6309 12.708 78.084 12.6514 78.627 12.6514C78.9941 12.6514 79.3516 12.7041 79.6992 12.8096C80.0469 12.915 80.2949 13.0146 80.4434 13.1084C80.6777 13.2568 80.7363 13.415 80.6191 13.583L80.2617 14.1045C80.1523 14.2607 79.9766 14.2725 79.7344 14.1396C79.5508 14.0381 79.3691 13.9561 79.1895 13.8936C79.0137 13.8311 78.8164 13.7998 78.5977 13.7998C78.4492 13.7998 78.3066 13.8154 78.1699 13.8467C78.0332 13.8779 77.916 13.9365 77.8184 14.0225C77.7246 14.1084 77.6777 14.2217 77.6777 14.3623C77.6777 14.5107 77.7207 14.6279 77.8066 14.7139C77.8965 14.7959 77.998 14.8564 78.1113 14.8955C78.2285 14.9346 78.3398 14.9717 78.4453 15.0068C78.6641 15.0771 78.8848 15.1455 79.1074 15.2119C79.3301 15.2744 79.5566 15.3506 79.7871 15.4404C79.9863 15.5186 80.1797 15.6299 80.3672 15.7744C80.5547 15.9189 80.6914 16.1025 80.7773 16.3252C80.8633 16.5479 80.9062 16.8018 80.9062 17.0869C80.9062 17.4658 80.793 17.8174 80.5664 18.1416C80.3398 18.4658 80.041 18.6963 79.6699 18.833C79.2988 18.9697 78.8672 19.0381 78.375 19.0381C77.8242 19.0381 77.3555 18.999 76.9688 18.9209C76.582 18.8428 76.252 18.7061 75.9785 18.5107ZM81.3457 12.1357C81.1426 12.0068 81.1172 11.8076 81.2695 11.5381C81.4297 11.2568 81.7324 10.9834 82.1777 10.7178C82.623 10.4521 83.1855 10.3193 83.8652 10.3193C84.791 10.3193 85.4727 10.5283 85.9102 10.9463C86.3516 11.3643 86.5723 11.9365 86.5723 12.6631C86.5723 13.2139 86.248 13.8096 85.5996 14.4502C84.9551 15.0869 84.6328 15.6123 84.6328 16.0264V16.1201C84.6328 16.374 84.5059 16.501 84.252 16.501H83.373C83.1191 16.501 82.9922 16.374 82.9922 16.1201V15.9443C82.9922 15.3037 83.2949 14.667 83.9004 14.0342C84.5098 13.4014 84.8145 12.9326 84.8145 12.6279C84.8145 12.3115 84.7402 12.0674 84.5918 11.8955C84.4473 11.7197 84.1855 11.6318 83.8066 11.6318C83.4707 11.6318 83.1992 11.708 82.9922 11.8604C82.7852 12.0127 82.6152 12.1982 82.4824 12.417C82.3535 12.6318 82.1797 12.6689 81.9609 12.5283L81.3457 12.1357ZM83.3672 18.9209C83.0938 18.9209 82.957 18.7744 82.957 18.4814V17.6963C82.957 17.4033 83.0938 17.2568 83.3672 17.2568H84.2578C84.5312 17.2568 84.668 17.4033 84.668 17.6963V18.4814C84.668 18.7744 84.5312 18.9209 84.2578 18.9209H83.3672ZM88.0195 10.958C88.0117 10.665 88.1484 10.5186 88.4297 10.5186H89.3672C89.6484 10.5186 89.7852 10.665 89.7773 10.958L89.6191 16.0791C89.6113 16.333 89.4844 16.46 89.2383 16.46H88.5586C88.3125 16.46 88.1855 16.333 88.1777 16.0791L88.0195 10.958ZM88.4531 18.9209C88.1797 18.9209 88.043 18.7744 88.043 18.4814V17.6963C88.043 17.4033 88.1797 17.2568 88.4531 17.2568H89.3438C89.6172 17.2568 89.7539 17.4033 89.7539 17.6963V18.4814C89.7539 18.7744 89.6172 18.9209 89.3438 18.9209H88.4531Z" fill="#2C2C2C"/>
<path d="M8.01758 33.7941C7.84505 33.6379 7.79948 33.5011 7.88086 33.3839L8.13477 33.0177C8.22266 32.8908 8.36426 32.9006 8.55957 33.047C8.81673 33.2391 9.08366 33.397 9.36035 33.5207C9.6403 33.6444 9.97884 33.7062 10.376 33.7062C10.6689 33.7062 10.9163 33.6623 11.1182 33.5744C11.32 33.4865 11.4811 33.3612 11.6016 33.1984C11.7253 33.0324 11.7871 32.8322 11.7871 32.5978C11.7871 32.4285 11.7611 32.2723 11.709 32.1291C11.6602 31.9826 11.5804 31.8605 11.4697 31.7629C11.359 31.6652 11.2435 31.5887 11.123 31.5334C10.9245 31.4422 10.6266 31.3364 10.2295 31.216C9.83561 31.0955 9.49056 30.9653 9.19434 30.8254C8.90137 30.6854 8.66699 30.5161 8.49121 30.3175C8.31868 30.119 8.20312 29.9155 8.14453 29.7072C8.08919 29.4956 8.06152 29.2547 8.06152 28.9845C8.06152 28.5711 8.18197 28.2147 8.42285 27.9152C8.66374 27.6157 8.95833 27.4172 9.30664 27.3195C9.6582 27.2218 10.0146 27.173 10.376 27.173C10.7894 27.173 11.1491 27.2267 11.4551 27.3341C11.7611 27.4416 12.0345 27.5815 12.2754 27.7541C12.4447 27.8745 12.4837 28.0015 12.3926 28.1349L12.1436 28.4914C12.0687 28.5988 11.9222 28.576 11.7041 28.423C11.5381 28.3058 11.3346 28.1968 11.0938 28.0959C10.8561 27.9917 10.6201 27.9396 10.3857 27.9396C10.0863 27.9396 9.83724 27.9754 9.63867 28.047C9.4401 28.1154 9.28385 28.2326 9.16992 28.3986C9.05599 28.5646 8.99902 28.7567 8.99902 28.9748C8.99902 29.1115 9.01204 29.2384 9.03809 29.3556C9.06413 29.4696 9.13086 29.5867 9.23828 29.7072C9.3457 29.8276 9.47591 29.9204 9.62891 29.9855C9.83398 30.0734 10.1514 30.1776 10.5811 30.298C11.014 30.4152 11.3916 30.5601 11.7139 30.7326C12.0133 30.8921 12.2282 31.0597 12.3584 31.2355C12.4919 31.408 12.5944 31.5968 12.666 31.8019C12.7409 32.0037 12.7783 32.2316 12.7783 32.4855C12.7783 32.9478 12.6595 33.3335 12.4219 33.6427C12.1842 33.952 11.9027 34.1668 11.5771 34.2873C11.2516 34.4077 10.8431 34.4679 10.3516 34.4679C9.76237 34.4679 9.27409 34.3996 8.88672 34.2629C8.49935 34.1261 8.20964 33.9699 8.01758 33.7941ZM14.9316 27.9103C14.9316 27.6662 15.0163 27.4595 15.1855 27.2902C15.3581 27.1177 15.5664 27.0314 15.8105 27.0314C16.0547 27.0314 16.2614 27.1177 16.4307 27.2902C16.6032 27.4595 16.6895 27.6662 16.6895 27.9103C16.6895 28.1545 16.6032 28.3628 16.4307 28.5353C16.2614 28.7046 16.0547 28.7892 15.8105 28.7892C15.5664 28.7892 15.3581 28.7046 15.1855 28.5353C15.0163 28.3628 14.9316 28.1545 14.9316 27.9103ZM15.3027 27.9103C15.3027 28.0535 15.3516 28.174 15.4492 28.2716C15.5469 28.3693 15.6673 28.4181 15.8105 28.4181C15.9538 28.4181 16.0742 28.3693 16.1719 28.2716C16.2695 28.174 16.3184 28.0535 16.3184 27.9103C16.3184 27.7671 16.2695 27.6466 16.1719 27.549C16.0742 27.4513 15.9538 27.4025 15.8105 27.4025C15.6673 27.4025 15.5469 27.4513 15.4492 27.549C15.3516 27.6466 15.3027 27.7671 15.3027 27.9103ZM13.5986 32.9543C13.5986 32.3748 13.8688 31.95 14.4092 31.6798C14.9528 31.4097 15.7633 31.2518 16.8408 31.2062V30.8742C16.8408 30.5682 16.7708 30.3045 16.6309 30.0832C16.4941 29.8586 16.2207 29.7463 15.8105 29.7463C15.5501 29.7463 15.3418 29.7723 15.1855 29.8244C15.0293 29.8732 14.8861 29.9399 14.7559 30.0246C14.6289 30.106 14.5068 30.2117 14.3896 30.342C14.3018 30.4396 14.2188 30.4445 14.1406 30.3566L13.8867 30.0636C13.8151 29.9823 13.8395 29.8846 13.96 29.7707C14.1325 29.6079 14.3001 29.4858 14.4629 29.4045C14.6257 29.3231 14.8275 29.2547 15.0684 29.1994C15.3125 29.1408 15.5599 29.1115 15.8105 29.1115C16.4909 29.1115 16.9759 29.2873 17.2656 29.6388C17.5553 29.9871 17.7002 30.4657 17.7002 31.0744V34.1017C17.7002 34.2482 17.627 34.3214 17.4805 34.3214H17.041C16.9141 34.3214 16.8506 34.2482 16.8506 34.1017V33.8625H16.8408C16.5837 34.0643 16.3314 34.2059 16.084 34.2873C15.8398 34.3654 15.5664 34.4045 15.2637 34.4045C14.7298 34.4045 14.318 34.2775 14.0283 34.0236C13.7419 33.7664 13.5986 33.41 13.5986 32.9543ZM14.4873 32.9738C14.4873 33.1756 14.5296 33.3384 14.6143 33.4621C14.6989 33.5825 14.8161 33.6606 14.9658 33.6964C15.1156 33.729 15.2718 33.7453 15.4346 33.7453C15.6852 33.7453 15.9229 33.7209 16.1475 33.672C16.3721 33.6232 16.6032 33.4946 16.8408 33.2863V31.8459C16.1833 31.8947 15.7145 31.9549 15.4346 32.0265C15.1546 32.0949 14.9268 32.2153 14.751 32.3879C14.5752 32.5571 14.4873 32.7524 14.4873 32.9738ZM22.6416 34.3214C22.4951 34.3214 22.4219 34.2482 22.4219 34.1017V27.3341C22.4219 27.1877 22.4951 27.1144 22.6416 27.1144H23.0615C23.208 27.1144 23.2812 27.1877 23.2812 27.3341V31.3966C23.2812 31.4943 23.278 31.592 23.2715 31.6896H23.2812L25.2588 29.3214C25.3304 29.2368 25.4167 29.1945 25.5176 29.1945H25.9619C26.2093 29.1945 26.2516 29.2905 26.0889 29.4826L24.5557 31.3088L26.3086 34.0334C26.4323 34.2254 26.39 34.3214 26.1816 34.3214H25.7031C25.5957 34.3214 25.5029 34.2612 25.4248 34.1408L24.0186 31.9484L23.2812 32.8273V34.1017C23.2812 34.2482 23.208 34.3214 23.0615 34.3214H22.6416ZM27.0459 32.9543C27.0459 32.3748 27.3161 31.95 27.8564 31.6798C28.4001 31.4097 29.2106 31.2518 30.2881 31.2062V30.8742C30.2881 30.5682 30.2181 30.3045 30.0781 30.0832C29.9414 29.8586 29.668 29.7463 29.2578 29.7463C28.9974 29.7463 28.7891 29.7723 28.6328 29.8244C28.4766 29.8732 28.3333 29.9399 28.2031 30.0246C28.0762 30.106 27.9541 30.2117 27.8369 30.342C27.749 30.4396 27.666 30.4445 27.5879 30.3566L27.334 30.0636C27.2624 29.9823 27.2868 29.8846 27.4072 29.7707C27.5798 29.6079 27.7474 29.4858 27.9102 29.4045C28.0729 29.3231 28.2747 29.2547 28.5156 29.1994C28.7598 29.1408 29.0072 29.1115 29.2578 29.1115C29.9382 29.1115 30.4232 29.2873 30.7129 29.6388C31.0026 29.9871 31.1475 30.4657 31.1475 31.0744V34.1017C31.1475 34.2482 31.0742 34.3214 30.9277 34.3214H30.4883C30.3613 34.3214 30.2979 34.2482 30.2979 34.1017V33.8625H30.2881C30.0309 34.0643 29.7786 34.2059 29.5312 34.2873C29.2871 34.3654 29.0137 34.4045 28.7109 34.4045C28.1771 34.4045 27.7653 34.2775 27.4756 34.0236C27.1891 33.7664 27.0459 33.41 27.0459 32.9543ZM27.9346 32.9738C27.9346 33.1756 27.9769 33.3384 28.0615 33.4621C28.1462 33.5825 28.2633 33.6606 28.4131 33.6964C28.5628 33.729 28.7191 33.7453 28.8818 33.7453C29.1325 33.7453 29.3701 33.7209 29.5947 33.672C29.8193 33.6232 30.0505 33.4946 30.2881 33.2863V31.8459C29.6305 31.8947 29.1618 31.9549 28.8818 32.0265C28.6019 32.0949 28.374 32.2153 28.1982 32.3879C28.0225 32.5571 27.9346 32.7524 27.9346 32.9738ZM32.7588 34.3214C32.6123 34.3214 32.5391 34.2482 32.5391 34.1017V29.4142C32.5391 29.2677 32.6123 29.1945 32.7588 29.1945H33.1689C33.3154 29.1945 33.3887 29.2677 33.3887 29.4142V29.8048H33.4082C33.6198 29.5705 33.8477 29.3963 34.0918 29.2824C34.3359 29.1685 34.6403 29.1115 35.0049 29.1115C35.5973 29.1115 36.0221 29.2791 36.2793 29.6144C36.5397 29.9464 36.6699 30.4022 36.6699 30.9816V34.1017C36.6699 34.2482 36.5967 34.3214 36.4502 34.3214H36.0303C35.8838 34.3214 35.8105 34.2482 35.8105 34.1017V31.216C35.8105 30.578 35.7048 30.1743 35.4932 30.005C35.2816 29.8325 35.013 29.7463 34.6875 29.7463C34.2643 29.7463 33.9437 29.8732 33.7256 30.1271C33.5075 30.3778 33.3984 30.8091 33.3984 31.4211V34.1017C33.3984 34.2482 33.3252 34.3214 33.1787 34.3214H32.7588ZM40.293 36.2599C40.2214 36.2274 40.1921 36.1753 40.2051 36.1037L40.2881 35.7082C40.3044 35.63 40.3451 35.6056 40.4102 35.6349C40.5371 35.6935 40.6934 35.7228 40.8789 35.7228C41.071 35.7228 41.2093 35.6284 41.2939 35.4396C41.3818 35.2508 41.4258 34.8683 41.4258 34.2922V29.4142C41.4258 29.2677 41.499 29.1945 41.6455 29.1945H42.0654C42.2119 29.1945 42.2852 29.2677 42.2852 29.4142V34.7756C42.2852 35.4071 42.1647 35.8286 41.9238 36.0402C41.6862 36.2518 41.39 36.3576 41.0352 36.3576C40.6901 36.3576 40.4427 36.325 40.293 36.2599ZM41.6455 28.2668C41.499 28.2668 41.4258 28.1935 41.4258 28.047V27.6271C41.4258 27.4806 41.499 27.4074 41.6455 27.4074H42.0654C42.2119 27.4074 42.2852 27.4806 42.2852 27.6271V28.047C42.2852 28.1935 42.2119 28.2668 42.0654 28.2668H41.6455ZM43.374 31.758C43.374 30.9507 43.5758 30.3078 43.9795 29.8293C44.3831 29.3507 44.9609 29.1115 45.7129 29.1115C46.3379 29.1115 46.8555 29.3312 47.2656 29.7707C47.679 30.2069 47.8857 30.9051 47.8857 31.8654C47.8857 32.0119 47.819 32.0851 47.6855 32.0851H44.2822C44.3376 32.7134 44.5068 33.1512 44.79 33.3986C45.0732 33.6427 45.3939 33.7648 45.752 33.7648C46.1296 33.7648 46.4193 33.7013 46.6211 33.5744C46.8229 33.4474 46.971 33.3221 47.0654 33.1984C47.1696 33.0617 47.2705 33.0356 47.3682 33.1203L47.6562 33.3693C47.7311 33.4344 47.7311 33.5239 47.6562 33.6379C47.5944 33.7323 47.417 33.8836 47.124 34.092C46.8343 34.3003 46.377 34.4045 45.752 34.4045C44.9382 34.4045 44.3376 34.1652 43.9502 33.6867C43.5661 33.2082 43.374 32.5653 43.374 31.758ZM44.2627 31.4504H47.0215C47.0085 30.9946 46.8913 30.5959 46.6699 30.2541C46.4486 29.909 46.123 29.7365 45.6934 29.7365C45.3158 29.7365 44.9951 29.8634 44.7314 30.1173C44.4678 30.368 44.3115 30.8123 44.2627 31.4504ZM48.7354 31.758C48.7354 31.0581 48.9046 30.4429 49.2432 29.9123C49.5817 29.3784 50.0765 29.1115 50.7275 29.1115C51.1019 29.1115 51.4014 29.1733 51.626 29.297C51.8506 29.4207 52.0524 29.59 52.2314 29.8048H52.2412L52.2705 29.4142C52.2803 29.2677 52.3438 29.1945 52.4609 29.1945H52.8711C53.0176 29.1945 53.0908 29.2677 53.0908 29.4142V34.3605C53.0908 34.9855 52.946 35.4738 52.6562 35.8254C52.3698 36.1802 51.8018 36.3576 50.9521 36.3576C50.3825 36.3576 49.9561 36.2925 49.6729 36.1623C49.3896 36.0353 49.1878 35.9002 49.0674 35.757C48.9795 35.6496 48.9746 35.5584 49.0527 35.4836L49.3213 35.2199C49.3962 35.1483 49.5003 35.1711 49.6338 35.2882C49.8063 35.4445 49.9723 35.5552 50.1318 35.6203C50.2913 35.6886 50.5664 35.7228 50.957 35.7228C51.3997 35.7228 51.722 35.6284 51.9238 35.4396C52.1289 35.2508 52.2314 34.8602 52.2314 34.2677V33.9748C52.2314 33.8739 52.2347 33.7746 52.2412 33.6769H52.2314C52.0622 33.9015 51.862 34.0789 51.6309 34.2091C51.403 34.3394 51.1019 34.4045 50.7275 34.4045C50.0765 34.4045 49.5817 34.1392 49.2432 33.6086C48.9046 33.0747 48.7354 32.4578 48.7354 31.758ZM49.6436 31.758C49.6436 32.3569 49.7461 32.842 49.9512 33.2131C50.1595 33.5841 50.5111 33.7697 51.0059 33.7697C51.3574 33.7697 51.6488 33.6509 51.8799 33.4132C52.1143 33.1724 52.2314 32.8078 52.2314 32.3195V31.1964C52.2314 30.7082 52.1143 30.3452 51.8799 30.1076C51.6488 29.8667 51.3574 29.7463 51.0059 29.7463C50.5111 29.7463 50.1595 29.9318 49.9512 30.3029C49.7461 30.674 49.6436 31.159 49.6436 31.758ZM58.0322 34.3214C57.8857 34.3214 57.8125 34.2482 57.8125 34.1017V28.008C57.8125 27.9429 57.8288 27.881 57.8613 27.8224L58.2031 27.2023C58.265 27.0884 58.3154 27.0314 58.3545 27.0314H58.5254C58.623 27.0314 58.6719 27.0884 58.6719 27.2023V34.1017C58.6719 34.2482 58.5986 34.3214 58.4521 34.3214H58.0322ZM59.7803 32.9543C59.7803 32.3748 60.0472 31.95 60.5811 31.6798C61.1149 31.4097 61.9124 31.2518 62.9736 31.2062V30.8742C62.9736 30.5682 62.9036 30.3045 62.7637 30.0832C62.627 29.8586 62.3617 29.7463 61.9678 29.7463C61.6683 29.7463 61.4404 29.7788 61.2842 29.8439C61.1312 29.9058 61.0026 29.9725 60.8984 30.0441C60.7943 30.1157 60.6852 30.215 60.5713 30.342C60.4834 30.4396 60.4004 30.4445 60.3223 30.3566L60.0684 30.0636C59.9967 29.9823 60.0212 29.8846 60.1416 29.7707C60.2881 29.6307 60.4411 29.52 60.6006 29.4386C60.7601 29.354 60.9684 29.2791 61.2256 29.214C61.486 29.1457 61.7334 29.1115 61.9678 29.1115C62.2965 29.1115 62.5977 29.1603 62.8711 29.258C63.1478 29.3556 63.3691 29.5575 63.5352 29.8634H63.5498C63.807 29.5542 64.0788 29.3524 64.3652 29.258C64.6549 29.1603 64.9463 29.1115 65.2393 29.1115C65.8447 29.1115 66.3509 29.3312 66.7578 29.7707C67.168 30.2069 67.373 30.9051 67.373 31.8654C67.373 32.0119 67.3063 32.0851 67.1729 32.0851H63.8525C63.9046 32.7134 64.0674 33.1512 64.3408 33.3986C64.6175 33.6427 64.93 33.7648 65.2783 33.7648C65.6429 33.7648 65.9229 33.7013 66.1182 33.5744C66.3167 33.4474 66.4616 33.3221 66.5527 33.1984C66.6569 33.0617 66.7578 33.0356 66.8555 33.1203L67.1436 33.3693C67.2184 33.4344 67.2184 33.5239 67.1436 33.6379C67.0817 33.7323 66.9059 33.8836 66.6162 34.092C66.3298 34.3003 65.8838 34.4045 65.2783 34.4045C64.8682 34.4045 64.5166 34.3426 64.2236 34.2189C63.9307 34.0952 63.667 33.8755 63.4326 33.5597H63.4229C63.055 33.8722 62.7116 34.092 62.3926 34.2189C62.0736 34.3426 61.7497 34.4045 61.4209 34.4045C60.9033 34.4045 60.4997 34.2775 60.21 34.0236C59.9235 33.7664 59.7803 33.41 59.7803 32.9543ZM60.6689 32.9738C60.6689 33.1431 60.695 33.2814 60.7471 33.3888C60.8024 33.493 60.8887 33.5793 61.0059 33.6476C61.1263 33.7127 61.3216 33.7453 61.5918 33.7453C61.9043 33.7453 62.1696 33.7062 62.3877 33.6281C62.6058 33.55 62.8337 33.4019 63.0713 33.1838C63.0062 32.7541 62.9736 32.3081 62.9736 31.8459C62.3226 31.8947 61.8538 31.9598 61.5674 32.0412C61.2842 32.1193 61.0628 32.2446 60.9033 32.4172C60.7471 32.5864 60.6689 32.772 60.6689 32.9738ZM63.833 31.4504H66.5088C66.4958 30.9946 66.3818 30.5959 66.167 30.2541C65.9521 29.909 65.6364 29.7365 65.2197 29.7365C64.8551 29.7365 64.5443 29.8634 64.2871 30.1173C64.0332 30.368 63.8818 30.8123 63.833 31.4504ZM68.7256 34.3214C68.5791 34.3214 68.5059 34.2482 68.5059 34.1017V29.4142C68.5059 29.2677 68.5791 29.1945 68.7256 29.1945H69.1357C69.2822 29.1945 69.3555 29.2677 69.3555 29.4142V30.0002H69.375C69.5312 29.7072 69.7152 29.4858 69.9268 29.3361C70.1383 29.1864 70.402 29.1115 70.7178 29.1115C70.9261 29.1115 71.0726 29.1294 71.1572 29.1652C71.2321 29.1945 71.2598 29.2433 71.2402 29.3117L71.1279 29.7121C71.1117 29.7707 71.0693 29.7935 71.001 29.7804C70.887 29.7576 70.7796 29.7463 70.6787 29.7463C70.2979 29.7463 69.9837 29.9188 69.7363 30.2638C69.4889 30.6056 69.3652 31.0728 69.3652 31.6652V34.1017C69.3652 34.2482 69.292 34.3214 69.1455 34.3214H68.7256ZM71.7529 31.758C71.7529 30.9507 71.9548 30.3078 72.3584 29.8293C72.762 29.3507 73.3398 29.1115 74.0918 29.1115C74.7168 29.1115 75.2344 29.3312 75.6445 29.7707C76.0579 30.2069 76.2646 30.9051 76.2646 31.8654C76.2646 32.0119 76.1979 32.0851 76.0645 32.0851H72.6611C72.7165 32.7134 72.8857 33.1512 73.1689 33.3986C73.4521 33.6427 73.7728 33.7648 74.1309 33.7648C74.5085 33.7648 74.7982 33.7013 75 33.5744C75.2018 33.4474 75.3499 33.3221 75.4443 33.1984C75.5485 33.0617 75.6494 33.0356 75.7471 33.1203L76.0352 33.3693C76.11 33.4344 76.11 33.5239 76.0352 33.6379C75.9733 33.7323 75.7959 33.8836 75.5029 34.092C75.2132 34.3003 74.7559 34.4045 74.1309 34.4045C73.3171 34.4045 72.7165 34.1652 72.3291 33.6867C71.945 33.2082 71.7529 32.5653 71.7529 31.758ZM72.6416 31.4504H75.4004C75.3874 30.9946 75.2702 30.5959 75.0488 30.2541C74.8275 29.909 74.502 29.7365 74.0723 29.7365C73.6947 29.7365 73.374 29.8634 73.1104 30.1173C72.8467 30.368 72.6904 30.8123 72.6416 31.4504ZM8.12012 48.3214C7.97363 48.3214 7.90039 48.2482 7.90039 48.1017V41.3341C7.90039 41.1877 7.97363 41.1144 8.12012 41.1144H8.54004C8.68652 41.1144 8.75977 41.1877 8.75977 41.3341V43.5119C8.75977 43.6095 8.75651 43.7072 8.75 43.8048H8.76953C8.98112 43.5705 9.20898 43.3963 9.45312 43.2824C9.69727 43.1685 10.0016 43.1115 10.3662 43.1115C10.9587 43.1115 11.3835 43.2791 11.6406 43.6144C11.901 43.9464 12.0312 44.4022 12.0312 44.9816V48.1017C12.0312 48.2482 11.958 48.3214 11.8115 48.3214H11.3916C11.2451 48.3214 11.1719 48.2482 11.1719 48.1017V45.216C11.1719 44.578 11.0661 44.1743 10.8545 44.005C10.6429 43.8325 10.3743 43.7463 10.0488 43.7463C9.62565 43.7463 9.30501 43.8732 9.08691 44.1271C8.86882 44.3778 8.75977 44.8091 8.75977 45.4211V48.1017C8.75977 48.2482 8.68652 48.3214 8.54004 48.3214H8.12012ZM13.0176 43.4338C12.9622 43.2742 13.0062 43.1945 13.1494 43.1945H13.6816C13.7858 43.1945 13.859 43.258 13.9014 43.3849L14.9365 46.6076C15.0212 46.8713 15.0781 47.0535 15.1074 47.1545C15.14 47.2521 15.1693 47.3742 15.1953 47.5207H15.2148C15.2409 47.3742 15.2686 47.2521 15.2979 47.1545C15.3304 47.0535 15.389 46.8713 15.4736 46.6076L16.5088 43.3849C16.5511 43.258 16.6243 43.1945 16.7285 43.1945H17.2607C17.404 43.1945 17.4479 43.2742 17.3926 43.4338L15.791 48.0236C15.7227 48.2222 15.6348 48.3214 15.5273 48.3214H14.8828C14.7754 48.3214 14.6875 48.2222 14.6191 48.0236L13.0176 43.4338ZM17.9443 45.758C17.9443 44.993 18.1462 44.3615 18.5498 43.8634C18.9567 43.3621 19.5508 43.1115 20.332 43.1115C21.1133 43.1115 21.7057 43.3621 22.1094 43.8634C22.5163 44.3615 22.7197 44.993 22.7197 45.758C22.7197 46.5229 22.5163 47.1561 22.1094 47.6574C21.7057 48.1554 21.1133 48.4045 20.332 48.4045C19.5508 48.4045 18.9567 48.1554 18.5498 47.6574C18.1462 47.1561 17.9443 46.5229 17.9443 45.758ZM18.8525 45.758C18.8525 46.4416 18.9876 46.9478 19.2578 47.2765C19.528 47.6053 19.8861 47.7697 20.332 47.7697C20.778 47.7697 21.1361 47.6053 21.4062 47.2765C21.6764 46.9478 21.8115 46.4416 21.8115 45.758C21.8115 45.0744 21.6764 44.5682 21.4062 44.2394C21.1361 43.9106 20.778 43.7463 20.332 43.7463C19.8861 43.7463 19.528 43.9106 19.2578 44.2394C18.9876 44.5682 18.8525 45.0744 18.8525 45.758ZM24.0479 48.3214C23.9014 48.3214 23.8281 48.2482 23.8281 48.1017V43.4142C23.8281 43.2677 23.9014 43.1945 24.0479 43.1945H24.458C24.6045 43.1945 24.6777 43.2677 24.6777 43.4142V44.0002H24.6973C24.8535 43.7072 25.0374 43.4858 25.249 43.3361C25.4606 43.1864 25.7243 43.1115 26.04 43.1115C26.2484 43.1115 26.3949 43.1294 26.4795 43.1652C26.5544 43.1945 26.582 43.2433 26.5625 43.3117L26.4502 43.7121C26.4339 43.7707 26.3916 43.7935 26.3232 43.7804C26.2093 43.7576 26.1019 43.7463 26.001 43.7463C25.6201 43.7463 25.306 43.9188 25.0586 44.2638C24.8112 44.6056 24.6875 45.0728 24.6875 45.6652V48.1017C24.6875 48.2482 24.6143 48.3214 24.4678 48.3214H24.0479ZM27.0752 45.758C27.0752 45.0581 27.2445 44.4429 27.583 43.9123C27.9215 43.3784 28.4163 43.1115 29.0674 43.1115C29.4417 43.1115 29.7412 43.1733 29.9658 43.297C30.1904 43.4207 30.3923 43.59 30.5713 43.8048H30.5811C30.5745 43.7072 30.5713 43.6079 30.5713 43.507V41.3341C30.5713 41.1877 30.6445 41.1144 30.791 41.1144H31.2109C31.3574 41.1144 31.4307 41.1877 31.4307 41.3341V48.1017C31.4307 48.2482 31.3574 48.3214 31.2109 48.3214H30.8008C30.6836 48.3214 30.6201 48.2482 30.6104 48.1017L30.5811 47.7111H30.5713C30.3923 47.9259 30.1904 48.0952 29.9658 48.2189C29.7412 48.3426 29.4417 48.4045 29.0674 48.4045C28.4163 48.4045 27.9215 48.1392 27.583 47.6086C27.2445 47.0747 27.0752 46.4578 27.0752 45.758ZM27.9834 45.758C27.9834 46.3569 28.0859 46.842 28.291 47.2131C28.4993 47.5841 28.8509 47.7697 29.3457 47.7697C29.6973 47.7697 29.9886 47.6509 30.2197 47.4132C30.4541 47.1724 30.5713 46.8078 30.5713 46.3195V45.1964C30.5713 44.7082 30.4541 44.3452 30.2197 44.1076C29.9886 43.8667 29.6973 43.7463 29.3457 43.7463C28.8509 43.7463 28.4993 43.9318 28.291 44.3029C28.0859 44.674 27.9834 45.159 27.9834 45.758ZM32.5439 46.9543C32.5439 46.3748 32.8141 45.95 33.3545 45.6798C33.8981 45.4097 34.7087 45.2518 35.7861 45.2062V44.8742C35.7861 44.5682 35.7161 44.3045 35.5762 44.0832C35.4395 43.8586 35.166 43.7463 34.7559 43.7463C34.4954 43.7463 34.2871 43.7723 34.1309 43.8244C33.9746 43.8732 33.8314 43.9399 33.7012 44.0246C33.5742 44.106 33.4521 44.2117 33.335 44.342C33.2471 44.4396 33.1641 44.4445 33.0859 44.3566L32.832 44.0636C32.7604 43.9823 32.7848 43.8846 32.9053 43.7707C33.0778 43.6079 33.2454 43.4858 33.4082 43.4045C33.571 43.3231 33.7728 43.2547 34.0137 43.1994C34.2578 43.1408 34.5052 43.1115 34.7559 43.1115C35.4362 43.1115 35.9212 43.2873 36.2109 43.6388C36.5007 43.9871 36.6455 44.4657 36.6455 45.0744V48.1017C36.6455 48.2482 36.5723 48.3214 36.4258 48.3214H35.9863C35.8594 48.3214 35.7959 48.2482 35.7959 48.1017V47.8625H35.7861C35.529 48.0643 35.2767 48.2059 35.0293 48.2873C34.7852 48.3654 34.5117 48.4045 34.209 48.4045C33.6751 48.4045 33.2633 48.2775 32.9736 48.0236C32.6872 47.7664 32.5439 47.41 32.5439 46.9543ZM33.4326 46.9738C33.4326 47.1756 33.4749 47.3384 33.5596 47.4621C33.6442 47.5825 33.7614 47.6606 33.9111 47.6964C34.0609 47.729 34.2171 47.7453 34.3799 47.7453C34.6305 47.7453 34.8682 47.7209 35.0928 47.672C35.3174 47.6232 35.5485 47.4946 35.7861 47.2863V45.8459C35.1286 45.8947 34.6598 45.9549 34.3799 46.0265C34.0999 46.0949 33.8721 46.2153 33.6963 46.3879C33.5205 46.5571 33.4326 46.7524 33.4326 46.9738ZM38.2568 48.3214C38.1104 48.3214 38.0371 48.2482 38.0371 48.1017V43.4142C38.0371 43.2677 38.1104 43.1945 38.2568 43.1945H38.667C38.8135 43.1945 38.8867 43.2677 38.8867 43.4142V43.8048H38.9062C39.1178 43.5705 39.3457 43.3963 39.5898 43.2824C39.834 43.1685 40.1383 43.1115 40.5029 43.1115C41.0954 43.1115 41.5202 43.2791 41.7773 43.6144C42.0378 43.9464 42.168 44.4022 42.168 44.9816V48.1017C42.168 48.2482 42.0947 48.3214 41.9482 48.3214H41.5283C41.3818 48.3214 41.3086 48.2482 41.3086 48.1017V45.216C41.3086 44.578 41.2028 44.1743 40.9912 44.005C40.7796 43.8325 40.5111 43.7463 40.1855 43.7463C39.7624 43.7463 39.4417 43.8732 39.2236 44.1271C39.0055 44.3778 38.8965 44.8091 38.8965 45.4211V48.1017C38.8965 48.2482 38.8232 48.3214 38.6768 48.3214H38.2568ZM45.791 50.2599C45.7194 50.2274 45.6901 50.1753 45.7031 50.1037L45.7861 49.7082C45.8024 49.63 45.8431 49.6056 45.9082 49.6349C46.0352 49.6935 46.1914 49.7228 46.377 49.7228C46.569 49.7228 46.7074 49.6284 46.792 49.4396C46.8799 49.2508 46.9238 48.8683 46.9238 48.2922V43.4142C46.9238 43.2677 46.9971 43.1945 47.1436 43.1945H47.5635C47.71 43.1945 47.7832 43.2677 47.7832 43.4142V48.7756C47.7832 49.4071 47.6628 49.8286 47.4219 50.0402C47.1842 50.2518 46.888 50.3576 46.5332 50.3576C46.1882 50.3576 45.9408 50.325 45.791 50.2599ZM47.1436 42.2668C46.9971 42.2668 46.9238 42.1935 46.9238 42.047V41.6271C46.9238 41.4806 46.9971 41.4074 47.1436 41.4074H47.5635C47.71 41.4074 47.7832 41.4806 47.7832 41.6271V42.047C47.7832 42.1935 47.71 42.2668 47.5635 42.2668H47.1436ZM48.8721 45.758C48.8721 44.9507 49.0739 44.3078 49.4775 43.8293C49.8812 43.3507 50.459 43.1115 51.2109 43.1115C51.8359 43.1115 52.3535 43.3312 52.7637 43.7707C53.1771 44.2069 53.3838 44.9051 53.3838 45.8654C53.3838 46.0119 53.3171 46.0851 53.1836 46.0851H49.7803C49.8356 46.7134 50.0049 47.1512 50.2881 47.3986C50.5713 47.6427 50.8919 47.7648 51.25 47.7648C51.6276 47.7648 51.9173 47.7013 52.1191 47.5744C52.321 47.4474 52.4691 47.3221 52.5635 47.1984C52.6676 47.0617 52.7686 47.0356 52.8662 47.1203L53.1543 47.3693C53.2292 47.4344 53.2292 47.5239 53.1543 47.6379C53.0924 47.7323 52.915 47.8836 52.6221 48.092C52.3324 48.3003 51.875 48.4045 51.25 48.4045C50.4362 48.4045 49.8356 48.1652 49.4482 47.6867C49.0641 47.2082 48.8721 46.5653 48.8721 45.758ZM49.7607 45.4504H52.5195C52.5065 44.9946 52.3893 44.5959 52.168 44.2541C51.9466 43.909 51.6211 43.7365 51.1914 43.7365C50.8138 43.7365 50.4932 43.8634 50.2295 44.1173C49.9658 44.368 49.8096 44.8123 49.7607 45.4504ZM54.2334 45.758C54.2334 45.0581 54.4027 44.4429 54.7412 43.9123C55.0798 43.3784 55.5745 43.1115 56.2256 43.1115C56.5999 43.1115 56.8994 43.1733 57.124 43.297C57.3486 43.4207 57.5505 43.59 57.7295 43.8048H57.7393L57.7686 43.4142C57.7783 43.2677 57.8418 43.1945 57.959 43.1945H58.3691C58.5156 43.1945 58.5889 43.2677 58.5889 43.4142V48.3605C58.5889 48.9855 58.444 49.4738 58.1543 49.8254C57.8678 50.1802 57.2998 50.3576 56.4502 50.3576C55.8805 50.3576 55.4541 50.2925 55.1709 50.1623C54.8877 50.0353 54.6859 49.9002 54.5654 49.757C54.4775 49.6496 54.4727 49.5584 54.5508 49.4836L54.8193 49.2199C54.8942 49.1483 54.9984 49.1711 55.1318 49.2882C55.3044 49.4445 55.4704 49.5552 55.6299 49.6203C55.7894 49.6886 56.0645 49.7228 56.4551 49.7228C56.8978 49.7228 57.2201 49.6284 57.4219 49.4396C57.627 49.2508 57.7295 48.8602 57.7295 48.2677V47.9748C57.7295 47.8739 57.7327 47.7746 57.7393 47.6769H57.7295C57.5602 47.9015 57.36 48.0789 57.1289 48.2091C56.901 48.3394 56.5999 48.4045 56.2256 48.4045C55.5745 48.4045 55.0798 48.1392 54.7412 47.6086C54.4027 47.0747 54.2334 46.4578 54.2334 45.758ZM55.1416 45.758C55.1416 46.3569 55.2441 46.842 55.4492 47.2131C55.6576 47.5841 56.0091 47.7697 56.5039 47.7697C56.8555 47.7697 57.1468 47.6509 57.3779 47.4132C57.6123 47.1724 57.7295 46.8078 57.7295 46.3195V45.1964C57.7295 44.7082 57.6123 44.3452 57.3779 44.1076C57.1468 43.8667 56.8555 43.7463 56.5039 43.7463C56.0091 43.7463 55.6576 43.9318 55.4492 44.3029C55.2441 44.674 55.1416 45.159 55.1416 45.758ZM63.0322 45.758C63.0322 44.993 63.234 44.3615 63.6377 43.8634C64.0446 43.3621 64.6387 43.1115 65.4199 43.1115C66.2012 43.1115 66.7936 43.3621 67.1973 43.8634C67.6042 44.3615 67.8076 44.993 67.8076 45.758C67.8076 46.5229 67.6042 47.1561 67.1973 47.6574C66.7936 48.1554 66.2012 48.4045 65.4199 48.4045C64.6387 48.4045 64.0446 48.1554 63.6377 47.6574C63.234 47.1561 63.0322 46.5229 63.0322 45.758ZM63.9404 45.758C63.9404 46.4416 64.0755 46.9478 64.3457 47.2765C64.6159 47.6053 64.974 47.7697 65.4199 47.7697C65.8659 47.7697 66.224 47.6053 66.4941 47.2765C66.7643 46.9478 66.8994 46.4416 66.8994 45.758C66.8994 45.0744 66.7643 44.5682 66.4941 44.2394C66.224 43.9106 65.8659 43.7463 65.4199 43.7463C64.974 43.7463 64.6159 43.9106 64.3457 44.2394C64.0755 44.5682 63.9404 45.0744 63.9404 45.758ZM69.1357 50.2746C68.9893 50.2746 68.916 50.2013 68.916 50.0548V43.4142C68.916 43.2677 68.9893 43.1945 69.1357 43.1945H69.5459C69.6631 43.1945 69.7266 43.2677 69.7363 43.4142L69.7656 43.8048H69.7754C69.9544 43.59 70.1562 43.4207 70.3809 43.297C70.6055 43.1733 70.9049 43.1115 71.2793 43.1115C71.9303 43.1115 72.4251 43.3784 72.7637 43.9123C73.1022 44.4429 73.2715 45.0581 73.2715 45.758C73.2715 46.4578 73.1022 47.0747 72.7637 47.6086C72.4251 48.1392 71.9303 48.4045 71.2793 48.4045C70.9049 48.4045 70.6055 48.3426 70.3809 48.2189C70.1562 48.0952 69.9544 47.9259 69.7754 47.7111H69.7656C69.7721 47.8088 69.7754 47.908 69.7754 48.0089V50.0548C69.7754 50.2013 69.7021 50.2746 69.5557 50.2746H69.1357ZM69.7754 46.3195C69.7754 46.8078 69.891 47.1724 70.1221 47.4132C70.3564 47.6509 70.6494 47.7697 71.001 47.7697C71.4958 47.7697 71.8457 47.5841 72.0508 47.2131C72.2591 46.842 72.3633 46.3569 72.3633 45.758C72.3633 45.159 72.2591 44.674 72.0508 44.3029C71.8457 43.9318 71.4958 43.7463 71.001 43.7463C70.6494 43.7463 70.3564 43.8667 70.1221 44.1076C69.891 44.3452 69.7754 44.7082 69.7754 45.1964V46.3195ZM74.6045 48.3214C74.458 48.3214 74.3848 48.2482 74.3848 48.1017V41.3341C74.3848 41.1877 74.458 41.1144 74.6045 41.1144H75.0244C75.1709 41.1144 75.2441 41.1877 75.2441 41.3341V43.507C75.2441 43.6079 75.2409 43.7072 75.2344 43.8048H75.2441C75.4232 43.59 75.625 43.4207 75.8496 43.297C76.0742 43.1733 76.3737 43.1115 76.748 43.1115C77.3991 43.1115 77.8939 43.3784 78.2324 43.9123C78.571 44.4429 78.7402 45.0581 78.7402 45.758C78.7402 46.4578 78.571 47.0747 78.2324 47.6086C77.8939 48.1392 77.3991 48.4045 76.748 48.4045C76.3737 48.4045 76.0742 48.3426 75.8496 48.2189C75.625 48.0952 75.4232 47.9259 75.2441 47.7111H75.2344L75.2051 48.1017C75.1953 48.2482 75.1318 48.3214 75.0146 48.3214H74.6045ZM75.2441 46.3195C75.2441 46.8078 75.3597 47.1724 75.5908 47.4132C75.8252 47.6509 76.1182 47.7697 76.4697 47.7697C76.9645 47.7697 77.3145 47.5841 77.5195 47.2131C77.7279 46.842 77.832 46.3569 77.832 45.758C77.832 45.159 77.7279 44.674 77.5195 44.3029C77.3145 43.9318 76.9645 43.7463 76.4697 43.7463C76.1182 43.7463 75.8252 43.8667 75.5908 44.1076C75.3597 44.3452 75.2441 44.7082 75.2441 45.1964V46.3195ZM79.5752 45.758C79.5752 44.9507 79.777 44.3078 80.1807 43.8293C80.5843 43.3507 81.1621 43.1115 81.9141 43.1115C82.5391 43.1115 83.0566 43.3312 83.4668 43.7707C83.8802 44.2069 84.0869 44.9051 84.0869 45.8654C84.0869 46.0119 84.0202 46.0851 83.8867 46.0851H80.4834C80.5387 46.7134 80.708 47.1512 80.9912 47.3986C81.2744 47.6427 81.5951 47.7648 81.9531 47.7648C82.3307 47.7648 82.6204 47.7013 82.8223 47.5744C83.0241 47.4474 83.1722 47.3221 83.2666 47.1984C83.3708 47.0617 83.4717 47.0356 83.5693 47.1203L83.8574 47.3693C83.9323 47.4344 83.9323 47.5239 83.8574 47.6379C83.7956 47.7323 83.6182 47.8836 83.3252 48.092C83.0355 48.3003 82.5781 48.4045 81.9531 48.4045C81.1393 48.4045 80.5387 48.1652 80.1514 47.6867C79.7673 47.2082 79.5752 46.5653 79.5752 45.758ZM80.4639 45.4504H83.2227C83.2096 44.9946 83.0924 44.5959 82.8711 44.2541C82.6497 43.909 82.3242 43.7365 81.8945 43.7365C81.5169 43.7365 81.1963 43.8634 80.9326 44.1173C80.6689 44.368 80.5127 44.8123 80.4639 45.4504ZM84.8242 43.4338C84.7689 43.2742 84.8128 43.1945 84.9561 43.1945H85.4883C85.5924 43.1945 85.6657 43.258 85.708 43.3849L86.7432 46.6076C86.8278 46.8713 86.8848 47.0535 86.9141 47.1545C86.9466 47.2521 86.9759 47.3742 87.002 47.5207H87.0215C87.0475 47.3742 87.0752 47.2521 87.1045 47.1545C87.137 47.0535 87.1956 46.8713 87.2803 46.6076L88.3154 43.3849C88.3577 43.258 88.431 43.1945 88.5352 43.1945H89.0674C89.2106 43.1945 89.2546 43.2742 89.1992 43.4338L87.5977 48.0236C87.5293 48.2222 87.4414 48.3214 87.334 48.3214H86.6895C86.582 48.3214 86.4941 48.2222 86.4258 48.0236L84.8242 43.4338ZM89.751 46.9543C89.751 46.3748 90.0212 45.95 90.5615 45.6798C91.1051 45.4097 91.9157 45.2518 92.9932 45.2062V44.8742C92.9932 44.5682 92.9232 44.3045 92.7832 44.0832C92.6465 43.8586 92.373 43.7463 91.9629 43.7463C91.7025 43.7463 91.4941 43.7723 91.3379 43.8244C91.1816 43.8732 91.0384 43.9399 90.9082 44.0246C90.7812 44.106 90.6592 44.2117 90.542 44.342C90.4541 44.4396 90.3711 44.4445 90.293 44.3566L90.0391 44.0636C89.9674 43.9823 89.9919 43.8846 90.1123 43.7707C90.2848 43.6079 90.4525 43.4858 90.6152 43.4045C90.778 43.3231 90.9798 43.2547 91.2207 43.1994C91.4648 43.1408 91.7122 43.1115 91.9629 43.1115C92.6432 43.1115 93.1283 43.2873 93.418 43.6388C93.7077 43.9871 93.8525 44.4657 93.8525 45.0744V48.1017C93.8525 48.2482 93.7793 48.3214 93.6328 48.3214H93.1934C93.0664 48.3214 93.0029 48.2482 93.0029 48.1017V47.8625H92.9932C92.736 48.0643 92.4837 48.2059 92.2363 48.2873C91.9922 48.3654 91.7188 48.4045 91.416 48.4045C90.8822 48.4045 90.4704 48.2775 90.1807 48.0236C89.8942 47.7664 89.751 47.41 89.751 46.9543ZM90.6396 46.9738C90.6396 47.1756 90.682 47.3384 90.7666 47.4621C90.8512 47.5825 90.9684 47.6606 91.1182 47.6964C91.2679 47.729 91.4242 47.7453 91.5869 47.7453C91.8376 47.7453 92.0752 47.7209 92.2998 47.672C92.5244 47.6232 92.7555 47.4946 92.9932 47.2863V45.8459C92.3356 45.8947 91.8669 45.9549 91.5869 46.0265C91.307 46.0949 91.0791 46.2153 90.9033 46.3879C90.7275 46.5571 90.6396 46.7524 90.6396 46.9738ZM95.4639 48.3214C95.3174 48.3214 95.2441 48.2482 95.2441 48.1017V43.4142C95.2441 43.2677 95.3174 43.1945 95.4639 43.1945H95.874C96.0205 43.1945 96.0938 43.2677 96.0938 43.4142V44.0002H96.1133C96.2695 43.7072 96.4535 43.4858 96.665 43.3361C96.8766 43.1864 97.1403 43.1115 97.4561 43.1115C97.6644 43.1115 97.8109 43.1294 97.8955 43.1652C97.9704 43.1945 97.998 43.2433 97.9785 43.3117L97.8662 43.7121C97.8499 43.7707 97.8076 43.7935 97.7393 43.7804C97.6253 43.7576 97.5179 43.7463 97.417 43.7463C97.0361 43.7463 96.722 43.9188 96.4746 44.2638C96.2272 44.6056 96.1035 45.0728 96.1035 45.6652V48.1017C96.1035 48.2482 96.0303 48.3214 95.8838 48.3214H95.4639ZM7.7002 61.8429C7.59928 61.7485 7.57812 61.6606 7.63672 61.5793L7.85645 61.2716C7.92806 61.174 8.03385 61.1789 8.17383 61.2863C8.36589 61.4328 8.5791 61.55 8.81348 61.6379C9.05111 61.7257 9.32129 61.7697 9.62402 61.7697C9.80306 61.7697 9.96257 61.7485 10.1025 61.7062C10.2425 61.6606 10.3646 61.5776 10.4688 61.4572C10.5762 61.3367 10.6299 61.1756 10.6299 60.9738C10.6299 60.8566 10.6038 60.7459 10.5518 60.6418C10.5029 60.5376 10.4248 60.4546 10.3174 60.3927C10.2132 60.3276 10.1107 60.2772 10.0098 60.2414C9.84375 60.1795 9.67773 60.1291 9.51172 60.09C9.34896 60.0477 9.13411 59.9842 8.86719 59.8996C8.68815 59.8442 8.51888 59.7661 8.35938 59.6652C8.19987 59.561 8.0599 59.4211 7.93945 59.2453C7.82227 59.0695 7.76367 58.827 7.76367 58.5177C7.76367 58.202 7.8597 57.9302 8.05176 57.7023C8.24382 57.4744 8.4847 57.3198 8.77441 57.2384C9.06413 57.1538 9.3457 57.1115 9.61914 57.1115C10.0228 57.1115 10.3467 57.1587 10.5908 57.2531C10.8382 57.3442 11.0514 57.4533 11.2305 57.5802C11.3346 57.6551 11.3493 57.7414 11.2744 57.839L11.0547 58.132C10.9863 58.2264 10.8805 58.2231 10.7373 58.1222C10.6169 58.0376 10.446 57.9578 10.2246 57.883C10.0033 57.8081 9.80957 57.7707 9.64355 57.7707C9.43848 57.7707 9.2627 57.7935 9.11621 57.839C8.96973 57.8846 8.85091 57.9627 8.75977 58.0734C8.66862 58.1841 8.62305 58.3143 8.62305 58.464C8.62305 58.578 8.64095 58.6805 8.67676 58.7716C8.71257 58.8595 8.7793 58.9409 8.87695 59.0158C8.97461 59.0907 9.11133 59.1509 9.28711 59.1964C9.56055 59.2681 9.80957 59.3332 10.0342 59.3918C10.262 59.4504 10.4671 59.522 10.6494 59.6066C10.887 59.7173 11.0693 59.8394 11.1963 59.9728C11.3265 60.1063 11.416 60.2511 11.4648 60.4074C11.5137 60.5604 11.5381 60.7313 11.5381 60.9201C11.5381 61.2684 11.4339 61.563 11.2256 61.8039C11.0205 62.0448 10.791 62.2059 10.5371 62.2873C10.2832 62.3654 9.97721 62.4045 9.61914 62.4045C9.13411 62.4045 8.71745 62.3361 8.36914 62.1994C8.02409 62.0594 7.80111 61.9406 7.7002 61.8429ZM12.2314 59.758C12.2314 58.993 12.4333 58.3615 12.8369 57.8634C13.2438 57.3621 13.8379 57.1115 14.6191 57.1115C15.4004 57.1115 15.9928 57.3621 16.3965 57.8634C16.8034 58.3615 17.0068 58.993 17.0068 59.758C17.0068 60.5229 16.8034 61.1561 16.3965 61.6574C15.9928 62.1554 15.4004 62.4045 14.6191 62.4045C13.8379 62.4045 13.2438 62.1554 12.8369 61.6574C12.4333 61.1561 12.2314 60.5229 12.2314 59.758ZM13.1396 59.758C13.1396 60.4416 13.2747 60.9478 13.5449 61.2765C13.8151 61.6053 14.1732 61.7697 14.6191 61.7697C15.0651 61.7697 15.4232 61.6053 15.6934 61.2765C15.9635 60.9478 16.0986 60.4416 16.0986 59.758C16.0986 59.0744 15.9635 58.5682 15.6934 58.2394C15.4232 57.9106 15.0651 57.7463 14.6191 57.7463C14.1732 57.7463 13.8151 57.9106 13.5449 58.2394C13.2747 58.5682 13.1396 59.0744 13.1396 59.758ZM17.7246 57.4338C17.6693 57.2742 17.7132 57.1945 17.8564 57.1945H18.3887C18.4928 57.1945 18.5661 57.258 18.6084 57.3849L19.6436 60.6076C19.7282 60.8713 19.7852 61.0535 19.8145 61.1545C19.847 61.2521 19.8763 61.3742 19.9023 61.5207H19.9219C19.9479 61.3742 19.9756 61.2521 20.0049 61.1545C20.0374 61.0535 20.096 60.8713 20.1807 60.6076L21.2158 57.3849C21.2581 57.258 21.3314 57.1945 21.4355 57.1945H21.9678C22.111 57.1945 22.1549 57.2742 22.0996 57.4338L20.498 62.0236C20.4297 62.2222 20.3418 62.3214 20.2344 62.3214H19.5898C19.4824 62.3214 19.3945 62.2222 19.3262 62.0236L17.7246 57.4338ZM22.7295 61.8429C22.6286 61.7485 22.6074 61.6606 22.666 61.5793L22.8857 61.2716C22.9574 61.174 23.0632 61.1789 23.2031 61.2863C23.3952 61.4328 23.6084 61.55 23.8428 61.6379C24.0804 61.7257 24.3506 61.7697 24.6533 61.7697C24.8324 61.7697 24.9919 61.7485 25.1318 61.7062C25.2718 61.6606 25.3939 61.5776 25.498 61.4572C25.6055 61.3367 25.6592 61.1756 25.6592 60.9738C25.6592 60.8566 25.6331 60.7459 25.5811 60.6418C25.5322 60.5376 25.4541 60.4546 25.3467 60.3927C25.2425 60.3276 25.14 60.2772 25.0391 60.2414C24.873 60.1795 24.707 60.1291 24.541 60.09C24.3783 60.0477 24.1634 59.9842 23.8965 59.8996C23.7174 59.8442 23.5482 59.7661 23.3887 59.6652C23.2292 59.561 23.0892 59.4211 22.9688 59.2453C22.8516 59.0695 22.793 58.827 22.793 58.5177C22.793 58.202 22.889 57.9302 23.0811 57.7023C23.2731 57.4744 23.514 57.3198 23.8037 57.2384C24.0934 57.1538 24.375 57.1115 24.6484 57.1115C25.0521 57.1115 25.376 57.1587 25.6201 57.2531C25.8675 57.3442 26.0807 57.4533 26.2598 57.5802C26.3639 57.6551 26.3786 57.7414 26.3037 57.839L26.084 58.132C26.0156 58.2264 25.9098 58.2231 25.7666 58.1222C25.6462 58.0376 25.4753 57.9578 25.2539 57.883C25.0326 57.8081 24.8389 57.7707 24.6729 57.7707C24.4678 57.7707 24.292 57.7935 24.1455 57.839C23.999 57.8846 23.8802 57.9627 23.7891 58.0734C23.6979 58.1841 23.6523 58.3143 23.6523 58.464C23.6523 58.578 23.6702 58.6805 23.7061 58.7716C23.7419 58.8595 23.8086 58.9409 23.9062 59.0158C24.0039 59.0907 24.1406 59.1509 24.3164 59.1964C24.5898 59.2681 24.8389 59.3332 25.0635 59.3918C25.2913 59.4504 25.4964 59.522 25.6787 59.6066C25.9163 59.7173 26.0986 59.8394 26.2256 59.9728C26.3558 60.1063 26.4453 60.2511 26.4941 60.4074C26.543 60.5604 26.5674 60.7313 26.5674 60.9201C26.5674 61.2684 26.4632 61.563 26.2549 61.8039C26.0498 62.0448 25.8203 62.2059 25.5664 62.2873C25.3125 62.3654 25.0065 62.4045 24.6484 62.4045C24.1634 62.4045 23.7467 62.3361 23.3984 62.1994C23.0534 62.0594 22.8304 61.9406 22.7295 61.8429ZM27.2607 59.758C27.2607 58.9507 27.4626 58.3078 27.8662 57.8293C28.2699 57.3507 28.8477 57.1115 29.5996 57.1115C30.2246 57.1115 30.7422 57.3312 31.1523 57.7707C31.5658 58.2069 31.7725 58.9051 31.7725 59.8654C31.7725 60.0119 31.7057 60.0851 31.5723 60.0851H28.1689C28.2243 60.7134 28.3936 61.1512 28.6768 61.3986C28.96 61.6427 29.2806 61.7648 29.6387 61.7648C30.0163 61.7648 30.306 61.7013 30.5078 61.5744C30.7096 61.4474 30.8577 61.3221 30.9521 61.1984C31.0563 61.0617 31.1572 61.0356 31.2549 61.1203L31.543 61.3693C31.6178 61.4344 31.6178 61.5239 31.543 61.6379C31.4811 61.7323 31.3037 61.8836 31.0107 62.092C30.721 62.3003 30.2637 62.4045 29.6387 62.4045C28.8249 62.4045 28.2243 62.1652 27.8369 61.6867C27.4528 61.2082 27.2607 60.5653 27.2607 59.758ZM28.1494 59.4504H30.9082C30.8952 58.9946 30.778 58.5959 30.5566 58.2541C30.3353 57.909 30.0098 57.7365 29.5801 57.7365C29.2025 57.7365 28.8818 57.8634 28.6182 58.1173C28.3545 58.368 28.1982 58.8123 28.1494 59.4504ZM33.1738 55.5881C33.1738 55.409 33.2552 55.3195 33.418 55.3195H33.9258C34.0885 55.3195 34.1699 55.409 34.1699 55.5881L34.0674 60.1974C34.0674 60.3439 33.9941 60.4172 33.8477 60.4172H33.4961C33.3496 60.4172 33.2764 60.3439 33.2764 60.1974L33.1738 55.5881ZM33.3984 62.3214C33.252 62.3214 33.1787 62.2482 33.1787 62.1017V61.506C33.1787 61.3595 33.252 61.2863 33.3984 61.2863H33.9453C34.0918 61.2863 34.165 61.3595 34.165 61.506V62.1017C34.165 62.2482 34.0918 62.3214 33.9453 62.3214H33.3984Z" fill="#2C2C2C"/>
<path d="M152.413 29.5037C152.392 29.3598 152.309 29.0708 152.216 28.8224C152.086 28.4791 151.726 28.0177 151.549 27.6958C151.393 27.4142 151.267 27.1072 151.028 26.7657C150.748 26.3663 150.146 25.7662 149.621 25.2874C149.295 24.9893 149.038 24.6263 148.601 24.2954C147.732 23.6368 147.308 23.6538 146.247 23.2925C145.754 23.1244 145.204 23.1154 144.476 23.0639C142.351 22.9137 142.096 23.1563 141.783 23.1877C141.463 23.2197 141.221 23.3424 140.939 23.415C140.524 23.522 140.22 23.5285 140.011 23.6317C139.803 23.7346 140.135 24.1065 140.208 24.4166C140.285 24.7405 140.323 25.0369 140.406 25.3367C140.481 25.6055 140.677 25.8431 140.895 25.9886C141.122 26.1394 141.385 26.3393 141.718 26.526C142.028 26.6989 142.323 26.8975 142.594 27.0225C142.858 27.1437 143.157 27.2908 143.407 27.4564C143.649 27.6159 143.948 27.7249 144.22 27.8288C144.466 27.923 144.72 27.9941 144.971 28.0769L145.721 28.325L146.471 28.5731C146.722 28.6559 146.971 28.7384 147.263 28.8109C147.73 28.927 148.076 28.9244 148.711 28.9557C148.848 28.966 148.91 28.9864 149.468 28.997C150.026 29.0075 151.329 29.4417 152.413 29.5037Z" fill="#5B8339"/>
<path d="M144.971 28.0769C144.72 27.9941 144.466 27.923 144.22 27.8288C143.948 27.7249 143.649 27.6159 143.407 27.4564C143.157 27.2908 142.858 27.1437 142.594 27.0225C142.323 26.8975 142.028 26.6989 141.718 26.526C141.385 26.3393 141.122 26.1394 140.895 25.9886C140.677 25.8431 140.481 25.6055 140.406 25.3367C140.323 25.0369 140.285 24.7405 140.208 24.4166C140.135 24.1065 139.803 23.7346 140.011 23.6317C140.22 23.5285 140.524 23.522 140.939 23.415C141.221 23.3424 141.463 23.2197 141.783 23.1877C142.096 23.1563 142.351 22.9137 144.476 23.0639C145.204 23.1154 145.754 23.1244 146.247 23.2925C147.308 23.6538 147.732 23.6368 148.601 24.2954C149.038 24.6263 149.295 24.9893 149.621 25.2874C150.146 25.7662 150.748 26.3663 151.028 26.7657C151.267 27.1072 151.393 27.4142 151.549 27.6958C151.726 28.0177 152.086 28.4791 152.216 28.8224C152.309 29.0708 152.392 29.3598 152.413 29.5037C151.329 29.4417 150.026 29.0075 149.468 28.997C148.91 28.9864 148.848 28.966 148.711 28.9557C148.076 28.9244 147.73 28.927 147.263 28.8109C146.971 28.7384 146.722 28.6559 146.471 28.5731M144.971 28.0769C145.221 28.1597 145.471 28.2422 145.721 28.325M144.971 28.0769L145.721 28.325M145.721 28.325C145.971 28.4078 146.221 28.4903 146.471 28.5731M145.721 28.325L146.471 28.5731" stroke="#474646" stroke-width="0.25" stroke-linecap="round"/>
<path d="M152.1 29.0695C151.79 29.0695 151.164 29.0286 150.757 28.9973C150.308 28.9626 149.602 28.9046 149.111 28.832C148.752 28.7789 148.474 28.801 147.864 28.77C146.287 28.6897 145.118 28.7799 144.89 28.8211C144.393 28.9108 144.097 28.9244 143.619 28.9762C142.936 29.0501 142.122 29.3362 141.585 29.5549C141.286 29.6767 140.992 29.8337 140.71 29.9993C140.172 30.3151 139.47 30.8669 139.105 31.1767C138.505 31.6869 138.344 31.9833 138.145 32.2832C137.877 32.6887 137.551 33.1618 137.405 33.5131C137.277 33.8219 137.113 34.0921 137.03 34.4022C137.008 34.485 136.988 34.5672 137.009 34.6196C137.096 34.8456 137.445 35.0634 137.716 35.3226C137.938 35.5338 138.258 35.6638 138.529 35.8294C138.792 35.9893 139.092 36.057 139.353 36.1398C139.676 36.2425 140.009 36.3671 140.519 36.5014C140.999 36.6276 141.343 36.6152 142.902 36.626C143.518 36.6303 143.845 36.4093 144.199 36.3265C144.475 36.2618 144.844 36.0793 145.22 35.9134C145.893 35.6164 146.572 35.1093 147.096 34.7765C147.501 34.5194 147.784 34.2596 148.159 33.9705C148.638 33.6018 149.035 33.2052 149.316 32.896C149.934 32.2161 150.161 31.9449 150.411 31.6137C150.647 31.301 150.745 30.9935 150.912 30.7451C151.079 30.4967 151.204 30.2492 151.349 30.0008L151.599 29.6287C151.641 29.5663 151.995 29.1948 152.1 29.0695Z" fill="#5B8339"/>
<path d="M151.599 29.6287L151.349 30.0008C151.204 30.2492 151.079 30.4967 150.912 30.7451C150.745 30.9935 150.647 31.301 150.411 31.6137C150.161 31.9449 149.934 32.2161 149.316 32.896C149.035 33.2052 148.638 33.6018 148.159 33.9705C147.784 34.2596 147.501 34.5194 147.096 34.7765C146.572 35.1093 145.893 35.6164 145.22 35.9134C144.844 36.0793 144.475 36.2618 144.199 36.3265C143.845 36.4093 143.518 36.6303 142.902 36.626C141.343 36.6152 140.999 36.6276 140.519 36.5014C140.009 36.3671 139.676 36.2425 139.353 36.1398C139.092 36.057 138.792 35.9893 138.529 35.8294C138.258 35.6638 137.938 35.5338 137.716 35.3226C137.445 35.0634 137.096 34.8456 137.009 34.6196C136.988 34.5672 137.008 34.485 137.03 34.4022C137.113 34.0921 137.277 33.8219 137.405 33.5131C137.551 33.1618 137.877 32.6887 138.145 32.2832C138.344 31.9833 138.506 31.6869 139.105 31.1767C139.47 30.8669 140.172 30.3151 140.71 29.9993C140.992 29.8337 141.286 29.6767 141.585 29.5549C142.122 29.3362 142.936 29.0501 143.619 28.9762C144.097 28.9244 144.393 28.9108 144.89 28.8211C145.118 28.7799 146.287 28.6897 147.864 28.77C148.474 28.801 148.752 28.7789 149.111 28.832C149.602 28.9046 150.308 28.9626 150.757 28.9973C151.164 29.0286 151.79 29.0695 152.1 29.0695C151.995 29.1948 151.641 29.5663 151.599 29.6287ZM151.349 30.0008C151.433 29.8771 151.516 29.7524 151.599 29.6287" stroke="#474646" stroke-width="0.25" stroke-linecap="round"/>
<path d="M161.668 30.9302C161.689 30.8068 161.855 30.3956 162.094 29.9605C162.536 29.1602 162.73 28.8227 163.281 28.07C163.751 27.4282 164.188 27.1481 164.429 26.9202C164.633 26.728 165.29 26.3641 165.742 26.1446C165.897 26.0696 166.107 25.969 166.398 25.8453C166.759 25.6914 167.665 25.4332 168.769 25.0818C169.608 24.8147 170.17 24.8111 170.557 24.7798C171.458 24.7068 172.839 24.7689 173.163 24.8002C173.453 24.8283 173.736 24.955 174.09 24.9863C174.371 25.0111 174.612 25.182 174.904 25.2548C174.972 25.2719 175.008 25.347 174.998 25.4093C174.952 25.7097 174.738 25.9461 174.665 26.2156C174.592 26.4885 174.405 26.7114 174.29 26.9598C174.171 27.2166 174.03 27.4557 173.853 27.7143C173.643 28.0209 173.426 28.3439 173.124 28.7889C172.909 29.1052 172.613 29.3573 172.28 29.6575C171.858 30.0369 171.53 30.2877 171.185 30.5057C170.873 30.7029 170.529 31.0319 170.226 31.1985C169.905 31.375 169.633 31.5703 169.361 31.7256C169.129 31.8582 168.861 31.9424 168.6 32.0463C168.29 32.1697 167.903 32.2116 167.558 32.2429C167.268 32.2692 166.902 32.3977 166.506 32.429C166.357 32.4407 165.47 32.4808 164.168 32.4705C163.416 32.4646 163.129 32.3158 162.805 32.233C162.54 32.1651 162.295 32.0677 161.992 32.0364C161.731 31.9437 161.544 31.8196 161.419 31.7371C161.356 31.6956 161.857 31.0964 161.668 30.9302Z" fill="#5B8339" stroke="#474646" stroke-width="0.25" stroke-linecap="round"/>
<path d="M163.232 30.8062C163.314 30.6828 163.853 30.1897 164.252 29.8972C164.452 29.7502 165.308 29.1161 166.682 28.2589C167.666 27.6447 168.358 27.5401 168.876 27.4781C169.684 27.457 170.235 27.4774 170.37 27.5494C170.443 27.6009 170.526 27.6827 170.611 27.7671" stroke="#474646" stroke-width="0.25" stroke-linecap="round"/>
<path d="M149.662 27.705C149.558 27.5816 149.433 27.3341 149.287 27.0857C149.138 26.8314 148.643 26.611 148.276 26.4649C147.876 26.3057 147.37 26.1135 147.088 26.0307C146.787 25.9424 146.495 25.8655 146.171 25.8341C146.036 25.8034 145.91 25.7619 145.703 25.7309C145.557 25.7203 145.33 25.7203 145.097 25.7203" stroke="#474646" stroke-width="0.25" stroke-linecap="round"/>
<path d="M149.474 29.9999C148.875 29.9999 147.62 30.0408 147.297 30.1236C147.031 30.1915 146.662 30.3298 146.089 30.6086C145.752 30.7722 145.494 30.991 145.171 31.2292C144.884 31.44 144.639 31.7353 144.368 32.0352C144.18 32.2941 144.013 32.5416 143.846 32.79C143.805 32.8523 143.763 32.9137 143.721 32.977" stroke="#474646" stroke-width="0.25" stroke-linecap="round"/>
<path d="M165.084 33.5824C159.389 28.0928 150.443 28.0928 144.748 33.5824C138.887 39.2312 138.887 48.6881 144.748 54.3369C150.443 59.8265 159.389 59.8265 165.084 54.3369C170.945 48.6881 170.945 39.2312 165.084 33.5824Z" fill="#5273BA" stroke="#474646" stroke-width="0.25"/>
<path d="M158.995 57.8469C158.686 57.9008 155.744 58.68 155.409 58.8716C155.109 59.0431 154.624 59.2734 153.956 59.7279C153.449 60.0722 152.974 60.5971 152.579 60.937C152.199 61.2643 152.002 61.6901 151.805 62.0023C151.614 62.3056 151.635 63.4239 151.895 64.1329C152.105 64.7039 152.655 64.8084 153.296 65.1596C153.653 65.3553 153.991 65.4071 154.893 65.4207C155.363 65.4278 155.72 65.2262 156.035 65.0446C156.469 64.794 156.951 64.2143 157.24 63.8627C157.563 63.4701 157.739 63.1744 157.974 62.8493C158.214 62.5176 158.341 62.1095 158.472 61.7708C158.592 61.4637 158.682 61.1475 158.774 60.8224C158.877 60.4572 158.918 60.0826 159.01 59.6663C159.049 59.2501 159.192 58.3744 159.01 57.8446C159.009 57.8452 159.008 57.8457 159.008 57.8461C159.001 57.8519 158.997 57.8504 158.995 57.8469Z" fill="#5273BA"/>
<path d="M158.995 57.8469C159.001 57.8459 159.006 57.8451 159.01 57.8446C159.192 58.3744 159.049 59.2501 159.01 59.6663C158.918 60.0826 158.877 60.4572 158.774 60.8224C158.682 61.1475 158.592 61.4637 158.472 61.7708C158.341 62.1095 158.214 62.5176 157.974 62.8493C157.739 63.1744 157.563 63.4701 157.24 63.8627C156.951 64.2143 156.469 64.794 156.035 65.0446C155.72 65.2262 155.363 65.4278 154.893 65.4207C153.991 65.4071 153.653 65.3553 153.296 65.1596C152.655 64.8084 152.105 64.7039 151.895 64.1329C151.635 63.4239 151.614 62.3056 151.805 62.0023C152.002 61.6901 152.199 61.2643 152.579 60.937C152.974 60.5971 153.449 60.0722 153.956 59.7279C154.624 59.2734 155.109 59.0431 155.409 58.8716C155.744 58.68 158.686 57.9008 158.995 57.8469ZM159.01 57.8446C159.009 57.8452 159.008 57.8457 159.008 57.8461C159.001 57.8519 158.997 57.8504 158.995 57.8469M159.019 57.8721C159 57.816 158.99 57.838 158.995 57.8469" stroke="#474646" stroke-width="0.25" stroke-linecap="round"/>
<path d="M150.659 57.7159C150.165 57.7159 147.541 56.0758 146.561 56.3868C145.931 56.5868 144.483 57.3511 144.038 57.5593C143.687 57.7233 143.383 57.8968 143.055 58.0402C142.652 58.2167 142.257 58.5719 141.302 59.4793C140.835 59.9229 140.684 60.3384 140.552 60.69C140.346 61.2415 140.525 62.002 140.786 62.3661C141.015 62.6842 141.415 62.7566 141.756 62.8735C142.207 63.0284 143.657 63.0949 144.703 62.9398C145.168 62.8708 145.502 62.6023 146.026 62.3941C146.527 62.1948 146.917 61.7712 147.232 61.5237C147.573 61.2552 147.912 60.8623 148.241 60.4588C148.522 60.1129 148.83 59.7444 149.04 59.4193C149.274 59.0564 149.459 58.7309 149.591 58.4187C149.643 58.2632 149.721 58.1065 149.826 57.951C149.879 57.8726 150.527 57.7954 150.659 57.7159Z" fill="#5273BA" stroke="#474646" stroke-width="0.25" stroke-linecap="round"/>
<path d="M152.315 29.3724C152.299 29.6032 152.245 29.8657 152.188 30.0376C152.156 30.1855 152.156 30.2374 152.182 30.2633C152.367 30.2888 152.578 30.2883 152.895 30.3664C153.127 30.3815 153.364 30.3986 153.61 30.462C153.982 30.5579 154.216 30.617 154.501 30.6328C154.725 30.6453 154.988 30.7034 155.265 30.7359C155.511 30.7647 155.767 30.8555 156.059 30.8837C156.323 30.9091 156.556 30.9422 156.816 30.9841C157.127 31.0341 157.513 31.1333 157.792 31.1917C158.156 31.2681 158.632 31.4175 159.034 31.4958C159.357 31.5586 159.707 31.6804 159.999 31.7085C160.262 31.734 160.463 31.9597 161.138 31.8729C161.275 31.8554 161.317 31.7474 161.333 31.657C161.359 31.5002 161.326 31.3239 161.365 31.1173C161.43 30.7682 161.591 30.296 161.65 29.9342C161.69 29.6849 161.732 29.4549 161.732 29.2449C161.733 29.0349 161.706 28.8241 161.733 28.6158C161.766 28.3629 161.87 28.076 161.883 27.8342C161.893 27.619 161.93 27.3536 161.995 27.0836C162.017 26.9934 162.065 26.8258 162.305 26.8808C162.991 27.0372 163.486 27.1674 163.602 27.1945C163.879 27.2592 164.419 27.4862 164.846 27.4903C165.065 27.4925 165.276 27.5031 165.498 27.4861C165.778 27.4648 166.03 27.5088 166.247 27.4267C166.571 27.3041 167.079 27.0574 167.324 26.8892C167.53 26.7471 167.807 26.6053 168.005 26.4316C168.179 26.2789 168.337 26.1214 168.481 25.9586C168.624 25.7957 168.803 25.6386 168.964 25.4884C169.131 25.3331 169.357 25.232 169.471 25.0259C169.628 24.7425 169.762 24.3223 169.725 24.1128C169.686 23.8899 169.697 23.6805 169.687 23.4707C169.677 23.2394 169.643 22.9718 169.535 22.695C169.445 22.4645 169.315 22.2397 169.154 22.0801C168.982 21.91 168.807 21.6928 167.834 21.4539C167.313 21.3261 166.824 21.2394 166.543 21.1687C166.203 21.0832 165.967 21.0325 165.723 21.0214C165.507 21.0115 165.185 20.9791 164.871 21.0472C164.707 21.0829 164.536 21.1332 164.352 21.1937C164.322 21.2175 164.292 21.2413 164.263 21.2653C164.078 21.4196 163.883 21.5596 163.693 21.707C163.502 21.8544 163.313 22.0013 163.162 22.1616C163.082 22.2456 162.964 22.3065 162.869 22.328C162.836 22.3354 162.836 22.2662 162.852 22.2187C162.917 22.0235 163.131 21.8566 163.319 21.6906C163.485 21.5448 163.681 21.4248 164.029 21.3036C164.142 21.2644 164.249 21.2275 164.352 21.1937C164.526 21.0562 164.715 20.9196 164.855 20.7344C164.998 20.5449 165.37 20.3751 165.575 19.221C165.644 18.8344 165.647 18.5946 165.621 18.355C165.597 18.1371 165.556 17.9224 165.466 17.7183C165.371 17.5035 165.246 17.295 165.073 17.1349C164.913 16.9855 164.762 16.8189 164.578 16.7009C164.354 16.557 164.152 16.4254 163.946 16.2829C163.753 16.1494 163.58 15.9228 162.772 15.7482C162.387 15.6649 162.073 15.5082 161.697 15.4991C161.32 15.4902 160.92 15.509 160.681 15.5411C160.304 15.5918 160.054 15.6231 159.803 15.6978L159.784 15.7034C159.466 15.7976 159.127 15.8982 158.736 16.1253C158.409 16.3151 158.194 16.4773 157.96 16.709C157.774 16.8931 157.561 17.1003 157.366 17.3526C157.225 17.5338 156.75 18.4239 156.749 19.0028C156.748 19.2128 156.888 19.7558 156.66 19.655C156.499 19.5839 156.331 19.4585 156.178 19.2857C156.025 19.1131 155.86 18.9839 155.688 18.8623C155.503 18.7314 155.295 18.5438 155.087 18.4548C154.558 18.2283 153.675 17.9299 153.431 17.9188C153.215 17.9089 153.005 17.9098 152.777 17.9573C152.55 18.0047 152.326 18.0269 152.044 18.1267C151.774 18.2223 151.511 18.3797 151.32 18.5271C151.13 18.6745 151.004 18.9199 150.861 19.1101C150.734 19.2784 150.54 19.3949 150.353 19.7038C150.098 20.1234 149.948 20.7956 149.895 21.0131C149.823 21.3046 149.844 21.5416 149.852 21.7679C149.859 21.9805 149.816 22.1956 149.866 22.4023C149.922 22.6306 149.893 22.8836 150.077 23.1359C150.227 23.3427 150.379 23.5255 150.535 23.6798C150.706 23.8499 150.899 23.9956 151.083 24.1137C151.307 24.2575 151.504 24.4102 151.72 24.5421C151.939 24.6754 152.79 24.6382 152.914 25.014C152.94 25.0925 152.834 25.295 152.807 25.5655C152.78 25.8274 152.76 26.0622 152.7 26.2996C152.621 26.6142 152.484 26.9666 152.48 27.2932C152.477 27.511 152.466 27.7199 152.463 27.9696C152.46 28.1873 152.418 28.3911 152.406 28.6329C152.395 28.848 152.338 29.0484 152.315 29.3724Z" fill="white"/>
<path d="M164.352 21.1937C164.536 21.1332 164.707 21.0829 164.871 21.0472C165.185 20.9791 165.507 21.0115 165.723 21.0214C165.967 21.0325 166.203 21.0832 166.543 21.1687C166.824 21.2394 167.313 21.3261 167.834 21.4539C168.807 21.6928 168.982 21.91 169.154 22.0801C169.315 22.2397 169.445 22.4645 169.535 22.695C169.643 22.9718 169.677 23.2394 169.687 23.4707C169.697 23.6805 169.686 23.8899 169.725 24.1128C169.762 24.3223 169.628 24.7425 169.471 25.0259C169.357 25.232 169.131 25.3331 168.964 25.4884C168.803 25.6386 168.624 25.7957 168.481 25.9586C168.337 26.1214 168.179 26.2789 168.005 26.4316C167.807 26.6053 167.53 26.7471 167.324 26.8892C167.079 27.0574 166.571 27.3041 166.247 27.4267C166.03 27.5088 165.778 27.4648 165.498 27.4861C165.276 27.5031 165.065 27.4925 164.846 27.4903C164.419 27.4862 163.879 27.2592 163.602 27.1945C163.486 27.1674 162.991 27.0372 162.305 26.8808C162.065 26.8258 162.017 26.9934 161.995 27.0836C161.93 27.3536 161.893 27.619 161.883 27.8342C161.87 28.076 161.766 28.3629 161.733 28.6158C161.706 28.8241 161.733 29.0349 161.732 29.2449C161.732 29.4549 161.69 29.6849 161.65 29.9342C161.591 30.296 161.43 30.7682 161.365 31.1174C161.326 31.3239 161.359 31.5002 161.333 31.657C161.317 31.7474 161.275 31.8554 161.138 31.8729C160.463 31.9597 160.262 31.734 159.999 31.7085C159.707 31.6804 159.357 31.5586 159.034 31.4958C158.632 31.4175 158.156 31.2681 157.792 31.1917C157.513 31.1333 157.127 31.0341 156.816 30.9841C156.556 30.9422 156.323 30.9091 156.059 30.8837C155.767 30.8555 155.511 30.7647 155.265 30.7359C154.988 30.7034 154.725 30.6453 154.501 30.6328C154.216 30.617 153.982 30.5579 153.61 30.462C153.364 30.3986 153.127 30.3815 152.895 30.3664C152.578 30.2883 152.367 30.2888 152.182 30.2633C152.156 30.2374 152.156 30.1855 152.188 30.0376C152.245 29.8657 152.299 29.6032 152.315 29.3724C152.338 29.0484 152.395 28.848 152.406 28.6329C152.418 28.3911 152.46 28.1873 152.463 27.9696C152.466 27.7199 152.477 27.511 152.48 27.2932C152.484 26.9666 152.621 26.6142 152.7 26.2996C152.76 26.0622 152.78 25.8274 152.807 25.5655C152.834 25.295 152.94 25.0925 152.914 25.014C152.79 24.6382 151.939 24.6754 151.72 24.5421C151.504 24.4102 151.307 24.2575 151.083 24.1137C150.899 23.9956 150.706 23.8499 150.535 23.6798C150.379 23.5255 150.227 23.3427 150.077 23.1359C149.893 22.8836 149.922 22.6306 149.866 22.4023C149.816 22.1956 149.859 21.9805 149.852 21.7679C149.844 21.5416 149.823 21.3046 149.895 21.0131C149.948 20.7956 150.098 20.1234 150.353 19.7038C150.54 19.3949 150.734 19.2784 150.861 19.1101C151.004 18.9199 151.13 18.6745 151.32 18.5271C151.511 18.3797 151.774 18.2223 152.044 18.1267C152.326 18.0269 152.55 18.0047 152.777 17.9573C153.005 17.9098 153.215 17.9089 153.431 17.9188C153.675 17.9299 154.558 18.2283 155.087 18.4548C155.295 18.5438 155.503 18.7314 155.688 18.8623C155.86 18.9839 156.025 19.1131 156.178 19.2857C156.331 19.4585 156.499 19.5839 156.66 19.655C156.888 19.7558 156.748 19.2128 156.749 19.0028C156.75 18.4239 157.225 17.5338 157.366 17.3526C157.561 17.1003 157.774 16.8931 157.96 16.709C158.194 16.4773 158.409 16.3151 158.736 16.1253C159.127 15.8982 159.466 15.7976 159.784 15.7034C159.79 15.7015 159.796 15.6997 159.803 15.6978C160.054 15.6231 160.304 15.5918 160.681 15.5411C160.92 15.509 161.32 15.4902 161.697 15.4991C162.073 15.5082 162.387 15.6649 162.772 15.7482C163.58 15.9228 163.753 16.1494 163.946 16.2829C164.152 16.4254 164.354 16.557 164.578 16.7009C164.762 16.8189 164.913 16.9855 165.073 17.1349C165.246 17.295 165.371 17.5035 165.466 17.7183C165.556 17.9224 165.597 18.1371 165.621 18.355C165.647 18.5946 165.644 18.8344 165.575 19.221C165.37 20.3751 164.998 20.5449 164.855 20.7344C164.715 20.9196 164.526 21.0562 164.352 21.1937ZM159.803 15.6978L159.784 15.7034M164.352 21.1937C164.322 21.2175 164.292 21.2413 164.263 21.2653C164.078 21.4196 163.883 21.5596 163.693 21.707C163.502 21.8544 163.313 22.0013 163.162 22.1616C163.082 22.2456 162.964 22.3065 162.869 22.328C162.836 22.3354 162.836 22.2662 162.852 22.2187C162.917 22.0235 163.131 21.8566 163.319 21.6906C163.485 21.5448 163.681 21.4248 164.029 21.3036C164.142 21.2644 164.249 21.2275 164.352 21.1937Z" stroke="#3A3A3A" stroke-width="0.25" stroke-linecap="round"/>
<path d="M155.192 28.6489C155.211 28.5633 155.217 28.4227 155.245 28.2934C155.276 28.1517 155.264 28.0084 155.291 27.8838C155.315 27.7672 155.33 27.631 155.356 27.4454C155.4 27.1371 155.454 26.9863 155.587 26.5454C155.616 26.4462 155.618 26.4063 155.707 26.1261C155.796 25.8459 155.971 25.3262 156.07 25.0463C156.219 24.6805 156.28 24.5578 156.351 24.4533C156.367 24.4225 156.379 24.3861 156.447 24.3668" stroke="#3A3A3A" stroke-width="0.25" stroke-linecap="round"/>
<path d="M158.74 29.1461C158.829 28.8813 158.997 28.321 159.019 28.1337C159.042 27.9368 159.063 27.7594 159.108 27.5797C159.158 27.3789 159.294 26.857 159.419 26.5769C159.473 26.4561 159.583 26.3345 159.674 26.2006C159.764 26.0689 159.861 25.9657 159.946 25.8502C160.092 25.6737 160.289 25.4526 160.404 25.3107C160.429 25.2828 160.457 25.2615 160.513 25.2487" stroke="#3A3A3A" stroke-width="0.25" stroke-linecap="round"/>
<path d="M153.216 46.1346C152.858 46.1346 152.194 46.174 152.093 46.2632C152 46.3464 152.012 46.5711 152.032 46.8096C152.058 47.121 152.333 47.3276 152.493 47.5668C152.534 47.6268 152.574 47.6859 152.564 47.7459C152.519 48.0351 152.274 48.2233 152.213 48.4723C152.178 48.6181 152.293 48.7613 152.383 48.8607C152.557 49.053 152.854 49.0999 153.105 49.1697C153.255 49.1799 153.397 49.1405 153.517 49.0611C153.577 49.0211 153.637 48.9816 153.819 48.8813" stroke="black" stroke-width="0.25" stroke-linecap="round"/>
<path d="M152.394 43.1879C152.394 42.9085 152.411 42.3465 152.269 41.9242C152.13 41.5112 152.269 41.006 151.915 40.7111C151.561 40.4163 151.546 40.6574 151.474 40.7096C151.142 40.9512 151.225 42.821 151.454 43.8896C151.478 44.0003 151.648 43.9955 151.755 43.9961C151.862 43.9966 151.967 43.9618 152.056 43.8917C152.145 43.8216 152.216 43.7172 152.269 43.6112C152.323 43.5053 152.358 43.4009 152.394 43.1879Z" fill="black" stroke="#3A3A3A" stroke-width="0.25" stroke-linecap="round"/>
<path d="M154.602 43.8166C154.608 43.7329 154.647 43.541 154.713 43.3664C154.811 43.1032 154.896 43.0115 154.974 42.9152C155.05 42.8224 155.131 42.7829 155.226 42.7407C155.306 42.705 155.399 42.6747 155.504 42.6265C155.601 42.5818 155.694 42.5665 155.975 42.5601C156.097 42.5574 156.172 42.71 156.234 42.8362C156.296 42.9625 156.368 43.0707 156.427 43.2029C156.489 43.3424 156.551 43.4912 156.6 43.6357C156.612 43.6701 156.617 43.7077 156.601 43.726C156.585 43.7444 156.546 43.7444 156.519 43.7266C156.43 43.6665 156.401 43.4566 156.332 43.3421C156.267 43.2334 156.192 43.132 156.113 43.0234C156.041 42.9229 155.956 42.8911 155.617 42.8848C155.483 42.8823 155.407 42.9748 155.328 43.0229C155.25 43.0711 155.171 43.119 155.093 43.1971C155.014 43.2752 154.936 43.3953 154.86 43.4976C154.798 43.624 154.733 43.7437 154.677 43.8703C154.661 43.8887 154.641 43.8887 154.621 43.8887" stroke="black" stroke-width="0.25" stroke-linecap="round"/>
</svg>
