<svg width="185" height="102" viewBox="0 0 185 102" fill="none" xmlns="http://www.w3.org/2000/svg">
<mask id="path-1-inside-1_327_2208" fill="white">
<path d="M180 0C182.761 0 185 2.23858 185 5V75C185 77.7614 182.761 80 180 80H29.1641L21.8311 100.665C21.5161 101.552 20.2613 101.552 19.9463 100.665L12.6133 80H5C2.2386 80 3.29865e-05 77.7614 0 75V5C0 2.23858 2.23858 6.54331e-08 5 0H180Z"/>
</mask>
<path d="M180 0C182.761 0 185 2.23858 185 5V75C185 77.7614 182.761 80 180 80H29.1641L21.8311 100.665C21.5161 101.552 20.2613 101.552 19.9463 100.665L12.6133 80H5C2.2386 80 3.29865e-05 77.7614 0 75V5C0 2.23858 2.23858 6.54331e-08 5 0H180Z" fill="#E5DAC6"/>
<path d="M185 75L186 75V75H185ZM180 80V81V81V80ZM29.1641 80V79H28.4578L28.2216 79.6656L29.1641 80ZM21.8311 100.665L22.7734 101L22.7735 100.999L21.8311 100.665ZM19.9463 100.665L19.0039 100.999L19.0039 101L19.9463 100.665ZM12.6133 80L13.5557 79.6656L13.3195 79H12.6133V80ZM0 75H-1V75L0 75ZM5 0V-1V-1V0ZM180 0V1C182.209 1 184 2.79086 184 5H185H186C186 1.68629 183.314 -1 180 -1V0ZM185 5H184V75H185H186V5H185ZM185 75L184 75C184 77.2091 182.209 79 180 79V80V81C183.314 81 186 78.3137 186 75L185 75ZM180 80V79H29.1641V80V81H180V80ZM29.1641 80L28.2216 79.6656L20.8886 100.331L21.8311 100.665L22.7735 100.999L30.1065 80.3344L29.1641 80ZM21.8311 100.665L20.8887 100.331L20.8887 100.331L19.9463 100.665L19.0039 101C19.6338 102.774 22.1435 102.774 22.7734 101L21.8311 100.665ZM19.9463 100.665L20.8887 100.331L13.5557 79.6656L12.6133 80L11.6709 80.3344L19.0039 100.999L19.9463 100.665ZM12.6133 80V79H5V80V81H12.6133V80ZM5 80V79C2.79089 79 1.00003 77.2091 1 75L0 75L-1 75C-0.99996 78.3137 1.6863 81 5 81V80ZM0 75H1V5H0H-1V75H0ZM0 5H1C1 2.79086 2.79086 1 5 1V0V-1C1.68629 -1 -1 1.68629 -1 5H0ZM5 0V1H180V0V-1H5V0Z" fill="#2C2C2C" mask="url(#path-1-inside-1_327_2208)"/>
<path d="M146.645 33.754C153.208 31.825 156.635 31.8391 163.193 33.754C161.803 47.0536 160.234 54.0912 156.536 66.1653C151.82 53.7934 149.567 46.7257 146.645 33.754Z" fill="#FFA54B" stroke="#474646" stroke-width="0.25"/>
<path d="M157.966 32.0997C157.966 31.9141 157.913 31.5415 157.819 31.1416C157.727 30.7496 157.725 28.944 157.659 27.3474C157.548 24.6925 157.725 24.2113 157.805 23.7842C157.891 23.3262 158.019 22.9045 158.139 22.4915C158.293 21.9648 158.473 21.545 158.621 21.2247C158.788 20.861 159.035 20.5054 159.262 20.1719C159.524 19.7891 159.73 19.4129 159.971 19.0523C160.218 18.6846 160.452 18.3461 160.64 18.0126C160.908 17.6256 161.174 17.3065 161.429 17.0126C161.496 16.9586 161.576 16.9322 161.738 16.905" stroke="#474646" stroke-width="0.25" stroke-linecap="round"/>
<path d="M158.287 21.9433C158.287 21.7841 158.181 21.465 158.047 21.1447C157.903 20.8021 157.752 20.4254 157.579 19.9592C157.39 19.4528 157.218 18.8531 157.07 18.5057C156.923 18.158 156.603 17.8663 156.282 17.6388C155.877 17.3525 155.239 17.1721 154.784 17.0522C154.418 16.9556 154.062 16.8522 153.58 16.8119C153.201 16.78 152.778 16.6923 152.256 16.7047C151.717 16.7175 152.16 18.023 152.227 18.7812C152.285 19.4319 152.695 19.7024 153.109 20.1555C153.461 20.5406 153.871 20.9292 154.193 21.0632C154.529 21.2031 154.915 21.2763 155.236 21.3167C156.005 21.4132 157.242 21.4362 157.563 21.4766C157.724 21.5162 157.885 21.5698 158.045 21.623C158.126 21.6498 158.205 21.9161 158.287 21.9433Z" fill="#5B8339" stroke="#474646" stroke-width="0.25" stroke-linecap="round"/>
<path d="M158.207 21.7033C158.366 21.6506 158.687 21.4378 159.341 20.826C159.725 20.4671 160.078 20.1855 160.372 19.9448C160.699 19.6772 161.147 19.4385 161.562 19.225C161.893 19.0551 162.271 19.0115 162.924 18.9179C164.768 18.6538 165.107 19.0371 165.428 19.1438C165.769 19.257 165.99 19.5169 166.098 19.6365C166.195 19.7453 165.913 19.9695 165.671 20.2626C165.426 20.5601 165.243 20.902 164.936 21.1691C164.543 21.5108 164.227 21.7289 163.906 21.9556C163.571 22.1918 163.211 22.4215 162.863 22.649C162.575 22.8364 162.221 22.8757 160.501 22.8765C159.865 22.8768 159.573 22.4775 159.251 22.2639C159.091 22.1576 158.93 22.0768 158.783 21.9972C158.715 21.944 158.341 21.8649 158.207 21.7033Z" fill="#5B8339" stroke="#474646" stroke-width="0.25" stroke-linecap="round"/>
<path d="M157.725 28.341C157.831 28.1819 158.205 27.8628 158.54 27.662C158.979 27.3986 159.248 27.1158 159.57 26.8359C159.878 26.5671 160.211 26.3161 160.546 26.1158C160.895 25.907 161.308 25.8891 161.723 25.7159C162.075 25.5693 162.458 25.4892 162.846 25.3956C163.2 25.3104 164.588 25.3021 165.428 25.3816C165.765 25.4136 166.07 25.6475 166.458 25.9938C166.621 26.1397 166.793 26.2081 166.9 26.2877C167.144 26.4691 166.66 26.8999 166.553 27.2202C166.446 27.5405 166.339 27.8596 166.193 28.193C165.995 28.6428 165.511 28.6337 165.097 28.7273C164.612 28.8367 164.015 28.8208 163.386 28.8872C162.067 29.0264 161.686 28.768 161.204 28.7277C160.845 28.6975 160.536 28.5281 160.134 28.4877C159.703 28.4443 159.332 28.3682 159.01 28.3278C158.689 28.2346 158.448 28.1547 158.288 28.1015C158.207 28.0747 157.807 28.3682 157.725 28.341Z" fill="#5B8339" stroke="#474646" stroke-width="0.25" stroke-linecap="round"/>
<path d="M161.256 17.4648C161.256 16.8306 161.203 15.5471 161.083 15.2268C160.955 14.8857 160.696 14.5874 160.361 14.2803C160.003 13.9518 159.573 13.7605 159.238 13.547C158.875 13.3152 158.529 13.2535 158.008 13.2131C157.804 13.1973 157.248 13.1463 156.566 13.1727C156.086 13.1913 156.574 14.5043 156.615 14.9573C156.647 15.3156 156.815 15.6239 157.002 15.9574C157.214 16.3353 157.615 16.5305 158.164 16.797L158.165 16.7975C158.504 16.9627 158.847 16.9578 159.195 17.0514C159.65 17.0914 160.182 17.1449 160.784 17.1581C161.015 17.1713 161.174 17.3577 161.256 17.4648Z" fill="#5B8339"/>
<path d="M158.164 16.797C158.164 16.7971 158.164 16.7973 158.165 16.7975C158.504 16.9627 158.847 16.9578 159.195 17.0514C159.65 17.0914 160.182 17.1449 160.784 17.1581C161.015 17.1713 161.174 17.3577 161.256 17.4648C161.256 16.8306 161.203 15.5471 161.083 15.2268C160.955 14.8857 160.696 14.5874 160.361 14.2803C160.003 13.9518 159.573 13.7605 159.238 13.547C158.875 13.3152 158.529 13.2535 158.008 13.2131C157.804 13.1973 157.248 13.1463 156.566 13.1727C156.086 13.1913 156.574 14.5043 156.615 14.9573C156.647 15.3156 156.815 15.6239 157.002 15.9574C157.214 16.3353 157.615 16.5305 158.164 16.797ZM158.165 16.7975L158.164 16.797" stroke="#474646" stroke-width="0.25" stroke-linecap="round"/>
<path d="M161.657 17.065C161.657 16.853 161.844 16.3468 162.058 15.947C162.267 15.5569 162.458 15.1744 162.74 14.8006C163.143 14.2648 163.635 14.0004 164.622 13.6542C165.581 13.318 166.043 13.3335 166.471 13.2931C167.112 13.2327 167.916 13.3319 168.237 13.5454C168.318 13.599 168.397 13.6518 168.398 13.7053C168.405 14.0086 167.839 13.9988 167.544 14.2648C167.268 14.5135 167.142 14.9041 166.875 15.2908C166.622 15.6573 166.314 15.9965 165.992 16.2776C165.684 16.5473 165.351 16.6907 165.029 16.8247C164.719 16.9538 164.341 17.0363 163.917 17.1289L163.906 17.1313C163.511 17.2175 162.972 17.2249 162.489 17.2913C162.355 17.3049 162.17 17.3049 162.034 17.2785C161.899 17.2521 161.82 17.1993 161.657 17.065Z" fill="#5B8339"/>
<path d="M163.917 17.1289C163.914 17.1297 163.91 17.1305 163.906 17.1313C163.511 17.2175 162.972 17.2249 162.489 17.2913C162.355 17.3049 162.17 17.3049 162.034 17.2785C161.899 17.2521 161.82 17.1993 161.657 17.065C161.657 16.853 161.844 16.3468 162.058 15.947C162.267 15.5569 162.458 15.1744 162.74 14.8006C163.143 14.2648 163.635 14.0004 164.622 13.6542C165.581 13.318 166.043 13.3335 166.471 13.2931C167.112 13.2327 167.916 13.3319 168.237 13.5454C168.318 13.599 168.397 13.6518 168.398 13.7053C168.405 14.0086 167.839 13.9988 167.544 14.2648C167.268 14.5135 167.142 14.9041 166.875 15.2908C166.622 15.6573 166.314 15.9965 165.992 16.2776C165.684 16.5473 165.351 16.6907 165.029 16.8247C164.719 16.9538 164.341 17.0363 163.917 17.1289ZM163.906 17.1313L163.917 17.1289" stroke="#474646" stroke-width="0.25" stroke-linecap="round"/>
<path d="M157.565 24.5023C157.14 24.5023 155.7 24.2912 154.945 24.0497C154.494 23.9054 153.902 23.6498 153.087 23.2644C152.612 23.0399 152.164 22.7174 151.774 22.4243C151.326 22.0866 150.905 21.7577 150.517 21.4114C150.213 21.1397 149.942 20.8252 149.701 20.5049C149.486 20.1847 149.273 19.8656 149.072 19.5453C149.031 19.4649 149.005 19.3857 148.978 19.3042" stroke="#474646" stroke-width="0.25" stroke-linecap="round"/>
<path d="M150.422 21.5434C150.422 22.0984 150.369 23.2212 150.182 23.5415C149.98 23.8874 149.674 24.1809 149.313 24.5543C149.001 24.8775 148.419 25.1933 147.883 25.4612C147.496 25.6541 147.133 25.8347 146.812 25.9414C146.652 25.9946 146.252 26.0218 145.771 25.8899C145.025 25.6855 145.474 24.8238 145.38 24.4772C145.352 24.3732 145.366 24.2384 145.393 24.1309C145.596 23.306 146.836 22.5046 147.131 22.2107C147.384 21.9571 147.772 21.8905 148.107 21.7305C148.46 21.5615 148.815 21.5706 149.203 21.5302C149.377 21.4906 149.539 21.437 149.738 21.397C149.859 21.3834 150.258 21.5434 150.422 21.5434Z" fill="#5B8339" stroke="#474646" stroke-width="0.25" stroke-linecap="round"/>
<path d="M153.231 23.5427C153.257 23.5435 153.578 23.0645 153.792 22.6646C154.007 22.2641 154.167 21.9448 154.407 21.4918C154.604 21.1198 154.753 20.4059 154.848 19.9495L154.849 19.9451C154.921 19.5995 154.969 19.173 154.983 18.1618C154.987 17.8637 154.89 17.6791 154.81 17.4796C154.652 17.085 154.196 16.9594 153.874 16.8254C153.553 16.6916 153.233 16.5323 152.938 16.4784C152.655 16.4265 152.777 17.0634 152.683 17.4632C152.591 17.8553 152.589 18.183 152.522 18.5033C152.456 18.8235 152.295 19.1426 152.188 19.5293C152.092 19.8758 151.894 20.235 151.853 20.6489C151.805 21.1433 151.839 21.7817 152.026 22.102C152.221 22.4347 152.401 22.7414 152.655 22.9953C152.775 23.1412 152.883 23.302 153.003 23.4483C153.07 23.5155 153.149 23.5683 153.231 23.5427Z" fill="#5B8339"/>
<path d="M154.848 19.9495C154.849 19.948 154.849 19.9466 154.849 19.9451C154.921 19.5995 154.969 19.173 154.983 18.1618C154.987 17.8637 154.89 17.6791 154.81 17.4796C154.652 17.085 154.196 16.9594 153.874 16.8254C153.553 16.6916 153.233 16.5323 152.938 16.4784C152.655 16.4265 152.777 17.0634 152.683 17.4632C152.591 17.8553 152.589 18.183 152.522 18.5033C152.456 18.8235 152.295 19.1426 152.188 19.5293C152.092 19.8758 151.894 20.235 151.853 20.6489C151.805 21.1433 151.839 21.7817 152.026 22.102C152.221 22.4347 152.401 22.7414 152.655 22.9953C152.775 23.1412 152.883 23.302 153.003 23.4483C153.07 23.5155 153.149 23.5683 153.231 23.5427C153.257 23.5435 153.578 23.0645 153.792 22.6646C154.007 22.2641 154.167 21.9448 154.407 21.4918C154.604 21.1198 154.753 20.4059 154.848 19.9495ZM154.849 19.9451L154.848 19.9495" stroke="#474646" stroke-width="0.25" stroke-linecap="round"/>
<path d="M149.299 19.704C149.299 19.2546 149.352 18.2933 149.445 17.9195C149.556 17.4775 149.592 17.0938 149.567 16.6931C149.541 16.2867 148.899 16.3196 148.578 16.1061C148.256 15.8926 147.936 15.7326 147.614 15.6922C147.451 15.6717 147.187 15.6255 146.906 15.6651C146.592 15.7093 146.597 16.2636 146.503 16.5839C146.458 16.7376 146.463 16.9042 146.423 17.0638C146.328 17.4434 146.97 17.8103 147.291 17.9574C147.635 18.1151 147.933 18.3701 148.254 18.65C148.414 18.77 148.576 18.8771 148.736 18.9967C148.816 19.0635 149.217 19.6225 149.299 19.704Z" fill="#5B8339" stroke="#474646" stroke-width="0.25" stroke-linecap="round"/>
<path d="M157.023 27.9082C156.958 27.7131 156.696 27.3218 156.351 27.0104C155.989 26.6826 155.647 26.3078 155.334 25.9969C155.061 25.7249 154.369 25.8488 153.826 26.0116C153.212 26.1957 152.793 25.7194 152.431 25.4414C152.266 25.0653 152.136 24.7711 152.021 24.5754C151.971 24.4769 151.939 24.3798 151.807 24.0836" stroke="#474646" stroke-width="0.25" stroke-linecap="round"/>
<path d="M156.924 28.4967C156.728 28.4967 156.336 28.6261 155.942 28.8718C155.585 29.0942 155.155 29.1498 154.761 29.1993C154.353 29.2505 153.714 29.3793 153.202 29.1679C152.794 28.9995 152.563 28.5967 152.3 28.2039C152.047 27.8254 151.939 27.4199 151.807 27.0271C151.774 26.9286 151.742 26.8315 151.725 26.3446C151.708 25.8577 151.708 24.9839 151.708 24.0836" stroke="#474646" stroke-width="0.25" stroke-linecap="round"/>
<path d="M148.822 32.5722C148.86 32.7172 148.881 32.8892 148.881 33.0064C148.892 33.1037 148.903 33.1356 148.925 33.1461C149.044 33.1243 149.173 33.0815 149.383 33.0654C149.528 33.0277 149.677 32.9903 149.841 32.9795C150.089 32.9633 150.245 32.9521 150.423 32.9043C150.563 32.8666 150.736 32.8492 150.913 32.813C151.07 32.781 151.245 32.785 151.43 32.7433C151.597 32.7056 151.747 32.6788 151.915 32.6519C152.116 32.6199 152.373 32.6027 152.556 32.5822C152.795 32.5555 153.118 32.5511 153.381 32.5178C153.592 32.491 153.831 32.4951 154.016 32.4534C154.183 32.4157 154.353 32.5137 154.749 32.3239C154.829 32.2855 154.833 32.2106 154.824 32.152C154.807 32.0504 154.751 31.9488 154.732 31.8141C154.7 31.5865 154.701 31.264 154.662 31.0301C154.635 30.8689 154.613 30.7191 154.57 30.5901C154.527 30.4611 154.468 30.3369 154.441 30.2035C154.409 30.0417 154.414 29.8444 154.371 29.6934C154.333 29.5591 154.301 29.3888 154.285 29.2098C154.28 29.15 154.274 29.0374 154.433 29.0225C154.886 28.98 155.216 28.9599 155.293 28.9531C155.476 28.9368 155.855 28.9669 156.117 28.8832C156.252 28.8402 156.384 28.804 156.516 28.7488C156.683 28.6791 156.847 28.6552 156.963 28.5609C157.136 28.4201 157.397 28.1658 157.512 28.0131C157.61 27.8841 157.75 27.7411 157.836 27.5944C157.911 27.4654 157.975 27.3367 158.029 27.2078C158.084 27.0788 158.161 26.9461 158.229 26.8213C158.299 26.6923 158.417 26.5844 158.444 26.4347C158.482 26.2291 158.477 25.9439 158.412 25.8227C158.342 25.6937 158.304 25.5631 158.255 25.4362C158.201 25.2962 158.125 25.1387 158.002 24.9905C157.899 24.8671 157.773 24.7555 157.641 24.6901C157.5 24.6204 157.348 24.5224 156.702 24.5724C156.357 24.5991 156.039 24.6448 155.852 24.6582C155.626 24.6745 155.47 24.6911 155.319 24.7335C155.184 24.7712 154.98 24.8164 154.802 24.9216C154.708 24.9768 154.614 25.0422 154.513 25.1166C154.5 25.1372 154.487 25.1578 154.474 25.1785C154.392 25.3106 154.302 25.436 154.215 25.565C154.129 25.694 154.043 25.8225 153.983 25.9516C153.952 26.0191 153.892 26.0806 153.838 26.1129C153.819 26.1242 153.806 26.0815 153.806 26.0492C153.805 25.9162 153.902 25.7704 153.983 25.6304C154.054 25.5075 154.15 25.3941 154.338 25.2493C154.399 25.2024 154.457 25.1581 154.513 25.1166C154.592 24.9969 154.68 24.8748 154.727 24.7328C154.775 24.5875 154.969 24.4079 154.856 23.6579C154.818 23.4067 154.77 23.2588 154.705 23.1169C154.645 22.9879 154.576 22.8643 154.479 22.7573C154.376 22.6445 154.256 22.5418 154.117 22.4783C153.988 22.419 153.861 22.3472 153.724 22.3119C153.557 22.2689 153.406 22.229 153.25 22.1831C153.104 22.1401 152.951 22.036 152.42 22.0921C152.166 22.1188 151.942 22.0859 151.709 22.1565C151.476 22.2271 151.235 22.3196 151.095 22.3876C150.874 22.4951 150.727 22.5646 150.589 22.6614L150.578 22.6686C150.403 22.7907 150.216 22.9211 150.023 23.1396C149.861 23.3223 149.763 23.4653 149.668 23.6548C149.592 23.8054 149.503 23.9759 149.436 24.1702C149.387 24.3099 149.28 24.9526 149.399 25.3083C149.442 25.4373 149.64 25.7425 149.479 25.7267C149.366 25.7156 149.237 25.6725 149.107 25.5974C148.978 25.5223 148.85 25.4764 148.719 25.4365C148.579 25.3935 148.413 25.3203 148.267 25.3076C147.895 25.2756 147.292 25.2709 147.141 25.3133C147.006 25.351 146.877 25.394 146.747 25.4692C146.618 25.5442 146.485 25.6032 146.332 25.7216C146.187 25.8348 146.058 25.9846 145.972 26.1136C145.885 26.2426 145.859 26.4187 145.81 26.5645C145.767 26.6936 145.673 26.8041 145.621 27.0318C145.552 27.341 145.599 27.784 145.611 27.9284C145.627 28.1218 145.689 28.2632 145.741 28.4006C145.789 28.5296 145.807 28.6703 145.881 28.7872C145.962 28.9162 145.997 29.0772 146.161 29.1951C146.296 29.2918 146.427 29.3733 146.554 29.4366C146.695 29.5063 146.843 29.5569 146.98 29.5921C147.147 29.6351 147.3 29.689 147.46 29.7263C147.621 29.764 148.135 29.5692 148.289 29.7748C148.321 29.8178 148.298 29.9635 148.337 30.1351C148.375 30.3013 148.411 30.4496 148.423 30.6075C148.44 30.8167 148.429 31.0607 148.494 31.2622C148.537 31.3965 148.573 31.5269 148.623 31.6809C148.666 31.8152 148.683 31.9488 148.725 32.0997C148.763 32.234 148.769 32.3687 148.822 32.5722Z" fill="white"/>
<path d="M154.513 25.1166C154.614 25.0422 154.708 24.9768 154.802 24.9216C154.98 24.8164 155.184 24.7712 155.319 24.7335C155.47 24.6911 155.626 24.6745 155.852 24.6582C156.039 24.6448 156.357 24.5991 156.702 24.5724C157.348 24.5224 157.5 24.6204 157.641 24.6901C157.773 24.7555 157.899 24.8671 158.002 24.9905C158.125 25.1387 158.201 25.2962 158.255 25.4362C158.304 25.5631 158.342 25.6937 158.412 25.8227C158.477 25.9439 158.482 26.2291 158.444 26.4347C158.417 26.5844 158.299 26.6923 158.229 26.8213C158.161 26.9461 158.084 27.0788 158.029 27.2078C157.975 27.3367 157.911 27.4654 157.836 27.5944C157.75 27.7411 157.61 27.8841 157.512 28.0131C157.397 28.1658 157.136 28.4201 156.963 28.5609C156.847 28.6552 156.683 28.6791 156.516 28.7488C156.384 28.804 156.252 28.8402 156.117 28.8832C155.855 28.9669 155.476 28.9368 155.293 28.9531C155.216 28.9599 154.886 28.98 154.433 29.0225C154.274 29.0374 154.28 29.15 154.285 29.2098C154.301 29.3888 154.333 29.5591 154.371 29.6934C154.414 29.8444 154.409 30.0417 154.441 30.2035C154.468 30.3369 154.527 30.4611 154.57 30.5901C154.613 30.7191 154.635 30.8689 154.662 31.0301C154.701 31.264 154.7 31.5865 154.732 31.8141C154.751 31.9488 154.807 32.0504 154.824 32.152C154.833 32.2106 154.829 32.2855 154.749 32.3239C154.353 32.5137 154.183 32.4157 154.016 32.4534C153.831 32.4951 153.592 32.491 153.381 32.5178C153.118 32.5511 152.795 32.5555 152.556 32.5822C152.373 32.6027 152.116 32.6199 151.915 32.6519C151.747 32.6788 151.597 32.7056 151.43 32.7433C151.245 32.785 151.07 32.781 150.913 32.813C150.736 32.8492 150.563 32.8666 150.423 32.9043C150.245 32.9521 150.089 32.9633 149.841 32.9795C149.677 32.9903 149.528 33.0277 149.383 33.0654C149.173 33.0815 149.044 33.1243 148.925 33.1461C148.903 33.1356 148.892 33.1037 148.881 33.0064C148.881 32.8892 148.86 32.7172 148.822 32.5722C148.769 32.3687 148.763 32.234 148.725 32.0997C148.683 31.9488 148.666 31.8152 148.623 31.6809C148.573 31.5269 148.537 31.3965 148.494 31.2622C148.429 31.0607 148.44 30.8167 148.423 30.6075C148.411 30.4496 148.375 30.3013 148.337 30.1351C148.298 29.9635 148.321 29.8178 148.289 29.7748C148.135 29.5692 147.621 29.764 147.46 29.7263C147.3 29.689 147.147 29.6351 146.98 29.5921C146.843 29.5569 146.695 29.5063 146.554 29.4366C146.427 29.3733 146.296 29.2918 146.161 29.1951C145.997 29.0772 145.962 28.9162 145.881 28.7872C145.807 28.6703 145.789 28.5296 145.741 28.4006C145.689 28.2632 145.627 28.1218 145.611 27.9284C145.599 27.784 145.552 27.341 145.621 27.0318C145.673 26.8041 145.767 26.6936 145.81 26.5645C145.859 26.4187 145.885 26.2426 145.972 26.1136C146.058 25.9846 146.187 25.8348 146.332 25.7216C146.485 25.6032 146.618 25.5442 146.747 25.4692C146.877 25.394 147.006 25.351 147.141 25.3133C147.292 25.2709 147.895 25.2756 148.267 25.3076C148.413 25.3203 148.579 25.3935 148.719 25.4365C148.85 25.4764 148.978 25.5223 149.107 25.5974C149.237 25.6725 149.366 25.7156 149.479 25.7267C149.64 25.7425 149.442 25.4373 149.399 25.3083C149.28 24.9526 149.387 24.3099 149.436 24.1702C149.503 23.9759 149.592 23.8054 149.668 23.6548C149.763 23.4653 149.861 23.3223 150.023 23.1396C150.216 22.9211 150.403 22.7907 150.578 22.6686C150.582 22.6662 150.585 22.6638 150.589 22.6614C150.727 22.5646 150.874 22.4951 151.095 22.3876C151.235 22.3196 151.476 22.2271 151.709 22.1565C151.942 22.0859 152.166 22.1188 152.42 22.0921C152.951 22.036 153.104 22.1401 153.25 22.1831C153.406 22.229 153.557 22.2689 153.724 22.3119C153.861 22.3472 153.988 22.419 154.117 22.4783C154.256 22.5418 154.376 22.6445 154.479 22.7573C154.576 22.8643 154.645 22.9879 154.705 23.1169C154.77 23.2588 154.818 23.4067 154.856 23.6579C154.969 24.4079 154.775 24.5875 154.727 24.7328C154.68 24.8748 154.592 24.9969 154.513 25.1166ZM150.589 22.6614L150.578 22.6686M154.513 25.1166C154.5 25.1372 154.487 25.1578 154.474 25.1785C154.392 25.3106 154.302 25.436 154.215 25.565C154.129 25.694 154.043 25.8225 153.983 25.9516C153.952 26.0191 153.892 26.0806 153.838 26.1129C153.819 26.1242 153.806 26.0815 153.806 26.0492C153.805 25.9162 153.902 25.7704 153.983 25.6304C154.054 25.5075 154.15 25.3941 154.338 25.2493C154.399 25.2024 154.457 25.1581 154.513 25.1166Z" stroke="#3A3A3A" stroke-width="0.25" stroke-linecap="round"/>
<path d="M150.437 31.556C150.431 31.4995 150.405 31.4117 150.396 31.3266C150.385 31.2332 150.349 31.1474 150.339 31.0654C150.33 30.9887 150.311 30.902 150.289 30.7825C150.252 30.584 150.254 30.4802 150.244 30.1821C150.242 30.115 150.235 30.0902 150.232 29.8998C150.229 29.7094 150.229 29.3542 150.232 29.1619C150.247 28.9068 150.26 28.8188 150.282 28.7401C150.285 28.718 150.285 28.6931 150.323 28.6674" stroke="#3A3A3A" stroke-width="0.25" stroke-linecap="round"/>
<path d="M152.71 31.1406C152.71 30.9598 152.698 30.581 152.673 30.4614C152.646 30.3357 152.622 30.2223 152.613 30.1027C152.602 29.9691 152.578 29.6204 152.597 29.4229C152.605 29.3376 152.647 29.2406 152.676 29.1398C152.704 29.0405 152.742 28.9574 152.77 28.8691C152.824 28.7308 152.9 28.5549 152.941 28.4443C152.95 28.4221 152.963 28.4035 152.995 28.3842" stroke="#3A3A3A" stroke-width="0.25" stroke-linecap="round"/>
<path d="M157.326 45.1816C157.335 45.116 157.253 45.0255 157.187 45.03C157.101 45.0357 157.014 45.0455 156.972 45.0595C156.89 45.0865 156.773 45.095 156.573 45.1094L156.565 45.11C156.167 45.1387 155.875 45.1071 155.813 45.0982C155.645 45.0741 155.524 45.0774 155.396 45.0626C155.262 45.0472 155.167 45.03 155.003 45.021C154.896 45.0152 154.792 44.9883 154.699 44.9736C154.607 44.9589 154.511 44.941 154.404 44.932C154.324 44.9253 154.273 44.8934 154.24 44.8933C154.224 44.8933 154.213 44.9167 154.213 44.9346C154.212 45.0173 154.266 45.1066 154.29 45.184C154.312 45.2559 154.338 45.3264 154.365 45.3977C154.395 45.4786 154.415 45.5697 154.433 45.6619C154.448 45.7386 154.481 45.8073 154.508 45.8786C154.536 45.9546 154.57 46.0328 154.624 46.1102C154.672 46.1802 154.719 46.2704 154.758 46.3417C154.801 46.42 154.85 46.502 154.898 46.5762C154.951 46.6592 155.005 46.7335 155.079 46.8225C155.221 46.9921 155.344 47.0363 155.449 47.1047C155.528 47.1567 155.613 47.1909 155.684 47.2295C155.761 47.271 156.052 47.2682 156.235 47.2505C156.313 47.243 156.381 47.203 156.456 47.1556C156.554 47.0934 156.625 47.0075 156.691 46.9271C156.765 46.8374 156.816 46.7698 156.864 46.6985C156.91 46.6298 156.93 46.5561 156.953 46.4848C156.977 46.4134 157.001 46.3306 157.028 46.2296C157.061 46.1033 157.09 46.0218 157.129 45.9327C157.169 45.842 157.18 45.7428 157.204 45.6507C157.225 45.5696 157.24 45.4757 157.257 45.3983C157.281 45.3269 157.305 45.2559 157.326 45.1816Z" fill="#3A3A3A"/>
<path d="M156.573 45.1094C156.57 45.1096 156.567 45.1098 156.565 45.11C156.167 45.1387 155.875 45.1071 155.813 45.0982C155.645 45.0741 155.524 45.0774 155.396 45.0626C155.262 45.0472 155.167 45.03 155.003 45.021C154.896 45.0152 154.792 44.9883 154.699 44.9736C154.607 44.9589 154.511 44.941 154.404 44.932C154.324 44.9253 154.273 44.8934 154.24 44.8933C154.224 44.8933 154.213 44.9167 154.213 44.9346C154.212 45.0173 154.266 45.1066 154.29 45.184C154.312 45.2559 154.338 45.3264 154.365 45.3977C154.395 45.4786 154.415 45.5697 154.433 45.6619C154.448 45.7386 154.481 45.8073 154.508 45.8786C154.536 45.9546 154.57 46.0328 154.624 46.1102C154.672 46.1802 154.719 46.2704 154.758 46.3417C154.801 46.42 154.85 46.502 154.898 46.5762C154.951 46.6592 155.005 46.7335 155.079 46.8225C155.221 46.9921 155.344 47.0363 155.449 47.1047C155.528 47.1567 155.613 47.1909 155.684 47.2295C155.761 47.271 156.052 47.2682 156.235 47.2505C156.313 47.243 156.381 47.203 156.456 47.1556C156.554 47.0934 156.625 47.0075 156.691 46.9271C156.765 46.8374 156.816 46.7698 156.864 46.6985C156.91 46.6298 156.93 46.5561 156.953 46.4848C156.977 46.4134 157.001 46.3306 157.028 46.2296C157.061 46.1033 157.09 46.0218 157.129 45.9327C157.169 45.842 157.18 45.7428 157.204 45.6507C157.225 45.5696 157.24 45.4757 157.257 45.3983C157.281 45.3269 157.305 45.2559 157.326 45.1816C157.335 45.116 157.253 45.0255 157.187 45.03C157.101 45.0357 157.014 45.0455 156.972 45.0595C156.89 45.0865 156.773 45.095 156.573 45.1094ZM156.565 45.11L156.573 45.1094" stroke="#3A3A3A" stroke-width="0.25" stroke-linecap="round"/>
<path d="M154.526 42.817C154.538 42.7506 154.574 42.5823 154.538 42.4474C154.538 42.2914 154.514 41.9766 154.465 41.8313C154.417 41.6861 154.344 41.5413 154.271 41.408C154.238 41.3464 154.102 41.3593 153.981 41.3772C153.891 41.3905 153.859 41.504 153.816 41.5763C153.627 41.9003 153.798 42.5554 153.846 42.7007C153.859 42.7394 153.872 42.7782 153.887 42.817H154.526Z" fill="#3A3A3A" stroke="#3A3A3A" stroke-width="0.25" stroke-linecap="round"/>
<path d="M154.526 42.8169H153.887" stroke="#3A3A3A" stroke-width="0.25" stroke-linecap="round"/>
<path d="M150.303 48.2095C150.222 48.3056 150.125 48.4981 149.972 48.6914C149.819 48.8849 149.626 49.0454 149.432 49.1663C149.256 49.2758 149.044 49.3031 148.81 49.3275C148.601 49.3492 148.415 49.4479 148.221 49.5203C147.936 49.6267 147.72 49.9942 147.599 50.1875C147.489 50.3625 147.462 50.5733 147.357 50.7666C147.258 50.9483 147.251 51.1525 147.203 51.3457C147.155 51.5391 147.091 51.7316 147.042 51.9249C146.989 52.1344 146.817 52.2789 146.663 52.4478C146.509 52.6167 146.332 52.7615 146.098 52.9625C145.93 53.107 145.751 53.2441 145.605 53.4209C145.457 53.6005 145.379 53.8068 145.315 54.0001C145.197 54.3526 145.202 54.9168 145.073 55.1101C144.945 55.3006 144.702 55.4795 144.492 55.6332C144.32 55.7589 144.104 55.8501 143.959 56.027C143.885 56.1164 143.861 56.284 143.837 56.4609C143.809 56.6717 143.507 56.7507 143.329 56.8479C143.15 56.9461 142.942 56.9765 142.788 57.129C142.707 57.2095 142.635 57.282 142.626 57.3783C142.622 57.4272 142.666 57.4746 142.739 57.4992C143.067 57.611 143.279 57.3954 143.473 57.331C143.522 57.3148 143.57 57.2989 143.595 57.3146C143.619 57.3303 143.619 57.3781 143.595 57.4186C143.491 57.5954 143.362 57.7641 143.24 57.9574C143.127 58.1377 143.055 58.3433 143.062 58.5607C143.064 58.6072 143.132 58.6171 143.188 58.6252L143.191 58.6256C143.247 58.6338 143.311 58.6338 143.352 58.6099C143.517 58.5135 143.506 58.2487 143.627 58.0634C143.745 57.8818 143.845 57.7656 143.917 57.6852C143.952 57.6467 144.006 57.6367 144.038 57.6524C144.111 57.6871 144.104 58.1633 144.135 58.7665C144.146 58.9738 144.231 58.9716 144.28 58.9477C144.481 58.8498 144.491 58.3954 144.539 58.1037C144.556 58.0035 144.588 57.8148 144.612 57.6056C144.62 57.536 144.684 57.5557 144.716 57.5878C144.783 57.6533 144.814 57.7646 144.886 57.845C145.021 57.9953 145.217 57.9582 145.314 57.9422C145.364 57.9339 145.41 57.8945 145.435 57.8303C145.493 57.6794 145.428 57.5243 145.355 57.436C145.215 57.2647 144.976 57.2507 144.782 57.1783C144.731 57.1593 144.686 57.1223 144.653 57.082C144.59 57.0038 144.588 56.8491 144.604 56.6805C144.616 56.5532 144.713 56.4656 144.793 56.3939L144.797 56.3902C144.968 56.2366 145.216 56.2854 145.37 56.1329C145.451 56.0525 145.54 55.98 145.596 55.8837C145.73 55.6564 145.685 55.3048 145.742 55.0876C145.821 54.7827 145.799 54.3898 145.895 54.098C145.963 53.8921 146.233 53.8406 146.387 53.6796C146.532 53.5284 146.734 53.4226 146.904 53.2694C147.082 53.1081 147.219 52.8918 147.348 52.6985C147.477 52.5052 147.574 52.3126 147.598 52.1194C147.625 51.908 147.671 51.6853 147.736 51.492C147.804 51.2882 147.816 51.0579 147.897 50.8646C147.993 50.6333 148.268 50.5589 148.461 50.438C148.637 50.3285 148.849 50.3011 149.043 50.1967C149.225 50.0985 149.43 50.0598 149.624 49.9474C149.818 49.8348 150.011 49.8021 150.205 49.6981C150.32 49.6363 150.399 49.529 150.488 49.4568C150.708 49.2772 150.562 48.841 150.497 48.6467L150.497 48.6446C150.48 48.5961 150.464 48.5483 150.44 48.4998C150.416 48.4513 150.384 48.2588 150.303 48.2095Z" fill="#3A3A3A"/>
<path d="M143.191 58.6256C143.247 58.6338 143.311 58.6338 143.352 58.6099C143.517 58.5135 143.506 58.2487 143.627 58.0634C143.745 57.8818 143.845 57.7656 143.917 57.6852C143.952 57.6467 144.006 57.6367 144.038 57.6524C144.111 57.6871 144.104 58.1633 144.135 58.7665C144.146 58.9738 144.231 58.9716 144.28 58.9477C144.481 58.8498 144.491 58.3954 144.539 58.1037C144.556 58.0035 144.588 57.8148 144.612 57.6056C144.62 57.536 144.684 57.5557 144.716 57.5878C144.783 57.6533 144.814 57.7646 144.886 57.845C145.021 57.9953 145.217 57.9582 145.314 57.9422C145.364 57.9339 145.41 57.8945 145.435 57.8303C145.493 57.6794 145.428 57.5243 145.355 57.436C145.215 57.2647 144.976 57.2507 144.782 57.1783C144.731 57.1593 144.686 57.1223 144.653 57.082C144.59 57.0038 144.588 56.8491 144.604 56.6805C144.616 56.5532 144.713 56.4656 144.793 56.3939M143.191 58.6256L143.188 58.6252M144.793 56.3939C144.794 56.3926 144.796 56.3914 144.797 56.3902C144.968 56.2366 145.216 56.2854 145.37 56.1329C145.451 56.0525 145.54 55.98 145.596 55.8837C145.73 55.6564 145.685 55.3048 145.742 55.0876C145.821 54.7827 145.799 54.3898 145.895 54.098C145.963 53.8921 146.233 53.8406 146.387 53.6796C146.532 53.5284 146.734 53.4226 146.904 53.2694C147.082 53.1081 147.219 52.8918 147.348 52.6985C147.477 52.5052 147.574 52.3126 147.598 52.1194C147.625 51.908 147.671 51.6853 147.736 51.492C147.804 51.2882 147.816 51.0579 147.897 50.8646C147.993 50.6333 148.268 50.5589 148.461 50.438C148.637 50.3285 148.849 50.3011 149.043 50.1967C149.225 50.0985 149.43 50.0598 149.624 49.9474C149.818 49.8348 150.011 49.8021 150.205 49.6981C150.32 49.6363 150.399 49.529 150.488 49.4568C150.708 49.2772 150.562 48.841 150.497 48.6467C150.497 48.646 150.497 48.6453 150.497 48.6446C150.48 48.5961 150.464 48.5483 150.44 48.4998C150.416 48.4513 150.384 48.2588 150.303 48.2095C150.222 48.3056 150.125 48.4981 149.972 48.6914C149.819 48.8849 149.626 49.0454 149.432 49.1663C149.256 49.2758 149.044 49.3031 148.81 49.3275C148.601 49.3492 148.415 49.4479 148.221 49.5203C147.936 49.6267 147.72 49.9942 147.599 50.1875C147.489 50.3625 147.462 50.5733 147.357 50.7666C147.258 50.9483 147.251 51.1525 147.203 51.3457C147.155 51.5391 147.091 51.7316 147.042 51.9249C146.989 52.1344 146.817 52.2789 146.663 52.4478C146.509 52.6167 146.332 52.7615 146.098 52.9625C145.93 53.107 145.751 53.2441 145.605 53.4209C145.457 53.6005 145.379 53.8068 145.315 54.0001C145.197 54.3526 145.202 54.9168 145.073 55.1101C144.945 55.3006 144.702 55.4795 144.492 55.6332C144.32 55.7589 144.104 55.8501 143.959 56.027C143.885 56.1164 143.861 56.284 143.837 56.4609C143.809 56.6717 143.507 56.7507 143.329 56.8479C143.15 56.9461 142.942 56.9765 142.788 57.129C142.707 57.2095 142.635 57.282 142.626 57.3783C142.622 57.4272 142.666 57.4746 142.739 57.4992C143.067 57.611 143.279 57.3954 143.473 57.331C143.522 57.3148 143.57 57.2989 143.595 57.3146C143.619 57.3303 143.619 57.3781 143.595 57.4186C143.491 57.5954 143.362 57.7641 143.24 57.9574C143.127 58.1377 143.055 58.3433 143.062 58.5607C143.064 58.6072 143.132 58.6171 143.188 58.6252C143.189 58.6254 143.19 58.6255 143.191 58.6256M144.797 56.3902L144.793 56.3939M150.497 48.6446L150.497 48.6467" stroke="#3A3A3A" stroke-width="0.25" stroke-linecap="round"/>
<path d="M161.324 48.1601C161.289 48.1475 161.259 48.1386 161.235 48.1347C161.203 48.2304 161.187 48.4869 161.099 48.7203C161.091 48.984 161.089 49.2055 161.156 49.2707C161.188 49.3026 161.234 49.3258 161.284 49.3345C161.559 49.3823 161.981 49.3923 162.078 49.591C162.102 49.6395 162.095 49.7043 162.11 49.759C162.167 49.959 162.251 50.1567 162.351 50.3427C162.456 50.5349 162.366 50.809 162.608 51.1025C162.681 51.1898 162.795 51.2188 162.914 51.2539C163.131 51.318 163.396 51.3304 163.676 51.4058C163.885 51.4619 164.457 51.3992 164.799 51.5418C164.992 51.6222 165.217 51.6646 165.377 51.798C165.473 51.8779 165.537 51.9744 165.569 52.0701C165.634 52.2623 165.756 52.4401 165.85 52.6459C165.939 52.8381 166.121 52.9722 166.284 53.1337C166.437 53.2853 166.621 53.3779 166.822 53.4214C167.228 53.5089 167.997 53.48 168.097 53.6858C168.121 53.7345 168.136 53.8195 168.105 53.8777C167.992 54.0857 167.674 54.3603 167.938 54.7253C167.995 54.8045 168.128 54.8364 168.178 54.78C168.33 54.6116 168.328 54.3327 168.515 54.2606C168.556 54.245 168.612 54.2542 168.635 54.2932C168.683 54.3731 168.717 54.5224 168.796 54.7093C168.876 54.9014 168.806 55.3612 169.005 55.5567C169.037 55.5886 169.085 55.6044 169.133 55.596C169.182 55.5876 169.252 55.5581 169.253 55.4259C169.261 54.8035 169.009 54.5764 169.157 54.2923C169.182 54.245 169.229 54.2608 169.27 54.2932C169.31 54.3256 169.342 54.3731 169.374 54.4214C169.502 54.6135 169.663 54.7728 169.856 54.901C170.048 55.0291 170.236 55.2464 170.433 55.2121C170.482 55.2037 170.529 55.1721 170.561 55.1318C170.593 55.0915 170.609 55.044 170.609 54.9957C170.609 54.9475 170.6 54.8946 170.561 54.8518C170.384 54.6596 170.315 54.3837 170.095 54.2923C169.902 54.2124 169.624 54.2293 169.518 54.0603C169.502 54.0358 169.534 53.9883 169.575 53.9482L169.578 53.945C169.617 53.9057 169.663 53.8605 169.736 53.8607C170.048 53.8611 170.227 53.9609 170.442 54.0209C170.498 54.0368 170.562 54.0368 170.593 53.9797C170.625 53.9226 170.644 53.8022 170.601 53.74C170.528 53.6366 170.45 53.3993 170.198 53.3808C169.982 53.365 169.803 53.3743 169.71 53.4132C169.517 53.4936 169.237 53.619 169.035 53.5087C168.94 53.4564 168.803 53.3093 168.708 53.2064C168.708 53.2088 168.708 53.2109 168.707 53.2129C168.703 53.237 168.62 53.1423 168.611 53.1255C168.578 53.0636 168.628 53.119 168.708 53.2064C168.715 53.1604 168.713 53.042 168.634 52.9885C168.457 52.8688 168.275 52.7704 168.072 52.7328C167.601 52.6452 166.825 52.6319 166.628 52.5008C166.435 52.3727 166.234 52.2328 166.155 52.0207C166.083 51.8285 166.023 51.6154 165.898 51.4449C165.744 51.2364 165.533 51.0501 165.328 50.9734C165.135 50.9015 164.945 50.8296 164.742 50.7736C164.509 50.7095 164.293 50.7715 163.834 50.6217C163.562 50.5329 163.372 50.3941 163.257 50.1973C163.145 50.0051 163.081 49.8137 163.017 49.6215C162.953 49.4293 162.942 49.2078 162.816 49.0457C162.679 48.8698 162.481 48.7546 162.294 48.6541C162.101 48.5502 161.923 48.4289 161.716 48.3343C161.572 48.268 161.427 48.1977 161.324 48.1601Z" fill="#3A3A3A"/>
<path d="M161.235 48.1347C161.203 48.2304 161.187 48.4869 161.099 48.7203C161.091 48.984 161.089 49.2055 161.156 49.2707C161.188 49.3026 161.234 49.3258 161.284 49.3345C161.559 49.3823 161.981 49.3923 162.078 49.591C162.102 49.6395 162.095 49.7043 162.11 49.759C162.167 49.959 162.251 50.1567 162.351 50.3427C162.456 50.5349 162.366 50.809 162.608 51.1025C162.681 51.1898 162.795 51.2188 162.914 51.2539C163.131 51.318 163.396 51.3304 163.676 51.4058C163.885 51.4619 164.457 51.3992 164.799 51.5418C164.992 51.6222 165.217 51.6646 165.377 51.798C165.473 51.8779 165.537 51.9744 165.569 52.0701C165.634 52.2623 165.756 52.4401 165.85 52.6459C165.939 52.8381 166.121 52.9722 166.284 53.1337C166.437 53.2853 166.621 53.3779 166.822 53.4214C167.228 53.5089 167.997 53.48 168.097 53.6858C168.121 53.7345 168.136 53.8195 168.105 53.8777C167.992 54.0857 167.674 54.3603 167.938 54.7253C167.995 54.8045 168.128 54.8364 168.178 54.78C168.33 54.6116 168.328 54.3327 168.515 54.2606C168.556 54.245 168.612 54.2542 168.635 54.2932C168.683 54.3731 168.717 54.5224 168.796 54.7093C168.876 54.9014 168.806 55.3612 169.005 55.5567C169.037 55.5886 169.085 55.6044 169.133 55.596C169.182 55.5876 169.252 55.5581 169.253 55.4259C169.261 54.8035 169.009 54.5764 169.157 54.2923C169.182 54.245 169.229 54.2608 169.27 54.2932C169.31 54.3256 169.342 54.3731 169.374 54.4214C169.502 54.6135 169.663 54.7728 169.856 54.901C170.048 55.0291 170.236 55.2464 170.433 55.2121C170.482 55.2037 170.529 55.1721 170.561 55.1318C170.593 55.0915 170.609 55.044 170.609 54.9957C170.609 54.9475 170.6 54.8946 170.561 54.8518C170.384 54.6596 170.315 54.3837 170.095 54.2923C169.902 54.2124 169.624 54.2293 169.518 54.0603C169.502 54.0358 169.534 53.9883 169.575 53.9482M161.235 48.1347C161.259 48.1386 161.289 48.1475 161.324 48.1601M161.235 48.1347C161.245 48.1065 161.287 48.128 161.324 48.1601M169.575 53.9482L169.578 53.945M168.708 53.2064C168.803 53.3093 168.94 53.4564 169.035 53.5087C169.237 53.619 169.517 53.4936 169.71 53.4132C169.803 53.3743 169.982 53.365 170.198 53.3808C170.45 53.3993 170.528 53.6366 170.601 53.74C170.644 53.8022 170.625 53.9226 170.593 53.9797C170.562 54.0368 170.498 54.0368 170.442 54.0209C170.227 53.9609 170.048 53.8611 169.736 53.8607C169.663 53.8605 169.617 53.9057 169.578 53.945C169.577 53.9461 169.576 53.9472 169.575 53.9482M161.38 48.2306C161.373 48.2111 161.35 48.1829 161.324 48.1601M161.324 48.1601C161.427 48.1977 161.572 48.268 161.716 48.3343C161.923 48.4289 162.101 48.5502 162.294 48.6541C162.481 48.7546 162.679 48.8698 162.816 49.0457C162.942 49.2078 162.953 49.4293 163.017 49.6215C163.081 49.8137 163.145 50.0051 163.257 50.1973C163.372 50.3941 163.562 50.5329 163.834 50.6217C164.293 50.7715 164.509 50.7095 164.742 50.7736C164.945 50.8296 165.135 50.9015 165.328 50.9734C165.533 51.0501 165.744 51.2364 165.898 51.4449C166.023 51.6154 166.083 51.8285 166.155 52.0207C166.234 52.2328 166.435 52.3727 166.628 52.5008C166.825 52.6319 167.601 52.6452 168.072 52.7328C168.275 52.7704 168.457 52.8688 168.634 52.9885C168.713 53.042 168.715 53.1604 168.708 53.2064M168.708 53.2064C168.708 53.2088 168.708 53.2109 168.707 53.2129C168.703 53.237 168.62 53.1423 168.611 53.1255C168.578 53.0636 168.628 53.119 168.708 53.2064Z" stroke="#3A3A3A" stroke-width="0.25" stroke-linecap="round"/>
<path d="M157.333 42.7902C157.345 42.7238 157.381 42.5555 157.345 42.4206C157.345 42.2646 157.321 41.9498 157.272 41.8045C157.224 41.6593 157.151 41.5146 157.078 41.3813C157.045 41.3196 156.909 41.3325 156.788 41.3504C156.698 41.3638 156.666 41.4772 156.623 41.5496C156.434 41.8735 156.605 42.5287 156.653 42.6739C156.666 42.7126 156.679 42.7514 156.694 42.7902H157.333Z" fill="#3A3A3A" stroke="#3A3A3A" stroke-width="0.25" stroke-linecap="round"/>
<path d="M7.59961 10.9873C7.51367 10.6748 7.60352 10.5186 7.86914 10.5186H8.95312C9.13672 10.5186 9.25977 10.6475 9.32227 10.9053L10.4355 15.5107C10.5176 15.8467 10.5703 16.0771 10.5938 16.2021C10.6211 16.3232 10.6445 16.5205 10.6641 16.7939H10.6934C10.7129 16.5205 10.7324 16.3135 10.752 16.1729C10.7715 16.0322 10.8281 15.7998 10.9219 15.4756L12.2285 10.9521C12.3105 10.6631 12.4746 10.5186 12.7207 10.5186H13.7988C14.0449 10.5186 14.209 10.6631 14.291 10.9521L15.5977 15.4756C15.6914 15.7998 15.748 16.0322 15.7676 16.1729C15.7871 16.3135 15.8066 16.5205 15.8262 16.7939H15.8555C15.875 16.5205 15.8965 16.3232 15.9199 16.2021C15.9473 16.0771 16.002 15.8467 16.084 15.5107L17.1973 10.9053C17.2598 10.6475 17.3828 10.5186 17.5664 10.5186H18.6504C18.916 10.5186 19.0059 10.6748 18.9199 10.9873L16.9277 18.3525C16.8262 18.7314 16.6426 18.9209 16.377 18.9209H15.3516C15.125 18.9209 14.959 18.7334 14.8535 18.3584L13.4473 13.4482C13.3691 13.1826 13.3242 13.0107 13.3125 12.9326C13.3008 12.8506 13.2852 12.7002 13.2656 12.4814H13.2539C13.2344 12.7002 13.2188 12.8506 13.207 12.9326C13.1953 13.0107 13.1504 13.1826 13.0723 13.4482L11.666 18.3584C11.5605 18.7334 11.3945 18.9209 11.168 18.9209H10.1426C9.87695 18.9209 9.69336 18.7314 9.5918 18.3525L7.59961 10.9873ZM19.5586 14.7197C19.5586 13.3721 19.9062 12.3018 20.6016 11.5088C21.2969 10.7158 22.2891 10.3193 23.5781 10.3193C24.8672 10.3193 25.8594 10.7158 26.5547 11.5088C27.25 12.3018 27.5977 13.3721 27.5977 14.7197C27.5977 16.0674 27.25 17.1377 26.5547 17.9307C25.8594 18.7236 24.8672 19.1201 23.5781 19.1201C22.2891 19.1201 21.2969 18.7236 20.6016 17.9307C19.9062 17.1377 19.5586 16.0674 19.5586 14.7197ZM21.3867 14.7197C21.3867 15.6963 21.5605 16.4443 21.9082 16.9639C22.2598 17.4795 22.8164 17.7373 23.5781 17.7373C24.3398 17.7373 24.8945 17.4795 25.2422 16.9639C25.5938 16.4443 25.7695 15.6963 25.7695 14.7197C25.7695 13.7432 25.5938 12.9971 25.2422 12.4814C24.8945 11.9619 24.3398 11.7021 23.5781 11.7021C22.8164 11.7021 22.2598 11.9619 21.9082 12.4814C21.5605 12.9971 21.3867 13.7432 21.3867 14.7197ZM28.4941 10.9873C28.4082 10.6748 28.498 10.5186 28.7637 10.5186H29.8477C30.0312 10.5186 30.1543 10.6475 30.2168 10.9053L31.3301 15.5107C31.4121 15.8467 31.4648 16.0771 31.4883 16.2021C31.5156 16.3232 31.5391 16.5205 31.5586 16.7939H31.5879C31.6074 16.5205 31.627 16.3135 31.6465 16.1729C31.666 16.0322 31.7227 15.7998 31.8164 15.4756L33.123 10.9521C33.2051 10.6631 33.3691 10.5186 33.6152 10.5186H34.6934C34.9395 10.5186 35.1035 10.6631 35.1855 10.9521L36.4922 15.4756C36.5859 15.7998 36.6426 16.0322 36.6621 16.1729C36.6816 16.3135 36.7012 16.5205 36.7207 16.7939H36.75C36.7695 16.5205 36.791 16.3232 36.8145 16.2021C36.8418 16.0771 36.8965 15.8467 36.9785 15.5107L38.0918 10.9053C38.1543 10.6475 38.2773 10.5186 38.4609 10.5186H39.5449C39.8105 10.5186 39.9004 10.6748 39.8145 10.9873L37.8223 18.3525C37.7207 18.7314 37.5371 18.9209 37.2715 18.9209H36.2461C36.0195 18.9209 35.8535 18.7334 35.748 18.3584L34.3418 13.4482C34.2637 13.1826 34.2188 13.0107 34.207 12.9326C34.1953 12.8506 34.1797 12.7002 34.1602 12.4814H34.1484C34.1289 12.7002 34.1133 12.8506 34.1016 12.9326C34.0898 13.0107 34.0449 13.1826 33.9668 13.4482L32.5605 18.3584C32.4551 18.7334 32.2891 18.9209 32.0625 18.9209H31.0371C30.7715 18.9209 30.5879 18.7314 30.4863 18.3525L28.4941 10.9873ZM44.5195 15.8447C44.5195 14.9854 44.7051 14.2393 45.0762 13.6064C45.4512 12.9697 46.0977 12.6514 47.0156 12.6514C47.3672 12.6514 47.668 12.7021 47.918 12.8037C48.168 12.9053 48.3945 13.124 48.5977 13.46H48.6211C48.6055 13.3037 48.5977 13.1475 48.5977 12.9912V10.624C48.5977 10.3896 48.7148 10.2725 48.9492 10.2725H49.8867C50.1211 10.2725 50.2383 10.3896 50.2383 10.624V18.5693C50.2383 18.8037 50.1211 18.9209 49.8867 18.9209H48.9609C48.7656 18.9209 48.6602 18.8037 48.6445 18.5693L48.6211 18.2295H48.5977C48.3945 18.5654 48.168 18.7842 47.918 18.8857C47.668 18.9873 47.3672 19.0381 47.0156 19.0381C46.0977 19.0381 45.4512 18.7217 45.0762 18.0889C44.7051 17.4521 44.5195 16.7041 44.5195 15.8447ZM46.2539 15.8447C46.2539 16.4697 46.334 16.9678 46.4941 17.3389C46.6582 17.7061 47.0039 17.8896 47.5312 17.8896C47.8242 17.8896 48.0742 17.7256 48.2812 17.3975C48.4922 17.0654 48.5977 16.6357 48.5977 16.1084V15.5811C48.5977 15.0537 48.4922 14.626 48.2812 14.2979C48.0742 13.9658 47.8242 13.7998 47.5312 13.7998C47.0039 13.7998 46.6582 13.9854 46.4941 14.3564C46.334 14.7236 46.2539 15.2197 46.2539 15.8447ZM51.8203 16.3662V13.1201C51.8203 12.8857 51.9375 12.7686 52.1719 12.7686H53.1094C53.3438 12.7686 53.4609 12.8857 53.4609 13.1201V15.9443C53.4609 16.7959 53.5195 17.333 53.6367 17.5557C53.7539 17.7783 54 17.8896 54.375 17.8896C54.7734 17.8896 55.0762 17.7314 55.2832 17.415C55.4902 17.0947 55.5938 16.4326 55.5938 15.4287V13.1201C55.5938 12.8857 55.7109 12.7686 55.9453 12.7686H56.8828C57.1172 12.7686 57.2344 12.8857 57.2344 13.1201V18.5693C57.2344 18.8037 57.1172 18.9209 56.8828 18.9209H55.957C55.7227 18.9209 55.6055 18.8037 55.6055 18.5693V18.2295H55.582C55.4023 18.5381 55.1738 18.751 54.8965 18.8682C54.6191 18.9814 54.291 19.0381 53.9121 19.0381C53.3145 19.0381 52.8164 18.8467 52.418 18.4639C52.0195 18.0811 51.8203 17.3818 51.8203 16.3662ZM63.2812 18.9209C63.0469 18.9209 62.9297 18.8037 62.9297 18.5693V10.624C62.9297 10.3896 63.0469 10.2725 63.2812 10.2725H64.2188C64.4531 10.2725 64.5703 10.3896 64.5703 10.624V14.9307C64.5703 15.0869 64.5625 15.2432 64.5469 15.3994H64.5703L66.4277 13.0088C66.5527 12.8486 66.7051 12.7686 66.8848 12.7686H67.8457C68.2051 12.7686 68.2656 12.9131 68.0273 13.2021L66.2578 15.3408L68.3086 18.4873C68.4961 18.7764 68.4355 18.9209 68.127 18.9209H67.125C66.9297 18.9209 66.7695 18.8193 66.6445 18.6162L65.3145 16.4775L64.5703 17.374V18.5693C64.5703 18.8037 64.4531 18.9209 64.2188 18.9209H63.2812ZM69.1406 17.2803C69.1406 16.499 69.5137 15.9326 70.2598 15.5811C71.0059 15.2295 71.8574 15.042 72.8145 15.0186V14.7842C72.8145 14.4248 72.7246 14.1709 72.5449 14.0225C72.3652 13.874 72.1152 13.7998 71.7949 13.7998C71.5684 13.7998 71.3672 13.833 71.1914 13.8994C71.0195 13.9619 70.8691 14.0361 70.7402 14.1221C70.6152 14.2041 70.502 14.2881 70.4004 14.374C70.2207 14.5303 70.0723 14.5381 69.9551 14.3975L69.4688 13.7998C69.3477 13.6514 69.377 13.499 69.5566 13.3428C69.6934 13.2217 69.8516 13.1162 70.0312 13.0264C70.2148 12.9365 70.457 12.8525 70.7578 12.7744C71.0586 12.6924 71.4492 12.6514 71.9297 12.6514C72.7422 12.6514 73.3652 12.8389 73.7988 13.2139C74.2363 13.5889 74.4551 14.1416 74.4551 14.8721V18.5693C74.4551 18.8037 74.3379 18.9209 74.1035 18.9209H73.1426C72.9316 18.9209 72.8262 18.8037 72.8262 18.5693V18.3936H72.8145C72.584 18.6162 72.3066 18.7803 71.9824 18.8857C71.6621 18.9873 71.3672 19.0381 71.0977 19.0381C70.457 19.0381 69.9707 18.8818 69.6387 18.5693C69.3066 18.2529 69.1406 17.8232 69.1406 17.2803ZM70.875 17.2451C70.875 17.3818 70.9023 17.501 70.957 17.6025C71.0117 17.7002 71.0977 17.7725 71.2148 17.8193C71.332 17.8662 71.4629 17.8896 71.6074 17.8896C71.8066 17.8896 72 17.8623 72.1875 17.8076C72.375 17.7529 72.584 17.624 72.8145 17.4209V16.1494C72.1582 16.2236 71.7188 16.3193 71.4961 16.4365C71.2734 16.5537 71.1133 16.6748 71.0156 16.7998C70.9219 16.9248 70.875 17.0732 70.875 17.2451ZM76.4062 18.9209C76.1719 18.9209 76.0547 18.8037 76.0547 18.5693V13.1201C76.0547 12.8857 76.1719 12.7686 76.4062 12.7686H77.332C77.5664 12.7686 77.6836 12.8857 77.6836 13.1201V13.46H77.707C77.8867 13.1514 78.1152 12.9404 78.3926 12.8271C78.6699 12.71 79.0039 12.6514 79.3945 12.6514C80.0039 12.6514 80.5078 12.8428 80.9062 13.2256C81.3047 13.6084 81.5039 14.3076 81.5039 15.3232V18.5693C81.5039 18.8037 81.3867 18.9209 81.1523 18.9209H80.2148C79.9805 18.9209 79.8633 18.8037 79.8633 18.5693V15.7451C79.8633 14.8936 79.8047 14.3564 79.6875 14.1338C79.5703 13.9111 79.3184 13.7998 78.9316 13.7998C78.5215 13.7998 78.2129 13.96 78.0059 14.2803C77.7988 14.5967 77.6953 15.2568 77.6953 16.2607V18.5693C77.6953 18.8037 77.5781 18.9209 77.3438 18.9209H76.4062ZM87.0645 18.5107C86.873 18.374 86.8203 18.2275 86.9062 18.0713L87.2051 17.5264C87.3105 17.3311 87.4746 17.3076 87.6973 17.4561C87.9199 17.6045 88.1816 17.7139 88.4824 17.7842C88.7871 17.8545 89.0645 17.8896 89.3145 17.8896C89.4902 17.8896 89.6543 17.8721 89.8066 17.8369C89.959 17.8018 90.0879 17.7334 90.1934 17.6318C90.2988 17.5303 90.3516 17.3818 90.3516 17.1865C90.3516 17.0693 90.3203 16.9697 90.2578 16.8877C90.1953 16.8057 90.1152 16.7432 90.0176 16.7002C89.9199 16.6572 89.8164 16.6221 89.707 16.5947C89.5625 16.5596 89.3535 16.501 89.0801 16.4189C88.8105 16.3369 88.5508 16.2412 88.3008 16.1318C88.0938 16.042 87.8906 15.917 87.6914 15.7568C87.4961 15.5928 87.3516 15.4111 87.2578 15.2119C87.168 15.0127 87.123 14.7666 87.123 14.4736C87.123 14.0791 87.2363 13.7334 87.4629 13.4365C87.6934 13.1396 87.9902 12.9346 88.3535 12.8213C88.7168 12.708 89.1699 12.6514 89.7129 12.6514C90.0801 12.6514 90.4375 12.7041 90.7852 12.8096C91.1328 12.915 91.3809 13.0146 91.5293 13.1084C91.7637 13.2568 91.8223 13.415 91.7051 13.583L91.3477 14.1045C91.2383 14.2607 91.0625 14.2725 90.8203 14.1396C90.6367 14.0381 90.4551 13.9561 90.2754 13.8936C90.0996 13.8311 89.9023 13.7998 89.6836 13.7998C89.5352 13.7998 89.3926 13.8154 89.2559 13.8467C89.1191 13.8779 89.002 13.9365 88.9043 14.0225C88.8105 14.1084 88.7637 14.2217 88.7637 14.3623C88.7637 14.5107 88.8066 14.6279 88.8926 14.7139C88.9824 14.7959 89.084 14.8564 89.1973 14.8955C89.3145 14.9346 89.4258 14.9717 89.5312 15.0068C89.75 15.0771 89.9707 15.1455 90.1934 15.2119C90.416 15.2744 90.6426 15.3506 90.873 15.4404C91.0723 15.5186 91.2656 15.6299 91.4531 15.7744C91.6406 15.9189 91.7773 16.1025 91.8633 16.3252C91.9492 16.5479 91.9922 16.8018 91.9922 17.0869C91.9922 17.4658 91.8789 17.8174 91.6523 18.1416C91.4258 18.4658 91.127 18.6963 90.7559 18.833C90.3848 18.9697 89.9531 19.0381 89.4609 19.0381C88.9102 19.0381 88.4414 18.999 88.0547 18.9209C87.668 18.8428 87.3379 18.7061 87.0645 18.5107ZM92.7539 15.8447C92.7539 14.8564 93 14.0771 93.4922 13.5068C93.9883 12.9365 94.6875 12.6514 95.5898 12.6514C96.6367 12.6514 97.4141 12.9209 97.9219 13.46C98.4297 13.999 98.6836 14.8662 98.6836 16.0615C98.6836 16.2959 98.5742 16.4131 98.3555 16.4131H94.4883C94.5508 17.0615 94.7109 17.4697 94.9688 17.6377C95.2266 17.8057 95.5254 17.8896 95.8652 17.8896C96.1895 17.8896 96.4375 17.8467 96.6094 17.7607C96.7812 17.6748 96.9258 17.5576 97.043 17.4092C97.1758 17.2373 97.3398 17.21 97.5352 17.3271L98.1211 17.6846C98.3516 17.8252 98.3848 17.9932 98.2207 18.1885C97.9824 18.4736 97.7031 18.6865 97.3828 18.8271C97.0625 18.9678 96.5566 19.0381 95.8652 19.0381C94.7441 19.0381 93.9453 18.7529 93.4688 18.1826C92.9922 17.6123 92.7539 16.833 92.7539 15.8447ZM94.4941 15.2412H97.043C97.043 14.8193 96.9375 14.4756 96.7266 14.21C96.5156 13.9404 96.1797 13.8057 95.7188 13.8057C95.3516 13.8057 95.0605 13.9346 94.8457 14.1924C94.6309 14.4463 94.5137 14.7959 94.4941 15.2412ZM103.857 13.9404C103.627 13.9404 103.512 13.8428 103.512 13.6475V13.0615C103.512 12.8662 103.627 12.7686 103.857 12.7686H104.256V12.5635C104.256 12.3877 104.297 12.2275 104.379 12.083L104.83 11.292C104.916 11.1436 105.018 11.0693 105.135 11.0693H105.545C105.779 11.0693 105.896 11.1865 105.896 11.4209V12.7686H106.846C107.076 12.7686 107.191 12.8662 107.191 13.0615V13.6475C107.191 13.8428 107.076 13.9404 106.846 13.9404H105.896V16.8467C105.896 17.2451 105.924 17.5322 105.979 17.708C106.037 17.8799 106.186 17.9658 106.424 17.9658C106.545 17.9658 106.682 17.9463 106.834 17.9072C106.986 17.8643 107.105 17.8232 107.191 17.7842C107.328 17.7217 107.418 17.7666 107.461 17.9189L107.637 18.5869C107.672 18.7197 107.621 18.8174 107.484 18.8799C107.355 18.9385 107.178 18.9912 106.951 19.0381C106.729 19.0889 106.504 19.1143 106.277 19.1143C105.719 19.1143 105.242 18.999 104.848 18.7686C104.453 18.5381 104.256 18.0635 104.256 17.3447V13.9404H103.857ZM109.09 18.9209C108.855 18.9209 108.738 18.8037 108.738 18.5693V13.1201C108.738 12.8857 108.855 12.7686 109.09 12.7686H110.027C110.262 12.7686 110.379 12.8857 110.379 13.1201V18.5693C110.379 18.8037 110.262 18.9209 110.027 18.9209H109.09ZM109.09 11.8662C108.855 11.8662 108.738 11.749 108.738 11.5146V10.7646C108.738 10.5303 108.855 10.4131 109.09 10.4131H110.027C110.262 10.4131 110.379 10.5303 110.379 10.7646V11.5146C110.379 11.749 110.262 11.8662 110.027 11.8662H109.09ZM112.324 21.2646C112.09 21.2646 111.973 21.1475 111.973 20.9131V13.1201C111.973 12.8857 112.09 12.7686 112.324 12.7686H113.25C113.445 12.7686 113.551 12.8857 113.566 13.1201L113.59 13.46H113.613C113.816 13.124 114.043 12.9053 114.293 12.8037C114.543 12.7021 114.844 12.6514 115.195 12.6514C116.113 12.6514 116.758 12.9697 117.129 13.6064C117.504 14.2393 117.691 14.9854 117.691 15.8447C117.691 16.7041 117.504 17.4521 117.129 18.0889C116.758 18.7217 116.113 19.0381 115.195 19.0381C114.844 19.0381 114.543 18.9873 114.293 18.8857C114.043 18.7842 113.816 18.5654 113.613 18.2295H113.59C113.605 18.3857 113.613 18.542 113.613 18.6982V20.9131C113.613 21.1475 113.496 21.2646 113.262 21.2646H112.324ZM113.613 16.1084C113.613 16.6357 113.717 17.0654 113.924 17.3975C114.135 17.7256 114.387 17.8896 114.68 17.8896C115.207 17.8896 115.551 17.7061 115.711 17.3389C115.875 16.9678 115.957 16.4697 115.957 15.8447C115.957 15.2197 115.875 14.7236 115.711 14.3564C115.551 13.9854 115.207 13.7998 114.68 13.7998C114.387 13.7998 114.135 13.9658 113.924 14.2979C113.717 14.626 113.613 15.0537 113.613 15.5811V16.1084ZM118.834 18.5107C118.643 18.374 118.59 18.2275 118.676 18.0713L118.975 17.5264C119.08 17.3311 119.244 17.3076 119.467 17.4561C119.689 17.6045 119.951 17.7139 120.252 17.7842C120.557 17.8545 120.834 17.8896 121.084 17.8896C121.26 17.8896 121.424 17.8721 121.576 17.8369C121.729 17.8018 121.857 17.7334 121.963 17.6318C122.068 17.5303 122.121 17.3818 122.121 17.1865C122.121 17.0693 122.09 16.9697 122.027 16.8877C121.965 16.8057 121.885 16.7432 121.787 16.7002C121.689 16.6572 121.586 16.6221 121.477 16.5947C121.332 16.5596 121.123 16.501 120.85 16.4189C120.58 16.3369 120.32 16.2412 120.07 16.1318C119.863 16.042 119.66 15.917 119.461 15.7568C119.266 15.5928 119.121 15.4111 119.027 15.2119C118.938 15.0127 118.893 14.7666 118.893 14.4736C118.893 14.0791 119.006 13.7334 119.232 13.4365C119.463 13.1396 119.76 12.9346 120.123 12.8213C120.486 12.708 120.939 12.6514 121.482 12.6514C121.85 12.6514 122.207 12.7041 122.555 12.8096C122.902 12.915 123.15 13.0146 123.299 13.1084C123.533 13.2568 123.592 13.415 123.475 13.583L123.117 14.1045C123.008 14.2607 122.832 14.2725 122.59 14.1396C122.406 14.0381 122.225 13.9561 122.045 13.8936C121.869 13.8311 121.672 13.7998 121.453 13.7998C121.305 13.7998 121.162 13.8154 121.025 13.8467C120.889 13.8779 120.771 13.9365 120.674 14.0225C120.58 14.1084 120.533 14.2217 120.533 14.3623C120.533 14.5107 120.576 14.6279 120.662 14.7139C120.752 14.7959 120.854 14.8564 120.967 14.8955C121.084 14.9346 121.195 14.9717 121.301 15.0068C121.52 15.0771 121.74 15.1455 121.963 15.2119C122.186 15.2744 122.412 15.3506 122.643 15.4404C122.842 15.5186 123.035 15.6299 123.223 15.7744C123.41 15.9189 123.547 16.1025 123.633 16.3252C123.719 16.5479 123.762 16.8018 123.762 17.0869C123.762 17.4658 123.648 17.8174 123.422 18.1416C123.195 18.4658 122.896 18.6963 122.525 18.833C122.154 18.9697 121.723 19.0381 121.23 19.0381C120.68 19.0381 120.211 18.999 119.824 18.9209C119.438 18.8428 119.107 18.7061 118.834 18.5107ZM7.67578 32.8447C7.67578 31.8486 7.93164 31.0674 8.44336 30.501C8.95898 29.9346 9.72461 29.6514 10.7402 29.6514C11.7559 29.6514 12.5195 29.9346 13.0312 30.501C13.5469 31.0674 13.8047 31.8486 13.8047 32.8447C13.8047 33.8408 13.5469 34.6221 13.0312 35.1885C12.5195 35.7549 11.7559 36.0381 10.7402 36.0381C9.72461 36.0381 8.95898 35.7549 8.44336 35.1885C7.93164 34.6221 7.67578 33.8408 7.67578 32.8447ZM9.41016 32.8447C9.41016 33.5869 9.52344 34.1143 9.75 34.4268C9.98047 34.7354 10.3105 34.8896 10.7402 34.8896C11.1699 34.8896 11.498 34.7354 11.7246 34.4268C11.9551 34.1143 12.0703 33.5869 12.0703 32.8447C12.0703 32.1025 11.9551 31.5771 11.7246 31.2686C11.498 30.9561 11.1699 30.7998 10.7402 30.7998C10.3105 30.7998 9.98047 30.9561 9.75 31.2686C9.52344 31.5771 9.41016 32.1025 9.41016 32.8447ZM14.7422 32.8447C14.7422 31.9854 14.9277 31.2393 15.2988 30.6064C15.6738 29.9697 16.3203 29.6514 17.2383 29.6514C17.5898 29.6514 17.8906 29.7021 18.1406 29.8037C18.3906 29.9053 18.6172 30.124 18.8203 30.46H18.8438L18.8672 30.1201C18.8828 29.8857 18.9883 29.7686 19.1836 29.7686H20.1094C20.3438 29.7686 20.4609 29.8857 20.4609 30.1201V35.8564C20.4609 36.8135 20.2031 37.4736 19.6875 37.8369C19.1719 38.2002 18.4258 38.3818 17.4492 38.3818C17.0352 38.3818 16.6523 38.3604 16.3008 38.3174C15.9492 38.2744 15.5938 38.167 15.2344 37.9951C15.0469 37.9053 15.0156 37.7354 15.1406 37.4854L15.3516 37.0635C15.4375 36.8916 15.5801 36.8525 15.7793 36.9463C15.9395 37.0205 16.1367 37.0869 16.3711 37.1455C16.6094 37.2041 16.9102 37.2334 17.2734 37.2334C17.7734 37.2334 18.1562 37.1396 18.4219 36.9521C18.6875 36.7686 18.8203 36.3643 18.8203 35.7393V35.6396C18.8203 35.4834 18.8281 35.3271 18.8438 35.1709H18.8203C18.6172 35.5068 18.3906 35.7256 18.1406 35.8271C17.8906 35.9287 17.5898 35.9795 17.2383 35.9795C16.3203 35.9795 15.6738 35.6631 15.2988 35.0303C14.9277 34.3936 14.7422 33.665 14.7422 32.8447ZM16.4766 32.8447C16.4766 33.4307 16.5566 33.9092 16.7168 34.2803C16.8809 34.6475 17.2266 34.8311 17.7539 34.8311C18.0469 34.8311 18.2969 34.667 18.5039 34.3389C18.7148 34.0068 18.8203 33.5771 18.8203 33.0498V32.5811C18.8203 32.0537 18.7148 31.626 18.5039 31.2979C18.2969 30.9658 18.0469 30.7998 17.7539 30.7998C17.2266 30.7998 16.8809 30.9854 16.7168 31.3564C16.5566 31.7236 16.4766 32.2197 16.4766 32.8447ZM25.9512 30.9404C25.7207 30.9404 25.6055 30.8428 25.6055 30.6475V30.0615C25.6055 29.8662 25.7207 29.7686 25.9512 29.7686H26.3496V29.5635C26.3496 29.3877 26.3906 29.2275 26.4727 29.083L26.9238 28.292C27.0098 28.1436 27.1113 28.0693 27.2285 28.0693H27.6387C27.873 28.0693 27.9902 28.1865 27.9902 28.4209V29.7686H28.9395C29.1699 29.7686 29.2852 29.8662 29.2852 30.0615V30.6475C29.2852 30.8428 29.1699 30.9404 28.9395 30.9404H27.9902V33.8467C27.9902 34.2451 28.0176 34.5322 28.0723 34.708C28.1309 34.8799 28.2793 34.9658 28.5176 34.9658C28.6387 34.9658 28.7754 34.9463 28.9277 34.9072C29.0801 34.8643 29.1992 34.8232 29.2852 34.7842C29.4219 34.7217 29.5117 34.7666 29.5547 34.9189L29.7305 35.5869C29.7656 35.7197 29.7148 35.8174 29.5781 35.8799C29.4492 35.9385 29.2715 35.9912 29.0449 36.0381C28.8223 36.0889 28.5977 36.1143 28.3711 36.1143C27.8125 36.1143 27.3359 35.999 26.9414 35.7686C26.5469 35.5381 26.3496 35.0635 26.3496 34.3447V30.9404H25.9512ZM31.1836 35.9209C30.9492 35.9209 30.832 35.8037 30.832 35.5693V30.1201C30.832 29.8857 30.9492 29.7686 31.1836 29.7686H32.1094C32.3438 29.7686 32.4609 29.8857 32.4609 30.1201V30.6006H32.4844C32.5859 30.3506 32.7559 30.1299 32.9941 29.9385C33.2324 29.7471 33.5137 29.6514 33.8379 29.6514C34.0605 29.6514 34.2441 29.6787 34.3887 29.7334C34.5254 29.7842 34.5781 29.8779 34.5469 30.0146L34.3828 30.7119C34.3477 30.8682 34.2422 30.915 34.0664 30.8525C33.9648 30.8174 33.8672 30.7998 33.7734 30.7998C33.3984 30.7998 33.0879 31.0244 32.8418 31.4736C32.5957 31.9229 32.4727 32.5771 32.4727 33.4365V35.5693C32.4727 35.8037 32.3555 35.9209 32.1211 35.9209H31.1836ZM35.7891 35.9209C35.5547 35.9209 35.4375 35.8037 35.4375 35.5693V30.1201C35.4375 29.8857 35.5547 29.7686 35.7891 29.7686H36.7266C36.9609 29.7686 37.0781 29.8857 37.0781 30.1201V35.5693C37.0781 35.8037 36.9609 35.9209 36.7266 35.9209H35.7891ZM35.7891 28.8662C35.5547 28.8662 35.4375 28.749 35.4375 28.5146V27.7646C35.4375 27.5303 35.5547 27.4131 35.7891 27.4131H36.7266C36.9609 27.4131 37.0781 27.5303 37.0781 27.7646V28.5146C37.0781 28.749 36.9609 28.8662 36.7266 28.8662H35.7891ZM38.3438 32.8447C38.3438 31.8486 38.5938 31.0674 39.0938 30.501C39.5938 29.9346 40.3613 29.6514 41.3965 29.6514C42.002 29.6514 42.4727 29.7314 42.8086 29.8916C43.1445 30.0518 43.4141 30.2861 43.6172 30.5947C43.7383 30.7783 43.7188 30.9229 43.5586 31.0283L42.9375 31.4385C42.7617 31.5557 42.6074 31.5107 42.4746 31.3037C42.4082 31.2021 42.2812 31.0928 42.0938 30.9756C41.9062 30.8584 41.6738 30.7998 41.3965 30.7998C40.9551 30.7998 40.625 30.9561 40.4062 31.2686C40.1875 31.5771 40.0781 32.1025 40.0781 32.8447C40.0781 33.5869 40.1875 34.1143 40.4062 34.4268C40.625 34.7354 40.9551 34.8896 41.3965 34.8896C41.7129 34.8896 41.9688 34.8232 42.1641 34.6904C42.3594 34.5576 42.543 34.3857 42.7148 34.1748C42.8633 33.9951 43.0195 33.9697 43.1836 34.0986L43.7285 34.5264C43.8926 34.6553 43.9023 34.8271 43.7578 35.042C43.6055 35.2686 43.3457 35.4912 42.9785 35.71C42.6152 35.9287 42.0879 36.0381 41.3965 36.0381C40.3613 36.0381 39.5938 35.7549 39.0938 35.1885C38.5938 34.6221 38.3438 33.8408 38.3438 32.8447ZM45.3867 35.9209C45.1523 35.9209 45.0352 35.8037 45.0352 35.5693V27.624C45.0352 27.3896 45.1523 27.2725 45.3867 27.2725H46.3242C46.5586 27.2725 46.6758 27.3896 46.6758 27.624V31.9307C46.6758 32.0869 46.668 32.2432 46.6523 32.3994H46.6758L48.5332 30.0088C48.6582 29.8486 48.8105 29.7686 48.9902 29.7686H49.9512C50.3105 29.7686 50.3711 29.9131 50.1328 30.2021L48.3633 32.3408L50.4141 35.4873C50.6016 35.7764 50.541 35.9209 50.2324 35.9209H49.2305C49.0352 35.9209 48.875 35.8193 48.75 35.6162L47.4199 33.4775L46.6758 34.374V35.5693C46.6758 35.8037 46.5586 35.9209 46.3242 35.9209H45.3867ZM51.4512 35.5107C51.2598 35.374 51.207 35.2275 51.293 35.0713L51.5918 34.5264C51.6973 34.3311 51.8613 34.3076 52.084 34.4561C52.3066 34.6045 52.5684 34.7139 52.8691 34.7842C53.1738 34.8545 53.4512 34.8896 53.7012 34.8896C53.877 34.8896 54.041 34.8721 54.1934 34.8369C54.3457 34.8018 54.4746 34.7334 54.5801 34.6318C54.6855 34.5303 54.7383 34.3818 54.7383 34.1865C54.7383 34.0693 54.707 33.9697 54.6445 33.8877C54.582 33.8057 54.502 33.7432 54.4043 33.7002C54.3066 33.6572 54.2031 33.6221 54.0938 33.5947C53.9492 33.5596 53.7402 33.501 53.4668 33.4189C53.1973 33.3369 52.9375 33.2412 52.6875 33.1318C52.4805 33.042 52.2773 32.917 52.0781 32.7568C51.8828 32.5928 51.7383 32.4111 51.6445 32.2119C51.5547 32.0127 51.5098 31.7666 51.5098 31.4736C51.5098 31.0791 51.623 30.7334 51.8496 30.4365C52.0801 30.1396 52.377 29.9346 52.7402 29.8213C53.1035 29.708 53.5566 29.6514 54.0996 29.6514C54.4668 29.6514 54.8242 29.7041 55.1719 29.8096C55.5195 29.915 55.7676 30.0146 55.916 30.1084C56.1504 30.2568 56.209 30.415 56.0918 30.583L55.7344 31.1045C55.625 31.2607 55.4492 31.2725 55.207 31.1396C55.0234 31.0381 54.8418 30.9561 54.6621 30.8936C54.4863 30.8311 54.2891 30.7998 54.0703 30.7998C53.9219 30.7998 53.7793 30.8154 53.6426 30.8467C53.5059 30.8779 53.3887 30.9365 53.291 31.0225C53.1973 31.1084 53.1504 31.2217 53.1504 31.3623C53.1504 31.5107 53.1934 31.6279 53.2793 31.7139C53.3691 31.7959 53.4707 31.8564 53.584 31.8955C53.7012 31.9346 53.8125 31.9717 53.918 32.0068C54.1367 32.0771 54.3574 32.1455 54.5801 32.2119C54.8027 32.2744 55.0293 32.3506 55.2598 32.4404C55.459 32.5186 55.6523 32.6299 55.8398 32.7744C56.0273 32.9189 56.1641 33.1025 56.25 33.3252C56.3359 33.5479 56.3789 33.8018 56.3789 34.0869C56.3789 34.4658 56.2656 34.8174 56.0391 35.1416C55.8125 35.4658 55.5137 35.6963 55.1426 35.833C54.7715 35.9697 54.3398 36.0381 53.8477 36.0381C53.2969 36.0381 52.8281 35.999 52.4414 35.9209C52.0547 35.8428 51.7246 35.7061 51.4512 35.5107Z" fill="#2C2C2C"/>
<path d="M8.01758 49.1379C7.84505 48.9817 7.79948 48.845 7.88086 48.7278L8.13477 48.3616C8.22266 48.2346 8.36426 48.2444 8.55957 48.3909C8.81673 48.5829 9.08366 48.7408 9.36035 48.8645C9.6403 48.9882 9.97884 49.05 10.376 49.05C10.6689 49.05 10.9163 49.0061 11.1182 48.9182C11.32 48.8303 11.4811 48.705 11.6016 48.5422C11.7253 48.3762 11.7871 48.176 11.7871 47.9417C11.7871 47.7724 11.7611 47.6161 11.709 47.4729C11.6602 47.3264 11.5804 47.2043 11.4697 47.1067C11.359 47.009 11.2435 46.9325 11.123 46.8772C10.9245 46.7861 10.6266 46.6803 10.2295 46.5598C9.83561 46.4394 9.49056 46.3092 9.19434 46.1692C8.90137 46.0292 8.66699 45.8599 8.49121 45.6614C8.31868 45.4628 8.20312 45.2594 8.14453 45.051C8.08919 44.8394 8.06152 44.5986 8.06152 44.3284C8.06152 43.915 8.18197 43.5585 8.42285 43.259C8.66374 42.9596 8.95833 42.761 9.30664 42.6633C9.6582 42.5657 10.0146 42.5168 10.376 42.5168C10.7894 42.5168 11.1491 42.5706 11.4551 42.678C11.7611 42.7854 12.0345 42.9254 12.2754 43.0979C12.4447 43.2183 12.4837 43.3453 12.3926 43.4788L12.1436 43.8352C12.0687 43.9426 11.9222 43.9198 11.7041 43.7668C11.5381 43.6497 11.3346 43.5406 11.0938 43.4397C10.8561 43.3355 10.6201 43.2834 10.3857 43.2834C10.0863 43.2834 9.83724 43.3193 9.63867 43.3909C9.4401 43.4592 9.28385 43.5764 9.16992 43.7424C9.05599 43.9084 8.99902 44.1005 8.99902 44.3186C8.99902 44.4553 9.01204 44.5823 9.03809 44.6995C9.06413 44.8134 9.13086 44.9306 9.23828 45.051C9.3457 45.1715 9.47591 45.2642 9.62891 45.3293C9.83398 45.4172 10.1514 45.5214 10.5811 45.6418C11.014 45.759 11.3916 45.9039 11.7139 46.0764C12.0133 46.2359 12.2282 46.4036 12.3584 46.5793C12.4919 46.7519 12.5944 46.9407 12.666 47.1458C12.7409 47.3476 12.7783 47.5754 12.7783 47.8293C12.7783 48.2916 12.6595 48.6773 12.4219 48.9866C12.1842 49.2958 11.9027 49.5107 11.5771 49.6311C11.2516 49.7515 10.8431 49.8118 10.3516 49.8118C9.76237 49.8118 9.27409 49.7434 8.88672 49.6067C8.49935 49.47 8.20964 49.3137 8.01758 49.1379ZM14.9316 43.2542C14.9316 43.01 15.0163 42.8033 15.1855 42.634C15.3581 42.4615 15.5664 42.3752 15.8105 42.3752C16.0547 42.3752 16.2614 42.4615 16.4307 42.634C16.6032 42.8033 16.6895 43.01 16.6895 43.2542C16.6895 43.4983 16.6032 43.7066 16.4307 43.8792C16.2614 44.0484 16.0547 44.1331 15.8105 44.1331C15.5664 44.1331 15.3581 44.0484 15.1855 43.8792C15.0163 43.7066 14.9316 43.4983 14.9316 43.2542ZM15.3027 43.2542C15.3027 43.3974 15.3516 43.5178 15.4492 43.6155C15.5469 43.7131 15.6673 43.762 15.8105 43.762C15.9538 43.762 16.0742 43.7131 16.1719 43.6155C16.2695 43.5178 16.3184 43.3974 16.3184 43.2542C16.3184 43.1109 16.2695 42.9905 16.1719 42.8928C16.0742 42.7952 15.9538 42.7463 15.8105 42.7463C15.6673 42.7463 15.5469 42.7952 15.4492 42.8928C15.3516 42.9905 15.3027 43.1109 15.3027 43.2542ZM13.5986 48.2981C13.5986 47.7187 13.8688 47.2939 14.4092 47.0237C14.9528 46.7535 15.7633 46.5956 16.8408 46.55V46.218C16.8408 45.912 16.7708 45.6484 16.6309 45.427C16.4941 45.2024 16.2207 45.0901 15.8105 45.0901C15.5501 45.0901 15.3418 45.1161 15.1855 45.1682C15.0293 45.217 14.8861 45.2838 14.7559 45.3684C14.6289 45.4498 14.5068 45.5556 14.3896 45.6858C14.3018 45.7834 14.2188 45.7883 14.1406 45.7004L13.8867 45.4075C13.8151 45.3261 13.8395 45.2284 13.96 45.1145C14.1325 44.9517 14.3001 44.8297 14.4629 44.7483C14.6257 44.6669 14.8275 44.5986 15.0684 44.5432C15.3125 44.4846 15.5599 44.4553 15.8105 44.4553C16.4909 44.4553 16.9759 44.6311 17.2656 44.9827C17.5553 45.331 17.7002 45.8095 17.7002 46.4182V49.4456C17.7002 49.592 17.627 49.6653 17.4805 49.6653H17.041C16.9141 49.6653 16.8506 49.592 16.8506 49.4456V49.2063H16.8408C16.5837 49.4081 16.3314 49.5497 16.084 49.6311C15.8398 49.7092 15.5664 49.7483 15.2637 49.7483C14.7298 49.7483 14.318 49.6213 14.0283 49.3674C13.7419 49.1103 13.5986 48.7538 13.5986 48.2981ZM14.4873 48.3176C14.4873 48.5194 14.5296 48.6822 14.6143 48.8059C14.6989 48.9264 14.8161 49.0045 14.9658 49.0403C15.1156 49.0728 15.2718 49.0891 15.4346 49.0891C15.6852 49.0891 15.9229 49.0647 16.1475 49.0159C16.3721 48.967 16.6032 48.8385 16.8408 48.6301V47.1897C16.1833 47.2385 15.7145 47.2987 15.4346 47.3704C15.1546 47.4387 14.9268 47.5592 14.751 47.7317C14.5752 47.901 14.4873 48.0963 14.4873 48.3176ZM22.6416 49.6653C22.4951 49.6653 22.4219 49.592 22.4219 49.4456V42.678C22.4219 42.5315 22.4951 42.4583 22.6416 42.4583H23.0615C23.208 42.4583 23.2812 42.5315 23.2812 42.678V46.7405C23.2812 46.8381 23.278 46.9358 23.2715 47.0334H23.2812L25.2588 44.6653C25.3304 44.5806 25.4167 44.5383 25.5176 44.5383H25.9619C26.2093 44.5383 26.2516 44.6344 26.0889 44.8264L24.5557 46.6526L26.3086 49.3772C26.4323 49.5693 26.39 49.6653 26.1816 49.6653H25.7031C25.5957 49.6653 25.5029 49.6051 25.4248 49.4846L24.0186 47.2922L23.2812 48.1711V49.4456C23.2812 49.592 23.208 49.6653 23.0615 49.6653H22.6416ZM27.0459 48.2981C27.0459 47.7187 27.3161 47.2939 27.8564 47.0237C28.4001 46.7535 29.2106 46.5956 30.2881 46.55V46.218C30.2881 45.912 30.2181 45.6484 30.0781 45.427C29.9414 45.2024 29.668 45.0901 29.2578 45.0901C28.9974 45.0901 28.7891 45.1161 28.6328 45.1682C28.4766 45.217 28.3333 45.2838 28.2031 45.3684C28.0762 45.4498 27.9541 45.5556 27.8369 45.6858C27.749 45.7834 27.666 45.7883 27.5879 45.7004L27.334 45.4075C27.2624 45.3261 27.2868 45.2284 27.4072 45.1145C27.5798 44.9517 27.7474 44.8297 27.9102 44.7483C28.0729 44.6669 28.2747 44.5986 28.5156 44.5432C28.7598 44.4846 29.0072 44.4553 29.2578 44.4553C29.9382 44.4553 30.4232 44.6311 30.7129 44.9827C31.0026 45.331 31.1475 45.8095 31.1475 46.4182V49.4456C31.1475 49.592 31.0742 49.6653 30.9277 49.6653H30.4883C30.3613 49.6653 30.2979 49.592 30.2979 49.4456V49.2063H30.2881C30.0309 49.4081 29.7786 49.5497 29.5312 49.6311C29.2871 49.7092 29.0137 49.7483 28.7109 49.7483C28.1771 49.7483 27.7653 49.6213 27.4756 49.3674C27.1891 49.1103 27.0459 48.7538 27.0459 48.2981ZM27.9346 48.3176C27.9346 48.5194 27.9769 48.6822 28.0615 48.8059C28.1462 48.9264 28.2633 49.0045 28.4131 49.0403C28.5628 49.0728 28.7191 49.0891 28.8818 49.0891C29.1325 49.0891 29.3701 49.0647 29.5947 49.0159C29.8193 48.967 30.0505 48.8385 30.2881 48.6301V47.1897C29.6305 47.2385 29.1618 47.2987 28.8818 47.3704C28.6019 47.4387 28.374 47.5592 28.1982 47.7317C28.0225 47.901 27.9346 48.0963 27.9346 48.3176ZM32.7588 49.6653C32.6123 49.6653 32.5391 49.592 32.5391 49.4456V44.7581C32.5391 44.6116 32.6123 44.5383 32.7588 44.5383H33.1689C33.3154 44.5383 33.3887 44.6116 33.3887 44.7581V45.1487H33.4082C33.6198 44.9143 33.8477 44.7402 34.0918 44.6262C34.3359 44.5123 34.6403 44.4553 35.0049 44.4553C35.5973 44.4553 36.0221 44.623 36.2793 44.9583C36.5397 45.2903 36.6699 45.746 36.6699 46.3254V49.4456C36.6699 49.592 36.5967 49.6653 36.4502 49.6653H36.0303C35.8838 49.6653 35.8105 49.592 35.8105 49.4456V46.5598C35.8105 45.9218 35.7048 45.5181 35.4932 45.3489C35.2816 45.1764 35.013 45.0901 34.6875 45.0901C34.2643 45.0901 33.9437 45.217 33.7256 45.4709C33.5075 45.7216 33.3984 46.1529 33.3984 46.7649V49.4456C33.3984 49.592 33.3252 49.6653 33.1787 49.6653H32.7588ZM40.293 51.6038C40.2214 51.5712 40.1921 51.5191 40.2051 51.4475L40.2881 51.052C40.3044 50.9739 40.3451 50.9495 40.4102 50.9788C40.5371 51.0374 40.6934 51.0667 40.8789 51.0667C41.071 51.0667 41.2093 50.9722 41.2939 50.7834C41.3818 50.5946 41.4258 50.2122 41.4258 49.636V44.7581C41.4258 44.6116 41.499 44.5383 41.6455 44.5383H42.0654C42.2119 44.5383 42.2852 44.6116 42.2852 44.7581V50.1194C42.2852 50.7509 42.1647 51.1724 41.9238 51.384C41.6862 51.5956 41.39 51.7014 41.0352 51.7014C40.6901 51.7014 40.4427 51.6689 40.293 51.6038ZM41.6455 43.6106C41.499 43.6106 41.4258 43.5374 41.4258 43.3909V42.9709C41.4258 42.8245 41.499 42.7512 41.6455 42.7512H42.0654C42.2119 42.7512 42.2852 42.8245 42.2852 42.9709V43.3909C42.2852 43.5374 42.2119 43.6106 42.0654 43.6106H41.6455ZM43.374 47.1018C43.374 46.2945 43.5758 45.6516 43.9795 45.1731C44.3831 44.6946 44.9609 44.4553 45.7129 44.4553C46.3379 44.4553 46.8555 44.675 47.2656 45.1145C47.679 45.5507 47.8857 46.2489 47.8857 47.2092C47.8857 47.3557 47.819 47.429 47.6855 47.429H44.2822C44.3376 48.0572 44.5068 48.495 44.79 48.7424C45.0732 48.9866 45.3939 49.1086 45.752 49.1086C46.1296 49.1086 46.4193 49.0452 46.6211 48.9182C46.8229 48.7913 46.971 48.6659 47.0654 48.5422C47.1696 48.4055 47.2705 48.3795 47.3682 48.4641L47.6562 48.7131C47.7311 48.7782 47.7311 48.8678 47.6562 48.9817C47.5944 49.0761 47.417 49.2275 47.124 49.4358C46.8343 49.6441 46.377 49.7483 45.752 49.7483C44.9382 49.7483 44.3376 49.509 43.9502 49.0305C43.5661 48.552 43.374 47.9091 43.374 47.1018ZM44.2627 46.7942H47.0215C47.0085 46.3385 46.8913 45.9397 46.6699 45.5979C46.4486 45.2528 46.123 45.0803 45.6934 45.0803C45.3158 45.0803 44.9951 45.2073 44.7314 45.4612C44.4678 45.7118 44.3115 46.1562 44.2627 46.7942ZM48.7354 47.1018C48.7354 46.4019 48.9046 45.7867 49.2432 45.2561C49.5817 44.7222 50.0765 44.4553 50.7275 44.4553C51.1019 44.4553 51.4014 44.5172 51.626 44.6409C51.8506 44.7646 52.0524 44.9338 52.2314 45.1487H52.2412L52.2705 44.7581C52.2803 44.6116 52.3438 44.5383 52.4609 44.5383H52.8711C53.0176 44.5383 53.0908 44.6116 53.0908 44.7581V49.7043C53.0908 50.3293 52.946 50.8176 52.6562 51.1692C52.3698 51.524 51.8018 51.7014 50.9521 51.7014C50.3825 51.7014 49.9561 51.6363 49.6729 51.5061C49.3896 51.3792 49.1878 51.2441 49.0674 51.1008C48.9795 50.9934 48.9746 50.9023 49.0527 50.8274L49.3213 50.5637C49.3962 50.4921 49.5003 50.5149 49.6338 50.6321C49.8063 50.7883 49.9723 50.899 50.1318 50.9641C50.2913 51.0325 50.5664 51.0667 50.957 51.0667C51.3997 51.0667 51.722 50.9722 51.9238 50.7834C52.1289 50.5946 52.2314 50.204 52.2314 49.6116V49.3186C52.2314 49.2177 52.2347 49.1184 52.2412 49.0208H52.2314C52.0622 49.2454 51.862 49.4228 51.6309 49.553C51.403 49.6832 51.1019 49.7483 50.7275 49.7483C50.0765 49.7483 49.5817 49.483 49.2432 48.9524C48.9046 48.4185 48.7354 47.8017 48.7354 47.1018ZM49.6436 47.1018C49.6436 47.7008 49.7461 48.1858 49.9512 48.5569C50.1595 48.928 50.5111 49.1135 51.0059 49.1135C51.3574 49.1135 51.6488 48.9947 51.8799 48.7571C52.1143 48.5162 52.2314 48.1516 52.2314 47.6633V46.5403C52.2314 46.052 52.1143 45.689 51.8799 45.4514C51.6488 45.2105 51.3574 45.0901 51.0059 45.0901C50.5111 45.0901 50.1595 45.2756 49.9512 45.6467C49.7461 46.0178 49.6436 46.5028 49.6436 47.1018ZM57.5342 47.1018C57.5342 46.2945 57.736 45.6516 58.1396 45.1731C58.5433 44.6946 59.1211 44.4553 59.873 44.4553C60.498 44.4553 61.0156 44.675 61.4258 45.1145C61.8392 45.5507 62.0459 46.2489 62.0459 47.2092C62.0459 47.3557 61.9792 47.429 61.8457 47.429H58.4424C58.4977 48.0572 58.667 48.495 58.9502 48.7424C59.2334 48.9866 59.554 49.1086 59.9121 49.1086C60.2897 49.1086 60.5794 49.0452 60.7812 48.9182C60.9831 48.7913 61.1312 48.6659 61.2256 48.5422C61.3298 48.4055 61.4307 48.3795 61.5283 48.4641L61.8164 48.7131C61.8913 48.7782 61.8913 48.8678 61.8164 48.9817C61.7546 49.0761 61.5771 49.2275 61.2842 49.4358C60.9945 49.6441 60.5371 49.7483 59.9121 49.7483C59.0983 49.7483 58.4977 49.509 58.1104 49.0305C57.7262 48.552 57.5342 47.9091 57.5342 47.1018ZM58.4229 46.7942H61.1816C61.1686 46.3385 61.0514 45.9397 60.8301 45.5979C60.6087 45.2528 60.2832 45.0803 59.8535 45.0803C59.4759 45.0803 59.1553 45.2073 58.8916 45.4612C58.6279 45.7118 58.4717 46.1562 58.4229 46.7942ZM63.3936 49.6653C63.2471 49.6653 63.1738 49.592 63.1738 49.4456V44.7581C63.1738 44.6116 63.2471 44.5383 63.3936 44.5383H63.8037C63.9502 44.5383 64.0234 44.6116 64.0234 44.7581V45.1487H64.043C64.2546 44.9143 64.4824 44.7402 64.7266 44.6262C64.9707 44.5123 65.2751 44.4553 65.6396 44.4553C66.2321 44.4553 66.6569 44.623 66.9141 44.9583C67.1745 45.2903 67.3047 45.746 67.3047 46.3254V49.4456C67.3047 49.592 67.2314 49.6653 67.085 49.6653H66.665C66.5186 49.6653 66.4453 49.592 66.4453 49.4456V46.5598C66.4453 45.9218 66.3395 45.5181 66.1279 45.3489C65.9163 45.1764 65.6478 45.0901 65.3223 45.0901C64.8991 45.0901 64.5785 45.217 64.3604 45.4709C64.1423 45.7216 64.0332 46.1529 64.0332 46.7649V49.4456C64.0332 49.592 63.96 49.6653 63.8135 49.6653H63.3936ZM68.4033 47.1018C68.4033 46.4019 68.5726 45.7867 68.9111 45.2561C69.2497 44.7222 69.7445 44.4553 70.3955 44.4553C70.7699 44.4553 71.0693 44.5172 71.2939 44.6409C71.5186 44.7646 71.7204 44.9338 71.8994 45.1487H71.9092C71.9027 45.051 71.8994 44.9517 71.8994 44.8508V42.678C71.8994 42.5315 71.9727 42.4583 72.1191 42.4583H72.5391C72.6855 42.4583 72.7588 42.5315 72.7588 42.678V49.4456C72.7588 49.592 72.6855 49.6653 72.5391 49.6653H72.1289C72.0117 49.6653 71.9482 49.592 71.9385 49.4456L71.9092 49.0549H71.8994C71.7204 49.2698 71.5186 49.439 71.2939 49.5627C71.0693 49.6864 70.7699 49.7483 70.3955 49.7483C69.7445 49.7483 69.2497 49.483 68.9111 48.9524C68.5726 48.4185 68.4033 47.8017 68.4033 47.1018ZM69.3115 47.1018C69.3115 47.7008 69.4141 48.1858 69.6191 48.5569C69.8275 48.928 70.179 49.1135 70.6738 49.1135C71.0254 49.1135 71.3167 48.9947 71.5479 48.7571C71.7822 48.5162 71.8994 48.1516 71.8994 47.6633V46.5403C71.8994 46.052 71.7822 45.689 71.5479 45.4514C71.3167 45.2105 71.0254 45.0901 70.6738 45.0901C70.179 45.0901 69.8275 45.2756 69.6191 45.6467C69.4141 46.0178 69.3115 46.5028 69.3115 47.1018ZM73.8721 47.1018C73.8721 46.2945 74.0739 45.6516 74.4775 45.1731C74.8812 44.6946 75.459 44.4553 76.2109 44.4553C76.8359 44.4553 77.3535 44.675 77.7637 45.1145C78.1771 45.5507 78.3838 46.2489 78.3838 47.2092C78.3838 47.3557 78.3171 47.429 78.1836 47.429H74.7803C74.8356 48.0572 75.0049 48.495 75.2881 48.7424C75.5713 48.9866 75.8919 49.1086 76.25 49.1086C76.6276 49.1086 76.9173 49.0452 77.1191 48.9182C77.321 48.7913 77.4691 48.6659 77.5635 48.5422C77.6676 48.4055 77.7686 48.3795 77.8662 48.4641L78.1543 48.7131C78.2292 48.7782 78.2292 48.8678 78.1543 48.9817C78.0924 49.0761 77.915 49.2275 77.6221 49.4358C77.3324 49.6441 76.875 49.7483 76.25 49.7483C75.4362 49.7483 74.8356 49.509 74.4482 49.0305C74.0641 48.552 73.8721 47.9091 73.8721 47.1018ZM74.7607 46.7942H77.5195C77.5065 46.3385 77.3893 45.9397 77.168 45.5979C76.9466 45.2528 76.6211 45.0803 76.1914 45.0803C75.8138 45.0803 75.4932 45.2073 75.2295 45.4612C74.9658 45.7118 74.8096 46.1562 74.7607 46.7942ZM79.7314 49.6653C79.585 49.6653 79.5117 49.592 79.5117 49.4456V43.3518C79.5117 43.2867 79.528 43.2249 79.5605 43.1663L79.9023 42.5461C79.9642 42.4322 80.0146 42.3752 80.0537 42.3752H80.2246C80.3223 42.3752 80.3711 42.4322 80.3711 42.5461V49.4456C80.3711 49.592 80.2979 49.6653 80.1514 49.6653H79.7314ZM81.9775 49.6653C81.8311 49.6653 81.7578 49.592 81.7578 49.4456V44.7581C81.7578 44.6116 81.8311 44.5383 81.9775 44.5383H82.3975C82.5439 44.5383 82.6172 44.6116 82.6172 44.7581V49.4456C82.6172 49.592 82.5439 49.6653 82.3975 49.6653H81.9775ZM81.9775 43.6106C81.8311 43.6106 81.7578 43.5374 81.7578 43.3909V42.9709C81.7578 42.8245 81.8311 42.7512 81.9775 42.7512H82.3975C82.5439 42.7512 82.6172 42.8245 82.6172 42.9709V43.3909C82.6172 43.5374 82.5439 43.6106 82.3975 43.6106H81.9775ZM83.7256 47.1018C83.7256 46.4019 83.8949 45.7867 84.2334 45.2561C84.5719 44.7222 85.0667 44.4553 85.7178 44.4553C86.0921 44.4553 86.3916 44.5172 86.6162 44.6409C86.8408 44.7646 87.0426 44.9338 87.2217 45.1487H87.2314L87.2607 44.7581C87.2705 44.6116 87.334 44.5383 87.4512 44.5383H87.8613C88.0078 44.5383 88.0811 44.6116 88.0811 44.7581V49.7043C88.0811 50.3293 87.9362 50.8176 87.6465 51.1692C87.36 51.524 86.792 51.7014 85.9424 51.7014C85.3727 51.7014 84.9463 51.6363 84.6631 51.5061C84.3799 51.3792 84.1781 51.2441 84.0576 51.1008C83.9697 50.9934 83.9648 50.9023 84.043 50.8274L84.3115 50.5637C84.3864 50.4921 84.4906 50.5149 84.624 50.6321C84.7965 50.7883 84.9626 50.899 85.1221 50.9641C85.2816 51.0325 85.5566 51.0667 85.9473 51.0667C86.39 51.0667 86.7122 50.9722 86.9141 50.7834C87.1191 50.5946 87.2217 50.204 87.2217 49.6116V49.3186C87.2217 49.2177 87.2249 49.1184 87.2314 49.0208H87.2217C87.0524 49.2454 86.8522 49.4228 86.6211 49.553C86.3932 49.6832 86.0921 49.7483 85.7178 49.7483C85.0667 49.7483 84.5719 49.483 84.2334 48.9524C83.8949 48.4185 83.7256 47.8017 83.7256 47.1018ZM84.6338 47.1018C84.6338 47.7008 84.7363 48.1858 84.9414 48.5569C85.1497 48.928 85.5013 49.1135 85.9961 49.1135C86.3477 49.1135 86.639 48.9947 86.8701 48.7571C87.1045 48.5162 87.2217 48.1516 87.2217 47.6633V46.5403C87.2217 46.052 87.1045 45.689 86.8701 45.4514C86.639 45.2105 86.3477 45.0901 85.9961 45.0901C85.5013 45.0901 85.1497 45.2756 84.9414 45.6467C84.7363 46.0178 84.6338 46.5028 84.6338 47.1018ZM92.5537 45.1829C92.4072 45.1829 92.334 45.1259 92.334 45.012V44.7092C92.334 44.5953 92.4072 44.5383 92.5537 44.5383H93.1299V44.0989C93.1299 44.0338 93.1462 43.9719 93.1787 43.9133L93.5205 43.2932C93.5824 43.1793 93.6328 43.1223 93.6719 43.1223H93.8428C93.9404 43.1223 93.9893 43.1793 93.9893 43.2932V44.5383H95.0293C95.1758 44.5383 95.249 44.5953 95.249 44.7092V45.012C95.249 45.1259 95.1758 45.1829 95.0293 45.1829H93.9893V48.2932C93.9893 48.635 94.0397 48.858 94.1406 48.9622C94.2448 49.0631 94.3685 49.1135 94.5117 49.1135C94.6224 49.1135 94.7542 49.081 94.9072 49.0159C95.0635 48.9508 95.1709 48.8954 95.2295 48.8499C95.2881 48.8043 95.3337 48.8189 95.3662 48.8938L95.5273 49.2698C95.5534 49.3349 95.5339 49.387 95.4688 49.426C95.3418 49.5009 95.1562 49.5741 94.9121 49.6458C94.668 49.7141 94.4238 49.7483 94.1797 49.7483C93.8411 49.7483 93.5807 49.6262 93.3984 49.3821C93.2194 49.1379 93.1299 48.7929 93.1299 48.3469V45.1829H92.5537ZM96.3525 47.1018C96.3525 46.3368 96.5544 45.7053 96.958 45.2073C97.3649 44.706 97.959 44.4553 98.7402 44.4553C99.388 44.4553 99.9056 44.6262 100.293 44.968L100.674 44.5627C100.775 44.4553 100.868 44.4407 100.952 44.5188L101.167 44.7141C101.252 44.7922 101.243 44.885 101.143 44.9924L100.703 45.4612C100.986 45.9137 101.128 46.4605 101.128 47.1018C101.128 47.8668 100.924 48.4999 100.518 49.0012C100.114 49.4993 99.5215 49.7483 98.7402 49.7483C98.0924 49.7483 97.5749 49.5774 97.1875 49.2356L96.8066 49.6409C96.7057 49.7483 96.613 49.7629 96.5283 49.6848L96.3135 49.4895C96.2288 49.4114 96.237 49.3186 96.3379 49.2112L96.7773 48.7424C96.4941 48.2867 96.3525 47.7398 96.3525 47.1018ZM97.2607 47.1018C97.2607 47.4859 97.3031 47.8131 97.3877 48.0833L99.7705 45.5295C99.5068 45.2366 99.1634 45.0901 98.7402 45.0901C98.2943 45.0901 97.9362 45.2545 97.666 45.5833C97.3958 45.912 97.2607 46.4182 97.2607 47.1018ZM97.71 48.6741C97.9736 48.967 98.3171 49.1135 98.7402 49.1135C99.1862 49.1135 99.5443 48.9491 99.8145 48.6204C100.085 48.2916 100.22 47.7854 100.22 47.1018C100.22 46.7209 100.177 46.3938 100.093 46.1204L97.71 48.6741ZM8.12012 63.6653C7.97363 63.6653 7.90039 63.592 7.90039 63.4456V58.7581C7.90039 58.6116 7.97363 58.5383 8.12012 58.5383H8.53027C8.67676 58.5383 8.75 58.6116 8.75 58.7581V59.1487H8.76953C8.98112 58.9143 9.21061 58.7402 9.45801 58.6262C9.7054 58.5123 9.94303 58.4553 10.1709 58.4553C10.5908 58.4553 10.9131 58.5611 11.1377 58.7727C11.3656 58.981 11.512 59.191 11.5771 59.4026H11.5967C11.7757 59.1357 12.002 58.9111 12.2754 58.7288C12.5488 58.5465 12.8402 58.4553 13.1494 58.4553C13.667 58.4553 14.0576 58.623 14.3213 58.9583C14.585 59.2903 14.7168 59.746 14.7168 60.3254V63.4456C14.7168 63.592 14.6436 63.6653 14.4971 63.6653H14.0771C13.9307 63.6653 13.8574 63.592 13.8574 63.4456V60.6086C13.8574 59.9706 13.7777 59.5588 13.6182 59.3733C13.4587 59.1845 13.2129 59.0901 12.8809 59.0901C12.5553 59.0901 12.2835 59.2301 12.0654 59.51C11.8473 59.7867 11.7383 60.205 11.7383 60.7649V63.4456C11.7383 63.592 11.665 63.6653 11.5186 63.6653H11.0986C10.9521 63.6653 10.8789 63.592 10.8789 63.4456V60.6086C10.8789 59.9706 10.7992 59.5588 10.6396 59.3733C10.4801 59.1845 10.2344 59.0901 9.90234 59.0901C9.57682 59.0901 9.30501 59.217 9.08691 59.4709C8.86882 59.7216 8.75977 60.1529 8.75977 60.7649V63.4456C8.75977 63.592 8.68652 63.6653 8.54004 63.6653H8.12012ZM16.3135 63.6653C16.167 63.6653 16.0938 63.592 16.0938 63.4456V58.7581C16.0938 58.6116 16.167 58.5383 16.3135 58.5383H16.7334C16.8799 58.5383 16.9531 58.6116 16.9531 58.7581V63.4456C16.9531 63.592 16.8799 63.6653 16.7334 63.6653H16.3135ZM16.3135 57.6106C16.167 57.6106 16.0938 57.5374 16.0938 57.3909V56.9709C16.0938 56.8245 16.167 56.7512 16.3135 56.7512H16.7334C16.8799 56.7512 16.9531 56.8245 16.9531 56.9709V57.3909C16.9531 57.5374 16.8799 57.6106 16.7334 57.6106H16.3135ZM18.0908 59.1829C17.9443 59.1829 17.8711 59.1259 17.8711 59.012V58.7092C17.8711 58.5953 17.9443 58.5383 18.0908 58.5383H18.667V58.0989C18.667 58.0338 18.6833 57.9719 18.7158 57.9133L19.0576 57.2932C19.1195 57.1793 19.1699 57.1223 19.209 57.1223H19.3799C19.4775 57.1223 19.5264 57.1793 19.5264 57.2932V58.5383H20.5664C20.7129 58.5383 20.7861 58.5953 20.7861 58.7092V59.012C20.7861 59.1259 20.7129 59.1829 20.5664 59.1829H19.5264V62.2932C19.5264 62.635 19.5768 62.858 19.6777 62.9622C19.7819 63.0631 19.9056 63.1135 20.0488 63.1135C20.1595 63.1135 20.2913 63.081 20.4443 63.0159C20.6006 62.9508 20.708 62.8954 20.7666 62.8499C20.8252 62.8043 20.8708 62.8189 20.9033 62.8938L21.0645 63.2698C21.0905 63.3349 21.071 63.387 21.0059 63.426C20.8789 63.5009 20.6934 63.5741 20.4492 63.6458C20.2051 63.7141 19.9609 63.7483 19.7168 63.7483C19.3783 63.7483 19.1178 63.6262 18.9355 63.3821C18.7565 63.1379 18.667 62.7929 18.667 62.3469V59.1829H18.0908ZM25.5908 63.6653C25.4443 63.6653 25.3711 63.592 25.3711 63.4456V56.678C25.3711 56.5315 25.4443 56.4583 25.5908 56.4583H26.0107C26.1572 56.4583 26.2305 56.5315 26.2305 56.678V60.7405C26.2305 60.8381 26.2272 60.9358 26.2207 61.0334H26.2305L28.208 58.6653C28.2796 58.5806 28.3659 58.5383 28.4668 58.5383H28.9111C29.1585 58.5383 29.2008 58.6344 29.0381 58.8264L27.5049 60.6526L29.2578 63.3772C29.3815 63.5693 29.3392 63.6653 29.1309 63.6653H28.6523C28.5449 63.6653 28.4521 63.6051 28.374 63.4846L26.9678 61.2922L26.2305 62.1711V63.4456C26.2305 63.592 26.1572 63.6653 26.0107 63.6653H25.5908ZM30.1221 61.1018C30.1221 60.3368 30.3239 59.7053 30.7275 59.2073C31.1344 58.706 31.7285 58.4553 32.5098 58.4553C33.1576 58.4553 33.6751 58.6262 34.0625 58.968L34.4434 58.5627C34.5443 58.4553 34.637 58.4407 34.7217 58.5188L34.9365 58.7141C35.0212 58.7922 35.013 58.885 34.9121 58.9924L34.4727 59.4612C34.7559 59.9137 34.8975 60.4605 34.8975 61.1018C34.8975 61.8668 34.694 62.4999 34.2871 63.0012C33.8835 63.4993 33.291 63.7483 32.5098 63.7483C31.862 63.7483 31.3444 63.5774 30.957 63.2356L30.5762 63.6409C30.4753 63.7483 30.3825 63.7629 30.2979 63.6848L30.083 63.4895C29.9984 63.4114 30.0065 63.3186 30.1074 63.2112L30.5469 62.7424C30.2637 62.2867 30.1221 61.7398 30.1221 61.1018ZM31.0303 61.1018C31.0303 61.4859 31.0726 61.8131 31.1572 62.0833L33.54 59.5295C33.2764 59.2366 32.9329 59.0901 32.5098 59.0901C32.0638 59.0901 31.7057 59.2545 31.4355 59.5833C31.1654 59.912 31.0303 60.4182 31.0303 61.1018ZM31.4795 62.6741C31.7432 62.967 32.0866 63.1135 32.5098 63.1135C32.9557 63.1135 33.3138 62.9491 33.584 62.6204C33.8542 62.2916 33.9893 61.7854 33.9893 61.1018C33.9893 60.7209 33.9469 60.3938 33.8623 60.1204L31.4795 62.6741ZM35.6006 61.1018C35.6006 60.4019 35.7699 59.7867 36.1084 59.2561C36.4469 58.7222 36.9417 58.4553 37.5928 58.4553C37.9671 58.4553 38.2666 58.5172 38.4912 58.6409C38.7158 58.7646 38.9176 58.9338 39.0967 59.1487H39.1064C39.0999 59.051 39.0967 58.9517 39.0967 58.8508V56.678C39.0967 56.5315 39.1699 56.4583 39.3164 56.4583H39.7363C39.8828 56.4583 39.9561 56.5315 39.9561 56.678V63.4456C39.9561 63.592 39.8828 63.6653 39.7363 63.6653H39.3262C39.209 63.6653 39.1455 63.592 39.1357 63.4456L39.1064 63.0549H39.0967C38.9176 63.2698 38.7158 63.439 38.4912 63.5627C38.2666 63.6864 37.9671 63.7483 37.5928 63.7483C36.9417 63.7483 36.4469 63.483 36.1084 62.9524C35.7699 62.4185 35.6006 61.8017 35.6006 61.1018ZM36.5088 61.1018C36.5088 61.7008 36.6113 62.1858 36.8164 62.5569C37.0247 62.928 37.3763 63.1135 37.8711 63.1135C38.2227 63.1135 38.514 62.9947 38.7451 62.7571C38.9795 62.5162 39.0967 62.1516 39.0967 61.6633V60.5403C39.0967 60.052 38.9795 59.689 38.7451 59.4514C38.514 59.2105 38.2227 59.0901 37.8711 59.0901C37.3763 59.0901 37.0247 59.2756 36.8164 59.6467C36.6113 60.0178 36.5088 60.5028 36.5088 61.1018ZM44.3994 61.1018C44.3994 60.3368 44.6012 59.7053 45.0049 59.2073C45.4118 58.706 46.0059 58.4553 46.7871 58.4553C47.5684 58.4553 48.1608 58.706 48.5645 59.2073C48.9714 59.7053 49.1748 60.3368 49.1748 61.1018C49.1748 61.8668 48.9714 62.4999 48.5645 63.0012C48.1608 63.4993 47.5684 63.7483 46.7871 63.7483C46.0059 63.7483 45.4118 63.4993 45.0049 63.0012C44.6012 62.4999 44.3994 61.8668 44.3994 61.1018ZM45.3076 61.1018C45.3076 61.7854 45.4427 62.2916 45.7129 62.6204C45.9831 62.9491 46.3411 63.1135 46.7871 63.1135C47.2331 63.1135 47.5911 62.9491 47.8613 62.6204C48.1315 62.2916 48.2666 61.7854 48.2666 61.1018C48.2666 60.4182 48.1315 59.912 47.8613 59.5833C47.5911 59.2545 47.2331 59.0901 46.7871 59.0901C46.3411 59.0901 45.9831 59.2545 45.7129 59.5833C45.4427 59.912 45.3076 60.4182 45.3076 61.1018ZM50.5029 65.6184C50.3564 65.6184 50.2832 65.5452 50.2832 65.3987V58.7581C50.2832 58.6116 50.3564 58.5383 50.5029 58.5383H50.9131C51.0303 58.5383 51.0938 58.6116 51.1035 58.7581L51.1328 59.1487H51.1426C51.3216 58.9338 51.5234 58.7646 51.748 58.6409C51.9727 58.5172 52.2721 58.4553 52.6465 58.4553C53.2975 58.4553 53.7923 58.7222 54.1309 59.2561C54.4694 59.7867 54.6387 60.4019 54.6387 61.1018C54.6387 61.8017 54.4694 62.4185 54.1309 62.9524C53.7923 63.483 53.2975 63.7483 52.6465 63.7483C52.2721 63.7483 51.9727 63.6864 51.748 63.5627C51.5234 63.439 51.3216 63.2698 51.1426 63.0549H51.1328C51.1393 63.1526 51.1426 63.2519 51.1426 63.3528V65.3987C51.1426 65.5452 51.0693 65.6184 50.9229 65.6184H50.5029ZM51.1426 61.6633C51.1426 62.1516 51.2581 62.5162 51.4893 62.7571C51.7236 62.9947 52.0166 63.1135 52.3682 63.1135C52.863 63.1135 53.2129 62.928 53.418 62.5569C53.6263 62.1858 53.7305 61.7008 53.7305 61.1018C53.7305 60.5028 53.6263 60.0178 53.418 59.6467C53.2129 59.2756 52.863 59.0901 52.3682 59.0901C52.0166 59.0901 51.7236 59.2105 51.4893 59.4514C51.2581 59.689 51.1426 60.052 51.1426 60.5403V61.6633ZM59.3018 63.6653C59.1553 63.6653 59.082 63.592 59.082 63.4456V58.7581C59.082 58.6116 59.1553 58.5383 59.3018 58.5383H59.7119C59.8584 58.5383 59.9316 58.6116 59.9316 58.7581V59.344H59.9512C60.1074 59.051 60.2913 58.8297 60.5029 58.6799C60.7145 58.5302 60.9782 58.4553 61.2939 58.4553C61.5023 58.4553 61.6488 58.4732 61.7334 58.509C61.8083 58.5383 61.8359 58.5872 61.8164 58.6555L61.7041 59.0559C61.6878 59.1145 61.6455 59.1373 61.5771 59.1243C61.4632 59.1015 61.3558 59.0901 61.2549 59.0901C60.874 59.0901 60.5599 59.2626 60.3125 59.6077C60.0651 59.9495 59.9414 60.4166 59.9414 61.009V63.4456C59.9414 63.592 59.8682 63.6653 59.7217 63.6653H59.3018ZM62.8271 63.6653C62.6807 63.6653 62.6074 63.592 62.6074 63.4456V58.7581C62.6074 58.6116 62.6807 58.5383 62.8271 58.5383H63.2471C63.3936 58.5383 63.4668 58.6116 63.4668 58.7581V63.4456C63.4668 63.592 63.3936 63.6653 63.2471 63.6653H62.8271ZM62.8271 57.6106C62.6807 57.6106 62.6074 57.5374 62.6074 57.3909V56.9709C62.6074 56.8245 62.6807 56.7512 62.8271 56.7512H63.2471C63.3936 56.7512 63.4668 56.8245 63.4668 56.9709V57.3909C63.4668 57.5374 63.3936 57.6106 63.2471 57.6106H62.8271ZM64.5752 61.1018C64.5752 60.4019 64.7445 59.7867 65.083 59.2561C65.4215 58.7222 65.9163 58.4553 66.5674 58.4553C66.9417 58.4553 67.2412 58.5172 67.4658 58.6409C67.6904 58.7646 67.8923 58.9338 68.0713 59.1487H68.0811L68.1104 58.7581C68.1201 58.6116 68.1836 58.5383 68.3008 58.5383H68.7109C68.8574 58.5383 68.9307 58.6116 68.9307 58.7581V63.7043C68.9307 64.3293 68.7858 64.8176 68.4961 65.1692C68.2096 65.524 67.6416 65.7014 66.792 65.7014C66.2223 65.7014 65.7959 65.6363 65.5127 65.5061C65.2295 65.3792 65.0277 65.2441 64.9072 65.1008C64.8193 64.9934 64.8145 64.9023 64.8926 64.8274L65.1611 64.5637C65.236 64.4921 65.3402 64.5149 65.4736 64.6321C65.6462 64.7883 65.8122 64.899 65.9717 64.9641C66.1312 65.0325 66.4062 65.0667 66.7969 65.0667C67.2396 65.0667 67.5618 64.9722 67.7637 64.7834C67.9688 64.5946 68.0713 64.204 68.0713 63.6116V63.3186C68.0713 63.2177 68.0745 63.1184 68.0811 63.0208H68.0713C67.902 63.2454 67.7018 63.4228 67.4707 63.553C67.2428 63.6832 66.9417 63.7483 66.5674 63.7483C65.9163 63.7483 65.4215 63.483 65.083 62.9524C64.7445 62.4185 64.5752 61.8017 64.5752 61.1018ZM65.4834 61.1018C65.4834 61.7008 65.5859 62.1858 65.791 62.5569C65.9993 62.928 66.3509 63.1135 66.8457 63.1135C67.1973 63.1135 67.4886 62.9947 67.7197 62.7571C67.9541 62.5162 68.0713 62.1516 68.0713 61.6633V60.5403C68.0713 60.052 67.9541 59.689 67.7197 59.4514C67.4886 59.2105 67.1973 59.0901 66.8457 59.0901C66.3509 59.0901 65.9993 59.2756 65.791 59.6467C65.5859 60.0178 65.4834 60.5028 65.4834 61.1018ZM70.0732 59.1829C69.9268 59.1829 69.8535 59.1259 69.8535 59.012V58.7092C69.8535 58.5953 69.9268 58.5383 70.0732 58.5383H70.6494V58.0989C70.6494 58.0338 70.6657 57.9719 70.6982 57.9133L71.04 57.2932C71.1019 57.1793 71.1523 57.1223 71.1914 57.1223H71.3623C71.46 57.1223 71.5088 57.1793 71.5088 57.2932V58.5383H72.5488C72.6953 58.5383 72.7686 58.5953 72.7686 58.7092V59.012C72.7686 59.1259 72.6953 59.1829 72.5488 59.1829H71.5088V62.2932C71.5088 62.635 71.5592 62.858 71.6602 62.9622C71.7643 63.0631 71.888 63.1135 72.0312 63.1135C72.1419 63.1135 72.2738 63.081 72.4268 63.0159C72.583 62.9508 72.6904 62.8954 72.749 62.8499C72.8076 62.8043 72.8532 62.8189 72.8857 62.8938L73.0469 63.2698C73.0729 63.3349 73.0534 63.387 72.9883 63.426C72.8613 63.5009 72.6758 63.5741 72.4316 63.6458C72.1875 63.7141 71.9434 63.7483 71.6992 63.7483C71.3607 63.7483 71.1003 63.6262 70.918 63.3821C70.7389 63.1379 70.6494 62.7929 70.6494 62.3469V59.1829H70.0732ZM74.2432 63.6653C74.0967 63.6653 74.0234 63.592 74.0234 63.4456V58.7581C74.0234 58.6116 74.0967 58.5383 74.2432 58.5383H74.6631C74.8096 58.5383 74.8828 58.6116 74.8828 58.7581V63.4456C74.8828 63.592 74.8096 63.6653 74.6631 63.6653H74.2432ZM74.2432 57.6106C74.0967 57.6106 74.0234 57.5374 74.0234 57.3909V56.9709C74.0234 56.8245 74.0967 56.7512 74.2432 56.7512H74.6631C74.8096 56.7512 74.8828 56.8245 74.8828 56.9709V57.3909C74.8828 57.5374 74.8096 57.6106 74.6631 57.6106H74.2432ZM75.9912 61.1018C75.9912 60.4019 76.1605 59.7867 76.499 59.2561C76.8376 58.7222 77.3324 58.4553 77.9834 58.4553C78.3577 58.4553 78.6572 58.5172 78.8818 58.6409C79.1064 58.7646 79.3083 58.9338 79.4873 59.1487H79.4971L79.5264 58.7581C79.5361 58.6116 79.5996 58.5383 79.7168 58.5383H80.127C80.2734 58.5383 80.3467 58.6116 80.3467 58.7581V63.7043C80.3467 64.3293 80.2018 64.8176 79.9121 65.1692C79.6257 65.524 79.0576 65.7014 78.208 65.7014C77.6383 65.7014 77.2119 65.6363 76.9287 65.5061C76.6455 65.3792 76.4437 65.2441 76.3232 65.1008C76.2354 64.9934 76.2305 64.9023 76.3086 64.8274L76.5771 64.5637C76.652 64.4921 76.7562 64.5149 76.8896 64.6321C77.0622 64.7883 77.2282 64.899 77.3877 64.9641C77.5472 65.0325 77.8223 65.0667 78.2129 65.0667C78.6556 65.0667 78.9779 64.9722 79.1797 64.7834C79.3848 64.5946 79.4873 64.204 79.4873 63.6116V63.3186C79.4873 63.2177 79.4906 63.1184 79.4971 63.0208H79.4873C79.318 63.2454 79.1178 63.4228 78.8867 63.553C78.6589 63.6832 78.3577 63.7483 77.9834 63.7483C77.3324 63.7483 76.8376 63.483 76.499 62.9524C76.1605 62.4185 75.9912 61.8017 75.9912 61.1018ZM76.8994 61.1018C76.8994 61.7008 77.002 62.1858 77.207 62.5569C77.4154 62.928 77.7669 63.1135 78.2617 63.1135C78.6133 63.1135 78.9046 62.9947 79.1357 62.7571C79.3701 62.5162 79.4873 62.1516 79.4873 61.6633V60.5403C79.4873 60.052 79.3701 59.689 79.1357 59.4514C78.9046 59.2105 78.6133 59.0901 78.2617 59.0901C77.7669 59.0901 77.4154 59.2756 77.207 59.6467C77.002 60.0178 76.8994 60.5028 76.8994 61.1018ZM81.4893 59.1829C81.3428 59.1829 81.2695 59.1259 81.2695 59.012V58.7092C81.2695 58.5953 81.3428 58.5383 81.4893 58.5383H82.0654V58.0989C82.0654 58.0338 82.0817 57.9719 82.1143 57.9133L82.4561 57.2932C82.5179 57.1793 82.5684 57.1223 82.6074 57.1223H82.7783C82.876 57.1223 82.9248 57.1793 82.9248 57.2932V58.5383H83.9648C84.1113 58.5383 84.1846 58.5953 84.1846 58.7092V59.012C84.1846 59.1259 84.1113 59.1829 83.9648 59.1829H82.9248V62.2932C82.9248 62.635 82.9753 62.858 83.0762 62.9622C83.1803 63.0631 83.304 63.1135 83.4473 63.1135C83.5579 63.1135 83.6898 63.081 83.8428 63.0159C83.999 62.9508 84.1064 62.8954 84.165 62.8499C84.2236 62.8043 84.2692 62.8189 84.3018 62.8938L84.4629 63.2698C84.4889 63.3349 84.4694 63.387 84.4043 63.426C84.2773 63.5009 84.0918 63.5741 83.8477 63.6458C83.6035 63.7141 83.3594 63.7483 83.1152 63.7483C82.7767 63.7483 82.5163 63.6262 82.334 63.3821C82.1549 63.1379 82.0654 62.7929 82.0654 62.3469V59.1829H81.4893Z" fill="#2C2C2C"/>
</svg>
