<svg width="185" height="102" viewBox="0 0 185 102" fill="none" xmlns="http://www.w3.org/2000/svg">
<mask id="path-1-inside-1_327_2240" fill="white">
<path d="M180 0C182.761 0 185 2.23858 185 5V75C185 77.7614 182.761 80 180 80H29.1641L21.8311 100.665C21.5161 101.552 20.2613 101.552 19.9463 100.665L12.6133 80H5C2.2386 80 3.29865e-05 77.7614 0 75V5C0 2.23858 2.23858 6.54331e-08 5 0H180Z"/>
</mask>
<path d="M180 0C182.761 0 185 2.23858 185 5V75C185 77.7614 182.761 80 180 80H29.1641L21.8311 100.665C21.5161 101.552 20.2613 101.552 19.9463 100.665L12.6133 80H5C2.2386 80 3.29865e-05 77.7614 0 75V5C0 2.23858 2.23858 6.54331e-08 5 0H180Z" fill="#E5DAC6"/>
<path d="M185 75L186 75V75H185ZM180 80V81V81V80ZM29.1641 80V79H28.4578L28.2216 79.6656L29.1641 80ZM21.8311 100.665L22.7734 101L22.7735 100.999L21.8311 100.665ZM19.9463 100.665L19.0039 100.999L19.0039 101L19.9463 100.665ZM12.6133 80L13.5557 79.6656L13.3195 79H12.6133V80ZM0 75H-1V75L0 75ZM5 0V-1V-1V0ZM180 0V1C182.209 1 184 2.79086 184 5H185H186C186 1.68629 183.314 -1 180 -1V0ZM185 5H184V75H185H186V5H185ZM185 75L184 75C184 77.2091 182.209 79 180 79V80V81C183.314 81 186 78.3137 186 75L185 75ZM180 80V79H29.1641V80V81H180V80ZM29.1641 80L28.2216 79.6656L20.8886 100.331L21.8311 100.665L22.7735 100.999L30.1065 80.3344L29.1641 80ZM21.8311 100.665L20.8887 100.331L20.8887 100.331L19.9463 100.665L19.0039 101C19.6338 102.774 22.1435 102.774 22.7734 101L21.8311 100.665ZM19.9463 100.665L20.8887 100.331L13.5557 79.6656L12.6133 80L11.6709 80.3344L19.0039 100.999L19.9463 100.665ZM12.6133 80V79H5V80V81H12.6133V80ZM5 80V79C2.79089 79 1.00003 77.2091 1 75L0 75L-1 75C-0.99996 78.3137 1.6863 81 5 81V80ZM0 75H1V5H0H-1V75H0ZM0 5H1C1 2.79086 2.79086 1 5 1V0V-1C1.68629 -1 -1 1.68629 -1 5H0ZM5 0V1H180V0V-1H5V0Z" fill="#2C2C2C" mask="url(#path-1-inside-1_327_2240)"/>
<path d="M8.55469 18.9209C8.28125 18.9209 8.14453 18.7744 8.14453 18.4814V10.958C8.14453 10.665 8.28125 10.5186 8.55469 10.5186H9.50391C9.73828 10.5186 9.85547 10.665 9.85547 10.958V17.4678H13.2715C13.5645 17.4678 13.7109 17.5947 13.7109 17.8486V18.54C13.7109 18.7939 13.5645 18.9209 13.2715 18.9209H8.55469ZM14.4844 17.2803C14.4844 16.499 14.8516 15.9326 15.5859 15.5811C16.3242 15.2295 17.1621 15.042 18.0996 15.0186V14.7842C18.0996 14.4248 18.0098 14.1709 17.8301 14.0225C17.6504 13.874 17.4082 13.7998 17.1035 13.7998C16.877 13.7998 16.6758 13.8369 16.5 13.9111C16.3281 13.9814 16.1836 14.0557 16.0664 14.1338C15.9492 14.208 15.8418 14.2881 15.7441 14.374C15.5645 14.5303 15.416 14.5381 15.2988 14.3975L14.8125 13.7998C14.6914 13.6514 14.7207 13.499 14.9004 13.3428C15.0488 13.21 15.2207 13.0986 15.416 13.0088C15.6113 12.915 15.8516 12.833 16.1367 12.7627C16.4258 12.6885 16.7969 12.6514 17.25 12.6514C17.5781 12.6514 17.8984 12.6904 18.2109 12.7686C18.5273 12.8428 18.8066 12.9873 19.0488 13.2021H19.0664C19.2617 13.0146 19.5195 12.876 19.8398 12.7861C20.1602 12.6963 20.4844 12.6514 20.8125 12.6514C21.8594 12.6514 22.6309 12.9209 23.127 13.46C23.627 13.999 23.877 14.8662 23.877 16.0615C23.877 16.2959 23.7676 16.4131 23.5488 16.4131H19.7402C19.7832 16.9912 19.9336 17.3818 20.1914 17.585C20.4492 17.7881 20.7383 17.8896 21.0586 17.8896C21.3242 17.8896 21.5625 17.8486 21.7734 17.7666C21.9844 17.6846 22.1523 17.5654 22.2773 17.4092C22.418 17.2334 22.582 17.2061 22.7695 17.3271L23.3145 17.6846C23.541 17.833 23.5742 18.001 23.4141 18.1885C23.1758 18.4736 22.9004 18.6865 22.5879 18.8271C22.2793 18.9678 21.7793 19.0381 21.0879 19.0381C20.4512 19.0381 19.9355 18.9619 19.541 18.8096C19.1465 18.6572 18.8262 18.4092 18.5801 18.0654H18.5684C18.3223 18.3389 18.0078 18.5693 17.625 18.7568C17.2422 18.9443 16.8672 19.0381 16.5 19.0381C15.8047 19.0381 15.2949 18.8818 14.9707 18.5693C14.6465 18.2529 14.4844 17.8232 14.4844 17.2803ZM16.2188 17.2451C16.2188 17.3623 16.2422 17.4756 16.2891 17.585C16.3359 17.6904 16.4199 17.7686 16.541 17.8193C16.6621 17.8662 16.7871 17.8896 16.916 17.8896C17.1035 17.8896 17.2988 17.8428 17.502 17.749C17.7051 17.6553 17.9297 17.4912 18.1758 17.2568C18.1328 16.96 18.1074 16.5908 18.0996 16.1494C17.498 16.2275 17.0859 16.3213 16.8633 16.4307C16.6406 16.5361 16.4766 16.6533 16.3711 16.7822C16.2695 16.9072 16.2188 17.0615 16.2188 17.2451ZM19.7402 15.2412H22.2363C22.2363 14.8193 22.1348 14.4756 21.9316 14.21C21.7324 13.9404 21.4023 13.8057 20.9414 13.8057C20.5742 13.8057 20.2871 13.9346 20.0801 14.1924C19.873 14.4463 19.7598 14.7959 19.7402 15.2412ZM25.5117 18.9209C25.2773 18.9209 25.1602 18.8037 25.1602 18.5693V10.624C25.1602 10.3896 25.2773 10.2725 25.5117 10.2725H26.4492C26.6836 10.2725 26.8008 10.3896 26.8008 10.624V14.9307C26.8008 15.0869 26.793 15.2432 26.7773 15.3994H26.8008L28.6582 13.0088C28.7832 12.8486 28.9355 12.7686 29.1152 12.7686H30.0762C30.4355 12.7686 30.4961 12.9131 30.2578 13.2021L28.4883 15.3408L30.5391 18.4873C30.7266 18.7764 30.666 18.9209 30.3574 18.9209H29.3555C29.1602 18.9209 29 18.8193 28.875 18.6162L27.5449 16.4775L26.8008 17.374V18.5693C26.8008 18.8037 26.6836 18.9209 26.4492 18.9209H25.5117ZM32.0508 18.9209C31.8164 18.9209 31.6992 18.8037 31.6992 18.5693V13.1201C31.6992 12.8857 31.8164 12.7686 32.0508 12.7686H32.9766C33.2109 12.7686 33.3281 12.8857 33.3281 13.1201V13.6006H33.3516C33.4531 13.3506 33.623 13.1299 33.8613 12.9385C34.0996 12.7471 34.3809 12.6514 34.7051 12.6514C34.9277 12.6514 35.1113 12.6787 35.2559 12.7334C35.3926 12.7842 35.4453 12.8779 35.4141 13.0146L35.25 13.7119C35.2148 13.8682 35.1094 13.915 34.9336 13.8525C34.832 13.8174 34.7344 13.7998 34.6406 13.7998C34.2656 13.7998 33.9551 14.0244 33.709 14.4736C33.4629 14.9229 33.3398 15.5771 33.3398 16.4365V18.5693C33.3398 18.8037 33.2227 18.9209 32.9883 18.9209H32.0508ZM35.9766 15.8447C35.9766 14.8564 36.2227 14.0771 36.7148 13.5068C37.2109 12.9365 37.9102 12.6514 38.8125 12.6514C39.8594 12.6514 40.6367 12.9209 41.1445 13.46C41.6523 13.999 41.9062 14.8662 41.9062 16.0615C41.9062 16.2959 41.7969 16.4131 41.5781 16.4131H37.7109C37.7734 17.0615 37.9336 17.4697 38.1914 17.6377C38.4492 17.8057 38.748 17.8896 39.0879 17.8896C39.4121 17.8896 39.6602 17.8467 39.832 17.7607C40.0039 17.6748 40.1484 17.5576 40.2656 17.4092C40.3984 17.2373 40.5625 17.21 40.7578 17.3271L41.3438 17.6846C41.5742 17.8252 41.6074 17.9932 41.4434 18.1885C41.2051 18.4736 40.9258 18.6865 40.6055 18.8271C40.2852 18.9678 39.7793 19.0381 39.0879 19.0381C37.9668 19.0381 37.168 18.7529 36.6914 18.1826C36.2148 17.6123 35.9766 16.833 35.9766 15.8447ZM37.7168 15.2412H40.2656C40.2656 14.8193 40.1602 14.4756 39.9492 14.21C39.7383 13.9404 39.4023 13.8057 38.9414 13.8057C38.5742 13.8057 38.2832 13.9346 38.0684 14.1924C37.8535 14.4463 37.7363 14.7959 37.7168 15.2412ZM47.0801 13.9404C46.8496 13.9404 46.7344 13.8428 46.7344 13.6475V13.0615C46.7344 12.8662 46.8496 12.7686 47.0801 12.7686H47.4785V12.5635C47.4785 12.3877 47.5195 12.2275 47.6016 12.083L48.0527 11.292C48.1387 11.1436 48.2402 11.0693 48.3574 11.0693H48.7676C49.002 11.0693 49.1191 11.1865 49.1191 11.4209V12.7686H50.0684C50.2988 12.7686 50.4141 12.8662 50.4141 13.0615V13.6475C50.4141 13.8428 50.2988 13.9404 50.0684 13.9404H49.1191V16.8467C49.1191 17.2451 49.1465 17.5322 49.2012 17.708C49.2598 17.8799 49.4082 17.9658 49.6465 17.9658C49.7676 17.9658 49.9043 17.9463 50.0566 17.9072C50.209 17.8643 50.3281 17.8232 50.4141 17.7842C50.5508 17.7217 50.6406 17.7666 50.6836 17.9189L50.8594 18.5869C50.8945 18.7197 50.8438 18.8174 50.707 18.8799C50.5781 18.9385 50.4004 18.9912 50.1738 19.0381C49.9512 19.0889 49.7266 19.1143 49.5 19.1143C48.9414 19.1143 48.4648 18.999 48.0703 18.7686C47.6758 18.5381 47.4785 18.0635 47.4785 17.3447V13.9404H47.0801ZM52.3125 18.9209C52.0781 18.9209 51.9609 18.8037 51.9609 18.5693V13.1201C51.9609 12.8857 52.0781 12.7686 52.3125 12.7686H53.25C53.4844 12.7686 53.6016 12.8857 53.6016 13.1201V18.5693C53.6016 18.8037 53.4844 18.9209 53.25 18.9209H52.3125ZM52.3125 11.8662C52.0781 11.8662 51.9609 11.749 51.9609 11.5146V10.7646C51.9609 10.5303 52.0781 10.4131 52.3125 10.4131H53.25C53.4844 10.4131 53.6016 10.5303 53.6016 10.7646V11.5146C53.6016 11.749 53.4844 11.8662 53.25 11.8662H52.3125ZM55.5469 21.2646C55.3125 21.2646 55.1953 21.1475 55.1953 20.9131V13.1201C55.1953 12.8857 55.3125 12.7686 55.5469 12.7686H56.4727C56.668 12.7686 56.7734 12.8857 56.7891 13.1201L56.8125 13.46H56.8359C57.0391 13.124 57.2656 12.9053 57.5156 12.8037C57.7656 12.7021 58.0664 12.6514 58.418 12.6514C59.3359 12.6514 59.9805 12.9697 60.3516 13.6064C60.7266 14.2393 60.9141 14.9854 60.9141 15.8447C60.9141 16.7041 60.7266 17.4521 60.3516 18.0889C59.9805 18.7217 59.3359 19.0381 58.418 19.0381C58.0664 19.0381 57.7656 18.9873 57.5156 18.8857C57.2656 18.7842 57.0391 18.5654 56.8359 18.2295H56.8125C56.8281 18.3857 56.8359 18.542 56.8359 18.6982V20.9131C56.8359 21.1475 56.7188 21.2646 56.4844 21.2646H55.5469ZM56.8359 16.1084C56.8359 16.6357 56.9395 17.0654 57.1465 17.3975C57.3574 17.7256 57.6094 17.8896 57.9023 17.8896C58.4297 17.8896 58.7734 17.7061 58.9336 17.3389C59.0977 16.9678 59.1797 16.4697 59.1797 15.8447C59.1797 15.2197 59.0977 14.7236 58.9336 14.3564C58.7734 13.9854 58.4297 13.7998 57.9023 13.7998C57.6094 13.7998 57.3574 13.9658 57.1465 14.2979C56.9395 14.626 56.8359 15.0537 56.8359 15.5811V16.1084ZM62.0566 18.5107C61.8652 18.374 61.8125 18.2275 61.8984 18.0713L62.1973 17.5264C62.3027 17.3311 62.4668 17.3076 62.6895 17.4561C62.9121 17.6045 63.1738 17.7139 63.4746 17.7842C63.7793 17.8545 64.0566 17.8896 64.3066 17.8896C64.4824 17.8896 64.6465 17.8721 64.7988 17.8369C64.9512 17.8018 65.0801 17.7334 65.1855 17.6318C65.291 17.5303 65.3438 17.3818 65.3438 17.1865C65.3438 17.0693 65.3125 16.9697 65.25 16.8877C65.1875 16.8057 65.1074 16.7432 65.0098 16.7002C64.9121 16.6572 64.8086 16.6221 64.6992 16.5947C64.5547 16.5596 64.3457 16.501 64.0723 16.4189C63.8027 16.3369 63.543 16.2412 63.293 16.1318C63.0859 16.042 62.8828 15.917 62.6836 15.7568C62.4883 15.5928 62.3438 15.4111 62.25 15.2119C62.1602 15.0127 62.1152 14.7666 62.1152 14.4736C62.1152 14.0791 62.2285 13.7334 62.4551 13.4365C62.6855 13.1396 62.9824 12.9346 63.3457 12.8213C63.709 12.708 64.1621 12.6514 64.7051 12.6514C65.0723 12.6514 65.4297 12.7041 65.7773 12.8096C66.125 12.915 66.373 13.0146 66.5215 13.1084C66.7559 13.2568 66.8145 13.415 66.6973 13.583L66.3398 14.1045C66.2305 14.2607 66.0547 14.2725 65.8125 14.1396C65.6289 14.0381 65.4473 13.9561 65.2676 13.8936C65.0918 13.8311 64.8945 13.7998 64.6758 13.7998C64.5273 13.7998 64.3848 13.8154 64.248 13.8467C64.1113 13.8779 63.9941 13.9365 63.8965 14.0225C63.8027 14.1084 63.7559 14.2217 63.7559 14.3623C63.7559 14.5107 63.7988 14.6279 63.8848 14.7139C63.9746 14.7959 64.0762 14.8564 64.1895 14.8955C64.3066 14.9346 64.418 14.9717 64.5234 15.0068C64.7422 15.0771 64.9629 15.1455 65.1855 15.2119C65.4082 15.2744 65.6348 15.3506 65.8652 15.4404C66.0645 15.5186 66.2578 15.6299 66.4453 15.7744C66.6328 15.9189 66.7695 16.1025 66.8555 16.3252C66.9414 16.5479 66.9844 16.8018 66.9844 17.0869C66.9844 17.4658 66.8711 17.8174 66.6445 18.1416C66.418 18.4658 66.1191 18.6963 65.748 18.833C65.377 18.9697 64.9453 19.0381 64.4531 19.0381C63.9023 19.0381 63.4336 18.999 63.0469 18.9209C62.6602 18.8428 62.3301 18.7061 62.0566 18.5107ZM71.8477 15.8447C71.8477 14.8486 72.1035 14.0674 72.6152 13.501C73.1309 12.9346 73.8965 12.6514 74.9121 12.6514C75.9277 12.6514 76.6914 12.9346 77.2031 13.501C77.7188 14.0674 77.9766 14.8486 77.9766 15.8447C77.9766 16.8408 77.7188 17.6221 77.2031 18.1885C76.6914 18.7549 75.9277 19.0381 74.9121 19.0381C73.8965 19.0381 73.1309 18.7549 72.6152 18.1885C72.1035 17.6221 71.8477 16.8408 71.8477 15.8447ZM73.582 15.8447C73.582 16.5869 73.6953 17.1143 73.9219 17.4268C74.1523 17.7354 74.4824 17.8896 74.9121 17.8896C75.3418 17.8896 75.6699 17.7354 75.8965 17.4268C76.127 17.1143 76.2422 16.5869 76.2422 15.8447C76.2422 15.1025 76.127 14.5771 75.8965 14.2686C75.6699 13.9561 75.3418 13.7998 74.9121 13.7998C74.4824 13.7998 74.1523 13.9561 73.9219 14.2686C73.6953 14.5771 73.582 15.1025 73.582 15.8447ZM78.9141 15.8447C78.9141 14.9854 79.0996 14.2393 79.4707 13.6064C79.8457 12.9697 80.4922 12.6514 81.4102 12.6514C81.7617 12.6514 82.0625 12.7021 82.3125 12.8037C82.5625 12.9053 82.7891 13.124 82.9922 13.46H83.0156L83.0391 13.1201C83.0547 12.8857 83.1602 12.7686 83.3555 12.7686H84.2812C84.5156 12.7686 84.6328 12.8857 84.6328 13.1201V18.8564C84.6328 19.8135 84.375 20.4736 83.8594 20.8369C83.3438 21.2002 82.5977 21.3818 81.6211 21.3818C81.207 21.3818 80.8242 21.3604 80.4727 21.3174C80.1211 21.2744 79.7656 21.167 79.4062 20.9951C79.2188 20.9053 79.1875 20.7354 79.3125 20.4854L79.5234 20.0635C79.6094 19.8916 79.752 19.8525 79.9512 19.9463C80.1113 20.0205 80.3086 20.0869 80.543 20.1455C80.7812 20.2041 81.082 20.2334 81.4453 20.2334C81.9453 20.2334 82.3281 20.1396 82.5938 19.9521C82.8594 19.7686 82.9922 19.3643 82.9922 18.7393V18.6396C82.9922 18.4834 83 18.3271 83.0156 18.1709H82.9922C82.7891 18.5068 82.5625 18.7256 82.3125 18.8271C82.0625 18.9287 81.7617 18.9795 81.4102 18.9795C80.4922 18.9795 79.8457 18.6631 79.4707 18.0303C79.0996 17.3936 78.9141 16.665 78.9141 15.8447ZM80.6484 15.8447C80.6484 16.4307 80.7285 16.9092 80.8887 17.2803C81.0527 17.6475 81.3984 17.8311 81.9258 17.8311C82.2188 17.8311 82.4688 17.667 82.6758 17.3389C82.8867 17.0068 82.9922 16.5771 82.9922 16.0498V15.5811C82.9922 15.0537 82.8867 14.626 82.6758 14.2979C82.4688 13.9658 82.2188 13.7998 81.9258 13.7998C81.3984 13.7998 81.0527 13.9854 80.8887 14.3564C80.7285 14.7236 80.6484 15.2197 80.6484 15.8447ZM90.123 13.9404C89.8926 13.9404 89.7773 13.8428 89.7773 13.6475V13.0615C89.7773 12.8662 89.8926 12.7686 90.123 12.7686H90.5215V12.5635C90.5215 12.3877 90.5625 12.2275 90.6445 12.083L91.0957 11.292C91.1816 11.1436 91.2832 11.0693 91.4004 11.0693H91.8105C92.0449 11.0693 92.1621 11.1865 92.1621 11.4209V12.7686H93.1113C93.3418 12.7686 93.457 12.8662 93.457 13.0615V13.6475C93.457 13.8428 93.3418 13.9404 93.1113 13.9404H92.1621V16.8467C92.1621 17.2451 92.1895 17.5322 92.2441 17.708C92.3027 17.8799 92.4512 17.9658 92.6895 17.9658C92.8105 17.9658 92.9473 17.9463 93.0996 17.9072C93.252 17.8643 93.3711 17.8232 93.457 17.7842C93.5938 17.7217 93.6836 17.7666 93.7266 17.9189L93.9023 18.5869C93.9375 18.7197 93.8867 18.8174 93.75 18.8799C93.6211 18.9385 93.4434 18.9912 93.2168 19.0381C92.9941 19.0889 92.7695 19.1143 92.543 19.1143C91.9844 19.1143 91.5078 18.999 91.1133 18.7686C90.7188 18.5381 90.5215 18.0635 90.5215 17.3447V13.9404H90.123ZM95.3555 18.9209C95.1211 18.9209 95.0039 18.8037 95.0039 18.5693V13.1201C95.0039 12.8857 95.1211 12.7686 95.3555 12.7686H96.2812C96.5156 12.7686 96.6328 12.8857 96.6328 13.1201V13.6006H96.6562C96.7578 13.3506 96.9277 13.1299 97.166 12.9385C97.4043 12.7471 97.6855 12.6514 98.0098 12.6514C98.2324 12.6514 98.416 12.6787 98.5605 12.7334C98.6973 12.7842 98.75 12.8779 98.7188 13.0146L98.5547 13.7119C98.5195 13.8682 98.4141 13.915 98.2383 13.8525C98.1367 13.8174 98.0391 13.7998 97.9453 13.7998C97.5703 13.7998 97.2598 14.0244 97.0137 14.4736C96.7676 14.9229 96.6445 15.5771 96.6445 16.4365V18.5693C96.6445 18.8037 96.5273 18.9209 96.293 18.9209H95.3555ZM99.9609 18.9209C99.7266 18.9209 99.6094 18.8037 99.6094 18.5693V13.1201C99.6094 12.8857 99.7266 12.7686 99.9609 12.7686H100.898C101.133 12.7686 101.25 12.8857 101.25 13.1201V18.5693C101.25 18.8037 101.133 18.9209 100.898 18.9209H99.9609ZM99.9609 11.8662C99.7266 11.8662 99.6094 11.749 99.6094 11.5146V10.7646C99.6094 10.5303 99.7266 10.4131 99.9609 10.4131H100.898C101.133 10.4131 101.25 10.5303 101.25 10.7646V11.5146C101.25 11.749 101.133 11.8662 100.898 11.8662H99.9609ZM102.516 15.8447C102.516 14.8486 102.766 14.0674 103.266 13.501C103.766 12.9346 104.533 12.6514 105.568 12.6514C106.174 12.6514 106.645 12.7314 106.98 12.8916C107.316 13.0518 107.586 13.2861 107.789 13.5947C107.91 13.7783 107.891 13.9229 107.73 14.0283L107.109 14.4385C106.934 14.5557 106.779 14.5107 106.646 14.3037C106.58 14.2021 106.453 14.0928 106.266 13.9756C106.078 13.8584 105.846 13.7998 105.568 13.7998C105.127 13.7998 104.797 13.9561 104.578 14.2686C104.359 14.5771 104.25 15.1025 104.25 15.8447C104.25 16.5869 104.359 17.1143 104.578 17.4268C104.797 17.7354 105.127 17.8896 105.568 17.8896C105.885 17.8896 106.141 17.8232 106.336 17.6904C106.531 17.5576 106.715 17.3857 106.887 17.1748C107.035 16.9951 107.191 16.9697 107.355 17.0986L107.9 17.5264C108.064 17.6553 108.074 17.8271 107.93 18.042C107.777 18.2686 107.518 18.4912 107.15 18.71C106.787 18.9287 106.26 19.0381 105.568 19.0381C104.533 19.0381 103.766 18.7549 103.266 18.1885C102.766 17.6221 102.516 16.8408 102.516 15.8447ZM109.559 18.9209C109.324 18.9209 109.207 18.8037 109.207 18.5693V10.624C109.207 10.3896 109.324 10.2725 109.559 10.2725H110.496C110.73 10.2725 110.848 10.3896 110.848 10.624V14.9307C110.848 15.0869 110.84 15.2432 110.824 15.3994H110.848L112.705 13.0088C112.83 12.8486 112.982 12.7686 113.162 12.7686H114.123C114.482 12.7686 114.543 12.9131 114.305 13.2021L112.535 15.3408L114.586 18.4873C114.773 18.7764 114.713 18.9209 114.404 18.9209H113.402C113.207 18.9209 113.047 18.8193 112.922 18.6162L111.592 16.4775L110.848 17.374V18.5693C110.848 18.8037 110.73 18.9209 110.496 18.9209H109.559ZM115.623 18.5107C115.432 18.374 115.379 18.2275 115.465 18.0713L115.764 17.5264C115.869 17.3311 116.033 17.3076 116.256 17.4561C116.479 17.6045 116.74 17.7139 117.041 17.7842C117.346 17.8545 117.623 17.8896 117.873 17.8896C118.049 17.8896 118.213 17.8721 118.365 17.8369C118.518 17.8018 118.646 17.7334 118.752 17.6318C118.857 17.5303 118.91 17.3818 118.91 17.1865C118.91 17.0693 118.879 16.9697 118.816 16.8877C118.754 16.8057 118.674 16.7432 118.576 16.7002C118.479 16.6572 118.375 16.6221 118.266 16.5947C118.121 16.5596 117.912 16.501 117.639 16.4189C117.369 16.3369 117.109 16.2412 116.859 16.1318C116.652 16.042 116.449 15.917 116.25 15.7568C116.055 15.5928 115.91 15.4111 115.816 15.2119C115.727 15.0127 115.682 14.7666 115.682 14.4736C115.682 14.0791 115.795 13.7334 116.021 13.4365C116.252 13.1396 116.549 12.9346 116.912 12.8213C117.275 12.708 117.729 12.6514 118.271 12.6514C118.639 12.6514 118.996 12.7041 119.344 12.8096C119.691 12.915 119.939 13.0146 120.088 13.1084C120.322 13.2568 120.381 13.415 120.264 13.583L119.906 14.1045C119.797 14.2607 119.621 14.2725 119.379 14.1396C119.195 14.0381 119.014 13.9561 118.834 13.8936C118.658 13.8311 118.461 13.7998 118.242 13.7998C118.094 13.7998 117.951 13.8154 117.814 13.8467C117.678 13.8779 117.561 13.9365 117.463 14.0225C117.369 14.1084 117.322 14.2217 117.322 14.3623C117.322 14.5107 117.365 14.6279 117.451 14.7139C117.541 14.7959 117.643 14.8564 117.756 14.8955C117.873 14.9346 117.984 14.9717 118.09 15.0068C118.309 15.0771 118.529 15.1455 118.752 15.2119C118.975 15.2744 119.201 15.3506 119.432 15.4404C119.631 15.5186 119.824 15.6299 120.012 15.7744C120.199 15.9189 120.336 16.1025 120.422 16.3252C120.508 16.5479 120.551 16.8018 120.551 17.0869C120.551 17.4658 120.438 17.8174 120.211 18.1416C119.984 18.4658 119.686 18.6963 119.314 18.833C118.943 18.9697 118.512 19.0381 118.02 19.0381C117.469 19.0381 117 18.999 116.613 18.9209C116.227 18.8428 115.896 18.7061 115.623 18.5107Z" fill="#2C2C2C"/>
<path d="M8.01758 37.3936C7.84505 37.2373 7.79948 37.1006 7.88086 36.9834L8.13477 36.6172C8.22266 36.4902 8.36426 36.5 8.55957 36.6465C8.81673 36.8385 9.08366 36.9964 9.36035 37.1201C9.6403 37.2438 9.97884 37.3057 10.376 37.3057C10.6689 37.3057 10.9163 37.2617 11.1182 37.1738C11.32 37.0859 11.4811 36.9606 11.6016 36.7979C11.7253 36.6318 11.7871 36.4316 11.7871 36.1973C11.7871 36.028 11.7611 35.8717 11.709 35.7285C11.6602 35.582 11.5804 35.46 11.4697 35.3623C11.359 35.2646 11.2435 35.1882 11.123 35.1328C10.9245 35.0417 10.6266 34.9359 10.2295 34.8154C9.83561 34.695 9.49056 34.5648 9.19434 34.4248C8.90137 34.2848 8.66699 34.1156 8.49121 33.917C8.31868 33.7184 8.20312 33.515 8.14453 33.3066C8.08919 33.0951 8.06152 32.8542 8.06152 32.584C8.06152 32.1706 8.18197 31.8141 8.42285 31.5146C8.66374 31.2152 8.95833 31.0166 9.30664 30.9189C9.6582 30.8213 10.0146 30.7725 10.376 30.7725C10.7894 30.7725 11.1491 30.8262 11.4551 30.9336C11.7611 31.041 12.0345 31.181 12.2754 31.3535C12.4447 31.474 12.4837 31.6009 12.3926 31.7344L12.1436 32.0908C12.0687 32.1982 11.9222 32.1755 11.7041 32.0225C11.5381 31.9053 11.3346 31.7962 11.0938 31.6953C10.8561 31.5911 10.6201 31.5391 10.3857 31.5391C10.0863 31.5391 9.83724 31.5749 9.63867 31.6465C9.4401 31.7148 9.28385 31.832 9.16992 31.998C9.05599 32.1641 8.99902 32.3561 8.99902 32.5742C8.99902 32.7109 9.01204 32.8379 9.03809 32.9551C9.06413 33.069 9.13086 33.1862 9.23828 33.3066C9.3457 33.4271 9.47591 33.5199 9.62891 33.585C9.83398 33.6729 10.1514 33.777 10.5811 33.8975C11.014 34.0146 11.3916 34.1595 11.7139 34.332C12.0133 34.4915 12.2282 34.6592 12.3584 34.835C12.4919 35.0075 12.5944 35.1963 12.666 35.4014C12.7409 35.6032 12.7783 35.8311 12.7783 36.085C12.7783 36.5472 12.6595 36.9329 12.4219 37.2422C12.1842 37.5514 11.9027 37.7663 11.5771 37.8867C11.2516 38.0072 10.8431 38.0674 10.3516 38.0674C9.76237 38.0674 9.27409 37.999 8.88672 37.8623C8.49935 37.7256 8.20964 37.5693 8.01758 37.3936ZM14.9316 31.5098C14.9316 31.2656 15.0163 31.0589 15.1855 30.8896C15.3581 30.7171 15.5664 30.6309 15.8105 30.6309C16.0547 30.6309 16.2614 30.7171 16.4307 30.8896C16.6032 31.0589 16.6895 31.2656 16.6895 31.5098C16.6895 31.7539 16.6032 31.9622 16.4307 32.1348C16.2614 32.304 16.0547 32.3887 15.8105 32.3887C15.5664 32.3887 15.3581 32.304 15.1855 32.1348C15.0163 31.9622 14.9316 31.7539 14.9316 31.5098ZM15.3027 31.5098C15.3027 31.653 15.3516 31.7734 15.4492 31.8711C15.5469 31.9688 15.6673 32.0176 15.8105 32.0176C15.9538 32.0176 16.0742 31.9688 16.1719 31.8711C16.2695 31.7734 16.3184 31.653 16.3184 31.5098C16.3184 31.3665 16.2695 31.2461 16.1719 31.1484C16.0742 31.0508 15.9538 31.002 15.8105 31.002C15.6673 31.002 15.5469 31.0508 15.4492 31.1484C15.3516 31.2461 15.3027 31.3665 15.3027 31.5098ZM13.5986 36.5537C13.5986 35.9743 13.8688 35.5495 14.4092 35.2793C14.9528 35.0091 15.7633 34.8512 16.8408 34.8057V34.4736C16.8408 34.1676 16.7708 33.904 16.6309 33.6826C16.4941 33.458 16.2207 33.3457 15.8105 33.3457C15.5501 33.3457 15.3418 33.3717 15.1855 33.4238C15.0293 33.4727 14.8861 33.5394 14.7559 33.624C14.6289 33.7054 14.5068 33.8112 14.3896 33.9414C14.3018 34.0391 14.2188 34.0439 14.1406 33.9561L13.8867 33.6631C13.8151 33.5817 13.8395 33.484 13.96 33.3701C14.1325 33.2074 14.3001 33.0853 14.4629 33.0039C14.6257 32.9225 14.8275 32.8542 15.0684 32.7988C15.3125 32.7402 15.5599 32.7109 15.8105 32.7109C16.4909 32.7109 16.9759 32.8867 17.2656 33.2383C17.5553 33.5866 17.7002 34.0651 17.7002 34.6738V37.7012C17.7002 37.8477 17.627 37.9209 17.4805 37.9209H17.041C16.9141 37.9209 16.8506 37.8477 16.8506 37.7012V37.4619H16.8408C16.5837 37.6637 16.3314 37.8053 16.084 37.8867C15.8398 37.9648 15.5664 38.0039 15.2637 38.0039C14.7298 38.0039 14.318 37.877 14.0283 37.623C13.7419 37.3659 13.5986 37.0094 13.5986 36.5537ZM14.4873 36.5732C14.4873 36.7751 14.5296 36.9378 14.6143 37.0615C14.6989 37.182 14.8161 37.2601 14.9658 37.2959C15.1156 37.3285 15.2718 37.3447 15.4346 37.3447C15.6852 37.3447 15.9229 37.3203 16.1475 37.2715C16.3721 37.2227 16.6032 37.0941 16.8408 36.8857V35.4453C16.1833 35.4941 15.7145 35.5544 15.4346 35.626C15.1546 35.6943 14.9268 35.8148 14.751 35.9873C14.5752 36.1566 14.4873 36.3519 14.4873 36.5732ZM22.6416 37.9209C22.4951 37.9209 22.4219 37.8477 22.4219 37.7012V30.9336C22.4219 30.7871 22.4951 30.7139 22.6416 30.7139H23.0615C23.208 30.7139 23.2812 30.7871 23.2812 30.9336V34.9961C23.2812 35.0938 23.278 35.1914 23.2715 35.2891H23.2812L25.2588 32.9209C25.3304 32.8363 25.4167 32.7939 25.5176 32.7939H25.9619C26.2093 32.7939 26.2516 32.89 26.0889 33.082L24.5557 34.9082L26.3086 37.6328C26.4323 37.8249 26.39 37.9209 26.1816 37.9209H25.7031C25.5957 37.9209 25.5029 37.8607 25.4248 37.7402L24.0186 35.5479L23.2812 36.4268V37.7012C23.2812 37.8477 23.208 37.9209 23.0615 37.9209H22.6416ZM27.0459 36.5537C27.0459 35.9743 27.3161 35.5495 27.8564 35.2793C28.4001 35.0091 29.2106 34.8512 30.2881 34.8057V34.4736C30.2881 34.1676 30.2181 33.904 30.0781 33.6826C29.9414 33.458 29.668 33.3457 29.2578 33.3457C28.9974 33.3457 28.7891 33.3717 28.6328 33.4238C28.4766 33.4727 28.3333 33.5394 28.2031 33.624C28.0762 33.7054 27.9541 33.8112 27.8369 33.9414C27.749 34.0391 27.666 34.0439 27.5879 33.9561L27.334 33.6631C27.2624 33.5817 27.2868 33.484 27.4072 33.3701C27.5798 33.2074 27.7474 33.0853 27.9102 33.0039C28.0729 32.9225 28.2747 32.8542 28.5156 32.7988C28.7598 32.7402 29.0072 32.7109 29.2578 32.7109C29.9382 32.7109 30.4232 32.8867 30.7129 33.2383C31.0026 33.5866 31.1475 34.0651 31.1475 34.6738V37.7012C31.1475 37.8477 31.0742 37.9209 30.9277 37.9209H30.4883C30.3613 37.9209 30.2979 37.8477 30.2979 37.7012V37.4619H30.2881C30.0309 37.6637 29.7786 37.8053 29.5312 37.8867C29.2871 37.9648 29.0137 38.0039 28.7109 38.0039C28.1771 38.0039 27.7653 37.877 27.4756 37.623C27.1891 37.3659 27.0459 37.0094 27.0459 36.5537ZM27.9346 36.5732C27.9346 36.7751 27.9769 36.9378 28.0615 37.0615C28.1462 37.182 28.2633 37.2601 28.4131 37.2959C28.5628 37.3285 28.7191 37.3447 28.8818 37.3447C29.1325 37.3447 29.3701 37.3203 29.5947 37.2715C29.8193 37.2227 30.0505 37.0941 30.2881 36.8857V35.4453C29.6305 35.4941 29.1618 35.5544 28.8818 35.626C28.6019 35.6943 28.374 35.8148 28.1982 35.9873C28.0225 36.1566 27.9346 36.3519 27.9346 36.5732ZM32.7588 37.9209C32.6123 37.9209 32.5391 37.8477 32.5391 37.7012V33.0137C32.5391 32.8672 32.6123 32.7939 32.7588 32.7939H33.1689C33.3154 32.7939 33.3887 32.8672 33.3887 33.0137V33.4043H33.4082C33.6198 33.1699 33.8477 32.9958 34.0918 32.8818C34.3359 32.7679 34.6403 32.7109 35.0049 32.7109C35.5973 32.7109 36.0221 32.8786 36.2793 33.2139C36.5397 33.5459 36.6699 34.0016 36.6699 34.5811V37.7012C36.6699 37.8477 36.5967 37.9209 36.4502 37.9209H36.0303C35.8838 37.9209 35.8105 37.8477 35.8105 37.7012V34.8154C35.8105 34.1774 35.7048 33.7738 35.4932 33.6045C35.2816 33.432 35.013 33.3457 34.6875 33.3457C34.2643 33.3457 33.9437 33.4727 33.7256 33.7266C33.5075 33.9772 33.3984 34.4085 33.3984 35.0205V37.7012C33.3984 37.8477 33.3252 37.9209 33.1787 37.9209H32.7588ZM40.9863 33.0332C40.931 32.8737 40.9749 32.7939 41.1182 32.7939H41.6504C41.7546 32.7939 41.8278 32.8574 41.8701 32.9844L42.9053 36.207C42.9899 36.4707 43.0469 36.653 43.0762 36.7539C43.1087 36.8516 43.138 36.9736 43.1641 37.1201H43.1836C43.2096 36.9736 43.2373 36.8516 43.2666 36.7539C43.2992 36.653 43.3577 36.4707 43.4424 36.207L44.4775 32.9844C44.5199 32.8574 44.5931 32.7939 44.6973 32.7939H45.2295C45.3727 32.7939 45.4167 32.8737 45.3613 33.0332L43.7598 37.623C43.6914 37.8216 43.6035 37.9209 43.4961 37.9209H42.8516C42.7441 37.9209 42.6562 37.8216 42.5879 37.623L40.9863 33.0332ZM46.4111 37.9209C46.2646 37.9209 46.1914 37.8477 46.1914 37.7012V33.0137C46.1914 32.8672 46.2646 32.7939 46.4111 32.7939H46.8311C46.9775 32.7939 47.0508 32.8672 47.0508 33.0137V37.7012C47.0508 37.8477 46.9775 37.9209 46.8311 37.9209H46.4111ZM46.4111 31.8662C46.2646 31.8662 46.1914 31.793 46.1914 31.6465V31.2266C46.1914 31.0801 46.2646 31.0068 46.4111 31.0068H46.8311C46.9775 31.0068 47.0508 31.0801 47.0508 31.2266V31.6465C47.0508 31.793 46.9775 31.8662 46.8311 31.8662H46.4111ZM51.5674 37.4424C51.4665 37.348 51.4453 37.2601 51.5039 37.1787L51.7236 36.8711C51.7952 36.7734 51.901 36.7783 52.041 36.8857C52.2331 37.0322 52.4463 37.1494 52.6807 37.2373C52.9183 37.3252 53.1885 37.3691 53.4912 37.3691C53.6702 37.3691 53.8298 37.348 53.9697 37.3057C54.1097 37.2601 54.2318 37.1771 54.3359 37.0566C54.4434 36.9362 54.4971 36.7751 54.4971 36.5732C54.4971 36.4561 54.471 36.3454 54.4189 36.2412C54.3701 36.137 54.292 36.054 54.1846 35.9922C54.0804 35.9271 53.9779 35.8766 53.877 35.8408C53.7109 35.779 53.5449 35.7285 53.3789 35.6895C53.2161 35.6471 53.0013 35.5837 52.7344 35.499C52.5553 35.4437 52.3861 35.3656 52.2266 35.2646C52.0671 35.1605 51.9271 35.0205 51.8066 34.8447C51.6895 34.6689 51.6309 34.4264 51.6309 34.1172C51.6309 33.8014 51.7269 33.5296 51.9189 33.3018C52.111 33.0739 52.3519 32.9193 52.6416 32.8379C52.9313 32.7533 53.2129 32.7109 53.4863 32.7109C53.89 32.7109 54.2139 32.7581 54.458 32.8525C54.7054 32.9437 54.9186 33.0527 55.0977 33.1797C55.2018 33.2546 55.2165 33.3408 55.1416 33.4385L54.9219 33.7314C54.8535 33.8258 54.7477 33.8226 54.6045 33.7217C54.484 33.637 54.3132 33.5573 54.0918 33.4824C53.8704 33.4076 53.6768 33.3701 53.5107 33.3701C53.3057 33.3701 53.1299 33.3929 52.9834 33.4385C52.8369 33.484 52.7181 33.5622 52.627 33.6729C52.5358 33.7835 52.4902 33.9137 52.4902 34.0635C52.4902 34.1774 52.5081 34.2799 52.5439 34.3711C52.5798 34.459 52.6465 34.5404 52.7441 34.6152C52.8418 34.6901 52.9785 34.7503 53.1543 34.7959C53.4277 34.8675 53.6768 34.9326 53.9014 34.9912C54.1292 35.0498 54.3343 35.1214 54.5166 35.2061C54.7542 35.3167 54.9365 35.4388 55.0635 35.5723C55.1937 35.7057 55.2832 35.8506 55.332 36.0068C55.3809 36.1598 55.4053 36.3307 55.4053 36.5195C55.4053 36.8678 55.3011 37.1624 55.0928 37.4033C54.8877 37.6442 54.6582 37.8053 54.4043 37.8867C54.1504 37.9648 53.8444 38.0039 53.4863 38.0039C53.0013 38.0039 52.5846 37.9355 52.2363 37.7988C51.8913 37.6589 51.6683 37.54 51.5674 37.4424ZM56.0986 35.3574C56.0986 34.5501 56.3005 33.9072 56.7041 33.4287C57.1077 32.9502 57.6855 32.7109 58.4375 32.7109C59.0625 32.7109 59.5801 32.9307 59.9902 33.3701C60.4036 33.8063 60.6104 34.5046 60.6104 35.4648C60.6104 35.6113 60.5436 35.6846 60.4102 35.6846H57.0068C57.0622 36.3128 57.2314 36.7507 57.5146 36.998C57.7979 37.2422 58.1185 37.3643 58.4766 37.3643C58.8542 37.3643 59.1439 37.3008 59.3457 37.1738C59.5475 37.0469 59.6956 36.9215 59.79 36.7979C59.8942 36.6611 59.9951 36.6351 60.0928 36.7197L60.3809 36.9688C60.4557 37.0339 60.4557 37.1234 60.3809 37.2373C60.319 37.3317 60.1416 37.4831 59.8486 37.6914C59.5589 37.8997 59.1016 38.0039 58.4766 38.0039C57.6628 38.0039 57.0622 37.7646 56.6748 37.2861C56.2907 36.8076 56.0986 36.1647 56.0986 35.3574ZM56.9873 35.0498H59.7461C59.7331 34.5941 59.6159 34.1953 59.3945 33.8535C59.1732 33.5085 58.8477 33.3359 58.418 33.3359C58.0404 33.3359 57.7197 33.4629 57.4561 33.7168C57.1924 33.9674 57.0361 34.4118 56.9873 35.0498ZM65.2881 37.9209C65.1416 37.9209 65.0684 37.8477 65.0684 37.7012V30.9336C65.0684 30.7871 65.1416 30.7139 65.2881 30.7139H65.708C65.8545 30.7139 65.9277 30.7871 65.9277 30.9336V33.1113C65.9277 33.209 65.9245 33.3066 65.918 33.4043H65.9375C66.1491 33.1699 66.377 32.9958 66.6211 32.8818C66.8652 32.7679 67.1696 32.7109 67.5342 32.7109C68.1266 32.7109 68.5514 32.8786 68.8086 33.2139C69.069 33.5459 69.1992 34.0016 69.1992 34.5811V37.7012C69.1992 37.8477 69.126 37.9209 68.9795 37.9209H68.5596C68.4131 37.9209 68.3398 37.8477 68.3398 37.7012V34.8154C68.3398 34.1774 68.234 33.7738 68.0225 33.6045C67.8109 33.432 67.5423 33.3457 67.2168 33.3457C66.7936 33.3457 66.473 33.4727 66.2549 33.7266C66.0368 33.9772 65.9277 34.4085 65.9277 35.0205V37.7012C65.9277 37.8477 65.8545 37.9209 65.708 37.9209H65.2881ZM70.1855 33.0332C70.1302 32.8737 70.1742 32.7939 70.3174 32.7939H70.8496C70.9538 32.7939 71.027 32.8574 71.0693 32.9844L72.1045 36.207C72.1891 36.4707 72.2461 36.653 72.2754 36.7539C72.3079 36.8516 72.3372 36.9736 72.3633 37.1201H72.3828C72.4089 36.9736 72.4365 36.8516 72.4658 36.7539C72.4984 36.653 72.557 36.4707 72.6416 36.207L73.6768 32.9844C73.7191 32.8574 73.7923 32.7939 73.8965 32.7939H74.4287C74.5719 32.7939 74.6159 32.8737 74.5605 33.0332L72.959 37.623C72.8906 37.8216 72.8027 37.9209 72.6953 37.9209H72.0508C71.9434 37.9209 71.8555 37.8216 71.7871 37.623L70.1855 33.0332ZM75.1123 36.5537C75.1123 35.9743 75.3825 35.5495 75.9229 35.2793C76.4665 35.0091 77.277 34.8512 78.3545 34.8057V34.4736C78.3545 34.1676 78.2845 33.904 78.1445 33.6826C78.0078 33.458 77.7344 33.3457 77.3242 33.3457C77.0638 33.3457 76.8555 33.3717 76.6992 33.4238C76.543 33.4727 76.3997 33.5394 76.2695 33.624C76.1426 33.7054 76.0205 33.8112 75.9033 33.9414C75.8154 34.0391 75.7324 34.0439 75.6543 33.9561L75.4004 33.6631C75.3288 33.5817 75.3532 33.484 75.4736 33.3701C75.6462 33.2074 75.8138 33.0853 75.9766 33.0039C76.1393 32.9225 76.3411 32.8542 76.582 32.7988C76.8262 32.7402 77.0736 32.7109 77.3242 32.7109C78.0046 32.7109 78.4896 32.8867 78.7793 33.2383C79.069 33.5866 79.2139 34.0651 79.2139 34.6738V37.7012C79.2139 37.8477 79.1406 37.9209 78.9941 37.9209H78.5547C78.4277 37.9209 78.3643 37.8477 78.3643 37.7012V37.4619H78.3545C78.0973 37.6637 77.8451 37.8053 77.5977 37.8867C77.3535 37.9648 77.0801 38.0039 76.7773 38.0039C76.2435 38.0039 75.8317 37.877 75.542 37.623C75.2555 37.3659 75.1123 37.0094 75.1123 36.5537ZM76.001 36.5732C76.001 36.7751 76.0433 36.9378 76.1279 37.0615C76.2126 37.182 76.3298 37.2601 76.4795 37.2959C76.6292 37.3285 76.7855 37.3447 76.9482 37.3447C77.1989 37.3447 77.4365 37.3203 77.6611 37.2715C77.8857 37.2227 78.1169 37.0941 78.3545 36.8857V35.4453C77.6969 35.4941 77.2282 35.5544 76.9482 35.626C76.6683 35.6943 76.4404 35.8148 76.2646 35.9873C76.0889 36.1566 76.001 36.3519 76.001 36.5732ZM80.3271 35.3574C80.3271 34.6576 80.4964 34.0423 80.835 33.5117C81.1735 32.9779 81.6683 32.7109 82.3193 32.7109C82.6937 32.7109 82.9932 32.7728 83.2178 32.8965C83.4424 33.0202 83.6442 33.1895 83.8232 33.4043H83.833C83.8265 33.3066 83.8232 33.2074 83.8232 33.1064V30.9336C83.8232 30.7871 83.8965 30.7139 84.043 30.7139H84.4629C84.6094 30.7139 84.6826 30.7871 84.6826 30.9336V37.7012C84.6826 37.8477 84.6094 37.9209 84.4629 37.9209H84.0527C83.9355 37.9209 83.8721 37.8477 83.8623 37.7012L83.833 37.3105H83.8232C83.6442 37.5254 83.4424 37.6947 83.2178 37.8184C82.9932 37.9421 82.6937 38.0039 82.3193 38.0039C81.6683 38.0039 81.1735 37.7386 80.835 37.208C80.4964 36.6742 80.3271 36.0573 80.3271 35.3574ZM81.2354 35.3574C81.2354 35.9564 81.3379 36.4414 81.543 36.8125C81.7513 37.1836 82.1029 37.3691 82.5977 37.3691C82.9492 37.3691 83.2406 37.2503 83.4717 37.0127C83.7061 36.7718 83.8232 36.4072 83.8232 35.9189V34.7959C83.8232 34.3076 83.7061 33.9447 83.4717 33.707C83.2406 33.4661 82.9492 33.3457 82.5977 33.3457C82.1029 33.3457 81.7513 33.5312 81.543 33.9023C81.3379 34.2734 81.2354 34.7585 81.2354 35.3574ZM8.12012 51.9209C7.97363 51.9209 7.90039 51.8477 7.90039 51.7012V47.0137C7.90039 46.8672 7.97363 46.7939 8.12012 46.7939H8.53027C8.67676 46.7939 8.75 46.8672 8.75 47.0137V47.4043H8.76953C8.98112 47.1699 9.21061 46.9958 9.45801 46.8818C9.7054 46.7679 9.94303 46.7109 10.1709 46.7109C10.5908 46.7109 10.9131 46.8167 11.1377 47.0283C11.3656 47.2367 11.512 47.4466 11.5771 47.6582H11.5967C11.7757 47.3913 12.002 47.1667 12.2754 46.9844C12.5488 46.8021 12.8402 46.7109 13.1494 46.7109C13.667 46.7109 14.0576 46.8786 14.3213 47.2139C14.585 47.5459 14.7168 48.0016 14.7168 48.5811V51.7012C14.7168 51.8477 14.6436 51.9209 14.4971 51.9209H14.0771C13.9307 51.9209 13.8574 51.8477 13.8574 51.7012V48.8643C13.8574 48.2262 13.7777 47.8145 13.6182 47.6289C13.4587 47.4401 13.2129 47.3457 12.8809 47.3457C12.5553 47.3457 12.2835 47.4857 12.0654 47.7656C11.8473 48.0423 11.7383 48.4606 11.7383 49.0205V51.7012C11.7383 51.8477 11.665 51.9209 11.5186 51.9209H11.0986C10.9521 51.9209 10.8789 51.8477 10.8789 51.7012V48.8643C10.8789 48.2262 10.7992 47.8145 10.6396 47.6289C10.4801 47.4401 10.2344 47.3457 9.90234 47.3457C9.57682 47.3457 9.30501 47.4727 9.08691 47.7266C8.86882 47.9772 8.75977 48.4085 8.75977 49.0205V51.7012C8.75977 51.8477 8.68652 51.9209 8.54004 51.9209H8.12012ZM15.8154 50.5537C15.8154 49.9743 16.0856 49.5495 16.626 49.2793C17.1696 49.0091 17.9801 48.8512 19.0576 48.8057V48.4736C19.0576 48.1676 18.9876 47.904 18.8477 47.6826C18.7109 47.458 18.4375 47.3457 18.0273 47.3457C17.7669 47.3457 17.5586 47.3717 17.4023 47.4238C17.2461 47.4727 17.1029 47.5394 16.9727 47.624C16.8457 47.7054 16.7236 47.8112 16.6064 47.9414C16.5186 48.0391 16.4355 48.0439 16.3574 47.9561L16.1035 47.6631C16.0319 47.5817 16.0563 47.484 16.1768 47.3701C16.3493 47.2074 16.5169 47.0853 16.6797 47.0039C16.8424 46.9225 17.0443 46.8542 17.2852 46.7988C17.5293 46.7402 17.7767 46.7109 18.0273 46.7109C18.7077 46.7109 19.1927 46.8867 19.4824 47.2383C19.7721 47.5866 19.917 48.0651 19.917 48.6738V51.7012C19.917 51.8477 19.8438 51.9209 19.6973 51.9209H19.2578C19.1309 51.9209 19.0674 51.8477 19.0674 51.7012V51.4619H19.0576C18.8005 51.6637 18.5482 51.8053 18.3008 51.8867C18.0566 51.9648 17.7832 52.0039 17.4805 52.0039C16.9466 52.0039 16.5348 51.877 16.2451 51.623C15.9587 51.3659 15.8154 51.0094 15.8154 50.5537ZM16.7041 50.5732C16.7041 50.7751 16.7464 50.9378 16.8311 51.0615C16.9157 51.182 17.0329 51.2601 17.1826 51.2959C17.3324 51.3285 17.4886 51.3447 17.6514 51.3447C17.902 51.3447 18.1396 51.3203 18.3643 51.2715C18.5889 51.2227 18.82 51.0941 19.0576 50.8857V49.4453C18.4001 49.4941 17.9313 49.5544 17.6514 49.626C17.3714 49.6943 17.1436 49.8148 16.9678 49.9873C16.792 50.1566 16.7041 50.3519 16.7041 50.5732ZM21.5283 51.9209C21.3818 51.9209 21.3086 51.8477 21.3086 51.7012V47.0137C21.3086 46.8672 21.3818 46.7939 21.5283 46.7939H21.9385C22.085 46.7939 22.1582 46.8672 22.1582 47.0137V47.4043H22.1777C22.3893 47.1699 22.6172 46.9958 22.8613 46.8818C23.1055 46.7679 23.4098 46.7109 23.7744 46.7109C24.3669 46.7109 24.7917 46.8786 25.0488 47.2139C25.3092 47.5459 25.4395 48.0016 25.4395 48.5811V51.7012C25.4395 51.8477 25.3662 51.9209 25.2197 51.9209H24.7998C24.6533 51.9209 24.5801 51.8477 24.5801 51.7012V48.8154C24.5801 48.1774 24.4743 47.7738 24.2627 47.6045C24.0511 47.432 23.7826 47.3457 23.457 47.3457C23.0339 47.3457 22.7132 47.4727 22.4951 47.7266C22.277 47.9772 22.168 48.4085 22.168 49.0205V51.7012C22.168 51.8477 22.0947 51.9209 21.9482 51.9209H21.5283ZM30.3662 51.9209C30.2197 51.9209 30.1465 51.8477 30.1465 51.7012V44.9336C30.1465 44.7871 30.2197 44.7139 30.3662 44.7139H30.7861C30.9326 44.7139 31.0059 44.7871 31.0059 44.9336V48.9961C31.0059 49.0938 31.0026 49.1914 30.9961 49.2891H31.0059L32.9834 46.9209C33.055 46.8363 33.1413 46.7939 33.2422 46.7939H33.6865C33.9339 46.7939 33.9762 46.89 33.8135 47.082L32.2803 48.9082L34.0332 51.6328C34.1569 51.8249 34.1146 51.9209 33.9062 51.9209H33.4277C33.3203 51.9209 33.2275 51.8607 33.1494 51.7402L31.7432 49.5479L31.0059 50.4268V51.7012C31.0059 51.8477 30.9326 51.9209 30.7861 51.9209H30.3662ZM34.7705 50.5537C34.7705 49.9743 35.0407 49.5495 35.5811 49.2793C36.1247 49.0091 36.9352 48.8512 38.0127 48.8057V48.4736C38.0127 48.1676 37.9427 47.904 37.8027 47.6826C37.666 47.458 37.3926 47.3457 36.9824 47.3457C36.722 47.3457 36.5137 47.3717 36.3574 47.4238C36.2012 47.4727 36.0579 47.5394 35.9277 47.624C35.8008 47.7054 35.6787 47.8112 35.5615 47.9414C35.4736 48.0391 35.3906 48.0439 35.3125 47.9561L35.0586 47.6631C34.987 47.5817 35.0114 47.484 35.1318 47.3701C35.3044 47.2074 35.472 47.0853 35.6348 47.0039C35.7975 46.9225 35.9993 46.8542 36.2402 46.7988C36.4844 46.7402 36.7318 46.7109 36.9824 46.7109C37.6628 46.7109 38.1478 46.8867 38.4375 47.2383C38.7272 47.5866 38.8721 48.0651 38.8721 48.6738V51.7012C38.8721 51.8477 38.7988 51.9209 38.6523 51.9209H38.2129C38.0859 51.9209 38.0225 51.8477 38.0225 51.7012V51.4619H38.0127C37.7555 51.6637 37.5033 51.8053 37.2559 51.8867C37.0117 51.9648 36.7383 52.0039 36.4355 52.0039C35.9017 52.0039 35.4899 51.877 35.2002 51.623C34.9137 51.3659 34.7705 51.0094 34.7705 50.5537ZM35.6592 50.5732C35.6592 50.7751 35.7015 50.9378 35.7861 51.0615C35.8708 51.182 35.988 51.2601 36.1377 51.2959C36.2874 51.3285 36.4437 51.3447 36.6064 51.3447C36.8571 51.3447 37.0947 51.3203 37.3193 51.2715C37.5439 51.2227 37.7751 51.0941 38.0127 50.8857V49.4453C37.3551 49.4941 36.8864 49.5544 36.6064 49.626C36.3265 49.6943 36.0986 49.8148 35.9229 49.9873C35.7471 50.1566 35.6592 50.3519 35.6592 50.5732ZM40.4834 51.9209C40.3369 51.9209 40.2637 51.8477 40.2637 51.7012V47.0137C40.2637 46.8672 40.3369 46.7939 40.4834 46.7939H40.8936C41.04 46.7939 41.1133 46.8672 41.1133 47.0137V47.4043H41.1328C41.3444 47.1699 41.5723 46.9958 41.8164 46.8818C42.0605 46.7679 42.3649 46.7109 42.7295 46.7109C43.3219 46.7109 43.7467 46.8786 44.0039 47.2139C44.2643 47.5459 44.3945 48.0016 44.3945 48.5811V51.7012C44.3945 51.8477 44.3213 51.9209 44.1748 51.9209H43.7549C43.6084 51.9209 43.5352 51.8477 43.5352 51.7012V48.8154C43.5352 48.1774 43.4294 47.7738 43.2178 47.6045C43.0062 47.432 42.7376 47.3457 42.4121 47.3457C41.9889 47.3457 41.6683 47.4727 41.4502 47.7266C41.2321 47.9772 41.123 48.4085 41.123 49.0205V51.7012C41.123 51.8477 41.0498 51.9209 40.9033 51.9209H40.4834ZM48.8232 49.3574C48.8232 48.5501 49.0251 47.9072 49.4287 47.4287C49.8324 46.9502 50.4102 46.7109 51.1621 46.7109C51.7871 46.7109 52.3047 46.9307 52.7148 47.3701C53.1283 47.8063 53.335 48.5046 53.335 49.4648C53.335 49.6113 53.2682 49.6846 53.1348 49.6846H49.7314C49.7868 50.3128 49.9561 50.7507 50.2393 50.998C50.5225 51.2422 50.8431 51.3643 51.2012 51.3643C51.5788 51.3643 51.8685 51.3008 52.0703 51.1738C52.2721 51.0469 52.4202 50.9215 52.5146 50.7979C52.6188 50.6611 52.7197 50.6351 52.8174 50.7197L53.1055 50.9688C53.1803 51.0339 53.1803 51.1234 53.1055 51.2373C53.0436 51.3317 52.8662 51.4831 52.5732 51.6914C52.2835 51.8997 51.8262 52.0039 51.2012 52.0039C50.3874 52.0039 49.7868 51.7646 49.3994 51.2861C49.0153 50.8076 48.8232 50.1647 48.8232 49.3574ZM49.7119 49.0498H52.4707C52.4577 48.5941 52.3405 48.1953 52.1191 47.8535C51.8978 47.5085 51.5723 47.3359 51.1426 47.3359C50.765 47.3359 50.4443 47.4629 50.1807 47.7168C49.917 47.9674 49.7607 48.4118 49.7119 49.0498ZM54.6826 51.9209C54.5361 51.9209 54.4629 51.8477 54.4629 51.7012V47.0137C54.4629 46.8672 54.5361 46.7939 54.6826 46.7939H55.0928C55.2393 46.7939 55.3125 46.8672 55.3125 47.0137V47.5996H55.332C55.4883 47.3066 55.6722 47.0853 55.8838 46.9355C56.0954 46.7858 56.359 46.7109 56.6748 46.7109C56.8831 46.7109 57.0296 46.7288 57.1143 46.7646C57.1891 46.7939 57.2168 46.8428 57.1973 46.9111L57.085 47.3115C57.0687 47.3701 57.0264 47.3929 56.958 47.3799C56.8441 47.3571 56.7367 47.3457 56.6357 47.3457C56.2549 47.3457 55.9408 47.5182 55.6934 47.8633C55.446 48.2051 55.3223 48.6722 55.3223 49.2646V51.7012C55.3223 51.8477 55.249 51.9209 55.1025 51.9209H54.6826ZM57.7881 51.4424C57.6872 51.348 57.666 51.2601 57.7246 51.1787L57.9443 50.8711C58.016 50.7734 58.1217 50.7783 58.2617 50.8857C58.4538 51.0322 58.667 51.1494 58.9014 51.2373C59.139 51.3252 59.4092 51.3691 59.7119 51.3691C59.891 51.3691 60.0505 51.348 60.1904 51.3057C60.3304 51.2601 60.4525 51.1771 60.5566 51.0566C60.6641 50.9362 60.7178 50.7751 60.7178 50.5732C60.7178 50.4561 60.6917 50.3454 60.6396 50.2412C60.5908 50.137 60.5127 50.054 60.4053 49.9922C60.3011 49.9271 60.1986 49.8766 60.0977 49.8408C59.9316 49.779 59.7656 49.7285 59.5996 49.6895C59.4368 49.6471 59.222 49.5837 58.9551 49.499C58.776 49.4437 58.6068 49.3656 58.4473 49.2646C58.2878 49.1605 58.1478 49.0205 58.0273 48.8447C57.9102 48.6689 57.8516 48.4264 57.8516 48.1172C57.8516 47.8014 57.9476 47.5296 58.1396 47.3018C58.3317 47.0739 58.5726 46.9193 58.8623 46.8379C59.152 46.7533 59.4336 46.7109 59.707 46.7109C60.1107 46.7109 60.4346 46.7581 60.6787 46.8525C60.9261 46.9437 61.1393 47.0527 61.3184 47.1797C61.4225 47.2546 61.4372 47.3408 61.3623 47.4385L61.1426 47.7314C61.0742 47.8258 60.9684 47.8226 60.8252 47.7217C60.7048 47.637 60.5339 47.5573 60.3125 47.4824C60.0911 47.4076 59.8975 47.3701 59.7314 47.3701C59.5264 47.3701 59.3506 47.3929 59.2041 47.4385C59.0576 47.484 58.9388 47.5622 58.8477 47.6729C58.7565 47.7835 58.7109 47.9137 58.7109 48.0635C58.7109 48.1774 58.7288 48.2799 58.7646 48.3711C58.8005 48.459 58.8672 48.5404 58.9648 48.6152C59.0625 48.6901 59.1992 48.7503 59.375 48.7959C59.6484 48.8675 59.8975 48.9326 60.1221 48.9912C60.3499 49.0498 60.555 49.1214 60.7373 49.2061C60.9749 49.3167 61.1572 49.4388 61.2842 49.5723C61.4144 49.7057 61.5039 49.8506 61.5527 50.0068C61.6016 50.1598 61.626 50.3307 61.626 50.5195C61.626 50.8678 61.5218 51.1624 61.3135 51.4033C61.1084 51.6442 60.8789 51.8053 60.625 51.8867C60.3711 51.9648 60.0651 52.0039 59.707 52.0039C59.222 52.0039 58.8053 51.9355 58.457 51.7988C58.112 51.6589 57.889 51.54 57.7881 51.4424ZM62.3486 47.4385C62.2021 47.4385 62.1289 47.3815 62.1289 47.2676V46.9648C62.1289 46.8509 62.2021 46.7939 62.3486 46.7939H62.9248V46.3545C62.9248 46.2894 62.9411 46.2275 62.9736 46.1689L63.3154 45.5488C63.3773 45.4349 63.4277 45.3779 63.4668 45.3779H63.6377C63.7354 45.3779 63.7842 45.4349 63.7842 45.5488V46.7939H64.8242C64.9707 46.7939 65.0439 46.8509 65.0439 46.9648V47.2676C65.0439 47.3815 64.9707 47.4385 64.8242 47.4385H63.7842V50.5488C63.7842 50.8906 63.8346 51.1136 63.9355 51.2178C64.0397 51.3187 64.1634 51.3691 64.3066 51.3691C64.4173 51.3691 64.5492 51.3366 64.7021 51.2715C64.8584 51.2064 64.9658 51.151 65.0244 51.1055C65.083 51.0599 65.1286 51.0745 65.1611 51.1494L65.3223 51.5254C65.3483 51.5905 65.3288 51.6426 65.2637 51.6816C65.1367 51.7565 64.9512 51.8298 64.707 51.9014C64.4629 51.9697 64.2188 52.0039 63.9746 52.0039C63.6361 52.0039 63.3757 51.8818 63.1934 51.6377C63.0143 51.3936 62.9248 51.0485 62.9248 50.6025V47.4385H62.3486ZM66.0205 50.5537C66.0205 49.9743 66.2907 49.5495 66.8311 49.2793C67.3747 49.0091 68.1852 48.8512 69.2627 48.8057V48.4736C69.2627 48.1676 69.1927 47.904 69.0527 47.6826C68.916 47.458 68.6426 47.3457 68.2324 47.3457C67.972 47.3457 67.7637 47.3717 67.6074 47.4238C67.4512 47.4727 67.3079 47.5394 67.1777 47.624C67.0508 47.7054 66.9287 47.8112 66.8115 47.9414C66.7236 48.0391 66.6406 48.0439 66.5625 47.9561L66.3086 47.6631C66.237 47.5817 66.2614 47.484 66.3818 47.3701C66.5544 47.2074 66.722 47.0853 66.8848 47.0039C67.0475 46.9225 67.2493 46.8542 67.4902 46.7988C67.7344 46.7402 67.9818 46.7109 68.2324 46.7109C68.9128 46.7109 69.3978 46.8867 69.6875 47.2383C69.9772 47.5866 70.1221 48.0651 70.1221 48.6738V51.7012C70.1221 51.8477 70.0488 51.9209 69.9023 51.9209H69.4629C69.3359 51.9209 69.2725 51.8477 69.2725 51.7012V51.4619H69.2627C69.0055 51.6637 68.7533 51.8053 68.5059 51.8867C68.2617 51.9648 67.9883 52.0039 67.6855 52.0039C67.1517 52.0039 66.7399 51.877 66.4502 51.623C66.1637 51.3659 66.0205 51.0094 66.0205 50.5537ZM66.9092 50.5732C66.9092 50.7751 66.9515 50.9378 67.0361 51.0615C67.1208 51.182 67.238 51.2601 67.3877 51.2959C67.5374 51.3285 67.6937 51.3447 67.8564 51.3447C68.1071 51.3447 68.3447 51.3203 68.5693 51.2715C68.7939 51.2227 69.0251 51.0941 69.2627 50.8857V49.4453C68.6051 49.4941 68.1364 49.5544 67.8564 49.626C67.5765 49.6943 67.3486 49.8148 67.1729 49.9873C66.9971 50.1566 66.9092 50.3519 66.9092 50.5732ZM71.2646 47.4385C71.1182 47.4385 71.0449 47.3815 71.0449 47.2676V46.9648C71.0449 46.8509 71.1182 46.7939 71.2646 46.7939H71.8408V46.3545C71.8408 46.2894 71.8571 46.2275 71.8896 46.1689L72.2314 45.5488C72.2933 45.4349 72.3438 45.3779 72.3828 45.3779H72.5537C72.6514 45.3779 72.7002 45.4349 72.7002 45.5488V46.7939H73.7402C73.8867 46.7939 73.96 46.8509 73.96 46.9648V47.2676C73.96 47.3815 73.8867 47.4385 73.7402 47.4385H72.7002V50.5488C72.7002 50.8906 72.7507 51.1136 72.8516 51.2178C72.9557 51.3187 73.0794 51.3691 73.2227 51.3691C73.3333 51.3691 73.4652 51.3366 73.6182 51.2715C73.7744 51.2064 73.8818 51.151 73.9404 51.1055C73.999 51.0599 74.0446 51.0745 74.0771 51.1494L74.2383 51.5254C74.2643 51.5905 74.2448 51.6426 74.1797 51.6816C74.0527 51.7565 73.8672 51.8298 73.623 51.9014C73.3789 51.9697 73.1348 52.0039 72.8906 52.0039C72.5521 52.0039 72.2917 51.8818 72.1094 51.6377C71.9303 51.3936 71.8408 51.0485 71.8408 50.6025V47.4385H71.2646ZM74.9658 47.4385C74.8193 47.4385 74.7461 47.3815 74.7461 47.2676V46.9648C74.7461 46.8509 74.8193 46.7939 74.9658 46.7939H75.542V46.3545C75.542 46.2894 75.5583 46.2275 75.5908 46.1689L75.9326 45.5488C75.9945 45.4349 76.0449 45.3779 76.084 45.3779H76.2549C76.3525 45.3779 76.4014 45.4349 76.4014 45.5488V46.7939H77.4414C77.5879 46.7939 77.6611 46.8509 77.6611 46.9648V47.2676C77.6611 47.3815 77.5879 47.4385 77.4414 47.4385H76.4014V50.5488C76.4014 50.8906 76.4518 51.1136 76.5527 51.2178C76.6569 51.3187 76.7806 51.3691 76.9238 51.3691C77.0345 51.3691 77.1663 51.3366 77.3193 51.2715C77.4756 51.2064 77.583 51.151 77.6416 51.1055C77.7002 51.0599 77.7458 51.0745 77.7783 51.1494L77.9395 51.5254C77.9655 51.5905 77.946 51.6426 77.8809 51.6816C77.7539 51.7565 77.5684 51.8298 77.3242 51.9014C77.0801 51.9697 76.8359 52.0039 76.5918 52.0039C76.2533 52.0039 75.9928 51.8818 75.8105 51.6377C75.6315 51.3936 75.542 51.0485 75.542 50.6025V47.4385H74.9658ZM78.6377 49.3574C78.6377 48.5501 78.8395 47.9072 79.2432 47.4287C79.6468 46.9502 80.2246 46.7109 80.9766 46.7109C81.6016 46.7109 82.1191 46.9307 82.5293 47.3701C82.9427 47.8063 83.1494 48.5046 83.1494 49.4648C83.1494 49.6113 83.0827 49.6846 82.9492 49.6846H79.5459C79.6012 50.3128 79.7705 50.7507 80.0537 50.998C80.3369 51.2422 80.6576 51.3643 81.0156 51.3643C81.3932 51.3643 81.6829 51.3008 81.8848 51.1738C82.0866 51.0469 82.2347 50.9215 82.3291 50.7979C82.4333 50.6611 82.5342 50.6351 82.6318 50.7197L82.9199 50.9688C82.9948 51.0339 82.9948 51.1234 82.9199 51.2373C82.8581 51.3317 82.6807 51.4831 82.3877 51.6914C82.098 51.8997 81.6406 52.0039 81.0156 52.0039C80.2018 52.0039 79.6012 51.7646 79.2139 51.2861C78.8298 50.8076 78.6377 50.1647 78.6377 49.3574ZM79.5264 49.0498H82.2852C82.2721 48.5941 82.1549 48.1953 81.9336 47.8535C81.7122 47.5085 81.3867 47.3359 80.957 47.3359C80.5794 47.3359 80.2588 47.4629 79.9951 47.7168C79.7314 47.9674 79.5752 48.4118 79.5264 49.0498ZM7.7002 65.4424C7.59928 65.348 7.57812 65.2601 7.63672 65.1787L7.85645 64.8711C7.92806 64.7734 8.03385 64.7783 8.17383 64.8857C8.36589 65.0322 8.5791 65.1494 8.81348 65.2373C9.05111 65.3252 9.32129 65.3691 9.62402 65.3691C9.80306 65.3691 9.96257 65.348 10.1025 65.3057C10.2425 65.2601 10.3646 65.1771 10.4688 65.0566C10.5762 64.9362 10.6299 64.7751 10.6299 64.5732C10.6299 64.4561 10.6038 64.3454 10.5518 64.2412C10.5029 64.137 10.4248 64.054 10.3174 63.9922C10.2132 63.9271 10.1107 63.8766 10.0098 63.8408C9.84375 63.779 9.67773 63.7285 9.51172 63.6895C9.34896 63.6471 9.13411 63.5837 8.86719 63.499C8.68815 63.4437 8.51888 63.3656 8.35938 63.2646C8.19987 63.1605 8.0599 63.0205 7.93945 62.8447C7.82227 62.6689 7.76367 62.4264 7.76367 62.1172C7.76367 61.8014 7.8597 61.5296 8.05176 61.3018C8.24382 61.0739 8.4847 60.9193 8.77441 60.8379C9.06413 60.7533 9.3457 60.7109 9.61914 60.7109C10.0228 60.7109 10.3467 60.7581 10.5908 60.8525C10.8382 60.9437 11.0514 61.0527 11.2305 61.1797C11.3346 61.2546 11.3493 61.3408 11.2744 61.4385L11.0547 61.7314C10.9863 61.8258 10.8805 61.8226 10.7373 61.7217C10.6169 61.637 10.446 61.5573 10.2246 61.4824C10.0033 61.4076 9.80957 61.3701 9.64355 61.3701C9.43848 61.3701 9.2627 61.3929 9.11621 61.4385C8.96973 61.484 8.85091 61.5622 8.75977 61.6729C8.66862 61.7835 8.62305 61.9137 8.62305 62.0635C8.62305 62.1774 8.64095 62.2799 8.67676 62.3711C8.71257 62.459 8.7793 62.5404 8.87695 62.6152C8.97461 62.6901 9.11133 62.7503 9.28711 62.7959C9.56055 62.8675 9.80957 62.9326 10.0342 62.9912C10.262 63.0498 10.4671 63.1214 10.6494 63.2061C10.887 63.3167 11.0693 63.4388 11.1963 63.5723C11.3265 63.7057 11.416 63.8506 11.4648 64.0068C11.5137 64.1598 11.5381 64.3307 11.5381 64.5195C11.5381 64.8678 11.4339 65.1624 11.2256 65.4033C11.0205 65.6442 10.791 65.8053 10.5371 65.8867C10.2832 65.9648 9.97721 66.0039 9.61914 66.0039C9.13411 66.0039 8.71745 65.9355 8.36914 65.7988C8.02409 65.6589 7.80111 65.54 7.7002 65.4424ZM12.5 64.1338V61.0137C12.5 60.8672 12.5732 60.7939 12.7197 60.7939H13.1396C13.2861 60.7939 13.3594 60.8672 13.3594 61.0137V63.8994C13.3594 64.5374 13.4652 64.9427 13.6768 65.1152C13.8883 65.2845 14.1504 65.3691 14.4629 65.3691C14.873 65.3691 15.1872 65.2438 15.4053 64.9932C15.6234 64.7393 15.7324 64.3063 15.7324 63.6943V61.0137C15.7324 60.8672 15.8057 60.7939 15.9521 60.7939H16.3721C16.5186 60.7939 16.5918 60.8672 16.5918 61.0137V65.7012C16.5918 65.8477 16.5186 65.9209 16.3721 65.9209H15.9619C15.8154 65.9209 15.7422 65.8477 15.7422 65.7012V65.3105H15.7227C15.5111 65.5449 15.2832 65.7191 15.0391 65.833C14.7949 65.9469 14.4971 66.0039 14.1455 66.0039C13.5758 66.0039 13.1592 65.8379 12.8955 65.5059C12.6318 65.1706 12.5 64.7132 12.5 64.1338ZM18.1982 65.9209C18.0518 65.9209 17.9785 65.8477 17.9785 65.7012V58.9336C17.9785 58.7871 18.0518 58.7139 18.1982 58.7139H18.6182C18.7646 58.7139 18.8379 58.7871 18.8379 58.9336V62.9961C18.8379 63.0938 18.8346 63.1914 18.8281 63.2891H18.8379L20.8154 60.9209C20.887 60.8363 20.9733 60.7939 21.0742 60.7939H21.5186C21.766 60.7939 21.8083 60.89 21.6455 61.082L20.1123 62.9082L21.8652 65.6328C21.9889 65.8249 21.9466 65.9209 21.7383 65.9209H21.2598C21.1523 65.9209 21.0596 65.8607 20.9814 65.7402L19.5752 63.5479L18.8379 64.4268V65.7012C18.8379 65.8477 18.7646 65.9209 18.6182 65.9209H18.1982ZM23.1006 65.9209C22.9541 65.9209 22.8809 65.8477 22.8809 65.7012V58.9336C22.8809 58.7871 22.9541 58.7139 23.1006 58.7139H23.5205C23.667 58.7139 23.7402 58.7871 23.7402 58.9336V62.9961C23.7402 63.0938 23.737 63.1914 23.7305 63.2891H23.7402L25.7178 60.9209C25.7894 60.8363 25.8757 60.7939 25.9766 60.7939H26.4209C26.6683 60.7939 26.7106 60.89 26.5479 61.082L25.0146 62.9082L26.7676 65.6328C26.8913 65.8249 26.849 65.9209 26.6406 65.9209H26.1621C26.0547 65.9209 25.9619 65.8607 25.8838 65.7402L24.4775 63.5479L23.7402 64.4268V65.7012C23.7402 65.8477 23.667 65.9209 23.5205 65.9209H23.1006ZM27.5049 63.3574C27.5049 62.5501 27.7067 61.9072 28.1104 61.4287C28.514 60.9502 29.0918 60.7109 29.8438 60.7109C30.4688 60.7109 30.9863 60.9307 31.3965 61.3701C31.8099 61.8063 32.0166 62.5046 32.0166 63.4648C32.0166 63.6113 31.9499 63.6846 31.8164 63.6846H28.4131C28.4684 64.3128 28.6377 64.7507 28.9209 64.998C29.2041 65.2422 29.5247 65.3643 29.8828 65.3643C30.2604 65.3643 30.5501 65.3008 30.752 65.1738C30.9538 65.0469 31.1019 64.9215 31.1963 64.7979C31.3005 64.6611 31.4014 64.6351 31.499 64.7197L31.7871 64.9688C31.862 65.0339 31.862 65.1234 31.7871 65.2373C31.7253 65.3317 31.5479 65.4831 31.2549 65.6914C30.9652 65.8997 30.5078 66.0039 29.8828 66.0039C29.069 66.0039 28.4684 65.7646 28.0811 65.2861C27.6969 64.8076 27.5049 64.1647 27.5049 63.3574ZM28.3936 63.0498H31.1523C31.1393 62.5941 31.0221 62.1953 30.8008 61.8535C30.5794 61.5085 30.2539 61.3359 29.8242 61.3359C29.4466 61.3359 29.126 61.4629 28.8623 61.7168C28.5986 61.9674 28.4424 62.4118 28.3936 63.0498ZM33.3643 65.9209C33.2178 65.9209 33.1445 65.8477 33.1445 65.7012V61.0137C33.1445 60.8672 33.2178 60.7939 33.3643 60.7939H33.7744C33.9209 60.7939 33.9941 60.8672 33.9941 61.0137V61.5996H34.0137C34.1699 61.3066 34.3538 61.0853 34.5654 60.9355C34.777 60.7858 35.0407 60.7109 35.3564 60.7109C35.5648 60.7109 35.7113 60.7288 35.7959 60.7646C35.8708 60.7939 35.8984 60.8428 35.8789 60.9111L35.7666 61.3115C35.7503 61.3701 35.708 61.3929 35.6396 61.3799C35.5257 61.3571 35.4183 61.3457 35.3174 61.3457C34.9365 61.3457 34.6224 61.5182 34.375 61.8633C34.1276 62.2051 34.0039 62.6722 34.0039 63.2646V65.7012C34.0039 65.8477 33.9307 65.9209 33.7842 65.9209H33.3643ZM40.2197 65.9209C40.0732 65.9209 40 65.8477 40 65.7012V61.0137C40 60.8672 40.0732 60.7939 40.2197 60.7939H40.6299C40.7764 60.7939 40.8496 60.8672 40.8496 61.0137V61.4043H40.8691C41.0807 61.1699 41.3102 60.9958 41.5576 60.8818C41.805 60.7679 42.0426 60.7109 42.2705 60.7109C42.6904 60.7109 43.0127 60.8167 43.2373 61.0283C43.4652 61.2367 43.6117 61.4466 43.6768 61.6582H43.6963C43.8753 61.3913 44.1016 61.1667 44.375 60.9844C44.6484 60.8021 44.9398 60.7109 45.249 60.7109C45.7666 60.7109 46.1572 60.8786 46.4209 61.2139C46.6846 61.5459 46.8164 62.0016 46.8164 62.5811V65.7012C46.8164 65.8477 46.7432 65.9209 46.5967 65.9209H46.1768C46.0303 65.9209 45.957 65.8477 45.957 65.7012V62.8643C45.957 62.2262 45.8773 61.8145 45.7178 61.6289C45.5583 61.4401 45.3125 61.3457 44.9805 61.3457C44.6549 61.3457 44.3831 61.4857 44.165 61.7656C43.9469 62.0423 43.8379 62.4606 43.8379 63.0205V65.7012C43.8379 65.8477 43.7646 65.9209 43.6182 65.9209H43.1982C43.0518 65.9209 42.9785 65.8477 42.9785 65.7012V62.8643C42.9785 62.2262 42.8988 61.8145 42.7393 61.6289C42.5798 61.4401 42.334 61.3457 42.002 61.3457C41.6764 61.3457 41.4046 61.4727 41.1865 61.7266C40.9684 61.9772 40.8594 62.4085 40.8594 63.0205V65.7012C40.8594 65.8477 40.7861 65.9209 40.6396 65.9209H40.2197ZM47.915 63.3574C47.915 62.5501 48.1169 61.9072 48.5205 61.4287C48.9242 60.9502 49.502 60.7109 50.2539 60.7109C50.8789 60.7109 51.3965 60.9307 51.8066 61.3701C52.2201 61.8063 52.4268 62.5046 52.4268 63.4648C52.4268 63.6113 52.36 63.6846 52.2266 63.6846H48.8232C48.8786 64.3128 49.0479 64.7507 49.3311 64.998C49.6143 65.2422 49.9349 65.3643 50.293 65.3643C50.6706 65.3643 50.9603 65.3008 51.1621 65.1738C51.3639 65.0469 51.512 64.9215 51.6064 64.7979C51.7106 64.6611 51.8115 64.6351 51.9092 64.7197L52.1973 64.9688C52.2721 65.0339 52.2721 65.1234 52.1973 65.2373C52.1354 65.3317 51.958 65.4831 51.665 65.6914C51.3753 65.8997 50.918 66.0039 50.293 66.0039C49.4792 66.0039 48.8786 65.7646 48.4912 65.2861C48.1071 64.8076 47.915 64.1647 47.915 63.3574ZM48.8037 63.0498H51.5625C51.5495 62.5941 51.4323 62.1953 51.2109 61.8535C50.9896 61.5085 50.6641 61.3359 50.2344 61.3359C49.8568 61.3359 49.5361 61.4629 49.2725 61.7168C49.0088 61.9674 48.8525 62.4118 48.8037 63.0498ZM53.2764 63.3574C53.2764 62.6576 53.4456 62.0423 53.7842 61.5117C54.1227 60.9779 54.6175 60.7109 55.2686 60.7109C55.6429 60.7109 55.9424 60.7728 56.167 60.8965C56.3916 61.0202 56.5934 61.1895 56.7725 61.4043H56.7822C56.7757 61.3066 56.7725 61.2074 56.7725 61.1064V58.9336C56.7725 58.7871 56.8457 58.7139 56.9922 58.7139H57.4121C57.5586 58.7139 57.6318 58.7871 57.6318 58.9336V65.7012C57.6318 65.8477 57.5586 65.9209 57.4121 65.9209H57.002C56.8848 65.9209 56.8213 65.8477 56.8115 65.7012L56.7822 65.3105H56.7725C56.5934 65.5254 56.3916 65.6947 56.167 65.8184C55.9424 65.9421 55.6429 66.0039 55.2686 66.0039C54.6175 66.0039 54.1227 65.7386 53.7842 65.208C53.4456 64.6742 53.2764 64.0573 53.2764 63.3574ZM54.1846 63.3574C54.1846 63.9564 54.2871 64.4414 54.4922 64.8125C54.7005 65.1836 55.0521 65.3691 55.5469 65.3691C55.8984 65.3691 56.1898 65.2503 56.4209 65.0127C56.6553 64.7718 56.7725 64.4072 56.7725 63.9189V62.7959C56.7725 62.3076 56.6553 61.9447 56.4209 61.707C56.1898 61.4661 55.8984 61.3457 55.5469 61.3457C55.0521 61.3457 54.7005 61.5312 54.4922 61.9023C54.2871 62.2734 54.1846 62.7585 54.1846 63.3574Z" fill="#2C2C2C"/>
<path d="M147.208 33.3299C144.695 35.3071 142.317 39.9271 142.317 39.9271C142.317 39.9271 138.309 40.2094 137.426 42.1261C136.858 43.3586 136.858 44.3754 137.426 45.6079C138.309 47.5246 142.317 47.807 142.317 47.807C142.317 47.807 144.902 51.5089 147.208 53.1213C153.319 57.3942 160.535 57.9466 166.23 53.1213C168.204 51.4485 170.215 47.807 170.215 47.807C170.215 47.807 173.74 47.3384 174.563 45.6079C175.146 44.3826 175.146 43.3515 174.563 42.1261C173.74 40.3956 170.215 39.9271 170.215 39.9271C170.215 39.9271 168.422 35.3792 166.23 33.3299C160.774 28.2298 153.072 28.7166 147.208 33.3299Z" fill="#9ABC04" stroke="#474646" stroke-width="0.25"/>
<path d="M155.121 44.7872C155.121 44.5668 155.088 44.1221 155.02 43.9168C154.953 43.7116 154.852 43.5072 154.75 43.3189C154.703 43.2318 154.515 43.2499 154.346 43.2753C154.221 43.2941 154.176 43.4544 154.117 43.5566C153.853 44.0142 154.091 44.9399 154.159 45.1451C154.192 45.2473 154.226 45.3503 154.277 45.4525C154.304 45.5078 154.361 45.5548 154.462 45.5809C154.707 45.6442 154.918 45.5732 155.011 45.4966C155.054 45.4538 155.087 45.4031 155.104 45.3093C155.121 45.2155 155.172 44.9778 155.121 44.7872Z" fill="#3A3A3A" stroke="#3A3A3A" stroke-width="0.25" stroke-linecap="round"/>
<path d="M156.923 44.7872C156.923 44.5668 156.889 44.1221 156.822 43.9169C156.754 43.7116 156.653 43.5072 156.552 43.3189C156.505 43.2318 156.316 43.25 156.147 43.2753C156.022 43.2941 155.978 43.4544 155.919 43.5566C155.654 44.0142 155.892 44.9399 155.96 45.1451C155.994 45.2473 156.028 45.3503 156.078 45.4525C156.105 45.5078 156.162 45.5548 156.263 45.5809C156.508 45.6442 156.72 45.5732 156.812 45.4966C156.855 45.4538 156.888 45.4031 156.906 45.3093C156.923 45.2156 156.973 44.9778 156.923 44.7872Z" fill="#3A3A3A" stroke="#3A3A3A" stroke-width="0.25" stroke-linecap="round"/>
<path d="M146.443 33.1183C146.551 33.2802 146.65 33.4827 146.699 33.6271C146.753 33.7421 146.78 33.7767 146.812 33.7799C146.954 33.7006 147.1 33.5908 147.36 33.4779C147.53 33.3671 147.703 33.2553 147.907 33.1695C148.215 33.0399 148.408 32.9572 148.614 32.8197C148.777 32.7113 148.989 32.6133 149.199 32.4904C149.385 32.3816 149.61 32.3089 149.827 32.1757C150.024 32.0554 150.203 31.9562 150.405 31.8488C150.647 31.7206 150.967 31.5855 151.191 31.4794C151.483 31.3407 151.891 31.1926 152.211 31.0354C152.468 30.9091 152.775 30.8082 152.992 30.675C153.189 30.5547 153.445 30.6004 153.869 30.1914C153.955 30.1087 153.929 30.0148 153.893 29.9467C153.83 29.8286 153.716 29.7284 153.636 29.5709C153.5 29.3047 153.368 28.9069 153.221 28.6359C153.12 28.4491 153.03 28.2741 152.922 28.1343C152.814 27.9944 152.686 27.8679 152.597 27.7152C152.489 27.53 152.413 27.2849 152.296 27.1177C152.192 26.969 152.081 26.7734 151.986 26.5599C151.954 26.4887 151.901 26.3522 152.097 26.2635C152.654 26.011 153.065 25.8402 153.16 25.7978C153.386 25.6968 153.879 25.5666 154.178 25.3472C154.331 25.2346 154.483 25.1319 154.629 25.0054C154.812 24.8455 155.01 24.7438 155.119 24.5762C155.28 24.326 155.506 23.8974 155.589 23.6583C155.659 23.4564 155.778 23.2182 155.826 22.9995C155.868 22.8072 155.896 22.6203 155.911 22.4375C155.926 22.2547 155.97 22.0569 156.004 21.8731C156.039 21.6832 156.145 21.498 156.117 21.3016C156.079 21.0316 155.955 20.6824 155.821 20.5621C155.679 20.4341 155.577 20.2895 155.462 20.1549C155.335 20.0064 155.173 19.8459 154.955 19.7179C154.773 19.6113 154.566 19.5298 154.372 19.5075C154.164 19.4837 153.93 19.4303 153.13 19.7775C152.703 19.9632 152.318 20.1601 152.086 20.2593C151.805 20.3794 151.615 20.4686 151.44 20.5877C151.284 20.6937 151.044 20.8397 150.861 21.0482C150.765 21.1575 150.672 21.2798 150.576 21.4159C150.567 21.4473 150.559 21.4786 150.551 21.5096C150.503 21.7084 150.439 21.9031 150.383 22.1002C150.327 22.2973 150.271 22.4937 150.249 22.679C150.238 22.7759 150.187 22.8784 150.132 22.942C150.113 22.9641 150.078 22.9177 150.064 22.8779C150.008 22.7144 150.071 22.4917 150.115 22.2835C150.155 22.1006 150.229 21.9187 150.408 21.657C150.466 21.5722 150.522 21.4919 150.576 21.4159C150.626 21.2338 150.686 21.0445 150.688 20.8486C150.689 20.6482 150.86 20.3414 150.405 19.4673C150.252 19.1744 150.13 19.0134 149.988 18.8675C149.859 18.7349 149.72 18.6133 149.551 18.5245C149.374 18.431 149.179 18.3574 148.977 18.3405C148.788 18.3247 148.597 18.2923 148.408 18.3095C148.177 18.3305 147.969 18.3481 147.752 18.3604C147.549 18.3719 147.311 18.3114 146.659 18.6155C146.349 18.7605 146.05 18.8191 145.783 19.0091C145.517 19.1989 145.249 19.4198 145.099 19.5655C144.863 19.7955 144.706 19.946 144.57 20.1267L144.56 20.1401C144.388 20.368 144.204 20.6114 144.05 20.966C143.921 21.2624 143.855 21.4822 143.813 21.7578C143.779 21.9769 143.737 22.2259 143.732 22.4953C143.729 22.6887 143.859 23.5283 144.158 23.9139C144.266 24.0537 144.644 24.3422 144.434 24.3939C144.285 24.4304 144.103 24.4343 143.907 24.399C143.712 24.3638 143.53 24.3638 143.348 24.3723C143.152 24.3814 142.91 24.3646 142.719 24.4137C142.234 24.5384 141.466 24.7994 141.291 24.9186C141.136 25.0246 140.99 25.1347 140.857 25.2846C140.723 25.4343 140.579 25.5658 140.434 25.779C140.296 25.9829 140.195 26.2244 140.139 26.4215C140.083 26.6186 140.122 26.8473 140.121 27.0485C140.12 27.2265 140.046 27.4045 140.075 27.7076C140.115 28.1194 140.359 28.6444 140.435 28.8169C140.536 29.048 140.673 29.195 140.795 29.3414C140.911 29.4789 140.992 29.6442 141.134 29.7557C141.29 29.8788 141.402 30.0618 141.66 30.1343C141.871 30.1938 142.071 30.2363 142.26 30.2579C142.467 30.2817 142.676 30.2785 142.865 30.2613C143.095 30.2403 143.311 30.2393 143.53 30.2145C143.751 30.1895 144.323 29.7222 144.604 29.9075C144.662 29.9463 144.694 30.1359 144.815 30.3301C144.932 30.5181 145.039 30.6849 145.12 30.874C145.228 31.1245 145.315 31.43 145.481 31.6496C145.592 31.796 145.693 31.9404 145.82 32.1083C145.93 32.2547 146.007 32.4119 146.124 32.579C146.227 32.7278 146.291 32.891 146.443 33.1183Z" fill="white"/>
<path d="M150.576 21.4159C150.672 21.2798 150.765 21.1575 150.861 21.0482C151.044 20.8397 151.284 20.6937 151.44 20.5877C151.615 20.4686 151.805 20.3794 152.086 20.2593C152.318 20.1601 152.703 19.9632 153.13 19.7775C153.93 19.4303 154.164 19.4837 154.372 19.5075C154.566 19.5298 154.773 19.6113 154.955 19.7179C155.173 19.8459 155.335 20.0064 155.462 20.1549C155.577 20.2895 155.679 20.4341 155.821 20.5621C155.955 20.6824 156.079 21.0316 156.117 21.3016C156.145 21.498 156.039 21.6832 156.004 21.8731C155.97 22.0569 155.926 22.2547 155.911 22.4375C155.896 22.6203 155.868 22.8072 155.826 22.9995C155.778 23.2182 155.659 23.4564 155.589 23.6583C155.506 23.8974 155.28 24.326 155.119 24.5762C155.01 24.7438 154.812 24.8455 154.629 25.0054C154.484 25.1319 154.331 25.2346 154.178 25.3472C153.879 25.5666 153.386 25.6968 153.16 25.7978C153.065 25.8402 152.654 26.011 152.097 26.2635C151.901 26.3522 151.954 26.4887 151.986 26.5599C152.081 26.7734 152.192 26.969 152.296 27.1177C152.413 27.2849 152.489 27.53 152.597 27.7152C152.686 27.8679 152.814 27.9944 152.922 28.1343C153.03 28.2741 153.12 28.4491 153.221 28.6359C153.368 28.9069 153.5 29.3047 153.636 29.5709C153.716 29.7284 153.83 29.8286 153.893 29.9467C153.929 30.0148 153.955 30.1087 153.869 30.1914C153.445 30.6004 153.189 30.5547 152.992 30.675C152.775 30.8082 152.468 30.9091 152.211 31.0354C151.891 31.1926 151.483 31.3407 151.191 31.4794C150.967 31.5855 150.647 31.7206 150.405 31.8488C150.203 31.9562 150.024 32.0554 149.827 32.1757C149.61 32.3089 149.385 32.3816 149.199 32.4904C148.989 32.6133 148.777 32.7113 148.614 32.8197C148.408 32.9572 148.215 33.0399 147.907 33.1695C147.703 33.2553 147.53 33.3671 147.36 33.4779C147.1 33.5908 146.954 33.7006 146.812 33.7799C146.78 33.7767 146.753 33.7421 146.699 33.6271C146.65 33.4827 146.551 33.2802 146.443 33.1183C146.291 32.891 146.227 32.7278 146.124 32.579C146.007 32.4119 145.93 32.2547 145.82 32.1083C145.693 31.9404 145.592 31.796 145.481 31.6496C145.315 31.43 145.228 31.1245 145.12 30.874C145.039 30.6849 144.932 30.5181 144.815 30.3301C144.694 30.1359 144.662 29.9463 144.604 29.9075C144.323 29.7222 143.751 30.1895 143.53 30.2145C143.311 30.2393 143.095 30.2403 142.865 30.2613C142.676 30.2785 142.467 30.2817 142.26 30.2579C142.071 30.2363 141.871 30.1938 141.66 30.1343C141.402 30.0618 141.29 29.8788 141.134 29.7557C140.992 29.6442 140.911 29.4789 140.795 29.3414C140.673 29.195 140.536 29.048 140.435 28.8169C140.359 28.6444 140.115 28.1194 140.075 27.7076C140.046 27.4045 140.12 27.2265 140.121 27.0485C140.122 26.8473 140.083 26.6186 140.139 26.4215C140.195 26.2244 140.296 25.9829 140.434 25.779C140.579 25.5658 140.723 25.4343 140.857 25.2846C140.99 25.1347 141.136 25.0246 141.291 24.9186C141.466 24.7994 142.234 24.5384 142.719 24.4137C142.91 24.3646 143.152 24.3814 143.348 24.3723C143.53 24.3638 143.712 24.3638 143.907 24.399C144.103 24.4343 144.285 24.4304 144.434 24.3939C144.644 24.3422 144.266 24.0537 144.158 23.9139C143.859 23.5283 143.729 22.6887 143.732 22.4953C143.737 22.2259 143.779 21.9769 143.813 21.7578C143.855 21.4822 143.921 21.2624 144.05 20.966C144.204 20.6114 144.388 20.368 144.56 20.1401C144.563 20.1356 144.566 20.1311 144.57 20.1267C144.706 19.946 144.863 19.7955 145.099 19.5655C145.249 19.4198 145.517 19.1989 145.783 19.0091C146.05 18.8191 146.349 18.7605 146.659 18.6155C147.311 18.3114 147.549 18.3719 147.752 18.3604C147.969 18.3481 148.177 18.3305 148.408 18.3095C148.597 18.2923 148.788 18.3247 148.977 18.3405C149.179 18.3574 149.374 18.431 149.551 18.5245C149.72 18.6133 149.859 18.7349 149.988 18.8675C150.13 19.0134 150.252 19.1744 150.405 19.4673C150.86 20.3414 150.689 20.6482 150.688 20.8486C150.686 21.0445 150.626 21.2338 150.576 21.4159ZM144.57 20.1267L144.56 20.1401M150.576 21.4159C150.567 21.4473 150.559 21.4786 150.551 21.5096C150.503 21.7084 150.439 21.9031 150.383 22.1002C150.327 22.2973 150.271 22.4937 150.249 22.679C150.238 22.7759 150.187 22.8784 150.132 22.942C150.113 22.9641 150.078 22.9177 150.064 22.8779C150.008 22.7144 150.071 22.4917 150.115 22.2835C150.155 22.1006 150.229 21.9187 150.408 21.657C150.466 21.5722 150.522 21.4919 150.576 21.4159Z" stroke="#3A3A3A" stroke-width="0.25" stroke-linecap="round"/>
<path d="M148.088 31.1598C148.056 31.0929 147.988 30.9956 147.94 30.8947C147.887 30.784 147.805 30.6944 147.758 30.5973C147.715 30.5065 147.654 30.4081 147.575 30.2703C147.445 30.0415 147.405 29.9123 147.268 29.5484C147.237 29.4665 147.218 29.439 147.134 29.2053C147.05 28.9715 146.902 28.5329 146.826 28.2941C146.739 27.9719 146.719 27.8577 146.714 27.7507C146.709 27.722 146.699 27.6912 146.736 27.6427" stroke="#3A3A3A" stroke-width="0.25" stroke-linecap="round"/>
<path d="M150.794 29.6482C150.719 29.4248 150.545 28.9627 150.463 28.8263C150.376 28.6828 150.299 28.5534 150.236 28.4099C150.167 28.2497 149.991 27.8298 149.933 27.5775C149.907 27.4687 149.921 27.3301 149.915 27.193C149.909 27.0581 149.924 26.9384 149.923 26.8168C149.934 26.6223 149.957 26.3715 149.963 26.2167C149.966 26.1851 149.974 26.1565 150.007 26.1186" stroke="#3A3A3A" stroke-width="0.25" stroke-linecap="round"/>
<path d="M160.936 56.0191C160.701 56.0611 158.452 56.6683 158.196 56.8176C157.967 56.9512 157.597 57.1307 157.086 57.4848C156.699 57.7531 156.336 58.1622 156.035 58.427C155.744 58.682 155.594 59.0138 155.444 59.2571C155.298 59.4934 155.313 60.3648 155.512 60.9172C155.672 61.3622 156.093 61.4436 156.582 61.7173C156.855 61.8698 157.113 61.9101 157.802 61.9208C158.161 61.9263 158.434 61.7692 158.675 61.6277C159.007 61.4324 159.375 60.9807 159.596 60.7068C159.843 60.4008 159.977 60.1704 160.156 59.9171C160.34 59.6586 160.437 59.3406 160.537 59.0767C160.628 58.8374 160.697 58.591 160.767 58.3377C160.846 58.0531 160.877 57.7612 160.948 57.4369C160.978 57.1125 161.087 56.4301 160.948 56.0174C160.947 56.0178 160.947 56.0182 160.946 56.0185C160.941 56.023 160.938 56.0218 160.936 56.0191Z" fill="#9ABC04"/>
<path d="M160.936 56.0191C160.941 56.0183 160.945 56.0177 160.948 56.0174C161.087 56.4301 160.978 57.1125 160.948 57.4369C160.877 57.7612 160.846 58.0531 160.767 58.3377C160.697 58.591 160.628 58.8374 160.537 59.0767C160.437 59.3406 160.34 59.6586 160.156 59.9171C159.977 60.1704 159.843 60.4008 159.596 60.7068C159.375 60.9807 159.007 61.4324 158.675 61.6277C158.434 61.7692 158.161 61.9263 157.802 61.9208C157.113 61.9101 156.855 61.8698 156.582 61.7173C156.093 61.4436 155.672 61.3622 155.512 60.9172C155.313 60.3648 155.298 59.4934 155.444 59.2571C155.594 59.0138 155.744 58.682 156.035 58.427C156.336 58.1622 156.699 57.7531 157.086 57.4848C157.597 57.1307 157.967 56.9512 158.196 56.8176C158.452 56.6683 160.701 56.0611 160.936 56.0191ZM160.948 56.0174C160.947 56.0178 160.947 56.0182 160.946 56.0185C160.941 56.023 160.938 56.0218 160.936 56.0191M160.955 56.0388C160.94 55.995 160.932 56.0122 160.936 56.0191" stroke="#474646" stroke-width="0.25" stroke-linecap="round"/>
<path d="M155.347 56.4655C154.969 56.4655 152.384 55.9563 151.635 56.1987C151.154 56.3545 150.763 56.5431 150.423 56.7053C150.155 56.8331 149.922 56.9683 149.672 57.0801C149.364 57.2176 149.062 57.4943 148.332 58.2014C147.975 58.547 147.86 58.8708 147.759 59.1448C147.602 59.5746 147.739 60.1671 147.938 60.4508C148.113 60.6987 148.418 60.7551 148.679 60.8463C149.024 60.967 150.131 61.0188 150.93 60.8979C151.286 60.8441 151.541 60.6349 151.941 60.4727C152.324 60.3174 152.622 59.9873 152.862 59.7945C153.123 59.5852 153.382 59.279 153.633 58.9647C153.848 58.6951 154.084 58.408 154.244 58.1546C154.423 57.8719 154.564 57.6183 154.665 57.375C154.704 57.2538 154.765 57.1317 154.844 57.0105C154.885 56.9495 155.246 56.5275 155.347 56.4655Z" fill="#9ABC04" stroke="#474646" stroke-width="0.25" stroke-linecap="round"/>
<path d="M152.756 48.4195C152.949 48.4195 153.339 48.4585 153.573 48.5373C153.806 48.6162 154.039 48.6947 154.273 48.7735C154.507 48.8524 154.74 48.9309 155.119 48.9607C155.443 48.9862 155.791 49.049 156.703 49.0496C157.093 49.0499 157.308 48.853 157.542 48.7154C157.776 48.5776 158.009 48.4987 158.243 48.3611C158.477 48.2034 158.652 48.0853 158.768 47.997C158.827 47.9477 158.885 47.8892 159.061 47.829" stroke="#2C2C2C" stroke-width="0.25" stroke-linecap="round"/>
<path d="M158.652 48.2424C158.71 48.3404 158.866 48.5365 159.06 48.724C159.174 48.8342 159.275 48.9504 159.343 49.0683C159.406 49.1785 159.411 49.4217 159.392 49.7167C159.384 49.8376 159.334 49.8947 159.228 49.9443C158.961 50.0684 158.711 50.0536 158.595 50.0143C158.363 49.9362 158.225 49.6608 158.069 49.4243C157.991 49.3065 157.894 49.2073 157.787 49.119C157.738 49.0697 157.7 49.0113 157.543 48.8329" stroke="#2C2C2C" stroke-width="0.25" stroke-linecap="round"/>
<path d="M158.069 48.4786C158.107 48.4786 158.146 48.537 158.204 48.6451C158.243 48.6947 158.301 48.7337 158.34 48.783C158.38 48.8323 158.399 48.8908 158.536 49.0691" stroke="#2C2C2C" stroke-width="0.25" stroke-linecap="round"/>
</svg>
