<svg width="54" height="54" viewBox="0 0 54 54" fill="none" xmlns="http://www.w3.org/2000/svg">
<path d="M26.9995 51.7501C25.942 51.7501 24.907 51.6376 23.872 51.4126C15.9745 49.7251 10.957 41.9401 12.6445 34.0426C13.207 31.3876 14.512 28.9576 16.3795 27.0001C16.7482 26.6113 16.9538 26.0959 16.9538 25.5601C16.9538 25.0243 16.7482 24.5089 16.3795 24.1201C11.6995 18.3151 12.5995 9.81011 18.4045 5.13011C24.2095 0.450109 32.7145 1.36586 37.3945 7.17761C41.377 12.1051 41.377 19.1251 37.3945 24.1201C36.742 25.0426 36.832 26.3251 37.6195 27.1351C43.132 33.0301 42.8395 42.3001 36.922 47.8126C34.2361 50.34 30.6875 51.7482 26.9995 51.7501ZM26.9995 6.75011C24.952 6.75011 22.9495 7.44761 21.3745 8.75261C20.4513 9.48784 19.6826 10.3983 19.1125 11.4316C18.5424 12.465 18.1821 13.6008 18.0525 14.7738C17.9229 15.9468 18.0264 17.1339 18.3571 18.2668C18.6878 19.3997 19.2391 20.456 19.9795 21.3751C22.1395 23.9401 21.982 27.7426 19.642 30.1726C15.817 34.2451 16.042 40.6576 20.1145 44.4826C24.187 48.3076 30.5995 48.1051 34.4245 44.0101C36.1803 42.1341 37.1571 39.6608 37.1571 37.0914C37.1571 34.5219 36.1803 32.0486 34.4245 30.1726C33.2605 28.9856 32.5755 27.4108 32.5008 25.7501C32.426 24.0893 32.9668 22.4593 34.0195 21.1726C35.5102 19.3103 36.2006 16.9324 35.939 14.5614C35.6775 12.1904 34.4853 10.0201 32.6245 8.52761C31.4995 7.67261 30.307 7.06511 28.9795 6.75011H26.9995ZM26.9995 13.5001C26.9995 14.7376 28.012 15.7501 29.2495 15.7501C30.487 15.7501 31.4995 14.7376 31.4995 13.5001C31.4995 12.2626 30.487 11.2501 29.2495 11.2501C28.012 11.2501 26.9995 12.2626 26.9995 13.5001ZM31.4995 42.7501C32.737 42.7501 33.7495 41.7376 33.7495 40.5001C33.7495 39.2626 32.737 38.2501 31.4995 38.2501C30.262 38.2501 29.2495 39.2626 29.2495 40.5001C29.2495 41.7376 30.262 42.7501 31.4995 42.7501ZM29.2495 36.0001C30.487 36.0001 31.4995 34.9876 31.4995 33.7501C31.4995 32.5126 30.487 31.5001 29.2495 31.5001C28.012 31.5001 26.9995 32.5126 26.9995 33.7501C26.9995 34.9876 28.012 36.0001 29.2495 36.0001ZM24.7495 40.5001C25.987 40.5001 26.9995 39.4876 26.9995 38.2501C26.9995 37.0126 25.987 36.0001 24.7495 36.0001C23.512 36.0001 22.4995 37.0126 22.4995 38.2501C22.4995 39.4876 23.512 40.5001 24.7495 40.5001Z" fill="black"/>
</svg>
