<svg width="54" height="54" viewBox="0 0 54 54" fill="none" xmlns="http://www.w3.org/2000/svg">
<path d="M10.73 25.2024C11.4792 24.6512 12.278 24.2259 13.0992 23.8502C15.4347 22.7837 17.9435 22.1087 19.9482 20.1017M13.0992 23.8502C13.69 24.9209 14.5221 25.8415 15.5295 26.5348C16.5369 27.2282 17.6919 27.6773 18.903 27.8468C20.1141 28.0162 21.348 27.9013 22.507 27.511C23.666 27.1208 24.7182 26.466 25.5802 25.5986C26.4421 24.7311 27.0903 23.6748 27.4732 22.5134C27.8561 21.352 27.9632 20.1174 27.7861 18.9074C27.609 17.6973 27.1526 16.5452 26.4529 15.5422C25.7533 14.5392 24.8296 13.7107 23.7552 13.1267M19.9482 20.1017C22.0115 18.0407 22.664 15.4824 23.7552 13.1267M19.9482 20.1017C17.237 22.8152 13.6122 23.0919 10.7277 25.2002C6.84871 28.0374 4.14871 32.4002 6.82171 38.7969C11.3217 49.5632 28.6287 51.9774 40.2275 40.3787C52.6227 27.9834 49.5177 11.3627 38.6412 6.97517C32.2197 4.38767 27.8277 7.11467 25.049 10.8812C22.9407 13.7364 22.6932 17.3567 19.9482 20.1017ZM23.7552 13.1267C24.1087 12.3357 24.5414 11.5849 25.0467 10.8812" stroke="black" stroke-width="4.5"/>
</svg>
