<svg width="54" height="53" viewBox="0 0 54 53" fill="none" xmlns="http://www.w3.org/2000/svg">
<path d="M26.8981 51.0426C5.78411 51.0426 -0.88489 44.4778 2.96068 32.6055H50.8355C54.6811 44.4778 48.0121 51.0426 26.8981 51.0426Z" stroke="black" stroke-width="3.85714" stroke-linejoin="round"/>
<path d="M16.1592 16.2432C20.4213 21.7396 21.9295 27.2785 22.535 32.501" stroke="black" stroke-width="3.85714" stroke-linecap="round" stroke-linejoin="round"/>
<path d="M5.11964 32.5822C2.80536 27.6643 3.53821 21.9904 6.75121 19.1863C6.24749 18.4844 5.80854 17.7382 5.43978 16.9569C2.7475 11.2406 4.30193 4.84545 8.91121 2.67002C13.5321 0.494591 19.4566 3.36431 22.1489 9.08059C22.5244 9.88545 22.8201 10.6954 23.0361 11.5106C26.8624 10.8819 31.1052 13.1537 33.5854 17.2693L34.3066 18.6694" stroke="black" stroke-width="3.85714" stroke-linecap="round" stroke-linejoin="round"/>
<path d="M29.3938 32.0963H49.6515C49.9678 30.9546 50.1272 29.6843 50.1298 28.2855C50.1298 21.4969 46.3112 17.6783 39.5227 17.6783C32.7341 17.6783 28.9155 21.4969 28.9155 28.2855C28.9155 29.6843 29.075 30.9546 29.3938 32.0963Z" stroke="black" stroke-width="3.85714" stroke-linecap="round" stroke-linejoin="round"/>
</svg>
