<svg width="41" height="41" viewBox="0 0 41 41" fill="none" xmlns="http://www.w3.org/2000/svg">
<path fill-rule="evenodd" clip-rule="evenodd" d="M38.7208 2.27819C37.7128 1.27113 36.3299 0.93117 35.0709 0.8654C33.7845 0.79792 32.3726 1.00207 31.0093 1.33519C28.8543 1.86136 26.6087 2.76677 24.8098 3.7354C24.5082 3.39216 24.2035 3.05162 23.8958 2.71382C23.4758 2.2514 22.9639 1.88184 22.3927 1.62881C21.8216 1.37578 21.2039 1.24487 20.5792 1.24447C19.9545 1.24406 19.3366 1.37418 18.7652 1.62647C18.1937 1.87877 17.6813 2.24767 17.2607 2.70955C15.8005 4.30846 14.4116 5.97115 13.0983 7.69275C12.4908 8.48712 11.9817 9.35214 11.5822 10.2689C9.83199 9.34386 7.57357 9.65819 6.20263 11.3537C4.10279 13.9396 2.46915 16.8713 1.37488 20.0175C0.0509236 23.8468 1.41247 27.7187 3.64184 30.5844L5.15115 32.5251L1.90874 35.7675C1.69056 35.9857 1.5175 36.2447 1.39943 36.5297C1.28135 36.8148 1.22058 37.1203 1.22058 37.4289C1.22058 37.7374 1.28135 38.0429 1.39943 38.328C1.5175 38.613 1.69056 38.872 1.90874 39.0902C2.12691 39.3084 2.38592 39.4814 2.67097 39.5995C2.95603 39.7176 3.26155 39.7784 3.57009 39.7784C3.87863 39.7784 4.18415 39.7176 4.46921 39.5995C4.75426 39.4814 5.01327 39.3084 5.23144 39.0902L8.47386 35.8469L10.4137 37.3563C13.2803 39.5856 17.1522 40.9472 20.9797 39.6232C24.1268 38.5292 27.0594 36.8956 29.6461 34.7955C31.3416 33.4237 31.6551 31.1653 30.7292 29.4142C31.6459 29.014 32.5111 28.505 33.3062 27.8981C35.0278 26.5847 36.6905 25.1959 38.2894 23.7357C38.7513 23.3151 39.1202 22.8027 39.3725 22.2312C39.6248 21.6597 39.7549 21.0419 39.7545 20.4172C39.7541 19.7925 39.6232 19.1748 39.3701 18.6037C39.1171 18.0325 38.7475 17.5205 38.2851 17.1005C37.9423 16.7885 37.6021 16.4841 37.2644 16.1874C38.2339 14.3886 39.1384 12.143 39.6646 9.9879C39.9977 8.62465 40.201 7.21271 40.1344 5.92634C40.0678 4.6673 39.727 3.2844 38.7208 2.27734M10.9091 33.4117L12.5115 34.6588C14.8212 36.456 17.4947 37.2128 19.8642 36.3945C22.6362 35.4298 25.219 33.9898 27.497 32.139C27.9104 31.8059 27.9625 31.1482 27.4799 30.7237C27.1457 30.4292 26.8083 30.1385 26.4677 29.8515C25.8191 29.3049 25.161 28.7696 24.4938 28.2457C22.3378 26.5528 19.5029 26.2794 17.0215 27.2984L10.9091 33.4117ZM20.9925 23.3274C23.0406 23.5091 24.991 24.2848 26.6044 25.5594C27.0856 25.9375 27.5719 26.3287 28.0633 26.733C29.2126 26.4308 30.2904 25.9032 31.234 25.181C32.8747 23.9293 34.4593 22.6058 35.9832 21.2142C36.0946 21.1141 36.1838 20.9916 36.2449 20.8547C36.3059 20.7179 36.3374 20.5697 36.3374 20.4198C36.3374 20.27 36.3059 20.1218 36.2449 19.9849C36.1838 19.8481 36.0946 19.7256 35.9832 19.6255C35.5374 19.2193 35.0866 18.8187 34.631 18.4237C32.5041 16.5787 29.594 16.2344 27.0417 17.2791L20.9925 23.3274ZM23.7156 13.9606L17.6698 20.0064C17.4884 17.9585 16.713 16.008 15.4387 14.3945C15.0527 13.9031 14.6609 13.4162 14.2634 12.9339C14.5655 11.7853 15.0928 10.7082 15.8146 9.76496C17.0665 8.12364 18.3903 6.53847 19.7822 5.01409C19.8823 4.90259 20.0048 4.81343 20.1416 4.75239C20.2785 4.69135 20.4267 4.6598 20.5765 4.6598C20.7264 4.6598 20.8746 4.69135 21.0114 4.75239C21.1483 4.81343 21.2708 4.90259 21.3709 5.01409C21.7855 5.47021 22.1861 5.92121 22.5727 6.36709C22.7372 6.55553 22.8912 6.75285 23.034 6.95817C24.469 9.015 24.668 11.6364 23.7156 13.9606ZM13.6988 23.9783L7.58638 30.0924L6.3393 28.4883C4.54213 26.1786 3.78534 23.5051 4.60363 21.1356C5.56807 18.3637 7.00777 15.7808 8.85824 13.5028C9.19307 13.0894 9.84907 13.0381 10.2744 13.5199C11.1279 14.4922 11.9539 15.4883 12.7515 16.5069C14.4453 18.6628 14.7187 21.4978 13.6997 23.9792M34.4252 14.2519C32.2026 13.2141 29.7358 13.0287 27.4124 13.5874C27.9702 11.264 27.7849 8.79805 26.7479 6.57721C28.2342 5.80932 30.0706 5.08242 31.8217 4.65448C33.0013 4.36577 34.0579 4.23423 34.8932 4.27865C35.7568 4.32392 36.1506 4.54088 36.3052 4.69548C36.4598 4.85009 36.6776 5.24386 36.7229 6.10742C36.7664 6.9428 36.6357 7.99855 36.347 9.17815C35.9191 10.9292 35.1922 12.7656 34.4252 14.2519Z" fill="black"/>
</svg>
