<svg width="57" height="57" viewBox="0 0 57 57" fill="none" xmlns="http://www.w3.org/2000/svg">
<path d="M42.75 23.75L41.6812 33.4875C41.2858 37.05 39.9333 40.439 37.7673 43.2949C35.6013 46.1509 32.7026 48.3672 29.3787 49.7088C28.8145 49.9335 28.1855 49.9335 27.6213 49.7088C24.2974 48.3672 21.3987 46.1509 19.2327 43.2949C17.0667 40.439 15.7142 37.05 15.3187 33.4875L14.25 23.75M42.75 23.75C43.3799 23.75 43.984 23.4998 44.4294 23.0544C44.8748 22.609 45.125 22.0049 45.125 21.375C45.125 19.4853 44.3743 17.6731 43.0381 16.3369C41.7019 15.0007 39.8897 14.25 38 14.25H19C17.1103 14.25 15.2981 15.0007 13.9619 16.3369C12.6257 17.6731 11.875 19.4853 11.875 21.375C11.875 22.0049 12.1252 22.609 12.5706 23.0544C13.016 23.4998 13.6201 23.75 14.25 23.75M42.75 23.75H14.25M30.875 7.125C29.3177 9.17226 28.4825 11.6778 28.5 14.25" stroke="black" stroke-width="4.75" stroke-linecap="round" stroke-linejoin="round"/>
</svg>
