<svg width="48" height="48" viewBox="0 0 48 48" fill="none" xmlns="http://www.w3.org/2000/svg">
<path d="M24 36C20.8174 36 17.7652 34.7357 15.5147 32.4853C13.2643 30.2348 12 27.1826 12 24C12 20.8174 13.2643 17.7652 15.5147 15.5147C17.7652 13.2643 20.8174 12 24 12C27.1826 12 30.2348 13.2643 32.4853 15.5147C34.7357 17.7652 36 20.8174 36 24C36 27.1826 34.7357 30.2348 32.4853 32.4853C30.2348 34.7357 27.1826 36 24 36ZM24 31.5C25.9891 31.5 27.8968 30.7098 29.3033 29.3033C30.7098 27.8968 31.5 25.9891 31.5 24C31.5 22.0109 30.7098 20.1032 29.3033 18.6967C27.8968 17.2902 25.9891 16.5 24 16.5C22.0109 16.5 20.1032 17.2902 18.6967 18.6967C17.2902 20.1032 16.5 22.0109 16.5 24C16.5 25.9891 17.2902 27.8968 18.6967 29.3033C20.1032 30.7098 22.0109 31.5 24 31.5ZM40.971 7.029C41.1801 7.23795 41.3459 7.48605 41.4591 7.75913C41.5723 8.03221 41.6305 8.3249 41.6305 8.6205C41.6305 8.9161 41.5723 9.20879 41.4591 9.48187C41.3459 9.75495 41.1801 10.003 40.971 10.212L37.788 13.392C37.513 13.6882 37.1632 13.9047 36.7754 14.0187C36.3877 14.1328 35.9764 14.1401 35.5848 14.04C35.1932 13.9399 34.8359 13.736 34.5505 13.4498C34.2651 13.1637 34.0621 12.8058 33.963 12.414C33.8631 12.0229 33.8702 11.612 33.9837 11.2246C34.0972 10.8372 34.3128 10.4874 34.608 10.212L37.788 7.032C38.2099 6.61065 38.7817 6.37398 39.378 6.37398C39.9743 6.37398 40.5461 6.61065 40.968 7.032L40.971 7.029ZM13.392 34.608C13.8134 35.0299 14.05 35.6017 14.05 36.198C14.05 36.7943 13.8134 37.3661 13.392 37.788L10.212 40.971C10.0045 41.186 9.75635 41.3575 9.4819 41.4756C9.20745 41.5936 8.91223 41.6558 8.61348 41.6586C8.31473 41.6613 8.01842 41.6045 7.74186 41.4915C7.46529 41.3785 7.21399 41.2116 7.00264 41.0004C6.79128 40.7892 6.62409 40.5381 6.51083 40.2616C6.39757 39.9852 6.3405 39.6889 6.34295 39.3902C6.34541 39.0914 6.40733 38.7961 6.52512 38.5216C6.64291 38.247 6.8142 37.9987 7.029 37.791L10.209 34.608C10.418 34.3989 10.6661 34.2331 10.9391 34.1199C11.2122 34.0067 11.5049 33.9485 11.8005 33.9485C12.0961 33.9485 12.3888 34.0067 12.6619 34.1199C12.9349 34.2331 13.1831 34.3989 13.392 34.608ZM24 0C24.5967 0 25.169 0.237053 25.591 0.65901C26.0129 1.08097 26.25 1.65326 26.25 2.25V6.75C26.25 7.34674 26.0129 7.91903 25.591 8.34099C25.169 8.76295 24.5967 9 24 9C23.4033 9 22.831 8.76295 22.409 8.34099C21.9871 7.91903 21.75 7.34674 21.75 6.75V2.25C21.75 1.65326 21.9871 1.08097 22.409 0.65901C22.831 0.237053 23.4033 0 24 0ZM9 24C9 24.5967 8.76295 25.169 8.34099 25.591C7.91903 26.0129 7.34674 26.25 6.75 26.25H2.25C1.65326 26.25 1.08097 26.0129 0.65901 25.591C0.237053 25.169 0 24.5967 0 24C0 23.4033 0.237053 22.831 0.65901 22.409C1.08097 21.9871 1.65326 21.75 2.25 21.75H6.75C7.34674 21.75 7.91903 21.9871 8.34099 22.409C8.76295 22.831 9 23.4033 9 24ZM48 24C48 24.5967 47.7629 25.169 47.341 25.591C46.919 26.0129 46.3467 26.25 45.75 26.25H41.25C40.6533 26.25 40.081 26.0129 39.659 25.591C39.2371 25.169 39 24.5967 39 24C39 23.4033 39.2371 22.831 39.659 22.409C40.081 21.9871 40.6533 21.75 41.25 21.75H45.75C46.3467 21.75 46.919 21.9871 47.341 22.409C47.7629 22.831 48 23.4033 48 24ZM24 39C24.5967 39 25.169 39.2371 25.591 39.659C26.0129 40.081 26.25 40.6533 26.25 41.25V45.75C26.25 46.3467 26.0129 46.919 25.591 47.341C25.169 47.7629 24.5967 48 24 48C23.4033 48 22.831 47.7629 22.409 47.341C21.9871 46.919 21.75 46.3467 21.75 45.75V41.25C21.75 40.6533 21.9871 40.081 22.409 39.659C22.831 39.2371 23.4033 39 24 39ZM34.608 34.608C35.0299 34.1866 35.6017 33.95 36.198 33.95C36.7943 33.95 37.3661 34.1866 37.788 34.608L40.971 37.788C41.3811 38.2122 41.6081 38.7804 41.6033 39.3704C41.5984 39.9603 41.3621 40.5247 40.9451 40.9421C40.5281 41.3595 39.9639 41.5964 39.374 41.6018C38.784 41.6072 38.2155 41.3807 37.791 40.971L34.608 37.791C34.3989 37.5821 34.2331 37.3339 34.1199 37.0609C34.0067 36.7878 33.9485 36.4951 33.9485 36.1995C33.9485 35.9039 34.0067 35.6112 34.1199 35.3381C34.2331 35.0651 34.3989 34.817 34.608 34.608ZM7.029 7.029C7.23795 6.81992 7.48605 6.65405 7.75913 6.54089C8.03221 6.42773 8.3249 6.36948 8.6205 6.36948C8.9161 6.36948 9.20879 6.42773 9.48187 6.54089C9.75495 6.65405 10.003 6.81992 10.212 7.029L13.392 10.212C13.7899 10.6384 14.0067 11.2027 13.9966 11.7859C13.9866 12.3691 13.7504 12.9256 13.338 13.338C12.9256 13.7504 12.3691 13.9866 11.7859 13.9966C11.2027 14.0067 10.6384 13.7899 10.212 13.392L7.032 10.212C6.61065 9.79012 6.37398 9.21825 6.37398 8.622C6.37398 8.02575 6.61065 7.45388 7.032 7.032L7.029 7.029Z" fill="black"/>
</svg>
