<svg width="53" height="53" viewBox="0 0 53 53" fill="none" xmlns="http://www.w3.org/2000/svg">
<path d="M16.5623 30.9169C14.6891 30.7555 12.8717 30.1973 11.2308 29.2794C9.58992 28.3614 8.1632 27.1048 7.04544 25.593C5.92767 24.0811 5.14446 22.3487 4.74784 20.5108C4.35123 18.673 4.3503 16.7717 4.74512 14.9335C5.13993 13.0952 5.92145 11.362 7.03773 9.84911C8.15402 8.33618 9.57951 7.07814 11.2195 6.1586C12.8595 5.23906 14.6763 4.67907 16.5494 4.51585C18.4225 4.35262 20.3089 4.5899 22.0832 5.21192L17.6665 11.0419L22.0832 15.4586C22.0832 15.4586 15.4582 17.6669 4.4165 17.6669M36.4373 30.9169C38.3106 30.7555 40.128 30.1973 41.7689 29.2794C43.4098 28.3614 44.8365 27.1048 45.9542 25.593C47.072 24.0811 47.8552 22.3487 48.2518 20.5108C48.6484 18.673 48.6494 16.7717 48.2546 14.9335C47.8597 13.0952 47.0782 11.362 45.9619 9.84911C44.8457 8.33618 43.4202 7.07814 41.7802 6.1586C40.1402 5.23906 38.3233 4.67907 36.4503 4.51585C34.5772 4.35262 32.6908 4.5899 30.9165 5.21192L35.3332 11.0419L30.9165 15.4586C30.9165 15.4586 37.5415 17.6669 48.5832 17.6669M22.0832 28.7086V24.2919M30.9165 28.7086V24.2919" stroke="black" stroke-width="4.41667" stroke-linecap="round" stroke-linejoin="round"/>
<path d="M26.4998 48.5833C35.0372 48.5833 41.9582 44.1341 41.9582 38.6458C41.9582 33.1574 35.0372 28.7083 26.4998 28.7083C17.9624 28.7083 11.0415 33.1574 11.0415 38.6458C11.0415 44.1341 17.9624 48.5833 26.4998 48.5833Z" stroke="black" stroke-width="4.41667" stroke-linecap="round" stroke-linejoin="round"/>
<path d="M4.4165 35.3333C8.83317 35.3333 11.0415 37.5416 11.0415 37.5416M4.4165 48.5833C4.4165 44.8291 7.28734 41.9583 11.0415 41.9583M41.9582 37.5416C41.9582 37.5416 44.1665 35.3333 48.5832 35.3333M41.9582 41.9583C45.7123 41.9583 48.5832 44.8291 48.5832 48.5833" stroke="black" stroke-width="4.41667" stroke-linecap="round" stroke-linejoin="round"/>
</svg>
