<svg width="65" height="65" viewBox="0 0 65 65" fill="none" xmlns="http://www.w3.org/2000/svg">
<path d="M11.8678 23.8686V46.8895C11.8678 49.178 12.7994 51.3745 14.4596 52.9913C16.133 54.6184 18.3765 55.5263 20.7105 55.5209H44.2892C46.6346 55.5209 48.8825 54.6109 50.54 52.9913C51.3574 52.1987 52.0078 51.2504 52.4529 50.2025C52.8981 49.1545 53.1289 48.028 53.1319 46.8895V23.8686M11.8678 23.8686C9.42484 23.8686 7.44775 21.9349 7.44775 19.5515V13.7963C7.44775 11.413 9.42755 9.47925 11.8678 9.47925H53.1319C55.5748 9.47925 57.5519 11.413 57.5519 13.7963V19.5515C57.5519 21.9349 55.5721 23.8686 53.1319 23.8686M11.8678 23.8686H53.1319" stroke="black" stroke-width="4.0625" stroke-linecap="round" stroke-linejoin="round"/>
</svg>
