<svg width="63" height="63" viewBox="0 0 63 63" fill="none" xmlns="http://www.w3.org/2000/svg">
<path d="M31.5 5.25C45.9979 5.25 57.75 17.0021 57.75 31.5C57.75 45.9979 45.9979 57.75 31.5 57.75C17.0021 57.75 5.25 45.9979 5.25 31.5C5.25 17.0021 17.0021 5.25 31.5 5.25ZM31.5 10.5C25.9305 10.5 20.589 12.7125 16.6508 16.6508C12.7125 20.589 10.5 25.9305 10.5 31.5C10.5 37.0695 12.7125 42.411 16.6508 46.3492C20.589 50.2875 25.9305 52.5 31.5 52.5C37.0695 52.5 42.411 50.2875 46.3492 46.3492C50.2875 42.411 52.5 37.0695 52.5 31.5C52.5 25.9305 50.2875 20.589 46.3492 16.6508C42.411 12.7125 37.0695 10.5 31.5 10.5ZM31.5 15.75C32.143 15.7501 32.7635 15.9861 33.244 16.4134C33.7244 16.8406 34.0314 17.4293 34.1066 18.0679L34.125 18.375V30.4133L41.2309 37.5191C41.7017 37.9915 41.975 38.6254 41.9953 39.292C42.0157 39.9586 41.7816 40.608 41.3405 41.1082C40.8994 41.6085 40.2844 41.9221 39.6205 41.9853C38.9566 42.0485 38.2935 41.8567 37.7659 41.4487L37.5191 41.2309L29.6441 33.3559C29.2361 32.9475 28.9741 32.4161 28.8986 31.8439L28.875 31.5V18.375C28.875 17.6788 29.1516 17.0111 29.6438 16.5188C30.1361 16.0266 30.8038 15.75 31.5 15.75Z" fill="black"/>
</svg>
