<svg width="210" height="288" viewBox="0 0 210 288" fill="none" xmlns="http://www.w3.org/2000/svg">
<path d="M87.7442 94.1355C87.6334 93.3563 87.1869 91.7913 86.6833 90.4461C85.9873 88.5871 84.058 86.0884 83.1029 84.3453C82.2676 82.8209 81.5939 81.158 80.3081 79.3091C78.8039 77.1461 75.5712 73.8968 72.7563 71.304C71.0034 69.6894 69.6224 67.7237 67.2791 65.9319C62.6154 62.3658 60.3366 62.4575 54.6429 60.5011C51.9945 59.5911 49.0432 59.5423 45.1338 59.2635C33.7266 58.4501 32.3583 59.7639 30.6797 59.9335C28.9617 60.1071 27.6583 60.7715 26.1476 61.1644C23.9193 61.7441 22.2869 61.7791 21.164 62.3383C20.045 62.8955 21.8303 64.9093 22.2231 66.5885C22.6334 68.3425 22.8375 69.9471 23.2857 71.571C23.6873 73.0261 24.7376 74.3133 25.9126 75.1008C27.1308 75.9174 28.5379 77.0001 30.3306 78.011C31.9909 78.9473 33.5736 80.0228 35.0322 80.6996C36.4465 81.3557 38.052 82.1522 39.3965 83.0489C40.6922 83.913 42.3021 84.5032 43.7608 85.0657C45.0832 85.5757 46.4448 85.9608 47.7893 86.4091L51.8179 87.7526L55.8464 89.096C57.191 89.5444 58.5304 89.9911 60.0965 90.384C62.601 91.0124 64.4591 90.9986 67.8683 91.1682C68.6052 91.2237 68.9375 91.3345 71.9338 91.3916C74.93 91.4487 81.9229 93.7997 87.7442 94.1355Z" fill="#5B8339"/>
<path d="M47.7893 86.4091C46.4448 85.9608 45.0832 85.5757 43.7608 85.0657C42.3021 84.5032 40.6922 83.913 39.3965 83.0489C38.052 82.1522 36.4465 81.3557 35.0322 80.6996C33.5736 80.0228 31.9909 78.9473 30.3306 78.011C28.5379 77.0001 27.1308 75.9174 25.9126 75.1008C24.7376 74.3133 23.6873 73.0261 23.2857 71.571C22.8375 69.9471 22.6334 68.3425 22.2231 66.5885C21.8303 64.9093 20.045 62.8955 21.164 62.3383C22.2869 61.7791 23.9193 61.7441 26.1476 61.1644C27.6583 60.7715 28.9617 60.1071 30.6797 59.9335C32.3583 59.7639 33.7266 58.4501 45.1338 59.2635C49.0432 59.5423 51.9945 59.5911 54.6429 60.5011C60.3366 62.4575 62.6154 62.3658 67.2791 65.9319C69.6224 67.7237 71.0034 69.6894 72.7563 71.304C75.5712 73.8968 78.8039 77.1461 80.3081 79.3091C81.5939 81.158 82.2676 82.8209 83.1029 84.3453C84.058 86.0884 85.9873 88.5871 86.6833 90.4461C87.1869 91.7913 87.6334 93.3563 87.7442 94.1355C81.9229 93.7997 74.93 91.4487 71.9338 91.3916C68.9375 91.3345 68.6052 91.2237 67.8683 91.1682C64.4591 90.9986 62.601 91.0124 60.0965 90.384C58.5304 89.9911 57.191 89.5444 55.8464 89.096M47.7893 86.4091C49.1339 86.8575 50.4733 87.3042 51.8179 87.7526M47.7893 86.4091L51.8179 87.7526M51.8179 87.7526C53.1624 88.2009 54.5019 88.6476 55.8464 89.096M51.8179 87.7526L55.8464 89.096" stroke="#474646" stroke-width="0.703385" stroke-linecap="round"/>
<path d="M86.0653 91.7844C84.4001 91.7844 81.0363 91.5628 78.8559 91.3932C76.4448 91.2056 72.6502 90.8911 70.0182 90.4981C68.0916 90.2105 66.5973 90.3302 63.3241 90.1622C54.8549 89.7277 48.583 90.216 47.3559 90.4393C44.6879 90.925 43.1008 90.9985 40.5326 91.279C36.8684 91.6791 32.499 93.2286 29.6152 94.4125C28.0076 95.0725 26.4293 95.9222 24.9152 96.8189C22.0273 98.5294 18.258 101.518 16.3025 103.195C13.0822 105.958 12.2152 107.563 11.1493 109.187C9.70817 111.382 7.95838 113.944 7.17617 115.847C6.48868 117.519 5.60839 118.982 5.16021 120.661C5.0406 121.11 4.93697 121.555 5.04607 121.839C5.51662 123.063 7.38767 124.242 8.84634 125.646C10.0342 126.789 11.7519 127.493 13.2106 128.389C14.6196 129.256 16.2303 129.622 17.6303 130.07C19.3669 130.627 21.1519 131.301 23.8913 132.029C26.4669 132.712 28.316 132.645 36.682 132.704C39.9933 132.727 41.7445 131.53 43.6463 131.081C45.1316 130.731 47.1092 129.743 49.1285 128.845C52.7437 127.236 56.3883 124.49 59.1999 122.688C61.3722 121.296 62.8944 119.889 64.907 118.324C67.475 116.327 69.6086 114.179 71.1177 112.505C74.4363 108.823 75.6515 107.355 76.996 105.561C78.2652 103.868 78.787 102.203 79.6834 100.858C80.5797 99.5125 81.2512 98.1724 82.0334 96.8273L83.3762 94.8122C83.6011 94.4746 85.5013 92.4629 86.0653 91.7844Z" fill="#5B8339"/>
<path d="M83.3762 94.8122L82.0334 96.8273C81.2512 98.1724 80.5797 99.5125 79.6834 100.858C78.787 102.203 78.2652 103.868 76.996 105.561C75.6515 107.355 74.4363 108.823 71.1177 112.505C69.6086 114.179 67.475 116.327 64.907 118.324C62.8944 119.889 61.3722 121.296 59.1999 122.688C56.3883 124.49 52.7437 127.236 49.1285 128.845C47.1092 129.743 45.1316 130.731 43.6463 131.081C41.7445 131.53 39.9933 132.727 36.682 132.704C28.316 132.645 26.4669 132.712 23.8913 132.029C21.1519 131.301 19.3669 130.627 17.6303 130.07C16.2303 129.622 14.6196 129.256 13.2106 128.389C11.7519 127.493 10.0342 126.789 8.84634 125.646C7.38767 124.242 5.51662 123.063 5.04607 121.839C4.93697 121.555 5.0406 121.11 5.16021 120.661C5.60839 118.982 6.48868 117.519 7.17617 115.847C7.95838 113.944 9.70817 111.382 11.1493 109.187C12.2152 107.563 13.0822 105.958 16.3025 103.195C18.258 101.518 22.0273 98.5294 24.9152 96.8189C26.4293 95.9222 28.0076 95.0725 29.6152 94.4125C32.499 93.2286 36.8684 91.6791 40.5326 91.279C43.1008 90.9985 44.6879 90.925 47.3559 90.4393C48.583 90.216 54.8549 89.7277 63.3241 90.1622C66.5973 90.3302 68.0916 90.2105 70.0182 90.4981C72.6502 90.8911 76.4448 91.2056 78.8559 91.3932C81.0363 91.5628 84.4001 91.7844 86.0653 91.7844C85.5013 92.4629 83.6011 94.4746 83.3762 94.8122ZM82.0334 96.8273C82.4799 96.1573 82.9297 95.4822 83.3762 94.8122" stroke="#474646" stroke-width="0.703385" stroke-linecap="round"/>
<path d="M137.43 101.86C137.54 101.192 138.43 98.9651 139.717 96.609C142.086 92.2755 143.13 90.4477 146.089 86.3721C148.613 82.8966 150.959 81.3796 152.253 80.1453C153.344 79.1048 156.874 77.1344 159.301 75.9454C160.129 75.5397 161.258 74.995 162.82 74.3249C164.761 73.4914 169.621 72.0932 175.548 70.1905C180.054 68.7441 183.073 68.7245 185.149 68.5549C189.984 68.16 197.401 68.4961 199.139 68.6657C200.693 68.8175 202.215 69.5037 204.117 69.6733C205.621 69.8075 206.915 70.7329 208.483 71.1276C208.849 71.2197 209.044 71.6263 208.992 71.9638C208.741 73.5907 207.594 74.8707 207.204 76.33C206.81 77.8081 205.808 79.0152 205.19 80.3603C204.551 81.7504 203.793 83.0455 202.841 84.446C201.714 86.1058 200.55 87.8549 198.927 90.2647C197.773 91.9775 196.186 93.3428 194.397 94.9684C192.135 97.0231 190.371 98.3807 188.52 99.5612C186.845 100.629 185 102.411 183.372 103.313C181.646 104.269 180.186 105.326 178.727 106.168C177.483 106.885 176.043 107.341 174.643 107.904C172.98 108.572 170.9 108.799 169.049 108.969C167.493 109.111 165.529 109.807 163.399 109.976C162.6 110.04 157.841 110.257 150.85 110.201C146.814 110.169 145.272 109.363 143.535 108.915C142.11 108.547 140.793 108.02 139.17 107.85C137.769 107.348 136.762 106.676 136.092 106.23C135.754 106.005 138.443 102.76 137.43 101.86Z" fill="#5B8339" stroke="#474646" stroke-width="0.703385" stroke-linecap="round"/>
<path d="M145.822 101.189C146.266 100.52 149.159 97.8501 151.3 96.2665C152.376 95.47 156.971 92.0364 164.345 87.3949C169.629 84.0689 173.341 83.5023 176.125 83.1664C180.461 83.0522 183.419 83.1631 184.144 83.5527C184.537 83.8314 184.98 84.2748 185.436 84.7315" stroke="#474646" stroke-width="0.703385" stroke-linecap="round"/>
<path d="M72.9726 84.3956C72.4153 83.7272 71.7439 82.3872 70.9617 81.0421C70.1608 79.6649 67.5072 78.4711 65.5366 77.6801C63.3886 76.818 60.6721 75.7775 59.158 75.3291C57.5418 74.8505 55.9721 74.4341 54.2348 74.2645C53.508 74.0982 52.8332 73.8732 51.7203 73.7053C50.9398 73.6482 49.7211 73.6482 48.4656 73.6482" stroke="#474646" stroke-width="0.703385" stroke-linecap="round"/>
<path d="M71.9656 96.8224C68.7495 96.8224 62.0151 97.044 60.2778 97.4924C58.8529 97.8601 56.872 98.6091 53.7918 100.119C51.9848 101.004 50.6009 102.189 48.8636 103.479C47.3256 104.621 46.0083 106.22 44.5547 107.844C43.5442 109.246 42.6512 110.586 41.7549 111.931C41.5299 112.268 41.3084 112.601 41.0801 112.943" stroke="#474646" stroke-width="0.703385" stroke-linecap="round"/>
<path d="M155.768 116.222C125.192 86.4954 77.1683 86.4954 46.593 116.222C15.1315 146.811 15.1315 198.021 46.593 228.609C77.1683 258.336 125.192 258.336 155.768 228.609C187.229 198.021 187.229 146.811 155.768 116.222Z" fill="#5273BA" stroke="#474646" stroke-width="1.15512"/>
<path d="M112.751 177.009C112.622 176.622 112.119 176.504 111.858 176.818C111.523 177.222 111.124 177.715 110.784 178.257C110.214 179.168 110.238 181.094 110.03 182.652C109.913 183.519 110.153 184.287 110.528 184.706C111.23 185.488 112.66 185.46 114.335 185.421C114.963 185.407 115.011 183.963 114.969 182.583C114.929 181.225 114.091 180.276 113.756 179.269C113.338 178.263 112.918 177.51 112.751 177.009Z" fill="#CDECFF" fill-opacity="0.7" stroke="#2C2C2C" stroke-width="1.25603" stroke-linecap="round"/>
<path d="M118.077 245.986C116.421 246.278 100.623 250.497 98.8247 251.535C97.2143 252.464 94.6156 253.711 91.0247 256.172C88.3047 258.036 85.7545 260.879 83.6341 262.719C81.5923 264.492 80.539 266.797 79.482 268.488C78.4552 270.13 78.5642 276.186 79.963 280.025C81.0895 283.117 84.0413 283.683 87.4824 285.585C89.4007 286.645 91.2146 286.925 96.0566 286.999C98.5795 287.037 100.498 285.946 102.188 284.962C104.519 283.605 107.106 280.466 108.658 278.562C110.393 276.436 111.334 274.835 112.597 273.075C113.887 271.278 114.566 269.068 115.273 267.234C115.913 265.571 116.397 263.859 116.891 262.099C117.446 260.121 117.663 258.093 118.157 255.839C118.368 253.584 119.138 248.842 118.157 245.974C118.154 245.977 118.151 245.979 118.148 245.982C118.11 246.013 118.087 246.005 118.077 245.986Z" fill="#5273BA"/>
<path d="M118.077 245.986C118.109 245.981 118.136 245.976 118.157 245.974C119.138 248.842 118.368 253.584 118.157 255.839C117.663 258.093 117.446 260.121 116.891 262.099C116.397 263.859 115.913 265.571 115.273 267.234C114.566 269.068 113.887 271.278 112.597 273.075C111.334 274.835 110.393 276.436 108.658 278.562C107.106 280.466 104.519 283.605 102.188 284.962C100.498 285.946 98.5795 287.037 96.0566 286.999C91.2146 286.925 89.4007 286.645 87.4824 285.585C84.0413 283.683 81.0895 283.117 79.963 280.025C78.5642 276.186 78.4552 270.13 79.482 268.488C80.539 266.797 81.5923 264.492 83.6341 262.719C85.7545 260.879 88.3047 258.036 91.0247 256.172C94.6156 253.711 97.2143 252.464 98.8247 251.535C100.623 250.497 116.421 246.278 118.077 245.986ZM118.157 245.974C118.154 245.977 118.151 245.979 118.148 245.982C118.11 246.013 118.087 246.005 118.077 245.986M118.206 246.123C118.104 245.819 118.049 245.938 118.077 245.986" stroke="#474646" stroke-width="1.15512" stroke-linecap="round"/>
<path d="M73.3254 245.277C70.6755 245.277 56.5874 236.395 51.3255 238.08C47.943 239.162 40.1742 243.301 37.7838 244.428C35.9002 245.317 34.2668 246.256 32.5072 247.033C30.3428 247.989 28.2243 249.912 23.0954 254.826C20.5884 257.228 19.7767 259.478 19.0699 261.382C17.9611 264.368 18.9243 268.486 20.3273 270.458C21.5535 272.181 23.7009 272.573 25.5301 273.206C27.9529 274.045 35.7352 274.405 41.3515 273.565C43.8497 273.191 45.6429 271.737 48.4531 270.61C51.1442 269.53 53.2382 267.237 54.9281 265.897C56.7616 264.442 58.5802 262.315 60.344 260.13C61.8566 258.257 63.5087 256.261 64.6353 254.501C65.893 252.536 66.8844 250.773 67.5911 249.083C67.8718 248.24 68.2937 247.392 68.8549 246.55C69.1376 246.125 72.6165 245.707 73.3254 245.277Z" fill="#5273BA" stroke="#474646" stroke-width="1.15512" stroke-linecap="round"/>
<path d="M82.2494 91.6765C82.1657 92.9244 81.8805 94.3433 81.5713 95.2723C81.4015 96.0719 81.4016 96.3526 81.5462 96.493C82.5412 96.6332 83.6722 96.633 85.3756 97.0589C86.6232 97.1429 87.8959 97.2379 89.2186 97.5839C91.2172 98.1068 92.4776 98.4288 94.007 98.5176C95.2124 98.5876 96.6242 98.9045 98.117 99.0834C99.439 99.2419 100.815 99.736 102.384 99.8917C103.802 100.032 105.053 100.214 106.451 100.443C108.12 100.717 110.197 101.258 111.696 101.577C113.653 101.994 116.211 102.808 118.373 103.235C120.11 103.578 121.99 104.241 123.56 104.397C124.977 104.537 126.058 105.76 129.686 105.298C130.418 105.205 130.646 104.622 130.727 104.133C130.867 103.285 130.69 102.331 130.895 101.214C131.241 99.3268 132.1 96.7745 132.41 94.8186C132.623 93.4707 132.847 92.227 132.847 91.0914C132.846 89.9558 132.703 88.8154 132.846 87.6888C133.019 86.3218 133.576 84.7709 133.638 83.4635C133.694 82.2999 133.888 80.8649 134.234 79.405C134.349 78.9176 134.606 78.0119 135.9 78.3117C139.584 79.1651 142.244 79.8748 142.869 80.0229C144.357 80.3756 147.264 81.6097 149.558 81.6367C150.735 81.6505 151.869 81.7103 153.059 81.6212C154.563 81.5087 155.917 81.7498 157.083 81.308C158.823 80.6489 161.552 79.3199 162.864 78.4131C163.972 77.6469 165.456 76.8832 166.52 75.9456C167.454 75.1216 168.302 74.2718 169.068 73.3929C169.836 72.5132 170.798 71.6659 171.662 70.855C172.555 70.0169 173.772 69.4729 174.382 68.3591C175.22 66.8283 175.936 64.5574 175.737 63.4239C175.525 62.2177 175.577 61.0851 175.524 59.9508C175.465 58.6995 175.281 57.2518 174.699 55.7534C174.214 54.506 173.508 53.2885 172.641 52.4239C171.716 51.5019 170.773 50.3253 165.543 49.0225C162.745 48.3254 160.115 47.8509 158.604 47.4657C156.775 46.9994 155.505 46.7224 154.198 46.6596C153.035 46.6036 151.305 46.4251 149.62 46.7896C148.736 46.9808 147.82 47.2513 146.831 47.5762C146.669 47.7044 146.51 47.8328 146.356 47.9628C145.364 48.7951 144.316 49.55 143.295 50.3451C142.274 51.1402 141.256 51.9323 140.446 52.798C140.022 53.2512 139.384 53.5794 138.874 53.6944C138.697 53.7343 138.7 53.3601 138.784 53.1032C139.13 52.0483 140.281 51.1482 141.289 50.2523C142.175 49.4653 143.228 48.8186 145.097 48.1671C145.703 47.9561 146.278 47.7577 146.831 47.5762C147.765 46.8343 148.78 46.0979 149.528 45.0977C150.294 44.0742 152.294 43.16 153.381 36.9207C153.745 34.8306 153.758 33.5337 153.616 32.2374C153.487 31.0589 153.264 29.8968 152.777 28.7924C152.264 27.6293 151.59 26.5004 150.663 25.6326C149.797 24.8225 148.986 23.9201 147.996 23.2798C146.79 22.4991 145.702 21.7851 144.595 21.0121C143.557 20.2879 142.622 19.0604 138.28 18.1069C136.209 17.6521 134.525 16.801 132.501 16.7481C130.479 16.6953 128.327 16.7928 127.044 16.9638C125.016 17.2338 123.678 17.4002 122.326 17.8016L122.225 17.8315C120.52 18.3376 118.699 18.8779 116.599 20.1018C114.844 21.1246 113.69 21.9993 112.438 23.2499C111.442 24.2436 110.296 25.3616 109.25 26.724C108.499 27.7028 105.954 32.5116 105.955 35.6423C105.955 36.7779 106.713 39.7165 105.485 39.1688C104.619 38.7823 103.716 38.1021 102.891 37.1659C102.067 36.2308 101.178 35.5304 100.254 34.8709C99.2583 34.1608 98.141 33.1439 97.0213 32.6597C94.1755 31.4293 89.4255 29.8055 88.1186 29.7427C86.9553 29.6867 85.8247 29.6892 84.6037 29.9436C83.3839 30.1977 82.178 30.3151 80.6634 30.8519C79.2141 31.3655 77.8037 32.2138 76.7823 33.0089C75.7608 33.804 75.0882 35.13 74.3187 36.1571C73.6378 37.0657 72.6016 37.6937 71.5965 39.3624C70.2313 41.6291 69.4351 45.2628 69.1505 46.4388C68.7693 48.0143 68.8818 49.2962 68.9271 50.5207C68.9697 51.6703 68.7431 52.8331 69.0139 53.9518C69.3128 55.1868 69.1643 56.5549 70.1514 57.9215C70.9606 59.0417 71.7795 60.032 72.6186 60.8686C73.5433 61.7905 74.5786 62.5807 75.5685 63.221C76.7755 64.0017 77.8365 64.8295 78.9998 65.5452C80.1761 66.2689 84.7459 66.0769 85.4176 68.1106C85.5581 68.5359 84.9933 69.6299 84.849 71.0922C84.7092 72.5085 84.6024 73.778 84.2833 75.0614C83.8604 76.7619 83.1309 78.6665 83.1105 80.433C83.0969 81.6107 83.0424 82.7403 83.0268 84.0908C83.0132 85.2685 82.7926 86.3702 82.7301 87.6775C82.6744 88.8412 82.367 89.9241 82.2494 91.6765Z" fill="white"/>
<path d="M146.831 47.5762C147.82 47.2513 148.736 46.9808 149.62 46.7896C151.305 46.4251 153.035 46.6036 154.198 46.6596C155.505 46.7224 156.775 46.9994 158.604 47.4657C160.115 47.8509 162.745 48.3254 165.543 49.0225C170.773 50.3253 171.716 51.5019 172.641 52.4239C173.508 53.2885 174.214 54.506 174.699 55.7534C175.281 57.2518 175.465 58.6995 175.524 59.9508C175.577 61.0851 175.525 62.2177 175.737 63.4239C175.936 64.5574 175.22 66.8283 174.382 68.3591C173.772 69.4729 172.555 70.0169 171.662 70.855C170.798 71.6659 169.836 72.5132 169.068 73.3929C168.302 74.2718 167.454 75.1216 166.52 75.9456C165.456 76.8832 163.972 77.6469 162.864 78.4131C161.552 79.3199 158.823 80.6489 157.083 81.308C155.917 81.7498 154.563 81.5087 153.059 81.6212C151.869 81.7103 150.735 81.6506 149.558 81.6367C147.264 81.6097 144.357 80.3756 142.869 80.0229C142.244 79.8748 139.584 79.1651 135.9 78.3117C134.606 78.0119 134.349 78.9176 134.234 79.405C133.888 80.8649 133.694 82.2999 133.638 83.4635C133.576 84.7709 133.019 86.3218 132.846 87.6888C132.703 88.8154 132.846 89.9558 132.847 91.0914C132.847 92.227 132.623 93.4707 132.41 94.8186C132.1 96.7745 131.241 99.3268 130.895 101.214C130.69 102.331 130.867 103.285 130.727 104.133C130.646 104.622 130.418 105.205 129.686 105.298C126.058 105.76 124.977 104.537 123.56 104.397C121.99 104.241 120.11 103.578 118.373 103.235C116.211 102.808 113.653 101.994 111.696 101.577C110.197 101.258 108.12 100.717 106.451 100.443C105.054 100.214 103.802 100.032 102.384 99.8917C100.815 99.736 99.439 99.2419 98.117 99.0834C96.6242 98.9045 95.2124 98.5876 94.007 98.5176C92.4776 98.4288 91.2172 98.1068 89.2187 97.5839C87.8959 97.2379 86.6232 97.1429 85.3756 97.0589C83.6722 96.633 82.5412 96.6332 81.5462 96.493C81.4016 96.3526 81.4015 96.0719 81.5713 95.2723C81.8805 94.3433 82.1657 92.9244 82.2494 91.6765C82.367 89.9241 82.6744 88.8412 82.7301 87.6776C82.7926 86.3702 83.0132 85.2685 83.0268 84.0908C83.0424 82.7403 83.0969 81.6107 83.1105 80.433C83.1309 78.6665 83.8604 76.7619 84.2833 75.0614C84.6024 73.778 84.7092 72.5085 84.849 71.0922C84.9933 69.6299 85.5581 68.5359 85.4176 68.1106C84.7459 66.0769 80.1761 66.2689 78.9998 65.5452C77.8365 64.8295 76.7755 64.0017 75.5685 63.221C74.5786 62.5807 73.5433 61.7905 72.6186 60.8686C71.7795 60.032 70.9606 59.0417 70.1514 57.9215C69.1643 56.5549 69.3128 55.1868 69.0139 53.9518C68.7431 52.8331 68.9697 51.6703 68.9271 50.5207C68.8818 49.2962 68.7693 48.0143 69.1505 46.4388C69.4351 45.2628 70.2313 41.6291 71.5965 39.3624C72.6016 37.6937 73.6378 37.0657 74.3187 36.1571C75.0882 35.13 75.7608 33.804 76.7823 33.0089C77.8037 32.2138 79.2141 31.3655 80.6634 30.8519C82.178 30.3151 83.3839 30.1977 84.6037 29.9436C85.8247 29.6892 86.9553 29.6867 88.1186 29.7427C89.4255 29.8055 94.1755 31.4293 97.0213 32.6597C98.141 33.1439 99.2583 34.1608 100.254 34.8709C101.178 35.5304 102.067 36.2308 102.891 37.1659C103.716 38.1021 104.619 38.7823 105.485 39.1688C106.713 39.7165 105.955 36.7779 105.955 35.6423C105.954 32.5116 108.499 27.7028 109.25 26.724C110.296 25.3616 111.442 24.2436 112.438 23.2499C113.69 21.9993 114.844 21.1246 116.599 20.1018C118.699 18.8779 120.52 18.3376 122.225 17.8315C122.259 17.8215 122.293 17.8115 122.326 17.8016C123.678 17.4002 125.016 17.2338 127.044 16.9638C128.327 16.7928 130.479 16.6953 132.501 16.7481C134.525 16.801 136.209 17.6521 138.28 18.1069C142.622 19.0604 143.557 20.2879 144.595 21.0121C145.702 21.7851 146.79 22.4991 147.996 23.2798C148.986 23.9201 149.797 24.8225 150.663 25.6326C151.59 26.5004 152.264 27.6293 152.777 28.7924C153.264 29.8968 153.487 31.0589 153.616 32.2374C153.758 33.5337 153.745 34.8306 153.381 36.9207C152.294 43.16 150.294 44.0742 149.528 45.0977C148.78 46.0979 147.765 46.8343 146.831 47.5762ZM122.326 17.8016L122.225 17.8315M146.831 47.5762C146.669 47.7044 146.51 47.8328 146.356 47.9628C145.364 48.7951 144.316 49.55 143.295 50.3451C142.274 51.1402 141.256 51.9323 140.446 52.798C140.022 53.2512 139.384 53.5794 138.874 53.6944C138.697 53.7343 138.7 53.3601 138.784 53.1032C139.13 52.0483 140.281 51.1482 141.289 50.2523C142.175 49.4653 143.228 48.8186 145.097 48.1671C145.703 47.9561 146.278 47.7577 146.831 47.5762Z" stroke="#3A3A3A" stroke-width="1.15512" stroke-linecap="round"/>
<path d="M97.674 87.8763C97.7735 87.4126 97.8062 86.6507 97.9552 85.9509C98.1187 85.1832 98.0546 84.4069 98.1954 83.7318C98.3271 83.1003 98.4028 82.3625 98.543 81.3573C98.7759 79.6877 99.0665 78.8711 99.7772 76.4839C99.9371 75.9469 99.9457 75.7307 100.422 74.2136C100.899 72.6965 101.836 69.8827 102.368 68.3673C103.166 66.3872 103.496 65.723 103.879 65.1575C103.963 64.9909 104.028 64.7935 104.395 64.6897" stroke="#3A3A3A" stroke-width="1.15512" stroke-linecap="round"/>
<path d="M116.713 90.5635C117.19 89.1304 118.09 86.0967 118.206 85.0825C118.327 84.0161 118.438 83.0551 118.677 82.0823C118.946 80.9953 119.675 78.1695 120.345 76.6537C120.634 75.9996 121.224 75.3422 121.714 74.6181C122.197 73.9054 122.719 73.3475 123.176 72.7229C123.964 71.7682 125.025 70.5728 125.642 69.8056C125.776 69.6548 125.924 69.5396 126.226 69.4707" stroke="#3A3A3A" stroke-width="1.15512" stroke-linecap="round"/>
<path d="M93.4996 193.125C93.6742 191.21 93.7856 187.637 93.3531 187.057C92.9503 186.517 91.7326 186.473 90.4365 186.462C88.7446 186.447 87.4966 187.813 86.1286 188.555C85.7853 188.741 85.4471 188.925 85.128 188.845C83.5902 188.463 82.6952 187.058 81.3819 186.612C80.613 186.351 79.7844 186.896 79.2044 187.328C78.0827 188.164 77.6851 189.729 77.186 191.037C77.0582 191.834 77.2018 192.61 77.5715 193.291C77.7577 193.634 77.9412 193.972 78.3936 194.993" stroke="#2C2C2C" stroke-width="1.96047" stroke-linecap="round"/>
<path d="M87.1121 168.222C86.8645 167.724 86.032 166.727 85.3231 165.767C84.9723 165.292 84.4468 164.974 84.073 164.558C82.5884 162.905 78.3662 164.387 77.3236 164.679C76.7227 164.848 76.1134 164.804 75.6971 165.053C74.8005 165.589 74.3658 166.802 73.8207 167.718C73.5307 168.217 73.2781 168.72 73.1119 169.218C73.0281 169.47 72.9456 169.717 72.8606 169.972" stroke="#2C2C2C" stroke-width="2" stroke-linecap="round"/>
<path d="M112.843 169.821C112.699 169.284 112.082 168.141 111.577 167.06C111.328 166.524 110.876 166.109 110.592 165.627C109.465 163.712 105.033 164.326 103.953 164.406C103.331 164.452 102.742 164.288 102.285 164.449C101.3 164.796 100.633 165.899 99.9165 166.689C99.5332 167.12 99.186 167.563 98.924 168.018C98.792 168.248 98.662 168.474 98.5281 168.707" stroke="#2C2C2C" stroke-width="2" stroke-linecap="round"/>
</svg>
