<svg width="270" height="291" viewBox="0 0 270 291" fill="none" xmlns="http://www.w3.org/2000/svg">
<path d="M45.4977 226.633C45.0259 227.199 44.4574 228.334 43.5593 229.473C42.6601 230.614 41.5244 231.56 40.3861 232.273C39.3552 232.918 38.1138 233.08 36.7397 233.223C35.5144 233.351 34.4191 233.933 33.2808 234.36C31.6071 234.987 30.3435 237.154 29.6315 238.293C28.9867 239.325 28.8258 240.568 28.2105 241.707C27.6322 242.778 27.5923 243.982 27.3095 245.121C27.0266 246.261 26.6487 247.396 26.3617 248.535C26.0506 249.77 25.0401 250.622 24.1377 251.618C23.2353 252.613 22.198 253.467 20.8238 254.652C19.8356 255.504 18.7874 256.312 17.932 257.355C17.0637 258.413 16.6047 259.629 16.2253 260.769C15.5331 262.847 15.5645 266.173 14.8056 267.312C14.0577 268.435 12.6314 269.49 11.3965 270.396C10.3867 271.137 9.12424 271.675 8.26876 272.718C7.83626 273.245 7.6975 274.233 7.55681 275.275C7.38916 276.518 5.61707 276.984 4.57543 277.557C3.52402 278.136 2.30316 278.315 1.40079 279.214C0.92491 279.688 0.498415 280.116 0.450099 280.684C0.425542 280.972 0.683152 281.251 1.10805 281.396C3.03848 282.055 4.28127 280.785 5.41954 280.405C5.70517 280.309 5.98654 280.216 6.13149 280.308C6.27644 280.4 6.27644 280.682 6.13575 280.921C5.52211 281.964 4.76443 282.958 4.05248 284.098C3.38854 285.16 2.96253 286.372 3.00658 287.654C3.01601 287.928 3.41675 287.986 3.74664 288.034L3.76116 288.036C4.09369 288.085 4.46885 288.085 4.70901 287.944C5.67819 287.376 5.61138 285.815 6.32049 284.722C7.01523 283.652 7.60086 282.967 8.02576 282.493C8.22964 282.266 8.54445 282.207 8.73629 282.3C9.16011 282.504 9.11856 285.311 9.30614 288.867C9.37059 290.089 9.86887 290.076 10.1559 289.936C11.3331 289.358 11.3922 286.679 11.675 284.96C11.7721 284.369 11.9607 283.257 12.1014 282.024C12.1482 281.613 12.5234 281.729 12.7153 281.918C13.1073 282.305 13.2851 282.961 13.71 283.435C14.5046 284.321 15.6526 284.102 16.2196 284.008C16.5162 283.959 16.7866 283.726 16.9315 283.348C17.2723 282.458 16.8889 281.544 16.464 281.024C15.6399 280.014 14.24 279.931 13.1018 279.504C12.803 279.392 12.5348 279.174 12.3429 278.937C11.9707 278.476 11.9607 277.564 12.0545 276.57C12.1252 275.82 12.6968 275.303 13.1644 274.88L13.1885 274.858C14.189 273.953 15.6497 274.241 16.5521 273.342C17.028 272.868 17.5483 272.44 17.8794 271.873C18.6609 270.533 18.4009 268.46 18.7334 267.18C19.2004 265.382 19.066 263.066 19.6315 261.346C20.0309 260.132 21.6182 259.828 22.5206 258.879C23.3686 257.988 24.5569 257.364 25.5517 256.461C26.599 255.51 27.3991 254.235 28.1579 253.096C28.9167 251.956 29.4852 250.821 29.6287 249.682C29.7857 248.435 30.0536 247.122 30.433 245.983C30.833 244.782 30.9062 243.424 31.3794 242.285C31.9457 240.921 33.5551 240.482 34.6933 239.77C35.7243 239.124 36.9656 238.963 38.1039 238.347C39.1736 237.768 40.3762 237.54 41.5144 236.878C42.6539 236.214 43.7867 236.021 44.925 235.408C45.6017 235.044 46.0632 234.411 46.5833 233.986C47.8779 232.927 47.0214 230.355 46.6399 229.21L46.6359 229.198C46.5407 228.912 46.4469 228.63 46.3048 228.344C46.1627 228.058 45.9751 226.923 45.4977 226.633Z" fill="#3A3A3A"/>
<path d="M3.76116 288.036C4.09369 288.085 4.46885 288.085 4.70901 287.944C5.67819 287.376 5.61138 285.815 6.32049 284.722C7.01523 283.652 7.60086 282.967 8.02576 282.493C8.22964 282.266 8.54445 282.207 8.73629 282.3C9.16011 282.504 9.11856 285.311 9.30614 288.867C9.37059 290.089 9.86887 290.076 10.1559 289.936C11.3331 289.358 11.3922 286.679 11.675 284.96C11.7721 284.369 11.9607 283.257 12.1014 282.024C12.1482 281.613 12.5234 281.729 12.7153 281.918C13.1073 282.305 13.2851 282.961 13.71 283.435C14.5046 284.321 15.6526 284.102 16.2196 284.008C16.5162 283.959 16.7866 283.726 16.9315 283.348C17.2723 282.458 16.8889 281.544 16.464 281.024C15.6399 280.014 14.24 279.931 13.1018 279.504C12.803 279.392 12.5348 279.174 12.3429 278.937C11.9707 278.476 11.9607 277.564 12.0545 276.57C12.1252 275.82 12.6968 275.303 13.1644 274.88M3.76116 288.036L3.74664 288.034M13.1644 274.88C13.1724 274.873 13.1805 274.866 13.1885 274.858C14.189 273.953 15.6497 274.241 16.5521 273.342C17.028 272.868 17.5483 272.44 17.8794 271.873C18.6609 270.533 18.4009 268.46 18.7334 267.18C19.2004 265.382 19.066 263.066 19.6315 261.346C20.0309 260.132 21.6182 259.828 22.5206 258.879C23.3686 257.988 24.5569 257.364 25.5517 256.461C26.599 255.51 27.3991 254.235 28.1579 253.096C28.9167 251.956 29.4852 250.821 29.6287 249.682C29.7857 248.435 30.0536 247.122 30.433 245.983C30.833 244.782 30.9062 243.424 31.3794 242.285C31.9457 240.921 33.5551 240.482 34.6933 239.77C35.7243 239.124 36.9656 238.963 38.1039 238.347C39.1736 237.768 40.3762 237.54 41.5144 236.878C42.6539 236.214 43.7867 236.021 44.925 235.408C45.6017 235.044 46.0632 234.411 46.5833 233.986C47.8779 232.927 47.0214 230.355 46.6399 229.21C46.6386 229.206 46.6373 229.202 46.6359 229.198C46.5407 228.912 46.4469 228.63 46.3048 228.344C46.1627 228.058 45.9751 226.923 45.4976 226.633C45.0259 227.199 44.4574 228.334 43.5593 229.473C42.6601 230.614 41.5244 231.56 40.3861 232.273C39.3552 232.918 38.1138 233.08 36.7397 233.223C35.5144 233.351 34.4191 233.933 33.2808 234.36C31.6071 234.987 30.3435 237.154 29.6315 238.293C28.9867 239.325 28.8258 240.568 28.2105 241.707C27.6322 242.778 27.5923 243.982 27.3095 245.121C27.0266 246.261 26.6487 247.396 26.3617 248.535C26.0506 249.77 25.0401 250.622 24.1377 251.618C23.2353 252.613 22.198 253.467 20.8238 254.652C19.8356 255.504 18.7874 256.312 17.932 257.355C17.0637 258.413 16.6047 259.629 16.2253 260.769C15.5331 262.847 15.5645 266.173 14.8056 267.312C14.0577 268.435 12.6314 269.49 11.3965 270.396C10.3867 271.137 9.12424 271.675 8.26876 272.718C7.83626 273.245 7.6975 274.233 7.55681 275.275C7.38916 276.518 5.61707 276.984 4.57543 277.557C3.52402 278.136 2.30316 278.315 1.40079 279.214C0.92491 279.688 0.498415 280.116 0.450099 280.684C0.425542 280.972 0.683152 281.251 1.10805 281.396C3.03848 282.055 4.28127 280.785 5.41954 280.405C5.70517 280.309 5.98654 280.216 6.13149 280.308C6.27644 280.4 6.27644 280.682 6.13575 280.921C5.52211 281.964 4.76443 282.958 4.05248 284.098C3.38854 285.16 2.96253 286.372 3.00658 287.654C3.01601 287.928 3.41675 287.986 3.74664 288.034C3.7515 288.035 3.75634 288.036 3.76116 288.036M13.1885 274.858L13.1644 274.88M46.6359 229.198L46.6399 229.21" stroke="#3A3A3A" stroke-width="0.896201" stroke-linecap="round"/>
<path d="M214.604 244.122C214.419 244.055 214.258 244.007 214.13 243.985C213.958 244.502 213.869 245.885 213.397 247.144C213.354 248.566 213.346 249.761 213.702 250.112C213.877 250.285 214.123 250.41 214.392 250.457C215.867 250.714 218.131 250.768 218.656 251.84C218.784 252.101 218.745 252.451 218.828 252.746C219.13 253.825 219.58 254.891 220.122 255.894C220.681 256.93 220.198 258.409 221.501 259.992C221.889 260.463 222.501 260.619 223.14 260.809C224.306 261.154 225.73 261.221 227.234 261.628C228.355 261.93 231.429 261.592 233.266 262.361C234.301 262.795 235.506 263.023 236.368 263.743C236.884 264.174 237.228 264.694 237.4 265.211C237.745 266.247 238.399 267.206 238.908 268.316C239.384 269.353 240.362 270.076 241.236 270.947C242.057 271.765 243.043 272.264 244.124 272.499C246.302 272.971 250.432 272.815 250.973 273.925C251.101 274.187 251.182 274.646 251.013 274.96C250.408 276.082 248.697 277.563 250.116 279.531C250.423 279.958 251.134 280.13 251.407 279.826C252.223 278.918 252.211 277.414 253.216 277.025C253.433 276.941 253.735 276.99 253.861 277.201C254.118 277.632 254.3 278.437 254.722 279.445C255.155 280.481 254.775 282.961 255.844 284.015C256.018 284.187 256.274 284.273 256.534 284.227C256.794 284.182 257.169 284.023 257.178 283.31C257.218 279.953 255.869 278.728 256.662 277.196C256.794 276.941 257.05 277.026 257.266 277.201C257.481 277.376 257.652 277.632 257.825 277.892C258.516 278.928 259.377 279.788 260.412 280.479C261.447 281.17 262.453 282.342 263.514 282.157C263.774 282.112 264.03 281.941 264.202 281.723C264.374 281.506 264.459 281.25 264.458 280.99C264.457 280.73 264.409 280.444 264.197 280.213C263.247 279.177 262.882 277.689 261.697 277.196C260.661 276.765 259.17 276.856 258.598 275.944C258.516 275.812 258.686 275.556 258.903 275.34L258.921 275.323C259.134 275.111 259.378 274.867 259.768 274.868C261.447 274.87 262.406 275.408 263.558 275.732C263.862 275.818 264.203 275.818 264.374 275.51C264.545 275.202 264.646 274.553 264.413 274.217C264.025 273.659 263.606 272.379 262.253 272.28C261.091 272.194 260.13 272.245 259.629 272.455C258.593 272.888 257.09 273.565 256.009 272.97C255.497 272.688 254.761 271.894 254.253 271.339C254.251 271.352 254.249 271.364 254.247 271.374C254.222 271.504 253.779 270.994 253.731 270.903C253.555 270.569 253.821 270.868 254.253 271.339C254.289 271.091 254.28 270.452 253.856 270.164C252.905 269.518 251.926 268.988 250.838 268.785C248.309 268.312 244.142 268.241 243.082 267.533C242.047 266.842 240.97 266.088 240.542 264.944C240.154 263.908 239.836 262.758 239.163 261.839C238.339 260.714 237.205 259.709 236.102 259.296C235.066 258.908 234.048 258.52 232.955 258.218C231.705 257.873 230.548 258.207 228.083 257.399C226.623 256.92 225.603 256.171 224.986 255.11C224.384 254.073 224.04 253.041 223.695 252.004C223.349 250.968 223.295 249.773 222.617 248.899C221.881 247.95 220.816 247.329 219.814 246.787C218.779 246.227 217.821 245.572 216.712 245.062C215.935 244.705 215.16 244.325 214.604 244.122Z" fill="#3A3A3A"/>
<path d="M214.13 243.985C213.958 244.502 213.869 245.885 213.397 247.144C213.354 248.566 213.346 249.761 213.702 250.112C213.877 250.285 214.123 250.41 214.392 250.457C215.867 250.714 218.131 250.768 218.656 251.84C218.784 252.101 218.745 252.451 218.828 252.746C219.13 253.825 219.58 254.891 220.122 255.894C220.681 256.93 220.198 258.409 221.501 259.992C221.889 260.463 222.501 260.619 223.14 260.809C224.306 261.154 225.73 261.221 227.234 261.628C228.355 261.93 231.429 261.592 233.266 262.361C234.301 262.795 235.506 263.023 236.368 263.743C236.884 264.174 237.228 264.694 237.4 265.211C237.745 266.247 238.399 267.206 238.908 268.316C239.384 269.353 240.362 270.076 241.236 270.947C242.057 271.765 243.043 272.264 244.124 272.499C246.302 272.971 250.432 272.815 250.973 273.925C251.101 274.187 251.182 274.646 251.013 274.96C250.408 276.082 248.697 277.563 250.116 279.531C250.423 279.958 251.134 280.13 251.407 279.826C252.223 278.918 252.211 277.414 253.216 277.025C253.433 276.941 253.735 276.99 253.861 277.201C254.118 277.632 254.3 278.437 254.722 279.445C255.155 280.481 254.775 282.961 255.844 284.015C256.018 284.187 256.274 284.273 256.534 284.227C256.794 284.182 257.169 284.023 257.178 283.31C257.218 279.953 255.869 278.728 256.662 277.196C256.794 276.941 257.05 277.026 257.266 277.201C257.481 277.376 257.652 277.632 257.825 277.892C258.516 278.928 259.377 279.788 260.412 280.479C261.447 281.17 262.453 282.342 263.514 282.157C263.774 282.112 264.03 281.941 264.202 281.723C264.374 281.506 264.459 281.25 264.458 280.99C264.457 280.73 264.409 280.444 264.197 280.213C263.247 279.177 262.882 277.689 261.697 277.196C260.661 276.765 259.17 276.856 258.598 275.944C258.516 275.812 258.686 275.556 258.903 275.34M214.13 243.985C214.258 244.007 214.419 244.055 214.604 244.122M214.13 243.985C214.181 243.833 214.407 243.949 214.604 244.122M258.903 275.34L258.921 275.323M254.253 271.339C254.761 271.894 255.497 272.688 256.009 272.97C257.09 273.565 258.593 272.888 259.629 272.455C260.13 272.245 261.091 272.194 262.253 272.28C263.606 272.379 264.025 273.659 264.413 274.217C264.646 274.553 264.545 275.202 264.374 275.51C264.203 275.818 263.862 275.818 263.558 275.732C262.406 275.408 261.447 274.87 259.768 274.868C259.378 274.867 259.134 275.111 258.921 275.323C258.915 275.329 258.909 275.334 258.903 275.34M214.906 244.503C214.869 244.398 214.744 244.245 214.604 244.122M214.604 244.122C215.16 244.325 215.935 244.705 216.712 245.062C217.821 245.572 218.779 246.227 219.814 246.787C220.816 247.329 221.881 247.95 222.617 248.899C223.295 249.773 223.349 250.968 223.695 252.004C224.04 253.041 224.384 254.073 224.986 255.11C225.603 256.171 226.623 256.92 228.083 257.399C230.548 258.207 231.705 257.873 232.955 258.218C234.048 258.52 235.066 258.908 236.102 259.296C237.205 259.709 238.339 260.714 239.163 261.839C239.836 262.758 240.154 263.908 240.542 264.944C240.97 266.088 242.047 266.842 243.082 267.533C244.142 268.241 248.309 268.312 250.838 268.785C251.926 268.988 252.905 269.518 253.856 270.164C254.28 270.452 254.289 271.091 254.253 271.339M254.253 271.339C254.251 271.352 254.249 271.364 254.247 271.374C254.222 271.504 253.779 270.994 253.731 270.903C253.555 270.569 253.821 270.868 254.253 271.339Z" stroke="#3A3A3A" stroke-width="0.819932" stroke-linecap="round"/>
<path d="M214.129 208.222C198.037 190.525 168.291 190.525 152.199 208.222C137.856 223.995 137.856 246.553 152.199 262.326C168.291 280.023 198.037 280.023 214.129 262.326C228.472 246.553 228.472 223.995 214.129 208.222Z" fill="#B32E40" stroke="#3A3A3A" stroke-width="1.15512"/>
<path d="M188.553 240.405C188.502 240.25 188.299 240.203 188.195 240.329C188.06 240.491 187.9 240.689 187.763 240.906C187.535 241.272 187.544 242.046 187.46 242.671C187.414 243.02 187.51 243.328 187.661 243.496C187.943 243.81 188.517 243.799 189.189 243.783C189.441 243.778 189.461 243.198 189.444 242.643C189.428 242.098 189.092 241.717 188.957 241.313C188.789 240.909 188.62 240.606 188.553 240.405Z" fill="#CDECFF" fill-opacity="0.7" stroke="#2C2C2C" stroke-width="0.50438" stroke-linecap="round"/>
<path d="M173.095 247.604C173.018 247.372 172.716 247.302 172.561 247.49C172.36 247.731 172.121 248.026 171.918 248.351C171.577 248.896 171.591 250.049 171.466 250.981C171.397 251.5 171.54 251.959 171.765 252.21C172.185 252.678 173.04 252.661 174.043 252.638C174.418 252.629 174.447 251.765 174.422 250.939C174.398 250.127 173.897 249.559 173.696 248.957C173.446 248.354 173.195 247.903 173.095 247.604Z" fill="#CDECFF" fill-opacity="0.7" stroke="#2C2C2C" stroke-width="0.751645" stroke-linecap="round"/>
<path d="M169.095 241.604C169.018 241.372 168.716 241.302 168.561 241.49C168.36 241.731 168.121 242.026 167.918 242.351C167.577 242.896 167.591 244.049 167.466 244.981C167.397 245.5 167.54 245.959 167.765 246.21C168.185 246.678 169.04 246.661 170.043 246.638C170.418 246.629 170.447 245.765 170.422 244.939C170.398 244.127 169.897 243.559 169.696 242.957C169.446 242.354 169.195 241.903 169.095 241.604Z" fill="#CDECFF" fill-opacity="0.7" stroke="#2C2C2C" stroke-width="0.751645" stroke-linecap="round"/>
<path d="M175.119 235.115C175.119 233.904 175.192 231.467 174.582 229.636C173.986 227.845 174.582 225.655 173.061 224.376C171.541 223.098 171.474 224.143 171.166 224.37C169.739 225.417 170.095 233.524 171.079 238.158C171.181 238.638 171.913 238.617 172.372 238.62C172.831 238.622 173.283 238.471 173.667 238.167C174.05 237.863 174.352 237.41 174.582 236.951C174.813 236.491 174.964 236.039 175.119 235.115Z" fill="#2C2C2C" stroke="#3A3A3A" stroke-width="1.15512" stroke-linecap="round"/>
<path d="M188.441 234.534C188.441 233.323 188.514 230.886 187.904 229.055C187.308 227.264 187.904 225.074 186.383 223.796C184.862 222.517 184.796 223.562 184.488 223.789C183.061 224.836 183.417 232.943 184.401 237.577C184.503 238.057 185.235 238.036 185.694 238.039C186.153 238.041 186.605 237.89 186.988 237.586C187.372 237.282 187.673 236.829 187.904 236.37C188.135 235.91 188.285 235.458 188.441 234.534Z" fill="#2C2C2C" stroke="#3A3A3A" stroke-width="1.15512" stroke-linecap="round"/>
<path d="M105.453 186.233C105.453 177.431 106.135 159.608 107.684 155.777C109.589 151.068 113.014 147.058 115.942 142.304C118.774 137.705 122.991 133.884 126.27 130.053C129.974 125.726 135.034 122.253 139.521 119.175C143.993 116.109 148.812 112.441 153.976 109.837C159.715 106.942 164.304 104.173 168.441 101.72C172.577 99.2668 176.698 97.4294 180.835 96.2029C184.971 94.9764 189.092 93.7545 193.229 92.528C195.29 91.9171 197.706 91.3016 200.283 90.6906C201.497 90.3828 202.519 90.0797 203.573 89.7673" stroke="#2C2C2C" stroke-width="2.81354" stroke-linecap="round"/>
<path d="M203.573 89.7673C202.793 91.6394 200.17 96.0138 198.196 100.101C196.513 103.588 195.443 107.622 193.34 112.326C191.177 117.164 190.449 121.734 188.743 126.437C186.976 131.312 185.722 135.845 184.671 141.484C183.561 147.438 182.571 151.837 182.174 157.322C181.516 162.505 181.256 165.958 180.862 171.715C180.728 176.541 180.728 185.233 181.516 193.248" stroke="#2C2C2C" stroke-width="2.81354" stroke-linecap="round"/>
<path d="M128.087 194.258C108.111 172.137 71.1848 172.137 51.2083 194.258C33.4032 213.974 33.4032 242.172 51.2083 261.888C71.1848 284.009 108.111 284.009 128.087 261.888C145.892 242.172 145.892 213.974 128.087 194.258Z" fill="#B32E40" stroke="#3A3A3A" stroke-width="1.15512"/>
<path d="M108.095 229.604C108.018 229.372 107.716 229.302 107.561 229.49C107.36 229.731 107.121 230.026 106.918 230.351C106.577 230.896 106.591 232.049 106.466 232.981C106.397 233.5 106.54 233.959 106.765 234.21C107.185 234.678 108.04 234.661 109.043 234.638C109.418 234.629 109.447 233.765 109.422 232.939C109.398 232.127 108.897 231.559 108.696 230.957C108.446 230.354 108.195 229.903 108.095 229.604Z" fill="#CDECFF" fill-opacity="0.7" stroke="#2C2C2C" stroke-width="0.751645" stroke-linecap="round"/>
<path d="M59.9528 226.903C61.1643 226.903 63.6009 226.976 65.4319 226.367C67.2227 225.77 69.413 226.367 70.6916 224.846C71.9702 223.325 70.9248 223.259 70.6985 222.951C69.6507 221.523 61.5437 221.88 56.9103 222.864C56.4302 222.966 56.4509 223.697 56.4486 224.156C56.4463 224.615 56.5971 225.067 56.9012 225.451C57.2052 225.835 57.6578 226.136 58.1172 226.367C58.5767 226.597 59.0293 226.748 59.9528 226.903Z" fill="#2C2C2C" stroke="#2C2C2C" stroke-width="1.15512" stroke-linecap="round"/>
<path d="M96.9528 226.903C98.1643 226.903 100.601 226.976 102.432 226.367C104.223 225.77 106.413 226.367 107.692 224.846C108.97 223.325 107.925 223.259 107.698 222.951C106.651 221.523 98.5437 221.88 93.9103 222.864C93.4302 222.966 93.4509 223.697 93.4486 224.156C93.4463 224.615 93.5971 225.067 93.9012 225.451C94.2052 225.835 94.6578 226.136 95.1172 226.367C95.5767 226.597 96.0293 226.748 96.9528 226.903Z" fill="#2C2C2C" stroke="#2C2C2C" stroke-width="1.15512" stroke-linecap="round"/>
<path d="M52.9843 185.076C53.2653 186.026 53.4376 187.158 53.4556 187.931C53.5457 188.571 53.6236 188.78 53.7745 188.845C54.5838 188.683 55.4597 188.38 56.8969 188.24C57.8862 187.968 58.8982 187.697 60.0185 187.6C61.7111 187.453 62.7764 187.355 63.9854 187.011C64.9383 186.74 66.1194 186.598 67.3251 186.331C68.3927 186.094 69.595 186.093 70.8539 185.788C71.9903 185.513 73.01 185.312 74.156 185.108C75.5244 184.865 77.2829 184.71 78.5317 184.546C80.163 184.331 82.3694 184.251 84.1622 183.989C85.6022 183.779 87.2424 183.768 88.5012 183.463C89.6377 183.187 90.8133 183.807 93.4948 182.491C94.0363 182.226 94.051 181.731 93.9782 181.346C93.852 180.678 93.4503 180.017 93.2994 179.132C93.0445 177.636 93.0026 175.508 92.7004 173.971C92.4921 172.912 92.3209 171.928 92.0059 171.084C91.6909 170.239 91.2638 169.43 91.062 168.554C90.8172 167.492 90.8189 166.19 90.505 165.201C90.2257 164.321 89.9782 163.202 89.8415 162.025C89.7958 161.631 89.7437 160.889 90.8289 160.765C93.9185 160.413 96.175 160.227 96.6997 160.17C97.95 160.034 100.544 160.172 102.327 159.577C103.243 159.272 104.137 159.013 105.034 158.628C106.168 158.141 107.283 157.958 108.064 157.317C109.229 156.36 110.974 154.641 111.738 153.616C112.384 152.749 113.322 151.784 113.886 150.802C114.381 149.939 114.802 149.08 115.152 148.221C115.503 147.362 116.013 146.474 116.457 145.64C116.916 144.777 117.708 144.047 117.872 143.055C118.097 141.693 118.022 139.813 117.554 139.024C117.055 138.184 116.782 137.328 116.426 136.499C116.034 135.584 115.49 134.558 114.624 133.6C113.903 132.802 113.019 132.086 112.108 131.676C111.136 131.239 110.08 130.617 105.669 131.049C103.309 131.281 101.14 131.633 99.8635 131.751C98.318 131.895 97.2579 132.029 96.2283 132.333C95.3119 132.603 93.923 132.934 92.7188 133.656C92.0874 134.035 91.4528 134.482 90.7767 134.988C90.6872 135.127 90.5996 135.265 90.5158 135.403C89.9788 136.287 89.3766 137.129 88.8059 137.994C88.2352 138.859 87.6667 139.72 87.2796 140.581C87.0769 141.031 86.6735 141.446 86.3102 141.668C86.1841 141.746 86.0832 141.467 86.0771 141.253C86.0522 140.376 86.6945 139.399 87.227 138.462C87.6947 137.64 88.3308 136.877 89.5978 135.892C90.0083 135.573 90.3989 135.271 90.7767 134.988C91.2944 134.187 91.8766 133.367 92.179 132.423C92.4885 131.457 93.784 130.241 92.8966 125.312C92.5993 123.661 92.2501 122.693 91.7808 121.768C91.3541 120.926 90.8596 120.122 90.1765 119.432C89.4571 118.704 88.622 118.046 87.6635 117.649C86.7687 117.279 85.8906 116.825 84.9466 116.615C83.7956 116.358 82.7554 116.118 81.6837 115.84C80.6797 115.58 79.6153 114.918 75.9885 115.373C74.2588 115.59 72.719 115.408 71.1364 115.911C69.5561 116.414 67.9167 117.063 66.9701 117.534C65.475 118.278 64.4847 118.76 63.5489 119.421L63.4792 119.47C62.2986 120.303 61.0381 121.193 59.751 122.665C58.6755 123.896 58.0243 124.855 57.4007 126.121C56.9052 127.126 56.3272 128.264 55.8953 129.557C55.585 130.486 54.9459 134.743 55.8144 137.07C56.1294 137.914 57.5306 139.895 56.4281 139.817C55.6502 139.762 54.7621 139.498 53.864 139.023C52.9668 138.549 52.0841 138.267 51.1855 138.024C50.218 137.763 49.071 137.306 48.0697 137.246C45.5249 137.094 41.3964 137.16 40.3669 137.463C39.4504 137.734 38.5756 138.038 37.7005 138.555C36.8263 139.07 35.925 139.481 34.9008 140.286C33.9208 141.056 33.0636 142.064 32.4929 142.929C31.9222 143.794 31.7688 144.96 31.4574 145.93C31.182 146.787 30.5535 147.532 30.2376 149.042C29.8084 151.093 30.1988 154.007 30.3043 154.958C30.4457 156.231 30.8881 157.154 31.2625 158.052C31.614 158.895 31.7608 159.82 32.2804 160.579C32.8542 161.417 33.1182 162.474 34.2614 163.225C35.1985 163.841 36.107 164.358 36.9887 164.755C37.9603 165.193 38.9811 165.503 39.9251 165.713C41.0762 165.97 42.1272 166.301 43.2264 166.522C44.3379 166.744 47.8237 165.377 48.9074 166.709C49.1341 166.987 48.9998 167.952 49.2933 169.078C49.5775 170.168 49.8466 171.14 49.9551 172.18C50.0989 173.557 50.0617 175.169 50.5354 176.487C50.8512 177.366 51.1221 178.221 51.4842 179.229C51.8001 180.108 51.9345 180.986 52.2484 181.975C52.5277 182.855 52.5897 183.742 52.9843 185.076Z" fill="white"/>
<path d="M90.7767 134.988C91.4528 134.482 92.0874 134.035 92.7188 133.656C93.923 132.934 95.3119 132.603 96.2283 132.333C97.2579 132.029 98.318 131.895 99.8635 131.751C101.14 131.633 103.309 131.281 105.669 131.049C110.08 130.617 111.136 131.239 112.108 131.676C113.019 132.086 113.903 132.802 114.624 133.6C115.49 134.558 116.034 135.584 116.426 136.499C116.782 137.328 117.055 138.184 117.554 139.024C118.022 139.813 118.097 141.693 117.872 143.055C117.708 144.047 116.916 144.777 116.457 145.64C116.013 146.474 115.503 147.362 115.152 148.221C114.802 149.08 114.381 149.939 113.886 150.802C113.322 151.784 112.384 152.749 111.738 153.616C110.974 154.641 109.229 156.36 108.064 157.317C107.283 157.958 106.168 158.141 105.034 158.628C104.137 159.013 103.243 159.272 102.327 159.577C100.544 160.172 97.95 160.034 96.6997 160.17C96.175 160.227 93.9185 160.413 90.8289 160.765C89.7437 160.889 89.7958 161.631 89.8415 162.025C89.9782 163.202 90.2257 164.321 90.505 165.201C90.8189 166.19 90.8172 167.492 91.062 168.554C91.2638 169.43 91.6909 170.239 92.0059 171.084C92.3209 171.928 92.4921 172.912 92.7004 173.971C93.0026 175.508 93.0445 177.636 93.2994 179.132C93.4503 180.017 93.852 180.678 93.9782 181.346C94.051 181.731 94.0363 182.226 93.4948 182.491C90.8133 183.807 89.6377 183.187 88.5012 183.463C87.2424 183.768 85.6022 183.779 84.1622 183.989C82.3694 184.251 80.163 184.331 78.5317 184.546C77.2829 184.71 75.5244 184.865 74.156 185.108C73.01 185.312 71.9903 185.513 70.8539 185.788C69.595 186.093 68.3927 186.094 67.3251 186.331C66.1194 186.598 64.9383 186.74 63.9854 187.011C62.7764 187.355 61.7111 187.453 60.0185 187.6C58.8982 187.697 57.8862 187.968 56.8969 188.24C55.4597 188.38 54.5838 188.683 53.7745 188.845C53.6236 188.78 53.5457 188.571 53.4556 187.931C53.4376 187.158 53.2653 186.026 52.9843 185.076C52.5897 183.742 52.5277 182.855 52.2484 181.975C51.9345 180.986 51.8001 180.108 51.4842 179.229C51.1221 178.221 50.8512 177.366 50.5354 176.487C50.0617 175.169 50.0989 173.557 49.9551 172.18C49.8466 171.14 49.5775 170.168 49.2933 169.078C48.9998 167.952 49.1341 166.987 48.9074 166.709C47.8237 165.377 44.3379 166.744 43.2264 166.522C42.1272 166.301 41.0762 165.97 39.9251 165.713C38.9811 165.503 37.9603 165.193 36.9887 164.755C36.107 164.358 35.1985 163.841 34.2614 163.225C33.1182 162.474 32.8542 161.417 32.2804 160.579C31.7608 159.82 31.614 158.895 31.2625 158.052C30.8881 157.154 30.4457 156.231 30.3043 154.958C30.1988 154.007 29.8084 151.093 30.2376 149.042C30.5535 147.532 31.182 146.787 31.4574 145.93C31.7688 144.96 31.9222 143.794 32.4929 142.929C33.0636 142.064 33.9208 141.056 34.9008 140.286C35.925 139.481 36.8263 139.07 37.7005 138.555C38.5756 138.038 39.4504 137.734 40.3669 137.463C41.3964 137.16 45.5249 137.094 48.0697 137.246C49.071 137.306 50.218 137.763 51.1855 138.024C52.0841 138.267 52.9668 138.549 53.864 139.023C54.7621 139.498 55.6502 139.762 56.4281 139.817C57.5306 139.895 56.1294 137.914 55.8144 137.07C54.9459 134.743 55.585 130.486 55.8953 129.557C56.3272 128.264 56.9052 127.126 57.4007 126.121C58.0243 124.855 58.6755 123.896 59.751 122.665C61.0381 121.193 62.2986 120.303 63.4792 119.47C63.5025 119.453 63.5257 119.437 63.5489 119.421C64.4847 118.76 65.475 118.278 66.9701 117.534C67.9167 117.063 69.5561 116.414 71.1364 115.911C72.719 115.408 74.2588 115.59 75.9885 115.373C79.6153 114.918 80.6797 115.58 81.6837 115.84C82.7554 116.118 83.7956 116.358 84.9466 116.615C85.8906 116.825 86.7687 117.279 87.6635 117.649C88.622 118.046 89.4571 118.704 90.1765 119.432C90.8596 120.122 91.3541 120.926 91.7808 121.768C92.2501 122.693 92.5993 123.661 92.8966 125.312C93.784 130.241 92.4885 131.457 92.179 132.423C91.8766 133.367 91.2944 134.187 90.7767 134.988ZM63.5489 119.421L63.4792 119.47M90.7767 134.988C90.6872 135.127 90.5996 135.265 90.5158 135.403C89.9788 136.287 89.3766 137.129 88.8059 137.994C88.2352 138.859 87.6667 139.72 87.2796 140.581C87.0769 141.031 86.6735 141.446 86.3102 141.668C86.1841 141.746 86.0832 141.467 86.0771 141.253C86.0522 140.376 86.6945 139.399 87.227 138.462C87.6947 137.64 88.3308 136.877 89.5978 135.892C90.0083 135.573 90.3989 135.271 90.7767 134.988Z" stroke="#3A3A3A" stroke-width="1.07683" stroke-linecap="round"/>
<path d="M63.877 178.116C63.8255 177.744 63.6396 177.169 63.5611 176.609C63.475 175.995 63.2102 175.435 63.1321 174.895C63.0591 174.39 62.9132 173.822 62.7432 173.037C62.4608 171.734 62.4596 171.049 62.3484 169.084C62.3234 168.642 62.2701 168.479 62.2189 167.223C62.1676 165.968 62.1131 163.625 62.105 162.356C62.1741 160.671 62.2462 160.088 62.3858 159.566C62.4045 159.419 62.4006 159.255 62.656 159.08" stroke="#3A3A3A" stroke-width="1.07683" stroke-linecap="round"/>
<path d="M79.3668 175.013C79.339 173.82 79.1954 171.324 79.004 170.539C78.8027 169.714 78.6218 168.97 78.538 168.182C78.4444 167.302 78.2262 165.007 78.3248 163.7C78.3674 163.137 78.6423 162.49 78.8213 161.82C78.9975 161.161 79.2471 160.607 79.428 160.02C79.7736 159.099 80.2639 157.926 80.5295 157.191C80.5909 157.043 80.6736 156.917 80.8884 156.785" stroke="#3A3A3A" stroke-width="1.07683" stroke-linecap="round"/>
<path d="M191.262 194.794C191.064 195.49 190.728 196.255 190.436 196.739C190.242 197.169 190.208 197.328 190.275 197.428C190.838 197.645 191.497 197.801 192.438 198.278C193.155 198.499 193.885 198.729 194.614 199.108C195.715 199.681 196.411 200.038 197.291 200.3C197.985 200.506 198.769 200.881 199.617 201.189C200.368 201.462 201.11 201.933 202.006 202.238C202.814 202.514 203.522 202.79 204.309 203.114C205.248 203.5 206.393 204.094 207.228 204.482C208.318 204.99 209.71 205.805 210.918 206.346C211.889 206.781 212.905 207.417 213.8 207.723C214.609 207.999 215.092 208.842 217.26 209.082C217.698 209.13 217.901 208.831 218.006 208.565C218.19 208.104 218.2 207.538 218.454 206.933C218.881 205.911 219.687 204.583 220.102 203.516C220.388 202.782 220.667 202.107 220.803 201.463C220.938 200.819 220.991 200.153 221.209 199.534C221.474 198.783 221.984 197.98 222.177 197.248C222.349 196.595 222.634 195.809 223.01 195.029C223.136 194.768 223.393 194.29 224.111 194.639C226.155 195.633 227.619 196.403 227.965 196.574C228.79 196.98 230.336 198.082 231.668 198.415C232.352 198.585 233.006 198.776 233.71 198.89C234.599 199.035 235.359 199.359 236.091 199.27C237.183 199.137 238.932 198.761 239.805 198.428C240.542 198.147 241.498 197.919 242.229 197.535C242.872 197.197 243.468 196.832 244.02 196.44C244.572 196.047 245.234 195.7 245.834 195.36C246.454 195.008 247.229 194.868 247.717 194.321C248.389 193.569 249.078 192.38 249.097 191.71C249.118 190.996 249.284 190.361 249.389 189.711C249.505 188.993 249.571 188.147 249.411 187.217C249.278 186.442 249.013 185.654 248.611 185.044C248.183 184.393 247.774 183.595 244.884 182.133C243.338 181.351 241.863 180.718 241.029 180.29C240.02 179.773 239.313 179.44 238.56 179.223C237.889 179.031 236.903 178.69 235.877 178.664C235.34 178.65 234.774 178.676 234.158 178.724C234.049 178.774 233.941 178.825 233.835 178.877C233.158 179.212 232.458 179.495 231.768 179.804C231.077 180.114 230.39 180.422 229.815 180.801C229.513 180.999 229.102 181.097 228.791 181.092C228.683 181.09 228.73 180.878 228.81 180.744C229.137 180.194 229.916 179.843 230.61 179.474C231.22 179.151 231.911 178.93 233.078 178.819C233.456 178.783 233.815 178.75 234.158 178.724C234.791 178.432 235.471 178.155 236.027 177.692C236.595 177.217 237.87 176.975 239.25 173.588C239.712 172.453 239.875 171.72 239.947 170.965C240.013 170.279 240.023 169.589 239.871 168.895C239.712 168.165 239.454 167.431 239.018 166.811C238.611 166.232 238.247 165.608 237.747 165.108C237.137 164.498 236.589 163.943 236.037 163.351C235.519 162.797 235.122 161.972 232.707 160.83C231.555 160.286 230.676 159.57 229.503 159.26C228.332 158.95 227.067 158.708 226.299 158.627C225.086 158.5 224.286 158.409 223.451 158.449L223.389 158.452C222.335 158.503 221.209 158.558 219.84 158.961C218.695 159.298 217.918 159.635 217.039 160.171C216.34 160.596 215.538 161.072 214.766 161.699C214.212 162.151 212.153 164.525 211.779 166.3C211.643 166.944 211.733 168.716 211.083 168.235C210.625 167.896 210.18 167.385 209.812 166.74C209.444 166.096 209.01 165.576 208.551 165.074C208.056 164.534 207.527 163.802 206.933 163.373C205.423 162.282 202.85 160.703 202.097 160.487C201.426 160.294 200.767 160.139 200.025 160.115C199.284 160.09 198.568 159.99 197.621 160.084C196.716 160.175 195.793 160.461 195.103 160.77C194.412 161.08 193.862 161.739 193.291 162.215C192.785 162.636 192.106 162.848 191.321 163.655C190.255 164.752 189.356 166.702 189.049 167.33C188.639 168.17 188.551 168.913 188.43 169.613C188.317 170.271 188.046 170.899 188.07 171.571C188.096 172.313 187.846 173.068 188.257 173.979C188.594 174.726 188.953 175.401 189.341 175.992C189.77 176.643 190.278 177.234 190.778 177.734C191.387 178.344 191.906 178.96 192.498 179.527C193.097 180.1 195.781 180.623 195.929 181.869C195.96 182.13 195.5 182.672 195.241 183.481C194.99 184.265 194.776 184.97 194.436 185.654C193.986 186.559 193.333 187.538 193.11 188.537C192.961 189.203 192.794 189.836 192.623 190.6C192.474 191.266 192.214 191.86 192.021 192.593C191.849 193.245 191.54 193.816 191.262 194.794Z" fill="white"/>
<path d="M234.158 178.724C234.774 178.676 235.34 178.65 235.877 178.664C236.903 178.69 237.889 179.031 238.56 179.223C239.313 179.44 240.02 179.773 241.029 180.29C241.863 180.718 243.338 181.351 244.884 182.133C247.774 183.595 248.183 184.393 248.611 185.044C249.013 185.654 249.278 186.442 249.411 187.217C249.571 188.147 249.505 188.993 249.389 189.711C249.284 190.361 249.118 190.996 249.097 191.71C249.078 192.38 248.389 193.569 247.717 194.321C247.229 194.868 246.454 195.008 245.834 195.36C245.234 195.7 244.572 196.047 244.02 196.44C243.468 196.832 242.872 197.197 242.229 197.535C241.498 197.919 240.542 198.147 239.805 198.428C238.932 198.761 237.183 199.137 236.091 199.27C235.359 199.359 234.599 199.035 233.71 198.89C233.006 198.776 232.352 198.585 231.668 198.415C230.336 198.082 228.79 196.98 227.965 196.574C227.619 196.403 226.155 195.633 224.111 194.639C223.393 194.29 223.136 194.768 223.01 195.029C222.634 195.809 222.349 196.595 222.177 197.248C221.984 197.98 221.474 198.783 221.209 199.534C220.991 200.153 220.938 200.819 220.803 201.463C220.667 202.107 220.388 202.782 220.102 203.516C219.687 204.583 218.881 205.911 218.454 206.933C218.2 207.538 218.19 208.104 218.006 208.565C217.901 208.831 217.698 209.13 217.26 209.082C215.092 208.842 214.609 207.999 213.8 207.723C212.905 207.417 211.889 206.781 210.918 206.346C209.71 205.805 208.318 204.99 207.228 204.482C206.393 204.094 205.248 203.5 204.309 203.114C203.522 202.79 202.814 202.514 202.006 202.238C201.11 201.933 200.368 201.462 199.617 201.189C198.769 200.881 197.985 200.506 197.291 200.3C196.411 200.038 195.715 199.681 194.614 199.108C193.885 198.729 193.155 198.499 192.438 198.278C191.497 197.801 190.838 197.645 190.275 197.428C190.208 197.328 190.242 197.169 190.436 196.739C190.728 196.255 191.064 195.49 191.262 194.794C191.54 193.816 191.849 193.245 192.021 192.593C192.214 191.86 192.474 191.266 192.623 190.6C192.794 189.836 192.961 189.203 193.11 188.537C193.333 187.538 193.986 186.559 194.436 185.654C194.776 184.97 194.99 184.265 195.241 183.481C195.5 182.672 195.96 182.13 195.929 181.869C195.781 180.623 193.097 180.1 192.498 179.527C191.906 178.96 191.387 178.344 190.778 177.734C190.278 177.234 189.77 176.643 189.341 175.992C188.953 175.401 188.594 174.726 188.257 173.979C187.846 173.068 188.096 172.313 188.07 171.571C188.046 170.899 188.317 170.271 188.43 169.613C188.551 168.913 188.639 168.17 189.049 167.33C189.356 166.702 190.255 164.752 191.321 163.655C192.106 162.848 192.785 162.636 193.291 162.215C193.862 161.739 194.412 161.08 195.103 160.77C195.793 160.461 196.716 160.175 197.621 160.084C198.568 159.99 199.284 160.09 200.025 160.115C200.767 160.139 201.426 160.294 202.097 160.487C202.85 160.703 205.423 162.282 206.933 163.373C207.527 163.802 208.056 164.534 208.551 165.074C209.01 165.576 209.444 166.096 209.812 166.74C210.18 167.385 210.625 167.896 211.083 168.235C211.733 168.716 211.643 166.944 211.779 166.3C212.153 164.525 214.212 162.151 214.766 161.699C215.538 161.072 216.34 160.596 217.039 160.171C217.918 159.635 218.695 159.298 219.84 158.961C221.209 158.558 222.335 158.503 223.389 158.452C223.409 158.451 223.43 158.45 223.451 158.449C224.286 158.409 225.086 158.5 226.299 158.627C227.067 158.708 228.332 158.95 229.503 159.26C230.676 159.57 231.555 160.286 232.707 160.83C235.122 161.972 235.519 162.797 236.037 163.351C236.589 163.943 237.137 164.498 237.747 165.108C238.247 165.608 238.611 166.232 239.018 166.811C239.454 167.431 239.712 168.165 239.871 168.895C240.023 169.589 240.013 170.279 239.947 170.965C239.875 171.72 239.712 172.453 239.25 173.588C237.87 176.975 236.595 177.217 236.027 177.692C235.471 178.155 234.791 178.432 234.158 178.724ZM223.451 158.449L223.389 158.452M234.158 178.724C234.049 178.774 233.941 178.825 233.835 178.877C233.158 179.212 232.458 179.495 231.768 179.804C231.077 180.114 230.39 180.422 229.815 180.801C229.513 180.999 229.102 181.097 228.791 181.092C228.683 181.09 228.73 180.878 228.81 180.744C229.137 180.194 229.916 179.843 230.61 179.474C231.22 179.151 231.911 178.93 233.078 178.819C233.456 178.783 233.815 178.75 234.158 178.724Z" stroke="#3A3A3A" stroke-width="0.78666" stroke-linecap="round"/>
<path d="M200.701 194.776C200.814 194.526 200.924 194.099 201.095 193.723C201.282 193.31 201.338 192.861 201.501 192.497C201.653 192.158 201.785 191.75 201.987 191.199C202.323 190.284 202.59 189.862 203.29 188.606C203.448 188.324 203.478 188.202 203.938 187.408C204.397 186.614 205.28 185.148 205.771 184.362C206.473 183.349 206.745 183.018 207.036 182.751C207.105 182.668 207.166 182.565 207.393 182.557" stroke="#3A3A3A" stroke-width="0.78666" stroke-linecap="round"/>
<path d="M211.468 198.933C211.917 198.186 212.805 196.59 212.994 196.031C213.192 195.443 213.372 194.914 213.628 194.395C213.914 193.816 214.677 192.314 215.249 191.548C215.496 191.217 215.918 190.925 216.291 190.583C216.657 190.245 217.028 190.001 217.369 189.71C217.942 189.278 218.704 188.747 219.155 188.397C219.251 188.33 219.351 188.285 219.535 188.288" stroke="#3A3A3A" stroke-width="0.78666" stroke-linecap="round"/>
<path d="M199.012 82.3448C198.529 81.7498 197.29 79.3534 196.227 76.5423C194.272 71.3718 193.48 69.1548 192.165 63.7094C191.043 59.0659 191.444 56.0489 191.33 54.0831C191.234 52.426 192.1 48.1229 192.835 45.2899C193.086 44.3233 193.434 43.0118 193.987 41.2616C194.674 39.0843 196.972 34.1572 199.609 27.9982C201.613 23.3161 203.756 20.8989 205.098 19.1181C208.223 14.9716 213.811 9.32464 215.196 8.07087C216.436 6.94884 218.102 6.25807 219.605 4.8734C220.794 3.77821 222.498 3.45042 223.952 2.50218C224.291 2.2807 224.773 2.43428 225.02 2.73164C226.21 4.16485 226.467 6.04853 227.418 7.465C228.38 8.89971 228.68 10.6124 229.37 12.124C230.084 13.6861 230.633 15.2714 231.131 17.0908C231.722 19.2469 232.363 21.499 233.231 24.6179C233.848 26.8347 233.862 29.1332 233.951 31.7896C234.064 35.1474 233.946 37.5801 233.615 39.9485C233.317 42.0911 233.498 44.9104 233.092 46.8898C232.663 48.9885 232.509 50.9516 232.174 52.7503C231.889 54.2847 231.243 55.7761 230.716 57.3166C230.089 59.1471 228.792 60.9738 227.611 62.5757C226.618 63.9216 225.799 66.0119 224.418 67.8355C223.901 68.5193 220.68 72.4705 215.633 77.9914C212.72 81.1783 210.939 81.7943 209.318 82.8367C207.99 83.6916 206.605 84.339 205.301 85.502C203.876 86.2365 202.59 86.5285 201.735 86.7227C201.304 86.8205 200.495 82.2206 199.012 82.3448Z" fill="#5B8339" stroke="#474646" stroke-width="0.703385" stroke-linecap="round"/>
<path d="M204.371 86.5948C204.471 85.9867 205.28 83.9608 206.451 81.8173C208.604 77.8745 209.554 76.2116 212.245 72.5035C214.539 69.3415 216.673 67.9613 217.849 66.8383C218.841 65.8916 222.051 64.0989 224.258 63.0172C225.011 62.6481 226.038 62.1524 227.457 61.5428C229.223 60.7845 233.642 59.5123 239.031 57.7813C243.128 56.4653 245.874 56.4475 247.762 56.2932C252.158 55.9339 258.902 56.2397 260.482 56.394C261.895 56.5321 263.279 57.1564 265.009 57.3107C266.376 57.4328 267.553 58.2748 268.979 58.6338C269.311 58.7177 269.488 59.0876 269.441 59.3947C269.213 60.8748 268.17 62.0394 267.815 63.3671C267.457 64.7119 266.546 65.8101 265.984 67.0339C265.403 68.2987 264.714 69.4769 263.849 70.7511C262.823 72.2612 261.765 73.8526 260.289 76.0451C259.24 77.6034 257.797 78.8456 256.17 80.3246C254.113 82.1939 252.51 83.4291 250.826 84.5032C249.303 85.4748 247.626 87.0959 246.145 87.9164C244.576 88.7863 243.248 89.7483 241.922 90.5137C240.791 91.1667 239.481 91.5817 238.209 92.0935C236.696 92.7017 234.805 92.9078 233.121 93.0622C231.707 93.1918 229.921 93.8246 227.984 93.9789C227.258 94.0367 222.93 94.234 216.573 94.1836C212.904 94.1545 211.502 93.4212 209.922 93.0133C208.626 92.6787 207.429 92.1989 205.953 92.0446C204.679 91.5878 203.763 90.9767 203.154 90.5703C202.847 90.3655 205.293 87.4137 204.371 86.5948Z" fill="#5B8339" stroke="#474646" stroke-width="0.703385" stroke-linecap="round"/>
<path d="M205.322 75.5373C205.322 68.961 205.919 55.6317 206.676 53.4434C207.387 51.3893 208.334 49.2952 210.588 46.8806C211.196 46.4212 211.643 46.2718 212.098 45.9709C212.552 45.6699 213 45.2218 213.461 44.7601" stroke="#474646" stroke-width="0.703385" stroke-linecap="round"/>
<path d="M213.009 82.7791C214.058 82.6297 216.165 82.0278 218.649 81.4982C222.126 80.7573 224.9 80.9687 227.093 80.5183C229.431 79.9141 231.538 79.3121 234.097 78.7826C235.001 78.7056 236.195 78.7056 237.425 79.1582" stroke="#474646" stroke-width="0.703385" stroke-linecap="round"/>
<path d="M81.5133 250.863C80.6662 251.53 80.9901 251.263 80.215 252.032C79.44 252.8 78.6679 253.566 77.9117 254.373C77.1064 255.233 76.5361 256.255 75.6282 257.14C75.3183 257.442 74.7264 257.635 74.3173 257.694C73.0419 257.879 72.0622 256.937 71.1009 256.256C70.1975 255.616 69.1493 253.579 68.6473 251.983C68.3194 250.941 68.3477 249.823 68.1976 248.741C68.0433 247.629 68.1296 246.466 68.0178 245.365C67.8943 244.149 68.6008 243.149 69.2806 242.188C70.2397 240.831 72.7725 240.503 74.0071 240.663C75.1968 240.818 76.3569 240.751 77.5725 240.873C78.7062 240.987 79.8655 240.847 82.4416 240.15C88.1562 238.605 88.8997 237.534 89.8859 237.192C90.9611 236.819 92.2546 237.318 93.4501 237.4C94.7413 237.488 96.3338 238.182 97.4724 239.207C99.3672 240.913 98.7151 242.589 98.8652 243.671C99.0194 244.783 98.4757 245.791 97.8149 246.791C97.1283 247.829 96.8021 249.021 96.2981 250.14C95.8051 251.234 94.8662 251.908 92.9584 252.806C91.6028 253.445 90.2401 252.469 89.0265 251.963C87.4762 251.317 86.274 251.063 85.0792 250.785C83.8447 250.625 82.6905 250.618 81.5133 250.863Z" fill="#2C2C2C"/>
<path d="M81.5133 250.863C81.0521 251.091 82.3445 250.207 81.5133 250.863ZM81.5133 250.863C81.1461 250.995 81.9861 250.629 81.5133 250.863C80.6662 251.53 80.9901 251.263 80.215 252.032C79.44 252.8 78.6679 253.566 77.9117 254.373C77.1064 255.233 76.5361 256.255 75.6282 257.14C75.3183 257.442 74.7264 257.635 74.3173 257.694C73.0419 257.879 72.0622 256.937 71.1009 256.256C70.1975 255.616 69.1493 253.579 68.6473 251.983C68.3194 250.941 68.3477 249.823 68.1976 248.741C68.0433 247.629 68.1296 246.466 68.0178 245.365C67.8943 244.149 68.6008 243.149 69.2806 242.188C70.2397 240.831 72.7725 240.503 74.0071 240.663C75.1968 240.818 76.3569 240.751 77.5725 240.873C78.7062 240.987 79.8655 240.847 82.4416 240.15C88.1562 238.605 88.8997 237.534 89.8859 237.192C90.9611 236.819 92.2546 237.318 93.4501 237.4C94.7413 237.488 96.3338 238.182 97.4724 239.207C99.3672 240.913 98.7151 242.589 98.8652 243.671C99.0194 244.783 98.4757 245.791 97.8149 246.791C97.1283 247.829 96.8021 249.021 96.2981 250.14C95.8051 251.234 94.8662 251.908 92.9584 252.806C91.6028 253.445 90.2401 252.469 89.0265 251.963C87.4762 251.317 86.274 251.063 85.0792 250.785C83.8447 250.625 82.6905 250.618 81.5133 250.863Z" stroke="#2C2C2C" stroke-width="0.5" stroke-linecap="round"/>
<path d="M177.489 246.148C177.468 246.365 177.701 246.61 177.915 246.576C178.02 246.559 178.113 246.537 178.167 246.509C178.322 246.429 178.548 246.404 178.93 246.362L178.946 246.36C179.706 246.275 180.266 246.368 180.385 246.395C180.708 246.466 180.938 246.456 181.183 246.5C181.439 246.545 181.623 246.596 181.936 246.623C182.14 246.64 182.341 246.719 182.518 246.763C182.694 246.806 182.877 246.859 183.083 246.886C183.236 246.906 183.334 247 183.397 247C183.428 247 183.448 246.931 183.448 246.878C183.45 246.634 183.346 246.37 183.3 246.141C183.258 245.929 183.209 245.721 183.158 245.51C183.1 245.271 183.061 245.002 183.027 244.729C182.998 244.503 182.935 244.3 182.884 244.089C182.829 243.865 182.764 243.634 182.662 243.405C182.569 243.198 182.48 242.932 182.405 242.721C182.323 242.49 182.228 242.248 182.137 242.028C182.035 241.783 181.932 241.563 181.79 241.301C181.518 240.8 181.283 240.669 181.082 240.467C180.93 240.313 180.769 240.212 180.632 240.098C180.484 239.976 179.928 239.984 179.577 240.036C179.427 240.058 179.297 240.176 179.154 240.316C178.967 240.5 178.83 240.754 178.704 240.992C178.563 241.257 178.464 241.456 178.373 241.667C178.285 241.87 178.247 242.088 178.202 242.298C178.156 242.509 178.11 242.754 178.059 243.052C177.995 243.425 177.939 243.666 177.865 243.929C177.79 244.197 177.768 244.49 177.722 244.763C177.682 245.002 177.654 245.28 177.62 245.508C177.574 245.719 177.529 245.929 177.489 246.148Z" fill="#2C2C2C"/>
<path d="M178.93 246.362C178.935 246.361 178.941 246.36 178.946 246.36C179.706 246.275 180.266 246.368 180.385 246.395C180.708 246.466 180.938 246.456 181.183 246.5C181.439 246.545 181.623 246.596 181.936 246.623C182.14 246.64 182.341 246.719 182.518 246.763C182.694 246.806 182.877 246.859 183.083 246.886C183.236 246.906 183.334 247 183.397 247C183.428 247 183.448 246.931 183.448 246.878C183.45 246.634 183.346 246.37 183.3 246.141C183.258 245.929 183.209 245.721 183.158 245.51C183.1 245.271 183.061 245.002 183.027 244.729C182.998 244.503 182.935 244.3 182.884 244.089C182.829 243.865 182.764 243.634 182.662 243.405C182.569 243.198 182.48 242.932 182.405 242.721C182.323 242.49 182.228 242.248 182.137 242.028C182.035 241.783 181.932 241.563 181.79 241.301C181.518 240.8 181.283 240.669 181.082 240.467C180.93 240.313 180.769 240.212 180.632 240.098C180.484 239.976 179.928 239.984 179.577 240.036C179.427 240.058 179.297 240.176 179.154 240.316C178.967 240.5 178.83 240.754 178.704 240.992C178.563 241.257 178.464 241.456 178.373 241.667C178.285 241.87 178.247 242.088 178.202 242.298C178.156 242.509 178.11 242.754 178.059 243.052C177.995 243.425 177.939 243.666 177.865 243.929C177.79 244.197 177.768 244.49 177.722 244.763C177.682 245.002 177.654 245.28 177.62 245.508C177.574 245.719 177.529 245.929 177.489 246.148C177.468 246.365 177.701 246.61 177.915 246.576C178.02 246.559 178.113 246.537 178.167 246.509C178.322 246.429 178.548 246.404 178.93 246.362ZM178.946 246.36L178.93 246.362" stroke="#2C2C2C" stroke-width="0.799941" stroke-linecap="round"/>
<path d="M70.1235 226C69.9319 226.037 69.5477 226.149 69.162 226.261C68.8122 226.363 68.3921 226.373 68.0065 226.448C67.6208 226.523 67.1095 226.561 66.6106 226.607C65.9898 226.665 65.5995 226.71 65.2139 226.785C64.8073 226.864 64.3477 226.878 63.4025 226.906C62.7709 226.925 62.0693 226.99 59.8925 227C59.1384 227.003 58.7625 226.86 58.3768 226.776C57.9912 226.636 57.7023 226.542 57.5102 226.505C57.4134 226.486 57.3181 226.468 57.1235 226.336" stroke="#CDECFF" stroke-opacity="0.7" stroke-linecap="round"/>
<path d="M107.448 226C107.257 226.037 106.873 226.149 106.487 226.261C106.137 226.363 105.717 226.373 105.331 226.448C104.946 226.523 104.434 226.561 103.936 226.607C103.315 226.665 102.924 226.71 102.539 226.785C102.132 226.864 101.673 226.878 100.727 226.906C100.096 226.925 99.3943 226.99 97.2175 227C96.4633 227.003 96.0874 226.86 95.7018 226.776C95.3161 226.636 95.0272 226.542 94.8351 226.505C94.7383 226.486 94.643 226.468 94.4485 226.336" stroke="#CDECFF" stroke-opacity="0.7" stroke-linecap="round"/>
</svg>
