<svg width="80" height="75" viewBox="0 0 80 75" fill="none" xmlns="http://www.w3.org/2000/svg">
<path d="M59.7903 41.772C59.6131 41.7726 59.4701 41.7186 59.3613 41.6101C59.2388 41.4881 59.1778 41.3386 59.1781 41.1617C59.1785 40.9849 59.2401 40.8418 59.363 40.7326C59.4723 40.6098 59.6156 40.5481 59.7928 40.5475C60.747 40.5444 61.4428 40.2565 61.8801 39.6836C62.3311 39.1107 62.619 38.3139 62.7438 37.2931C62.8822 36.2587 62.9527 35.0544 62.9555 33.6802C62.9556 33.653 62.9556 33.6394 62.9556 33.6394C62.9557 33.5986 62.9626 33.5646 62.9763 33.5373C63.0038 33.3876 63.0722 33.2649 63.1815 33.1693C63.3044 33.0601 63.4476 33.0052 63.6112 33.0047C63.802 33.004 63.9587 33.0716 64.0811 33.2072C64.2171 33.3292 64.285 33.4855 64.2846 33.6759L64.2759 37.982C64.2745 38.6623 64.3416 39.1927 64.4772 39.5732C64.6127 39.9401 64.8031 40.1912 65.0482 40.3264C65.2932 40.4617 65.5657 40.5289 65.8656 40.5279C66.3427 40.5263 66.8408 40.2866 67.3597 39.8088C67.8787 39.3309 68.2549 38.6631 68.4884 37.8052L68.4967 33.6623C68.4971 33.4719 68.5588 33.3152 68.6817 33.1924C68.8183 33.0559 68.9752 32.9873 69.1524 32.9868C69.3432 32.9861 69.4999 33.0537 69.6223 33.1893C69.7583 33.3113 69.8262 33.4676 69.8258 33.658L69.8105 41.2498C69.9879 41.1404 70.1585 41.031 70.3223 40.9217C70.4998 40.7986 70.6704 40.6688 70.8343 40.5322C70.9162 40.464 71.0459 40.3479 71.2235 40.1841C71.4147 40.0066 71.5922 39.8291 71.7562 39.6517C71.9338 39.4743 72.043 39.3583 72.084 39.3037C72.2208 39.0856 72.405 38.9762 72.6368 38.9754C72.8276 38.9748 72.9843 39.0355 73.1067 39.1576C73.2291 39.2796 73.2902 39.4359 73.2898 39.6264C73.2896 39.7352 73.2553 39.8442 73.1869 39.9532C73.1322 40.035 73.0024 40.1851 72.7975 40.4035C72.5926 40.6218 72.374 40.8402 72.1418 41.0586C71.9233 41.277 71.7594 41.4272 71.6502 41.5092C71.6502 41.5092 71.6434 41.5092 71.6297 41.5093C71.3021 41.7688 70.9813 42.0011 70.6673 42.2062C70.367 42.4249 70.0803 42.6231 69.8073 42.8008L69.8056 43.658C69.8028 45.0729 69.7323 46.1888 69.5944 47.0056C69.4701 47.8223 69.2508 48.4012 68.9366 48.7423C68.636 49.0834 68.2267 49.2548 67.7087 49.2565C67.0408 49.2587 66.5232 49.0222 66.1562 48.5472C65.8027 48.0858 65.6267 47.4741 65.6282 46.7122C65.6299 45.8823 65.7608 45.188 66.0209 44.6294C66.281 44.0843 66.6228 43.6138 67.0461 43.2179C67.4831 42.822 67.961 42.4531 68.4797 42.1113L68.483 40.4582C68.1141 40.8676 67.6977 41.1886 67.2338 41.4214C66.7835 41.6406 66.3266 41.7509 65.8632 41.7524C65.5496 41.7534 65.2226 41.7068 64.882 41.6127C64.5414 41.5185 64.2214 41.3427 63.922 41.0852C63.6363 40.814 63.4054 40.427 63.2292 39.9242C62.9009 40.4966 62.4638 40.947 61.9178 41.2753C61.3719 41.6036 60.6627 41.7692 59.7903 41.772ZM66.9573 46.708C66.9565 47.1161 67.0172 47.4356 67.1394 47.6665C67.2616 47.911 67.4522 48.0329 67.7112 48.032C67.8475 48.0316 67.9704 47.9087 68.08 47.6635C68.2032 47.4182 68.2994 46.9825 68.3689 46.3565C68.4383 45.7304 68.4742 44.8323 68.4765 43.6623C67.9987 44.0175 67.6231 44.4133 67.3496 44.8496C67.0896 45.2994 66.9589 45.9188 66.9573 46.708Z" fill="black"/>
<path d="M52.2091 41.7507C52.0321 41.7513 51.8893 41.6973 51.7806 41.5887C51.6582 41.4666 51.5973 41.317 51.5976 41.1399C51.5979 40.9629 51.6595 40.8197 51.7822 40.7103C51.8914 40.5874 52.0345 40.5257 52.2115 40.5251C52.9331 40.5227 53.5396 40.2074 54.031 39.5793C54.536 38.9376 54.9528 38.1463 55.2813 37.2055C55.1463 36.6476 55.0114 35.9672 54.8768 35.1641C54.7558 34.361 54.6484 33.5306 54.5548 32.673C54.4747 31.8153 54.4353 31.0323 54.4367 30.3242C54.4383 29.4934 54.501 28.7374 54.6248 28.0561C54.7623 27.3611 55.0085 26.8019 55.3633 26.3785C55.7181 25.9552 56.2155 25.7424 56.8554 25.7403C57.4409 25.7383 57.8968 25.8798 58.223 26.1647C58.5492 26.4496 58.78 26.8234 58.9153 27.286C59.0506 27.7349 59.1177 28.2318 59.1166 28.7765C59.1154 29.4302 59.0391 30.1795 58.8877 31.0243C58.7363 31.8556 58.5373 32.7006 58.2906 33.5594C58.0438 34.4182 57.7836 35.2225 57.5099 35.9725C57.2497 36.7223 57.0035 37.336 56.7711 37.8134C57.0279 38.834 57.4214 39.5408 57.9516 39.934C58.4955 40.3135 59.0943 40.5022 59.7478 40.5C59.9248 40.4994 60.0677 40.5602 60.1764 40.6824C60.2987 40.791 60.3597 40.9337 60.3594 41.1108C60.359 41.2878 60.2975 41.4378 60.1747 41.5608C60.0656 41.6701 59.9225 41.7251 59.7455 41.7257C58.9694 41.7282 58.2277 41.5469 57.5204 41.1815C56.8266 40.8161 56.2697 40.1575 55.8494 39.2056C55.4532 39.9287 54.955 40.5364 54.355 41.0286C53.7686 41.5072 53.0533 41.7479 52.2091 41.7507ZM55.7642 30.3198C55.7628 31.096 55.8156 31.9606 55.9227 32.9136C56.0298 33.8665 56.1507 34.7377 56.2853 35.5271C56.5317 34.8454 56.7714 34.0956 57.0044 33.2777C57.2375 32.4598 57.4228 31.6557 57.5605 30.8653C57.7117 30.075 57.788 29.3802 57.7891 28.7809C57.7902 28.1817 57.723 27.7325 57.5874 27.4334C57.4519 27.1206 57.2071 26.9648 56.8531 26.966C56.4718 26.9672 56.1922 27.261 56.014 27.8472C55.8495 28.4333 55.7663 29.2575 55.7642 30.3198Z" fill="black"/>
<path d="M40.5361 41.7698C40.3589 41.7704 40.2159 41.7165 40.1071 41.6079C39.9847 41.4859 39.9237 41.3364 39.924 41.1594C39.9244 40.9825 39.986 40.8394 40.1089 40.7302C40.2181 40.6073 40.3614 40.5456 40.5385 40.5451C41.4925 40.5419 42.1881 40.2539 42.6254 39.6809C43.0763 39.1079 43.3641 38.3108 43.4888 37.2898C43.6271 36.2551 43.6976 35.0505 43.7004 33.676L43.7008 33.4718C43.7012 33.2813 43.7628 33.1246 43.8857 33.0017C44.0223 32.8652 44.1791 32.7966 44.3563 32.7961C44.5471 32.7954 44.7037 32.863 44.8261 32.9987C44.9621 33.1207 45.03 33.277 45.0296 33.4675L45.0256 35.4476C45.436 34.6706 45.9006 34.0703 46.4193 33.6467C46.9381 33.2095 47.4428 32.9902 47.9334 32.9886C48.6421 32.9863 49.2003 33.2362 49.6082 33.7384C50.016 34.2406 50.219 34.9884 50.217 35.9819L50.2139 37.5537C50.212 38.4655 50.3469 39.1863 50.6184 39.7162C50.9035 40.246 51.4277 40.5096 52.1909 40.5072C52.3681 40.5066 52.511 40.5674 52.6198 40.6895C52.7423 40.798 52.8033 40.9407 52.803 41.1176C52.8026 41.2945 52.741 41.4444 52.6181 41.5673C52.5088 41.6765 52.3656 41.7314 52.1885 41.732C51.4116 41.7345 50.785 41.5732 50.3087 41.2482C49.846 40.923 49.5061 40.4887 49.2892 39.945C49.0722 39.3878 48.944 38.7758 48.9044 38.1091C48.8909 38.0683 48.8841 38.0207 48.8843 37.9663L48.8882 35.9862C48.8896 35.3057 48.8019 34.8433 48.6252 34.599C48.4622 34.3409 48.2308 34.2124 47.9309 34.2134C47.7674 34.2139 47.5286 34.344 47.2147 34.6035C46.9007 34.8495 46.5729 35.2452 46.2311 35.7907C45.9029 36.3225 45.6154 37.0039 45.3684 37.8348C45.135 38.6657 45.0172 39.6663 45.0149 40.8367L44.9994 48.5937C44.999 48.7706 44.9306 48.9206 44.7941 49.0435C44.6711 49.18 44.5143 49.2485 44.3235 49.2491C44.1463 49.2497 43.9897 49.1822 43.8537 49.0465C43.7313 48.9245 43.6703 48.775 43.6706 48.598L43.6871 40.3511C43.3591 40.7876 42.9359 41.136 42.4175 41.3963C41.9128 41.6429 41.2856 41.7674 40.5361 41.7698Z" fill="black"/>
<path d="M32.0755 41.7508C31.8982 41.7514 31.7551 41.6974 31.6462 41.589C31.5238 41.467 31.4627 41.3177 31.4631 41.1409C31.4634 40.9642 31.5251 40.8212 31.6481 40.7121C31.7574 40.5894 31.9007 40.5277 32.078 40.5272C33.1827 40.5237 34.0493 40.2218 34.6778 39.6216C35.32 39.0213 35.7854 38.1973 36.074 37.1495C36.3762 36.1017 36.5491 34.9183 36.5928 33.5994C36.6068 33.4226 36.6753 33.2728 36.7982 33.15C36.9212 33.0273 37.0714 32.9656 37.2487 32.9651C37.6032 32.9639 37.8143 33.1264 37.8818 33.4525C37.9089 33.534 37.9224 33.6087 37.9222 33.6767L37.9155 36.9397C37.9132 38.041 38.0955 38.9105 38.4624 39.5484C38.8293 40.1862 39.5105 40.5035 40.506 40.5004C40.6833 40.4998 40.8264 40.5605 40.9352 40.6826C41.0577 40.7909 41.1188 40.9335 41.1185 41.1102C41.1181 41.287 41.0564 41.4367 40.9334 41.5595C40.8241 41.6686 40.6808 41.7234 40.5035 41.724C39.4125 41.7275 38.5743 41.465 37.989 40.9366C37.4037 40.4083 37.0028 39.723 36.7864 38.8807C36.3618 39.7386 35.7671 40.4339 35.0023 40.9665C34.2376 41.4856 33.262 41.747 32.0755 41.7508Z" fill="black"/>
<path d="M23.0491 41.751C22.8718 41.7516 22.7286 41.6977 22.6198 41.5893C22.4973 41.4674 22.4362 41.3181 22.4366 41.1414C22.4369 40.9647 22.4986 40.8218 22.6216 40.7127C22.731 40.59 22.8743 40.5284 23.0516 40.5279C23.7064 40.5258 24.3546 40.3947 24.9962 40.1344C25.6515 39.8606 26.2115 39.4783 26.6763 38.9876C27.1548 38.4968 27.4492 37.9183 27.5597 37.252L27.5599 37.1909C27.5617 36.3211 27.7201 35.5799 28.0351 34.9674C28.3502 34.3412 28.774 33.8574 29.3067 33.516C29.8394 33.1746 30.4399 33.0028 31.1083 33.0007C31.422 32.9997 31.7492 33.0598 32.09 33.1811C32.4444 33.2887 32.7714 33.4711 33.0709 33.7284C33.207 33.8638 33.2749 34.0199 33.2745 34.1966C33.2742 34.3733 33.2125 34.5229 33.0894 34.6456C32.9664 34.7683 32.8163 34.83 32.6389 34.8305C32.4616 34.8311 32.3185 34.7772 32.2096 34.6688C32.0326 34.5199 31.8419 34.4118 31.6374 34.3444C31.4466 34.2635 31.2694 34.2233 31.1057 34.2238C30.4919 34.2257 29.9662 34.4788 29.5287 34.983C29.1048 35.4872 28.8918 36.2218 28.8898 37.1867C28.8886 37.7303 28.9967 38.26 29.2138 38.7757C29.431 39.2779 29.7711 39.6913 30.2342 40.016C30.6973 40.3407 31.3039 40.5019 32.0541 40.4995C32.2315 40.499 32.3745 40.5597 32.4834 40.6816C32.6059 40.79 32.667 40.9325 32.6667 41.1091C32.6663 41.2858 32.6046 41.4355 32.4816 41.5582C32.3722 41.6673 32.2289 41.7221 32.0516 41.7226C31.0286 41.7259 30.1833 41.5043 29.5159 41.0579C28.8622 40.5979 28.3723 40.0355 28.0463 39.3706C27.6633 39.8882 27.1986 40.3246 26.6523 40.6796C26.106 41.0211 25.5189 41.288 24.8911 41.4802C24.2769 41.6588 23.6629 41.7491 23.0491 41.751Z" fill="black"/>
<path d="M16.1438 41.751C15.9666 41.7516 15.8235 41.6976 15.7147 41.5891C15.5922 41.4671 15.5312 41.3177 15.5315 41.1408C15.5319 40.964 15.5935 40.821 15.7165 40.7118C16.2204 40.6895 16.1046 40.6948 16.5033 40.6219C16.902 40.549 18.0487 40.2622 18.9495 39.7424C18.6234 39.2265 18.4064 38.6695 18.2985 38.0713C18.2043 37.4731 18.1714 36.9019 18.1997 36.3577C18.2419 35.7454 18.3725 35.1873 18.5917 34.6833C18.8245 34.1656 19.1389 33.7565 19.5349 33.456C19.9309 33.1419 20.3879 32.9839 20.906 32.9823C21.6558 32.9799 22.2347 33.2365 22.6427 33.7521C23.0506 34.2541 23.2539 34.8859 23.2523 35.6477C23.2509 36.3278 23.0654 37.0562 22.6957 37.8327C22.326 38.6093 21.7452 39.3321 20.9531 40.0012C21.2118 40.1636 21.5114 40.2918 21.8521 40.386C22.2064 40.4664 22.6017 40.506 23.0379 40.5046C23.2152 40.504 23.3582 40.5648 23.467 40.6868C23.5895 40.7953 23.6505 40.9379 23.6502 41.1147C23.6498 41.2916 23.5882 41.4414 23.4652 41.5642C23.3559 41.6734 23.2127 41.7283 23.0354 41.7288C22.2992 41.7312 21.6587 41.6381 21.1137 41.4494C20.5824 41.2606 20.1262 41.0104 19.7451 40.6988C19.2264 41.0133 18.6533 41.2668 18.0258 41.4593C17.3983 41.6518 16.7709 41.749 16.1438 41.751ZM19.5084 36.4351C19.4802 36.8977 19.5065 37.3669 19.5873 37.8427C19.6682 38.305 19.8309 38.7261 20.0755 39.1062C20.7311 38.56 21.2026 37.9736 21.4902 37.3469C21.7777 36.7203 21.922 36.1621 21.923 35.6724C21.9239 35.2371 21.8292 34.8837 21.6389 34.6123C21.4622 34.3408 21.2171 34.2055 20.9035 34.2065C20.5763 34.2076 20.2691 34.4126 19.982 34.8216C19.7085 35.217 19.5507 35.7548 19.5084 36.4351Z" fill="black"/>
<path d="M7.22853 41.7506C7.03784 41.7513 6.87452 41.6837 6.73858 41.548C6.61626 41.4123 6.55527 41.2559 6.55561 41.0789L6.89167 25.8216L11.2026 25.8074C12.0062 25.8047 12.7279 25.9181 13.3676 26.1474C14.0073 26.3768 14.5106 26.7359 14.8774 27.2249C15.2578 27.7138 15.4473 28.3395 15.4458 29.1019C15.4431 30.518 14.9437 31.6905 13.9476 32.6197C12.9651 33.5488 9.61275 34.4108 9.61275 34.4108C8.60723 34.8018 14.1753 41.2986 16.2611 40.6384C16.4422 40.5811 16.4445 40.9101 16.4441 41.0871C16.4438 41.2641 16.2594 41.537 16.2594 41.537C16.2594 41.537 16.2125 41.721 16.0354 41.7216C15.8584 41.7221 15.4229 41.7432 15.057 41.6285C11.2503 40.435 8.38427 35.7633 8.03904 34.6815C7.69382 33.5997 7.88359 41.0949 7.88359 41.0949C7.88324 41.2719 7.81484 41.4287 7.67837 41.5653C7.55554 41.6883 7.4056 41.75 7.22853 41.7506ZM11.2002 27.0328L8.19688 27.0427L8.06209 33.3335C10.1189 33.2586 11.6384 32.8452 12.6206 32.0931C13.6164 31.3273 14.1155 30.3317 14.1178 29.1063C14.1192 28.3847 13.8615 27.8614 13.3445 27.5363C12.8412 27.1976 12.1264 27.0297 11.2002 27.0328Z" fill="black"/>
<path d="M34.3552 30.8916C34.3857 31.0199 34.4004 31.1715 34.3972 31.2744C34.4045 31.3601 34.4134 31.3884 34.433 31.3983C34.5421 31.3827 34.661 31.3488 34.8536 31.3409C34.9875 31.3121 35.1244 31.2836 35.2744 31.279C35.5011 31.2719 35.6438 31.2667 35.8075 31.23C35.9365 31.201 36.0949 31.1908 36.2576 31.1642C36.4016 31.1407 36.5619 31.1494 36.7319 31.1181C36.8854 31.09 37.0228 31.0708 37.1771 31.0522C37.3612 31.0299 37.5968 31.0224 37.7644 31.0098C37.9834 30.9933 38.2781 30.9989 38.519 30.9774C38.7125 30.9601 38.9312 30.9707 39.1012 30.9395C39.2547 30.9113 39.4069 31.0023 39.7739 30.8473C39.848 30.816 39.8536 30.7504 39.8467 30.6986C39.8348 30.609 39.7861 30.5181 39.7724 30.3994C39.7494 30.1987 39.7593 29.9157 39.7303 29.7092C39.7103 29.567 39.6946 29.4349 39.6588 29.3204C39.623 29.2059 39.572 29.0952 39.5515 28.9773C39.5266 28.8343 39.5363 28.6613 39.5017 28.5276C39.4709 28.4086 39.4461 28.2581 39.4365 28.1006C39.4333 28.048 39.4317 27.949 39.5773 27.9406C39.9917 27.9165 40.2938 27.9086 40.3642 27.9048C40.5319 27.8959 40.8766 27.9334 41.1186 27.8676C41.2429 27.8338 41.3641 27.806 41.4864 27.7614C41.6411 27.7051 41.7911 27.689 41.8999 27.6095C42.0621 27.4911 42.3073 27.2755 42.4167 27.1449C42.5091 27.0345 42.6411 26.9132 42.7235 26.7868C42.7958 26.6758 42.8582 26.5648 42.9111 26.4533C42.9641 26.3416 43.0387 26.2274 43.104 26.1199C43.1714 26.0087 43.2823 25.9175 43.3114 25.7869C43.3514 25.6075 43.3551 25.3572 43.2984 25.2488C43.2381 25.1335 43.2079 25.0178 43.1666 24.905C43.121 24.7806 43.056 24.6401 42.9476 24.5064C42.8573 24.3952 42.7447 24.2935 42.6262 24.2322C42.4999 24.1669 42.3636 24.0765 41.7725 24.1014C41.4562 24.1148 41.1646 24.1455 40.9935 24.1518C40.7865 24.1595 40.6442 24.1695 40.5047 24.2022C40.3806 24.2314 40.1931 24.2651 40.0273 24.3522C39.9403 24.3979 39.8525 24.4525 39.7587 24.5149C39.7457 24.5326 39.733 24.5503 39.7209 24.568C39.6428 24.6816 39.5564 24.789 39.474 24.8997C39.3916 25.0104 39.3095 25.1207 39.2517 25.2322C39.2214 25.2905 39.1646 25.3427 39.1145 25.3696C39.0971 25.3789 39.0857 25.341 39.0865 25.3126C39.0896 25.1959 39.1823 25.0708 39.2601 24.9503C39.3285 24.8445 39.4188 24.7478 39.5949 24.6263C39.652 24.5869 39.7062 24.5497 39.7587 24.5149C39.8335 24.4121 39.9171 24.3075 39.9643 24.1843C40.0126 24.0582 40.1942 23.9063 40.1119 23.2447C40.0844 23.0231 40.0449 22.8919 39.9891 22.7655C39.9384 22.6505 39.8783 22.54 39.7923 22.4432C39.7017 22.3412 39.5952 22.2476 39.4704 22.1878C39.3538 22.132 39.2401 22.0652 39.1158 22.0302C38.9642 21.9876 38.8273 21.9481 38.6865 21.9033C38.5546 21.8613 38.4175 21.7654 37.9308 21.7991C37.6986 21.8151 37.4947 21.7796 37.2801 21.8348C37.0658 21.8899 36.8425 21.964 36.7129 22.0196C36.5082 22.1075 36.3726 22.1642 36.2431 22.2451L36.2334 22.2511C36.07 22.3531 35.8954 22.4621 35.7131 22.6482C35.5608 22.8038 35.467 22.9265 35.3746 23.09C35.3012 23.22 35.2158 23.3669 35.1488 23.5356C35.1007 23.6567 34.9844 24.2176 35.0832 24.5333C35.119 24.6478 35.2913 24.9214 35.1449 24.9029C35.0416 24.8898 34.9252 24.8482 34.8089 24.7785C34.6928 24.7088 34.5772 24.6648 34.4592 24.6259C34.3321 24.584 34.1826 24.5149 34.0495 24.4995C33.7114 24.4605 33.1607 24.4388 33.0212 24.4715C32.8971 24.5006 32.7783 24.5347 32.6578 24.5968C32.5375 24.6589 32.4144 24.7068 32.272 24.8062C32.1357 24.9013 32.0141 25.0289 31.9317 25.1396C31.8493 25.2503 31.8204 25.4041 31.7718 25.5307C31.7288 25.6427 31.6396 25.737 31.5864 25.9352C31.5143 26.2046 31.545 26.5948 31.5521 26.7219C31.5617 26.8921 31.6139 27.018 31.6572 27.1401C31.6979 27.2547 31.7107 27.3788 31.7745 27.4835C31.8448 27.5991 31.8723 27.7414 32.0192 27.8497C32.1396 27.9385 32.2569 28.0139 32.3715 28.0731C32.4979 28.1385 32.6317 28.1872 32.756 28.2222C32.9075 28.2648 33.0452 28.3166 33.1901 28.354C33.3366 28.3918 33.8112 28.2358 33.946 28.4208C33.9741 28.4595 33.9492 28.5867 33.9801 28.7384C34.01 28.8854 34.0388 29.0166 34.0457 29.1555C34.0548 29.3396 34.038 29.5535 34.0915 29.7322C34.1272 29.8514 34.1571 29.9669 34.198 30.1035C34.2337 30.2227 34.2452 30.3403 34.2798 30.474C34.3106 30.593 34.3124 30.7114 34.3552 30.8916Z" fill="white"/>
<path d="M39.7587 24.5149C39.8525 24.4525 39.9403 24.3979 40.0273 24.3522C40.1931 24.2651 40.3806 24.2314 40.5047 24.2022C40.6442 24.1695 40.7865 24.1595 40.9935 24.1518C41.1646 24.1455 41.4562 24.1148 41.7725 24.1014C42.3636 24.0765 42.4999 24.1669 42.6262 24.2322C42.7447 24.2935 42.8573 24.3952 42.9476 24.5064C43.056 24.6401 43.121 24.7806 43.1666 24.905C43.2079 25.0178 43.2381 25.1335 43.2984 25.2488C43.3551 25.3572 43.3514 25.6075 43.3114 25.7869C43.2823 25.9175 43.1714 26.0087 43.104 26.1199C43.0387 26.2274 42.9641 26.3416 42.9111 26.4533C42.8582 26.5648 42.7958 26.6758 42.7235 26.7868C42.6411 26.9132 42.5091 27.0345 42.4167 27.1449C42.3073 27.2755 42.0621 27.4911 41.8999 27.6095C41.7911 27.689 41.6411 27.7051 41.4864 27.7614C41.3641 27.806 41.2429 27.8338 41.1186 27.8676C40.8766 27.9334 40.5319 27.8959 40.3642 27.9048C40.2938 27.9086 39.9917 27.9165 39.5773 27.9406C39.4317 27.949 39.4333 28.048 39.4365 28.1006C39.4461 28.2581 39.4709 28.4086 39.5017 28.5276C39.5363 28.6613 39.5266 28.8343 39.5515 28.9773C39.572 29.0952 39.623 29.2059 39.6588 29.3204C39.6946 29.4349 39.7103 29.567 39.7303 29.7092C39.7593 29.9157 39.7494 30.1987 39.7724 30.3994C39.7861 30.5181 39.8348 30.609 39.8467 30.6986C39.8536 30.7504 39.848 30.816 39.7739 30.8473C39.4069 31.0023 39.2547 30.9113 39.1012 30.9395C38.9312 30.9707 38.7125 30.9601 38.519 30.9774C38.2781 30.9989 37.9834 30.9933 37.7644 31.0098C37.5968 31.0224 37.3612 31.0299 37.1771 31.0522C37.0228 31.0708 36.8854 31.09 36.7319 31.1181C36.5619 31.1494 36.4016 31.1407 36.2576 31.1642C36.0949 31.1908 35.9365 31.201 35.8075 31.23C35.6438 31.2667 35.5011 31.2719 35.2744 31.279C35.1244 31.2836 34.9875 31.3121 34.8536 31.3409C34.661 31.3488 34.5421 31.3827 34.433 31.3983C34.4134 31.3884 34.4045 31.3601 34.3972 31.2744C34.4004 31.1715 34.3857 31.0199 34.3552 30.8916C34.3124 30.7114 34.3106 30.593 34.2798 30.474C34.2452 30.3403 34.2337 30.2227 34.198 30.1035C34.1571 29.9669 34.1272 29.8514 34.0915 29.7322C34.038 29.5535 34.0548 29.3396 34.0457 29.1555C34.0388 29.0166 34.01 28.8854 33.9801 28.7384C33.9492 28.5867 33.9741 28.4595 33.946 28.4208C33.8112 28.2358 33.3366 28.3918 33.1901 28.354C33.0452 28.3166 32.9075 28.2648 32.756 28.2222C32.6317 28.1872 32.4979 28.1385 32.3715 28.0731C32.2569 28.0139 32.1396 27.9385 32.0192 27.8497C31.8723 27.7414 31.8448 27.5991 31.7745 27.4835C31.7107 27.3788 31.6979 27.2547 31.6572 27.1401C31.6139 27.018 31.5617 26.8921 31.5521 26.7219C31.545 26.5948 31.5143 26.2046 31.5864 25.9352C31.6396 25.737 31.7288 25.6427 31.7718 25.5307C31.8204 25.4041 31.8493 25.2503 31.9317 25.1396C32.0141 25.0289 32.1357 24.9013 32.272 24.8062C32.4144 24.7068 32.5375 24.6589 32.6578 24.5968C32.7783 24.5347 32.8971 24.5006 33.0212 24.4715C33.1607 24.4388 33.7114 24.4605 34.0495 24.4995C34.1826 24.5149 34.3321 24.584 34.4592 24.6259C34.5772 24.6648 34.6928 24.7088 34.8089 24.7785C34.9252 24.8482 35.0416 24.8898 35.1449 24.9029C35.2913 24.9214 35.119 24.6478 35.0832 24.5333C34.9844 24.2176 35.1007 23.6567 35.1488 23.5356C35.2158 23.3669 35.3012 23.22 35.3746 23.09C35.467 22.9265 35.5608 22.8038 35.7131 22.6482C35.8954 22.4621 36.07 22.3531 36.2334 22.2511C36.2366 22.2491 36.2399 22.2471 36.2431 22.2451C36.3726 22.1642 36.5082 22.1075 36.7129 22.0196C36.8425 21.964 37.0658 21.8899 37.2801 21.8348C37.4947 21.7796 37.6986 21.8151 37.9308 21.7991C38.4175 21.7654 38.5546 21.8613 38.6865 21.9033C38.8273 21.9481 38.9642 21.9876 39.1158 22.0302C39.2401 22.0652 39.3538 22.132 39.4704 22.1878C39.5952 22.2476 39.7017 22.3412 39.7923 22.4432C39.8783 22.54 39.9384 22.6505 39.9891 22.7655C40.0449 22.8919 40.0844 23.0231 40.1119 23.2447C40.1942 23.9063 40.0126 24.0582 39.9643 24.1843C39.9171 24.3075 39.8335 24.4121 39.7587 24.5149ZM36.2431 22.2451L36.2334 22.2511M39.7587 24.5149C39.7457 24.5326 39.733 24.5503 39.7209 24.568C39.6428 24.6816 39.5564 24.789 39.474 24.8997C39.3916 25.0104 39.3095 25.1207 39.2517 25.2322C39.2214 25.2905 39.1646 25.3427 39.1145 25.3696C39.0971 25.3789 39.0857 25.341 39.0865 25.3126C39.0896 25.1959 39.1823 25.0708 39.2601 24.9503C39.3285 24.8445 39.4188 24.7478 39.5949 24.6263C39.652 24.5869 39.7062 24.5497 39.7587 24.5149Z" stroke="#2C2C2C" stroke-width="0.2" stroke-linecap="round"/>
<path d="M35.858 30.0497C35.8538 29.9999 35.8332 29.9221 35.8268 29.8471C35.8198 29.7647 35.7886 29.6883 35.7821 29.616C35.7761 29.5484 35.7608 29.4717 35.7438 29.3661C35.7156 29.1907 35.7205 29.0997 35.72 28.8376C35.7199 28.7787 35.714 28.7566 35.7163 28.5893C35.7187 28.422 35.7285 28.1102 35.7367 27.9414C35.7582 27.7178 35.7721 27.6409 35.7946 27.5725C35.7981 27.5532 35.7988 27.5313 35.8342 27.5098" stroke="#2C2C2C" stroke-width="0.2" stroke-linecap="round"/>
<path d="M37.945 29.7506C37.95 29.5918 37.9491 29.2588 37.9293 29.1531C37.9085 29.0419 37.8898 28.9416 37.8844 28.8363C37.8783 28.7187 37.866 28.4118 37.8887 28.2389C37.8985 28.1643 37.9399 28.0803 37.9687 27.9926C37.997 27.9063 38.0343 27.8344 38.0627 27.7578C38.1156 27.6379 38.1895 27.4856 38.2303 27.3897C38.2396 27.3705 38.2515 27.3545 38.2811 27.3385" stroke="#2C2C2C" stroke-width="0.2" stroke-linecap="round"/>
</svg>
