<svg width="25" height="15" viewBox="0 0 25 15" fill="none" xmlns="http://www.w3.org/2000/svg">
<rect width="22.0227" height="0" transform="translate(1 7.36395)" fill="#F2F0E7"/>
<path d="M1 6.36395C0.447715 6.36395 0 6.81167 0 7.36395C0 7.91624 0.447715 8.36395 1 8.36395V7.36395V6.36395ZM23.7298 8.07106C24.1203 7.68054 24.1203 7.04737 23.7298 6.65685L17.3659 0.292885C16.9753 -0.0976396 16.3422 -0.0976396 15.9516 0.292885C15.5611 0.683409 15.5611 1.31657 15.9516 1.7071L21.6085 7.36395L15.9516 13.0208C15.5611 13.4113 15.5611 14.0445 15.9516 14.435C16.3422 14.8255 16.9753 14.8255 17.3659 14.435L23.7298 8.07106ZM1 7.36395V8.36395H23.0227V7.36395V6.36395H1V7.36395Z" fill="#F2F0E7"/>
</svg>


