<svg width="24" height="26" viewBox="0 0 24 26" fill="none" xmlns="http://www.w3.org/2000/svg">
<path d="M19.5557 1L19.5557 0H19.5557V1ZM22.5557 4H23.5557V3.99985L22.5557 4ZM19.5557 25V26H19.5557L19.5557 25ZM4 25L3.99985 26H4V25ZM1 4L0 3.99985V4H1ZM4 1V0H3.99985L4 1ZM8.88867 5.41699V4.41699H8.88837L8.88867 5.41699ZM6.63867 7.66699L5.63867 7.66678V7.66699H6.63867ZM6.63867 13.6035H5.63867V16.0177L7.34578 14.3106L6.63867 13.6035ZM7.06543 13.1768L7.77254 13.8839L7.77269 13.8837L7.06543 13.1768ZM9.35645 10.8848L9.95656 10.0848L9.26254 9.56419L8.64919 10.1778L9.35645 10.8848ZM11.6279 12.5889L12.2295 11.79L12.228 11.7889L11.6279 12.5889ZM12.0273 12.8896L11.4258 13.6885L13.0273 14.8945V12.8896H12.0273ZM12.0273 7.66699H13.0273V7.66678L12.0273 7.66699ZM19.5557 1L19.5556 2C20.6599 2.00004 21.5555 2.8956 21.5557 4.00015L22.5557 4L23.5557 3.99985C23.5553 1.7912 21.7647 7.96914e-05 19.5557 0L19.5557 1ZM22.5557 4H21.5557V22H22.5557H23.5557V4H22.5557ZM22.5557 22H21.5557C21.5557 23.1045 20.6602 24 19.5556 24L19.5557 25L19.5557 26C21.7647 25.9999 23.5557 24.2091 23.5557 22H22.5557ZM19.5557 25V24H4V25V26H19.5557V25ZM4 25L4.00015 24C2.89553 23.9998 2 23.1043 2 22H1H0C0 24.2091 1.7912 25.9997 3.99985 26L4 25ZM1 22H2V4H1H0V22H1ZM1 4L2 4.00015C2.00017 2.89584 2.89584 2.00017 4.00015 2L4 1L3.99985 0C1.7912 0.000340581 0.000340581 1.7912 0 3.99985L1 4ZM4 1V2H19.5557V1V0H4V1ZM8.88867 5.41699L8.88837 4.41699C7.09425 4.41753 5.63905 5.87239 5.63867 7.66678L6.63867 7.66699L7.63867 7.6672C7.63882 6.97722 8.19877 6.4172 8.88897 6.41699L8.88867 5.41699ZM6.63867 7.66699H5.63867V13.6035H6.63867H7.63867V7.66699H6.63867ZM6.63867 13.6035L7.34578 14.3106L7.77254 13.8839L7.06543 13.1768L6.35832 12.4697L5.93157 12.8964L6.63867 13.6035ZM7.06543 13.1768L7.77269 13.8837L10.0637 11.5917L9.35645 10.8848L8.64919 10.1778L6.35817 12.4698L7.06543 13.1768ZM9.35645 10.8848L8.75634 11.6847L11.0278 13.3888L11.6279 12.5889L12.228 11.7889L9.95656 10.0848L9.35645 10.8848ZM11.6279 12.5889L11.0264 13.3877L11.4258 13.6885L12.0273 12.8896L12.6289 12.0908L12.2295 11.79L11.6279 12.5889ZM12.0273 12.8896H13.0273V7.66699H12.0273H11.0273V12.8896H12.0273ZM12.0273 7.66699L13.0273 7.66678C13.027 5.87246 11.5723 4.41699 9.77734 4.41699V5.41699V6.41699C10.4673 6.41699 11.0272 6.9767 11.0273 7.6672L12.0273 7.66699ZM9.77734 5.41699V4.41699H8.88867V5.41699V6.41699H9.77734V5.41699Z" fill="#9ABC04"/>
</svg>
