<svg width="23" height="25" viewBox="0 0 23 25" fill="none" xmlns="http://www.w3.org/2000/svg">
<path d="M19.0557 0.5L19.0557 0H19.0557V0.5ZM22.0557 3.5H22.5557V3.49992L22.0557 3.5ZM19.0557 24.5V25H19.0557L19.0557 24.5ZM3.5 24.5L3.49992 25H3.5V24.5ZM0.5 3.5L0 3.49992V3.5H0.5ZM3.5 0.5V0H3.49992L3.5 0.5ZM8.38867 4.91699V4.41699H8.38852L8.38867 4.91699ZM6.13867 7.16699L5.63867 7.16689V7.16699H6.13867ZM6.13867 13.1035H5.63867V14.3106L6.49223 13.4571L6.13867 13.1035ZM6.56543 12.6768L6.91898 13.0303L6.91906 13.0302L6.56543 12.6768ZM8.85645 10.3848L9.1565 9.98481L8.80949 9.72448L8.50282 10.0313L8.85645 10.3848ZM11.1279 12.0889L11.4287 11.6895L11.428 11.6889L11.1279 12.0889ZM11.5273 12.3896L11.2266 12.7891L12.0273 13.3921V12.3896H11.5273ZM11.5273 7.16699H12.0273V7.16689L11.5273 7.16699ZM19.0557 0.5L19.0556 1C20.4361 1.00005 21.5555 2.1195 21.5557 3.50008L22.0557 3.5L22.5557 3.49992C22.5554 1.5673 20.9885 6.97374e-05 19.0557 0L19.0557 0.5ZM22.0557 3.5H21.5557V21.5H22.0557H22.5557V3.5H22.0557ZM22.0557 21.5H21.5557C21.5557 22.8807 20.4363 24 19.0556 24L19.0557 24.5L19.0557 25C20.9886 24.9999 22.5557 23.433 22.5557 21.5H22.0557ZM19.0557 24.5V24H3.5V24.5V25H19.0557V24.5ZM3.5 24.5L3.50008 24C2.11945 23.9998 1 22.8805 1 21.5H0.5H0C0 23.4329 1.56728 24.9997 3.49992 25L3.5 24.5ZM0.5 21.5H1V3.5H0.5H0V21.5H0.5ZM0.5 3.5L1 3.50008C1.00021 2.11968 2.11968 1.00021 3.50008 1L3.5 0.5L3.49992 0C1.56736 0.000297993 0.000297993 1.56736 0 3.49992L0.5 3.5ZM3.5 0.5V1H19.0557V0.5V0H3.5V0.5ZM8.38867 4.91699L8.38852 4.41699C6.87038 4.41745 5.63899 5.6486 5.63867 7.16689L6.13867 7.16699L6.63867 7.1671C6.63888 6.20102 7.42264 5.41728 8.38882 5.41699L8.38867 4.91699ZM6.13867 7.16699H5.63867V13.1035H6.13867H6.63867V7.16699H6.13867ZM6.13867 13.1035L6.49223 13.4571L6.91898 13.0303L6.56543 12.6768L6.21188 12.3232L5.78512 12.75L6.13867 13.1035ZM6.56543 12.6768L6.91906 13.0302L9.21007 10.7382L8.85645 10.3848L8.50282 10.0313L6.2118 12.3233L6.56543 12.6768ZM8.85645 10.3848L8.55639 10.7847L10.8279 12.4888L11.1279 12.0889L11.428 11.6889L9.1565 9.98481L8.85645 10.3848ZM11.1279 12.0889L10.8271 12.4883L11.2266 12.7891L11.5273 12.3896L11.8281 11.9902L11.4287 11.6895L11.1279 12.0889ZM11.5273 12.3896H12.0273V7.16699H11.5273H11.0273V12.3896H11.5273ZM11.5273 7.16699L12.0273 7.16689C12.027 5.64852 10.7961 4.41699 9.27734 4.41699V4.91699V5.41699C10.2436 5.41699 11.0271 6.20064 11.0273 7.1671L11.5273 7.16699ZM9.27734 4.91699V4.41699H8.38867V4.91699V5.41699H9.27734V4.91699Z" fill="#9ABC04"/>
</svg>
