<svg width="80" height="75" viewBox="0 0 80 75" fill="none" xmlns="http://www.w3.org/2000/svg">
<path d="M59.7905 41.7722C59.6133 41.7728 59.4703 41.7188 59.3614 41.6103C59.239 41.4883 59.178 41.3388 59.1783 41.162C59.1787 40.9851 59.2403 40.842 59.3632 40.7328C59.4725 40.61 59.6158 40.5483 59.793 40.5477C60.7472 40.5447 61.443 40.2567 61.8803 39.6839C62.3313 39.111 62.6192 38.3142 62.7439 37.2934C62.8823 36.2589 62.9529 35.0546 62.9557 33.6805C62.9558 33.6533 62.9558 33.6397 62.9558 33.6397C62.9559 33.5988 62.9628 33.5648 62.9764 33.5376C63.004 33.3878 63.0724 33.2651 63.1817 33.1696C63.3046 33.0603 63.4478 33.0054 63.6114 33.0049C63.8022 33.0043 63.9588 33.0718 64.0813 33.2075C64.2173 33.3295 64.2852 33.4857 64.2848 33.6762L64.2761 37.9823C64.2747 38.6625 64.3418 39.1929 64.4773 39.5734C64.6129 39.9403 64.8032 40.1914 65.0483 40.3267C65.2934 40.462 65.5659 40.5291 65.8658 40.5281C66.3429 40.5266 66.841 40.2869 67.3599 39.809C67.8789 39.3312 68.2551 38.6633 68.4885 37.8054L68.4969 33.6626C68.4973 33.4721 68.559 33.3154 68.6819 33.1926C68.8185 33.0561 68.9754 32.9876 69.1526 32.987C69.3434 32.9864 69.5001 33.0539 69.6225 33.1896C69.7585 33.3116 69.8264 33.4678 69.826 33.6583L69.8107 41.2501C69.9881 41.1407 70.1587 41.0313 70.3225 40.9219C70.5 40.7989 70.6706 40.6691 70.8345 40.5325C70.9164 40.4642 71.0461 40.3481 71.2237 40.1843C71.4149 40.0068 71.5924 39.8294 71.7564 39.652C71.9339 39.4745 72.0432 39.3585 72.0842 39.304C72.221 39.0859 72.4052 38.9764 72.637 38.9757C72.8278 38.9751 72.9844 39.0358 73.1069 39.1578C73.2293 39.2799 73.2903 39.4361 73.29 39.6266C73.2897 39.7355 73.2554 39.8444 73.1871 39.9535C73.1324 40.0353 73.0026 40.1854 72.7977 40.4037C72.5927 40.622 72.3742 40.8404 72.142 41.0589C71.9235 41.2773 71.7596 41.4274 71.6504 41.5094C71.6504 41.5094 71.6436 41.5095 71.6299 41.5095C71.3023 41.7691 70.9814 42.0014 70.6675 42.2065C70.3672 42.4251 70.0805 42.6233 69.8075 42.8011L69.8058 43.6582C69.8029 45.0732 69.7325 46.189 69.5946 47.0058C69.4702 47.8225 69.251 48.4014 68.9368 48.7426C68.6362 49.0837 68.2269 49.2551 67.7089 49.2568C67.0409 49.2589 66.5234 49.0225 66.1563 48.5475C65.8029 48.0861 65.6269 47.4744 65.6284 46.7125C65.6301 45.8826 65.761 45.1883 66.0211 44.6296C66.2812 44.0846 66.6229 43.6141 67.0463 43.2182C67.4833 42.8222 67.9612 42.4533 68.4799 42.1115L68.4832 40.4585C68.1143 40.8678 67.6979 41.1889 67.234 41.4217C66.7837 41.6408 66.3268 41.7511 65.8633 41.7526C65.5498 41.7536 65.2228 41.7071 64.8822 41.6129C64.5416 41.5188 64.2216 41.343 63.9222 41.0854C63.6365 40.8142 63.4055 40.4272 63.2294 39.9244C62.901 40.4969 62.4639 40.9473 61.918 41.2756C61.3721 41.6039 60.6629 41.7694 59.7905 41.7722ZM66.9575 46.7082C66.9567 47.1164 67.0174 47.4359 67.1396 47.6668C67.2618 47.9113 67.4524 48.0331 67.7114 48.0323C67.8477 48.0318 67.9706 47.909 68.0802 47.6637C68.2033 47.4184 68.2996 46.9828 68.3691 46.3567C68.4385 45.7306 68.4744 44.8326 68.4767 43.6625C67.9989 44.0178 67.6232 44.4136 67.3497 44.8498C67.0898 45.2996 66.9591 45.9191 66.9575 46.7082Z" fill="black"/>
<path d="M52.2092 41.751C52.0322 41.7516 51.8893 41.6976 51.7806 41.589C51.6583 41.4668 51.5973 41.3172 51.5977 41.1402C51.598 40.9631 51.6595 40.8199 51.7823 40.7106C51.8915 40.5877 52.0345 40.5259 52.2115 40.5253C52.9332 40.5229 53.5397 40.2077 54.031 39.5796C54.536 38.9378 54.9528 38.1466 55.2814 37.2058C55.1463 36.6479 55.0115 35.9674 54.8768 35.1644C54.7558 34.3613 54.6485 33.5309 54.5548 32.6732C54.4748 31.8155 54.4354 31.0326 54.4368 30.3244C54.4383 29.4937 54.5011 28.7376 54.6249 28.0563C54.7624 27.3613 55.0085 26.8021 55.3633 26.3788C55.7182 25.9554 56.2155 25.7427 56.8555 25.7405C57.441 25.7386 57.8968 25.8801 58.2231 26.165C58.5493 26.4499 58.78 26.8236 58.9153 27.2862C59.0506 27.7352 59.1177 28.232 59.1167 28.7768C59.1155 29.4305 59.0391 30.1797 58.8878 31.0246C58.7364 31.8558 58.5374 32.7008 58.2906 33.5596C58.0439 34.4184 57.7837 35.2228 57.5099 35.9727C57.2498 36.7226 57.0035 37.3362 56.7712 37.8137C57.0279 38.8342 57.4214 39.5411 57.9517 39.9342C58.4956 40.3137 59.0943 40.5024 59.7479 40.5002C59.9249 40.4996 60.0677 40.5605 60.1764 40.6827C60.2988 40.7912 60.3598 40.934 60.3594 41.111C60.3591 41.2881 60.2975 41.4381 60.1748 41.5611C60.0656 41.6704 59.9225 41.7253 59.7455 41.7259C58.9694 41.7285 58.2277 41.5471 57.5204 41.1818C56.8267 40.8164 56.2697 40.1577 55.8495 39.2058C55.4532 39.9289 54.9551 40.5366 54.3551 41.0289C53.7687 41.5075 53.0534 41.7482 52.2092 41.751ZM55.7643 30.32C55.7628 31.0963 55.8156 31.9609 55.9227 32.9138C56.0298 33.8668 56.1507 34.7379 56.2854 35.5274C56.5318 34.8456 56.7715 34.0958 57.0045 33.2779C57.2375 32.46 57.4229 31.6559 57.5605 30.8656C57.7118 30.0752 57.788 29.3804 57.7892 28.7812C57.7903 28.182 57.7231 27.7328 57.5875 27.4336C57.4519 27.1208 57.2072 26.965 56.8531 26.9662C56.4719 26.9675 56.1922 27.2612 56.0141 27.8474C55.8496 28.4335 55.7663 29.2577 55.7643 30.32Z" fill="black"/>
<path d="M40.5363 41.7701C40.3591 41.7707 40.2161 41.7167 40.1073 41.6082C39.9849 41.4861 39.9238 41.3366 39.9242 41.1597C39.9246 40.9828 39.9862 40.8397 40.109 40.7304C40.2183 40.6076 40.3615 40.5459 40.5387 40.5453C41.4927 40.5422 42.1883 40.2541 42.6256 39.6812C43.0765 39.1081 43.3642 38.3111 43.4889 37.29C43.6273 36.2553 43.6978 35.0507 43.7006 33.6762L43.701 33.4721C43.7014 33.2816 43.763 33.1249 43.8859 33.002C44.0225 32.8654 44.1793 32.7969 44.3565 32.7963C44.5473 32.7957 44.7039 32.8632 44.8263 32.9989C44.9623 33.121 45.0301 33.2772 45.0298 33.4678L45.0258 35.4478C45.4362 34.6708 45.9008 34.0705 46.4195 33.647C46.9383 33.2098 47.4429 32.9904 47.9336 32.9888C48.6423 32.9865 49.2005 33.2365 49.6084 33.7387C50.0162 34.2408 50.2192 34.9887 50.2172 35.9821L50.214 37.5539C50.2122 38.4657 50.3471 39.1866 50.6186 39.7164C50.9037 40.2462 51.4279 40.5099 52.1911 40.5074C52.3683 40.5068 52.5112 40.5676 52.62 40.6897C52.7424 40.7982 52.8035 40.9409 52.8031 41.1178C52.8028 41.2947 52.7412 41.4446 52.6183 41.5675C52.509 41.6767 52.3658 41.7316 52.1886 41.7322C51.4118 41.7347 50.7852 41.5735 50.3089 41.2484C49.8462 40.9233 49.5063 40.4889 49.2893 39.9453C49.0724 39.388 48.9442 38.776 48.9046 38.1093C48.8911 38.0686 48.8843 38.021 48.8844 37.9665L48.8884 35.9864C48.8897 35.306 48.8021 34.8436 48.6254 34.5992C48.4624 34.3412 48.231 34.2126 47.9311 34.2136C47.7676 34.2141 47.5288 34.3442 47.2149 34.6038C46.9009 34.8498 46.573 35.2455 46.2312 35.7909C45.9031 36.3228 45.6155 37.0041 45.3686 37.8351C45.1352 38.666 45.0174 39.6666 45.0151 40.8369L44.9996 48.594C44.9992 48.7709 44.9308 48.9208 44.7943 49.0437C44.6713 49.1802 44.5145 49.2488 44.3237 49.2494C44.1465 49.25 43.9899 49.1824 43.8539 49.0468C43.7315 48.9247 43.6705 48.7752 43.6708 48.5983L43.6873 40.3513C43.3593 40.7879 42.9361 41.1363 42.4177 41.3965C41.913 41.6431 41.2858 41.7677 40.5363 41.7701Z" fill="black"/>
<path d="M32.0755 41.751C31.8983 41.7516 31.7552 41.6977 31.6463 41.5893C31.5238 41.4673 31.4628 41.3179 31.4631 41.1412C31.4635 40.9644 31.5252 40.8215 31.6481 40.7123C31.7575 40.5896 31.9008 40.528 32.0781 40.5274C33.1827 40.5239 34.0493 40.222 34.6779 39.6218C35.3201 39.0216 35.7855 38.1975 36.074 37.1497C36.3762 36.1019 36.5492 34.9185 36.5928 33.5996C36.6068 33.4228 36.6753 33.273 36.7983 33.1503C36.9213 33.0275 37.0714 32.9659 37.2487 32.9653C37.6033 32.9642 37.8143 33.1267 37.8819 33.4527C37.909 33.5342 37.9224 33.609 37.9223 33.6769L37.9155 36.94C37.9133 38.0412 38.0956 38.9108 38.4624 39.5486C38.8293 40.1865 39.5106 40.5038 40.5061 40.5006C40.6834 40.5001 40.8264 40.5608 40.9353 40.6828C41.0578 40.7912 41.1189 40.9337 41.1185 41.1105C41.1181 41.2872 41.0565 41.437 40.9335 41.5597C40.8241 41.6688 40.6808 41.7237 40.5036 41.7243C39.4125 41.7277 38.5744 41.4653 37.9891 40.9369C37.4038 40.4085 37.0029 39.7232 36.7864 38.8809C36.3619 39.7388 35.7672 40.4341 35.0024 40.9668C34.2376 41.4858 33.262 41.7473 32.0755 41.751Z" fill="black"/>
<path d="M23.0491 41.7513C22.8718 41.7518 22.7286 41.6979 22.6198 41.5895C22.4973 41.4676 22.4362 41.3183 22.4366 41.1416C22.4369 40.965 22.4986 40.8221 22.6216 40.713C22.731 40.5903 22.8743 40.5287 23.0516 40.5281C23.7064 40.5261 24.3546 40.3949 24.9962 40.1347C25.6515 39.8608 26.2115 39.4785 26.6763 38.9878C27.1548 38.497 27.4492 37.9185 27.5597 37.2523L27.5599 37.1911C27.5617 36.3213 27.7201 35.5802 28.0351 34.9676C28.3502 34.3415 28.774 33.8577 29.3067 33.5162C29.8394 33.1748 30.4399 33.003 31.1083 33.0009C31.422 32.9999 31.7492 33.0601 32.09 33.1813C32.4444 33.2889 32.7714 33.4713 33.0709 33.7286C33.207 33.8641 33.2749 34.0202 33.2745 34.1968C33.2742 34.3735 33.2125 34.5232 33.0894 34.6459C32.9664 34.7686 32.8163 34.8302 32.6389 34.8308C32.4616 34.8313 32.3185 34.7774 32.2096 34.6691C32.0326 34.5201 31.8419 34.412 31.6374 34.3447C31.4466 34.2637 31.2694 34.2235 31.1057 34.2241C30.4919 34.226 29.9662 34.4791 29.5287 34.9833C29.1048 35.4875 28.8918 36.222 28.8898 37.1869C28.8886 37.7305 28.9967 38.2602 29.2138 38.776C29.431 39.2781 29.7711 39.6915 30.2342 40.0162C30.6973 40.3409 31.3039 40.5021 32.0541 40.4998C32.2315 40.4992 32.3745 40.5599 32.4834 40.6819C32.6059 40.7902 32.667 40.9327 32.6667 41.1094C32.6663 41.2861 32.6046 41.4357 32.4816 41.5584C32.3722 41.6675 32.2289 41.7223 32.0516 41.7229C31.0286 41.7261 30.1833 41.5045 29.5159 41.0582C28.8622 40.5982 28.3723 40.0357 28.0463 39.3708C27.6633 39.8884 27.1986 40.3248 26.6523 40.6799C26.106 41.0213 25.5189 41.2882 24.8911 41.4804C24.2769 41.6591 23.6629 41.7493 23.0491 41.7513Z" fill="black"/>
<path d="M16.1439 41.7512C15.9666 41.7518 15.8236 41.6979 15.7147 41.5894C15.5923 41.4674 15.5312 41.3179 15.5316 41.1411C15.532 40.9643 15.5936 40.8212 15.7165 40.712C16.2204 40.6897 16.1047 40.695 16.5034 40.6221C16.9021 40.5493 18.0487 40.2624 18.9496 39.7426C18.6234 39.2268 18.4064 38.6697 18.2986 38.0716C18.2044 37.4733 18.1714 36.9021 18.1998 36.3579C18.242 35.7457 18.3726 35.1875 18.5918 34.6835C18.8246 34.1659 19.139 33.7568 19.535 33.4562C19.931 33.1421 20.388 32.9842 20.9061 32.9825C21.6559 32.9801 22.2348 33.2367 22.6427 33.7523C23.0507 34.2543 23.2539 34.8862 23.2524 35.6479C23.251 36.3281 23.0655 37.0564 22.6958 37.833C22.3261 38.6095 21.7452 39.3323 20.9531 40.0014C21.2118 40.1638 21.5115 40.2921 21.8521 40.3862C22.2064 40.4667 22.6017 40.5062 23.038 40.5048C23.2152 40.5043 23.3583 40.565 23.4671 40.6871C23.5896 40.7955 23.6506 40.9381 23.6503 41.115C23.6499 41.2918 23.5882 41.4416 23.4653 41.5645C23.356 41.6736 23.2127 41.7285 23.0355 41.7291C22.2993 41.7315 21.6587 41.6383 21.1138 41.4496C20.5825 41.2609 20.1263 41.0107 19.7452 40.6991C19.2265 41.0136 18.6534 41.2671 18.0258 41.4595C17.3983 41.652 16.771 41.7492 16.1439 41.7512ZM19.5084 36.4353C19.4802 36.8979 19.5065 37.3671 19.5874 37.843C19.6682 38.3052 19.831 38.7264 20.0756 39.1065C20.7311 38.5602 21.2027 37.9738 21.4902 37.3471C21.7778 36.7205 21.9221 36.1623 21.9231 35.6726C21.924 35.2373 21.8293 34.884 21.6389 34.6125C21.4623 34.341 21.2171 34.2058 20.9036 34.2068C20.5764 34.2078 20.2692 34.4129 19.9821 34.8219C19.7086 35.2172 19.5507 35.7551 19.5084 36.4353Z" fill="black"/>
<path d="M7.22865 41.7509C7.03796 41.7515 6.87464 41.684 6.7387 41.5483C6.61638 41.4125 6.55539 41.2561 6.55573 41.0791L6.89179 25.8219L11.2027 25.8076C12.0064 25.805 12.728 25.9183 13.3677 26.1477C14.0075 26.377 14.5107 26.7362 14.8775 27.2251C15.258 27.714 15.4474 28.3397 15.446 29.1022C15.4432 30.5182 14.9438 31.6908 13.9477 32.6199C12.9652 33.549 9.61287 34.4111 9.61287 34.4111C8.60735 34.8021 14.1754 41.2988 16.2613 40.6386C16.4423 40.5813 16.4446 40.9103 16.4443 41.0873C16.4439 41.2643 16.2595 41.5373 16.2595 41.5373C16.2595 41.5373 16.2126 41.7212 16.0355 41.7218C15.8585 41.7224 15.423 41.7435 15.0572 41.6288C11.2504 40.4352 8.38439 35.7635 8.03917 34.6818C7.69394 33.6 7.88371 41.0952 7.88371 41.0952C7.88337 41.2722 7.81496 41.429 7.67849 41.5656C7.55566 41.6885 7.40572 41.7503 7.22865 41.7509ZM11.2004 27.033L8.197 27.0429L8.06221 33.3337C10.1191 33.2589 11.6386 32.8454 12.6207 32.0933C13.6165 31.3276 14.1156 30.332 14.118 29.1066C14.1194 28.385 13.8616 27.8616 13.3446 27.5365C12.8413 27.1978 12.1266 27.03 11.2004 27.033Z" fill="black"/>
<path d="M34.3552 30.8916C34.3857 31.0199 34.4004 31.1715 34.3971 31.2744C34.4045 31.3601 34.4133 31.3884 34.4329 31.3983C34.542 31.3827 34.661 31.3488 34.8536 31.3409C34.9874 31.3121 35.1243 31.2836 35.2743 31.279C35.501 31.2719 35.6437 31.2667 35.8074 31.23C35.9364 31.201 36.0949 31.1908 36.2575 31.1642C36.4016 31.1407 36.5618 31.1494 36.7319 31.1181C36.8854 31.09 37.0228 31.0708 37.177 31.0522C37.3612 31.0299 37.5967 31.0224 37.7644 31.0098C37.9834 30.9933 38.2781 30.9989 38.519 30.9774C38.7124 30.9601 38.9311 30.9707 39.1012 30.9395C39.2547 30.9113 39.4068 31.0023 39.7739 30.8473C39.848 30.816 39.8536 30.7504 39.8467 30.6986C39.8347 30.609 39.786 30.5181 39.7724 30.3994C39.7493 30.1987 39.7593 29.9157 39.7302 29.7092C39.7102 29.567 39.6946 29.4349 39.6588 29.3204C39.6229 29.2059 39.5719 29.0952 39.5514 28.9773C39.5265 28.8343 39.5363 28.6613 39.5017 28.5276C39.4709 28.4086 39.4461 28.2581 39.4364 28.1006C39.4332 28.048 39.4317 27.949 39.5773 27.9406C39.9917 27.9165 40.2938 27.9086 40.3641 27.9048C40.5318 27.8959 40.8765 27.9334 41.1186 27.8676C41.2429 27.8338 41.364 27.806 41.4864 27.7614C41.6411 27.7051 41.791 27.689 41.8998 27.6095C42.0621 27.4911 42.3072 27.2755 42.4166 27.1449C42.509 27.0345 42.6411 26.9132 42.7234 26.7868C42.7957 26.6758 42.8581 26.5648 42.9111 26.4533C42.9641 26.3416 43.0386 26.2274 43.1039 26.1199C43.1714 26.0087 43.2823 25.9175 43.3113 25.7869C43.3513 25.6075 43.3551 25.3572 43.2984 25.2488C43.238 25.1335 43.2078 25.0178 43.1665 24.905C43.121 24.7806 43.0559 24.6401 42.9475 24.5064C42.8572 24.3952 42.7446 24.2935 42.6261 24.2322C42.4998 24.1669 42.3635 24.0765 41.7724 24.1014C41.4562 24.1148 41.1646 24.1455 40.9935 24.1518C40.7864 24.1595 40.6441 24.1695 40.5047 24.2022C40.3806 24.2314 40.193 24.2651 40.0272 24.3522C39.9403 24.3979 39.8524 24.4525 39.7586 24.5149C39.7457 24.5326 39.733 24.5503 39.7208 24.568C39.6428 24.6816 39.5563 24.789 39.474 24.8997C39.3916 25.0104 39.3095 25.1207 39.2516 25.2322C39.2213 25.2905 39.1645 25.3427 39.1144 25.3696C39.0971 25.3789 39.0857 25.341 39.0864 25.3126C39.0895 25.1959 39.1822 25.0708 39.2601 24.9503C39.3284 24.8445 39.4188 24.7478 39.5949 24.6263C39.6519 24.5869 39.7062 24.5497 39.7586 24.5149C39.8335 24.4121 39.9171 24.3075 39.9643 24.1843C40.0126 24.0582 40.1941 23.9063 40.1119 23.2447C40.0843 23.0231 40.0448 22.8919 39.989 22.7655C39.9383 22.6505 39.8783 22.54 39.7923 22.4432C39.7017 22.3412 39.5952 22.2476 39.4703 22.1878C39.3537 22.132 39.24 22.0652 39.1157 22.0302C38.9642 21.9876 38.8273 21.9481 38.6864 21.9033C38.5545 21.8613 38.4175 21.7654 37.9307 21.7991C37.6986 21.8151 37.4947 21.7796 37.28 21.8348C37.0657 21.8899 36.8425 21.964 36.7128 22.0196C36.5081 22.1075 36.3726 22.1642 36.243 22.2451L36.2334 22.2511C36.0699 22.3531 35.8954 22.4621 35.7131 22.6482C35.5607 22.8038 35.4669 22.9265 35.3745 23.09C35.3012 23.22 35.2158 23.3669 35.1488 23.5356C35.1006 23.6567 34.9843 24.2176 35.0831 24.5333C35.1189 24.6478 35.2912 24.9214 35.1448 24.9029C35.0415 24.8898 34.9251 24.8482 34.8089 24.7785C34.6927 24.7088 34.5771 24.6648 34.4591 24.6259C34.3321 24.584 34.1825 24.5149 34.0495 24.4995C33.7114 24.4605 33.1606 24.4388 33.0212 24.4715C32.897 24.5006 32.7782 24.5347 32.6578 24.5968C32.5375 24.6589 32.4143 24.7068 32.2719 24.8062C32.1357 24.9013 32.0141 25.0289 31.9317 25.1396C31.8493 25.2503 31.8203 25.4041 31.7717 25.5307C31.7287 25.6427 31.6395 25.737 31.5864 25.9352C31.5142 26.2046 31.5449 26.5948 31.5521 26.7219C31.5616 26.8921 31.6138 27.018 31.6572 27.1401C31.6979 27.2547 31.7107 27.3788 31.7744 27.4835C31.8448 27.5991 31.8722 27.7414 32.0191 27.8497C32.1395 27.9385 32.2569 28.0139 32.3715 28.0731C32.4978 28.1385 32.6316 28.1872 32.7559 28.2222C32.9074 28.2648 33.0451 28.3166 33.19 28.354C33.3366 28.3918 33.8112 28.2358 33.9459 28.4208C33.9741 28.4595 33.9491 28.5867 33.98 28.7384C34.01 28.8854 34.0387 29.0166 34.0456 29.1555C34.0547 29.3396 34.038 29.5535 34.0915 29.7322C34.1272 29.8514 34.157 29.9669 34.1979 30.1035C34.2336 30.2227 34.2451 30.3403 34.2797 30.474C34.3105 30.593 34.3123 30.7114 34.3552 30.8916Z" fill="white"/>
<path d="M39.7586 24.5149C39.8524 24.4525 39.9403 24.3979 40.0272 24.3522C40.193 24.2651 40.3806 24.2314 40.5047 24.2022C40.6441 24.1695 40.7864 24.1595 40.9935 24.1518C41.1646 24.1455 41.4562 24.1148 41.7724 24.1014C42.3635 24.0765 42.4998 24.1669 42.6261 24.2322C42.7446 24.2935 42.8572 24.3952 42.9475 24.5064C43.0559 24.6401 43.121 24.7806 43.1665 24.905C43.2078 25.0178 43.238 25.1335 43.2984 25.2488C43.3551 25.3572 43.3513 25.6075 43.3113 25.7869C43.2823 25.9175 43.1714 26.0087 43.1039 26.1199C43.0386 26.2274 42.9641 26.3416 42.9111 26.4533C42.8581 26.5648 42.7957 26.6758 42.7234 26.7868C42.6411 26.9132 42.509 27.0345 42.4166 27.1449C42.3072 27.2755 42.0621 27.4911 41.8998 27.6095C41.791 27.689 41.6411 27.7051 41.4864 27.7614C41.364 27.806 41.2429 27.8338 41.1186 27.8676C40.8765 27.9334 40.5318 27.8959 40.3641 27.9048C40.2938 27.9086 39.9917 27.9165 39.5773 27.9406C39.4317 27.949 39.4332 28.048 39.4364 28.1006C39.4461 28.2581 39.4709 28.4086 39.5017 28.5276C39.5363 28.6613 39.5265 28.8343 39.5514 28.9773C39.5719 29.0952 39.6229 29.2059 39.6588 29.3204C39.6946 29.4349 39.7102 29.567 39.7302 29.7092C39.7593 29.9157 39.7493 30.1987 39.7724 30.3994C39.786 30.5181 39.8347 30.609 39.8467 30.6986C39.8536 30.7504 39.848 30.816 39.7739 30.8473C39.4068 31.0023 39.2547 30.9113 39.1012 30.9395C38.9311 30.9707 38.7124 30.9601 38.519 30.9774C38.2781 30.9989 37.9834 30.9933 37.7644 31.0098C37.5967 31.0224 37.3612 31.0299 37.177 31.0522C37.0228 31.0708 36.8854 31.09 36.7319 31.1181C36.5618 31.1494 36.4016 31.1407 36.2575 31.1642C36.0949 31.1908 35.9364 31.201 35.8074 31.23C35.6437 31.2667 35.501 31.2719 35.2743 31.279C35.1243 31.2836 34.9874 31.3121 34.8536 31.3409C34.661 31.3488 34.542 31.3827 34.4329 31.3983C34.4133 31.3884 34.4045 31.3601 34.3971 31.2744C34.4004 31.1715 34.3857 31.0199 34.3552 30.8916C34.3123 30.7114 34.3105 30.593 34.2797 30.474C34.2451 30.3403 34.2336 30.2227 34.1979 30.1035C34.157 29.9669 34.1272 29.8514 34.0915 29.7322C34.038 29.5535 34.0547 29.3396 34.0456 29.1555C34.0387 29.0166 34.01 28.8854 33.98 28.7384C33.9491 28.5867 33.9741 28.4595 33.9459 28.4208C33.8112 28.2358 33.3366 28.3918 33.19 28.354C33.0451 28.3166 32.9074 28.2648 32.7559 28.2222C32.6316 28.1872 32.4978 28.1385 32.3715 28.0731C32.2569 28.0139 32.1395 27.9385 32.0191 27.8497C31.8722 27.7414 31.8448 27.5991 31.7744 27.4835C31.7107 27.3788 31.6979 27.2547 31.6572 27.1401C31.6138 27.018 31.5616 26.8921 31.5521 26.7219C31.5449 26.5948 31.5142 26.2046 31.5864 25.9352C31.6395 25.737 31.7287 25.6427 31.7717 25.5307C31.8203 25.4041 31.8493 25.2503 31.9317 25.1396C32.0141 25.0289 32.1357 24.9013 32.2719 24.8062C32.4143 24.7068 32.5375 24.6589 32.6578 24.5968C32.7782 24.5347 32.897 24.5006 33.0212 24.4715C33.1606 24.4388 33.7114 24.4605 34.0495 24.4995C34.1825 24.5149 34.3321 24.584 34.4591 24.6259C34.5771 24.6648 34.6927 24.7088 34.8089 24.7785C34.9251 24.8482 35.0415 24.8898 35.1448 24.9029C35.2912 24.9214 35.1189 24.6478 35.0831 24.5333C34.9843 24.2176 35.1006 23.6567 35.1488 23.5356C35.2158 23.3669 35.3012 23.22 35.3745 23.09C35.4669 22.9265 35.5607 22.8038 35.7131 22.6482C35.8954 22.4621 36.0699 22.3531 36.2334 22.2511C36.2366 22.2491 36.2398 22.2471 36.243 22.2451C36.3726 22.1642 36.5081 22.1075 36.7128 22.0196C36.8425 21.964 37.0657 21.8899 37.28 21.8348C37.4947 21.7796 37.6986 21.8151 37.9307 21.7991C38.4175 21.7654 38.5545 21.8613 38.6864 21.9033C38.8273 21.9481 38.9642 21.9876 39.1157 22.0302C39.24 22.0652 39.3537 22.132 39.4703 22.1878C39.5952 22.2476 39.7017 22.3412 39.7923 22.4432C39.8783 22.54 39.9383 22.6505 39.989 22.7655C40.0448 22.8919 40.0843 23.0231 40.1119 23.2447C40.1941 23.9063 40.0126 24.0582 39.9643 24.1843C39.9171 24.3075 39.8335 24.4121 39.7586 24.5149ZM36.243 22.2451L36.2334 22.2511M39.7586 24.5149C39.7457 24.5326 39.733 24.5503 39.7208 24.568C39.6428 24.6816 39.5563 24.789 39.474 24.8997C39.3916 25.0104 39.3095 25.1207 39.2516 25.2322C39.2213 25.2905 39.1645 25.3427 39.1144 25.3696C39.0971 25.3789 39.0857 25.341 39.0864 25.3126C39.0895 25.1959 39.1822 25.0708 39.2601 24.9503C39.3284 24.8445 39.4188 24.7478 39.5949 24.6263C39.6519 24.5869 39.7062 24.5497 39.7586 24.5149Z" stroke="#2C2C2C" stroke-width="0.2" stroke-linecap="round"/>
<path d="M35.8579 30.0497C35.8537 29.9999 35.8331 29.9221 35.8267 29.8471C35.8197 29.7647 35.7885 29.6883 35.782 29.616C35.7759 29.5484 35.7606 29.4717 35.7437 29.3661C35.7155 29.1907 35.7204 29.0997 35.7199 28.8376C35.7198 28.7787 35.7139 28.7566 35.7162 28.5893C35.7185 28.422 35.7284 28.1102 35.7366 27.9414C35.7581 27.7178 35.772 27.6409 35.7945 27.5725C35.798 27.5532 35.7987 27.5313 35.8341 27.5098" stroke="#2C2C2C" stroke-width="0.2" stroke-linecap="round"/>
<path d="M37.9449 29.7506C37.95 29.5918 37.949 29.2588 37.9292 29.1531C37.9084 29.0419 37.8897 28.9416 37.8843 28.8363C37.8783 28.7187 37.8659 28.4118 37.8886 28.2389C37.8984 28.1643 37.9398 28.0803 37.9686 27.9926C37.9969 27.9063 38.0342 27.8344 38.0627 27.7578C38.1155 27.6379 38.1894 27.4856 38.2302 27.3897C38.2395 27.3705 38.2515 27.3545 38.2811 27.3385" stroke="#2C2C2C" stroke-width="0.2" stroke-linecap="round"/>
</svg>
