<svg width="23" height="25" viewBox="0 0 23 25" fill="none" xmlns="http://www.w3.org/2000/svg">
<path fill-rule="evenodd" clip-rule="evenodd" d="M19.416 0C21.0727 0.000195831 22.4159 1.34333 22.416 3V21.9678C22.4159 23.6244 21.0726 24.9676 19.416 24.9678H3C1.34322 24.9677 8.76188e-05 23.6245 0 21.9678V3C8.00788e-05 1.34323 1.34322 2.67923e-05 3 0H19.416ZM8.10449 4.57812C6.86191 4.57819 5.8545 5.58553 5.85449 6.82812V13.0879L6.28125 12.6611L8.67969 10.2607L11.0586 12.0459L11.458 12.3457V6.82812C11.458 5.58562 10.4505 4.57833 9.20801 4.57812H8.10449Z" fill="#9ABC04"/>
</svg>

