<svg width="205" height="288" viewBox="0 0 205 288" fill="none" xmlns="http://www.w3.org/2000/svg">
<path d="M83.0959 92.5051C82.9851 91.7259 82.5386 90.1608 82.035 88.8157C81.3391 86.9566 79.4098 84.4579 78.4547 82.7148C77.6194 81.1904 76.9456 79.5275 75.6599 77.6786C74.1556 75.5156 70.923 72.2663 68.108 69.6735C66.3552 68.059 64.9741 66.0932 62.6309 64.3015C57.9671 60.7353 55.6883 60.827 49.9946 58.8706C47.3462 57.9606 44.395 57.9118 40.4856 57.633C29.0783 56.8196 27.71 58.1334 26.0315 58.303C24.3134 58.4766 23.0101 59.141 21.4994 59.534C19.271 60.1136 17.6387 60.1486 16.5157 60.7078C15.3968 61.265 17.1821 63.2788 17.5749 64.9581C17.9851 66.712 18.1892 68.3166 18.6374 69.9405C19.039 71.3956 20.0894 72.6828 21.2644 73.4704C22.4826 74.2869 23.8896 75.3696 25.6823 76.3806C27.3426 77.3168 28.9253 78.3923 30.384 79.0691C31.7983 79.7252 33.4037 80.5217 34.7483 81.4184C36.0439 82.2826 37.6538 82.8727 39.1125 83.4352C40.4349 83.9452 41.7965 84.3303 43.1411 84.7787L47.1696 86.1221L51.1982 87.4655C52.5427 87.9139 53.8822 88.3606 55.4483 88.7535C57.9528 89.3819 59.8109 89.3681 63.22 89.5378C63.9569 89.5932 64.2893 89.704 67.2855 89.7611C70.2818 89.8182 77.2746 92.1692 83.0959 92.5051Z" fill="#5B8339"/>
<path d="M43.1411 84.7787C41.7965 84.3303 40.4349 83.9452 39.1125 83.4352C37.6538 82.8727 36.0439 82.2826 34.7483 81.4184C33.4037 80.5217 31.7983 79.7252 30.384 79.0691C28.9253 78.3923 27.3426 77.3168 25.6823 76.3806C23.8896 75.3696 22.4826 74.2869 21.2644 73.4703C20.0894 72.6828 19.039 71.3956 18.6374 69.9405C18.1892 68.3166 17.9851 66.712 17.5749 64.9581C17.1821 63.2788 15.3968 61.265 16.5157 60.7078C17.6387 60.1486 19.271 60.1136 21.4994 59.534C23.0101 59.141 24.3134 58.4766 26.0315 58.303C27.71 58.1334 29.0783 56.8196 40.4856 57.633C44.395 57.9118 47.3462 57.9606 49.9946 58.8706C55.6883 60.827 57.9671 60.7353 62.6309 64.3015C64.9741 66.0932 66.3552 68.059 68.108 69.6735C70.923 72.2663 74.1556 75.5156 75.6599 77.6786C76.9456 79.5275 77.6194 81.1904 78.4547 82.7148C79.4098 84.4579 81.3391 86.9566 82.0351 88.8157C82.5386 90.1608 82.9851 91.7259 83.0959 92.5051C77.2746 92.1692 70.2818 89.8182 67.2855 89.7611C64.2893 89.704 63.9569 89.5932 63.22 89.5378C59.8109 89.3681 57.9528 89.3819 55.4483 88.7535C53.8822 88.3606 52.5427 87.9139 51.1982 87.4655M43.1411 84.7787C44.4856 85.227 45.8251 85.6737 47.1696 86.1221M43.1411 84.7787L47.1696 86.1221M47.1696 86.1221C48.5141 86.5705 49.8536 87.0171 51.1982 87.4655M47.1696 86.1221L51.1982 87.4655" stroke="#474646" stroke-width="0.703385" stroke-linecap="round"/>
<path d="M81.417 90.154C79.7519 90.154 76.388 89.9323 74.2076 89.7627C71.7965 89.5751 68.0019 89.2606 65.37 88.8676C63.4433 88.58 61.9491 88.6997 58.6759 88.5318C50.2067 88.0973 43.9347 88.5855 42.7077 88.8089C40.0397 89.2945 38.4525 89.3681 35.8843 89.6485C32.2201 90.0486 27.8507 91.5981 24.9669 92.782C23.3593 93.442 21.781 94.2917 20.267 95.1885C17.379 96.8989 13.6098 99.8871 11.6543 101.565C8.4339 104.327 7.56696 105.933 6.50107 107.556C5.05991 109.752 3.31012 112.314 2.52791 114.216C1.84042 115.889 0.960137 117.352 0.51196 119.031C0.392343 119.479 0.288711 119.924 0.397818 120.208C0.868363 121.432 2.73941 122.611 4.19808 124.015C5.38592 125.158 7.10368 125.862 8.56235 126.759C9.97138 127.625 11.5821 127.992 12.982 128.44C14.7186 128.996 16.5036 129.671 19.243 130.398C21.8186 131.082 23.6677 131.014 32.0337 131.073C35.3451 131.096 37.0962 129.899 38.9981 129.451C40.4833 129.101 42.4609 128.113 44.4802 127.214C48.0955 125.606 51.74 122.86 54.5516 121.058C56.7239 119.666 58.2461 118.258 60.2587 116.693C62.8268 114.696 64.9604 112.549 66.4694 110.875C69.788 107.193 71.0032 105.724 72.3477 103.931C73.617 102.238 74.1388 100.572 75.0351 99.2271C75.9315 97.882 76.6029 96.542 77.3851 95.1969L78.728 93.1817C78.9529 92.8442 80.853 90.8324 81.417 90.154Z" fill="#5B8339"/>
<path d="M78.728 93.1817L77.3851 95.1969C76.6029 96.542 75.9315 97.882 75.0351 99.2271C74.1388 100.572 73.617 102.238 72.3477 103.931C71.0032 105.724 69.788 107.193 66.4694 110.875C64.9604 112.549 62.8268 114.696 60.2587 116.693C58.2461 118.258 56.7239 119.666 54.5516 121.058C51.74 122.86 48.0955 125.606 44.4802 127.214C42.4609 128.113 40.4833 129.101 38.9981 129.451C37.0962 129.899 35.3451 131.096 32.0337 131.073C23.6677 131.014 21.8186 131.082 19.243 130.398C16.5036 129.671 14.7186 128.996 12.982 128.44C11.5821 127.992 9.97138 127.625 8.56235 126.759C7.10368 125.862 5.38592 125.158 4.19808 124.015C2.73941 122.611 0.868363 121.432 0.397818 120.208C0.288711 119.924 0.392343 119.479 0.51196 119.031C0.960137 117.352 1.84042 115.889 2.52791 114.216C3.31012 112.314 5.05991 109.752 6.50107 107.556C7.56696 105.933 8.4339 104.327 11.6543 101.565C13.6098 99.8871 17.379 96.8989 20.267 95.1885C21.781 94.2917 23.3593 93.442 24.9669 92.782C27.8507 91.5981 32.2201 90.0486 35.8843 89.6485C38.4525 89.3681 40.0397 89.2945 42.7077 88.8089C43.9347 88.5855 50.2067 88.0973 58.6759 88.5318C61.9491 88.6997 63.4433 88.58 65.37 88.8676C68.0019 89.2606 71.7965 89.5751 74.2076 89.7627C76.388 89.9323 79.7519 90.154 81.417 90.154C80.853 90.8324 78.9529 92.8442 78.728 93.1817ZM77.3851 95.1969C77.8316 94.5268 78.2815 93.8517 78.728 93.1817" stroke="#474646" stroke-width="0.703385" stroke-linecap="round"/>
<path d="M132.781 100.23C132.892 99.5613 133.782 97.3346 135.069 94.9785C137.437 90.645 138.482 88.8173 141.441 84.7416C143.965 81.2661 146.311 79.7491 147.605 78.5148C148.696 77.4743 152.226 75.5039 154.653 74.3149C155.481 73.9092 156.61 73.3645 158.171 72.6944C160.113 71.8609 164.973 70.4627 170.9 68.56C175.406 67.1136 178.425 67.094 180.501 66.9244C185.336 66.5295 192.753 66.8656 194.49 67.0352C196.045 67.187 197.567 67.8732 199.469 68.0428C200.973 68.177 202.267 69.1024 203.835 69.4971C204.201 69.5892 204.396 69.9958 204.344 70.3334C204.093 71.9602 202.945 73.2402 202.556 74.6995C202.161 76.1776 201.159 77.3847 200.542 78.7298C199.903 80.12 199.145 81.415 198.193 82.8155C197.065 84.4753 195.902 86.2244 194.279 88.6342C193.125 90.347 191.538 91.7123 189.748 93.3379C187.487 95.3926 185.723 96.7502 183.872 97.9307C182.197 98.9987 180.352 100.78 178.724 101.682C176.997 102.638 175.538 103.696 174.079 104.537C172.835 105.255 171.395 105.711 169.995 106.273C168.332 106.942 166.252 107.168 164.4 107.338C162.845 107.481 160.88 108.176 158.75 108.346C157.952 108.409 153.193 108.626 146.201 108.571C142.166 108.539 140.624 107.733 138.886 107.284C137.461 106.917 136.145 106.389 134.522 106.22C133.12 105.718 132.113 105.046 131.444 104.599C131.106 104.374 133.795 101.13 132.781 100.23Z" fill="#5B8339" stroke="#474646" stroke-width="0.703385" stroke-linecap="round"/>
<path d="M141.174 99.558C141.617 98.8897 144.511 96.2196 146.651 94.6361C147.728 93.8395 152.323 90.4059 159.697 85.7644C164.981 82.4384 168.692 81.8718 171.477 81.5359C175.813 81.4218 178.771 81.5326 179.496 81.9222C179.889 82.2009 180.332 82.6443 180.788 83.101" stroke="#474646" stroke-width="0.703385" stroke-linecap="round"/>
<path d="M68.3243 82.7651C67.7671 82.0967 67.0956 80.7567 66.3134 79.4116C65.5126 78.0344 62.8589 76.8406 60.8883 76.0496C58.7404 75.1875 56.0238 74.147 54.5098 73.6986C52.8936 73.22 51.3239 72.8036 49.5865 72.634C48.8597 72.4677 48.1849 72.2427 47.0721 72.0748C46.2915 72.0177 45.0729 72.0177 43.8173 72.0177" stroke="#474646" stroke-width="0.703385" stroke-linecap="round"/>
<path d="M67.3174 95.1919C64.1013 95.1919 57.3669 95.4135 55.6296 95.8619C54.2047 96.2296 52.2237 96.9786 49.1436 98.4883C47.3366 99.374 45.9526 100.559 44.2153 101.849C42.6773 102.99 41.3601 104.589 39.9064 106.213C38.896 107.615 38.003 108.955 37.1066 110.3C36.8817 110.638 36.6601 110.97 36.4318 111.313" stroke="#474646" stroke-width="0.703385" stroke-linecap="round"/>
<path d="M151.119 114.592C120.544 84.8649 72.52 84.8649 41.9447 114.592C10.4833 145.18 10.4833 196.391 41.9447 226.979C72.52 256.706 120.544 256.706 151.119 226.979C182.581 196.391 182.581 145.18 151.119 114.592Z" fill="#5273BA" stroke="#474646" stroke-width="1.15512"/>
<path d="M118.428 245.986C116.773 246.278 100.975 250.497 99.1764 251.535C97.566 252.464 94.9674 253.711 91.3765 256.172C88.6565 258.036 86.1062 260.879 83.9858 262.719C81.9441 264.492 80.8908 266.797 79.8338 268.488C78.807 270.13 78.916 276.186 80.3148 280.025C81.4413 283.117 84.393 283.683 87.8341 285.585C89.7524 286.645 91.5664 286.925 96.4084 286.999C98.9312 287.037 100.85 285.946 102.539 284.962C104.871 283.605 107.457 280.466 109.01 278.562C110.744 276.436 111.685 274.835 112.949 273.075C114.239 271.278 114.918 269.068 115.624 267.234C116.265 265.571 116.749 263.859 117.243 262.099C117.797 260.121 118.015 258.093 118.509 255.839C118.72 253.584 119.49 248.842 118.509 245.974C118.505 245.977 118.502 245.979 118.5 245.982C118.462 246.013 118.439 246.005 118.428 245.986Z" fill="#5273BA"/>
<path d="M118.428 245.986C118.461 245.981 118.487 245.976 118.509 245.974C119.49 248.842 118.72 253.584 118.509 255.839C118.015 258.093 117.797 260.121 117.243 262.099C116.749 263.859 116.265 265.571 115.624 267.234C114.918 269.068 114.239 271.278 112.949 273.075C111.685 274.835 110.744 276.436 109.01 278.562C107.457 280.466 104.871 283.605 102.539 284.962C100.85 285.946 98.9312 287.037 96.4084 286.999C91.5664 286.925 89.7524 286.645 87.8341 285.585C84.393 283.683 81.4413 283.117 80.3148 280.025C78.916 276.186 78.807 270.13 79.8338 268.488C80.8908 266.797 81.9441 264.492 83.9858 262.719C86.1062 260.879 88.6565 258.036 91.3765 256.172C94.9674 253.711 97.566 252.464 99.1764 251.535C100.975 250.497 116.773 246.278 118.428 245.986ZM118.509 245.974C118.505 245.977 118.502 245.979 118.5 245.982C118.462 246.013 118.439 246.005 118.428 245.986M118.557 246.123C118.456 245.819 118.401 245.938 118.428 245.986" stroke="#474646" stroke-width="1.15512" stroke-linecap="round"/>
<path d="M73.6772 245.277C71.0273 245.277 56.9391 236.395 51.6773 238.08C48.2947 239.162 40.526 243.301 38.1356 244.428C36.2519 245.317 34.6185 246.256 32.859 247.033C30.6945 247.989 28.5761 249.912 23.4471 254.826C20.9402 257.228 20.1284 259.478 19.4216 261.382C18.3129 264.368 19.2761 268.486 20.6791 270.458C21.9052 272.181 24.0526 272.573 25.8818 273.206C28.3046 274.045 36.087 274.405 41.7033 273.565C44.2015 273.191 45.9946 271.737 48.8049 270.61C51.4959 269.53 53.5899 267.237 55.2799 265.897C57.1134 264.442 58.9319 262.315 60.6957 260.13C62.2083 258.257 63.8604 256.261 64.9871 254.501C66.2448 252.536 67.2361 250.773 67.9429 249.083C68.2235 248.24 68.6455 247.392 69.2067 246.55C69.4894 246.125 72.9683 245.707 73.6772 245.277Z" fill="#5273BA" stroke="#474646" stroke-width="1.15512" stroke-linecap="round"/>
<path d="M82.6011 91.6765C82.5174 92.9244 82.2322 94.3433 81.923 95.2723C81.7533 96.0719 81.7534 96.3526 81.898 96.493C82.893 96.6332 84.0239 96.633 85.7274 97.0589C86.9749 97.1429 88.2477 97.2379 89.5704 97.5839C91.569 98.1068 92.8293 98.4288 94.3587 98.5176C95.5642 98.5876 96.9759 98.9045 98.4688 99.0834C99.7907 99.2419 101.166 99.736 102.736 99.8917C104.153 100.032 105.405 100.214 106.803 100.443C108.472 100.717 110.549 101.258 112.048 101.577C114.005 101.994 116.563 102.808 118.725 103.235C120.461 103.578 122.342 104.241 123.912 104.397C125.329 104.537 126.41 105.76 130.038 105.298C130.77 105.205 130.998 104.622 131.079 104.133C131.219 103.285 131.042 102.331 131.247 101.214C131.593 99.3268 132.452 96.7745 132.762 94.8186C132.975 93.4707 133.199 92.227 133.199 91.0914C133.198 89.9558 133.055 88.8154 133.197 87.6888C133.37 86.3218 133.927 84.7709 133.99 83.4635C134.046 82.2999 134.24 80.8649 134.585 79.405C134.701 78.9176 134.958 78.0119 136.252 78.3117C139.936 79.1651 142.596 79.8748 143.22 80.0229C144.709 80.3756 147.616 81.6097 149.91 81.6367C151.087 81.6505 152.221 81.7103 153.411 81.6212C154.915 81.5087 156.269 81.7498 157.435 81.308C159.175 80.6489 161.904 79.3199 163.216 78.4131C164.324 77.6469 165.808 76.8832 166.871 75.9456C167.806 75.1216 168.653 74.2718 169.42 73.3929C170.188 72.5132 171.15 71.6659 172.014 70.855C172.906 70.0169 174.124 69.4729 174.734 68.3591C175.572 66.8283 176.288 64.5574 176.089 63.4239C175.876 62.2177 175.928 61.0851 175.875 59.9508C175.817 58.6995 175.633 57.2518 175.05 55.7534C174.566 54.506 173.86 53.2885 172.992 52.4239C172.068 51.5019 171.125 50.3253 165.895 49.0225C163.097 48.3254 160.467 47.8509 158.956 47.4657C157.127 46.9994 155.857 46.7224 154.55 46.6596C153.387 46.6036 151.657 46.4251 149.972 46.7896C149.088 46.9808 148.172 47.2513 147.182 47.5762C147.021 47.7044 146.862 47.8328 146.707 47.9628C145.716 48.7951 144.668 49.55 143.647 50.3451C142.625 51.1402 141.608 51.9323 140.798 52.798C140.374 53.2512 139.736 53.5794 139.226 53.6944C139.049 53.7343 139.052 53.3601 139.136 53.1032C139.482 52.0483 140.633 51.1482 141.641 50.2523C142.527 49.4653 143.579 48.8186 145.449 48.1671C146.054 47.9561 146.63 47.7577 147.182 47.5762C148.116 46.8343 149.132 46.0979 149.88 45.0977C150.646 44.0742 152.646 43.16 153.733 36.9207C154.097 34.8306 154.11 33.5337 153.968 32.2374C153.839 31.0589 153.616 29.8968 153.129 28.7924C152.616 27.6293 151.942 26.5004 151.015 25.6326C150.149 24.8225 149.338 23.9201 148.348 23.2798C147.141 22.4991 146.054 21.7851 144.946 21.0121C143.909 20.2879 142.974 19.0604 138.632 18.1069C136.561 17.6521 134.877 16.801 132.853 16.7481C130.831 16.6953 128.679 16.7928 127.395 16.9638C125.368 17.2338 124.03 17.4002 122.678 17.8016L122.577 17.8315C120.872 18.3376 119.051 18.8779 116.951 20.1018C115.196 21.1246 114.042 21.9993 112.789 23.2499C111.794 24.2436 110.647 25.3616 109.602 26.724C108.851 27.7028 106.305 32.5116 106.306 35.6423C106.307 36.7779 107.065 39.7165 105.837 39.1688C104.971 38.7823 104.068 38.1021 103.243 37.1659C102.419 36.2308 101.53 35.5304 100.605 34.8709C99.6101 34.1608 98.4928 33.1439 97.373 32.6597C94.5273 31.4293 89.7773 29.8055 88.4703 29.7427C87.307 29.6867 86.1765 29.6892 84.9554 29.9436C83.7356 30.1977 82.5298 30.3151 81.0151 30.8519C79.5659 31.3655 78.1554 32.2138 77.134 33.0089C76.1126 33.804 75.44 35.13 74.6704 36.1571C73.9896 37.0657 72.9533 37.6937 71.9483 39.3624C70.583 41.6291 69.7869 45.2628 69.5023 46.4388C69.1211 48.0143 69.2336 49.2962 69.2789 50.5207C69.3214 51.6703 69.0949 52.8331 69.3656 53.9518C69.6646 55.1868 69.516 56.5549 70.5032 57.9215C71.3123 59.0417 72.1312 60.032 72.9703 60.8686C73.895 61.7905 74.9304 62.5807 75.9203 63.221C77.1272 64.0017 78.1882 64.8295 79.3515 65.5452C80.5279 66.2689 85.0977 66.0769 85.7694 68.1106C85.9098 68.5359 85.345 69.6299 85.2007 71.0922C85.0609 72.5085 84.9541 73.778 84.635 75.0614C84.2121 76.7619 83.4826 78.6665 83.4622 80.433C83.4486 81.6107 83.3941 82.7403 83.3785 84.0908C83.3649 85.2685 83.1444 86.3702 83.0818 87.6775C83.0261 88.8412 82.7187 89.9241 82.6011 91.6765Z" fill="white"/>
<path d="M147.182 47.5762C148.172 47.2513 149.088 46.9808 149.972 46.7896C151.657 46.4251 153.387 46.6036 154.55 46.6596C155.857 46.7224 157.127 46.9994 158.956 47.4657C160.467 47.8509 163.097 48.3254 165.895 49.0225C171.125 50.3253 172.068 51.5019 172.992 52.4239C173.86 53.2885 174.566 54.506 175.05 55.7534C175.633 57.2518 175.817 58.6995 175.875 59.9508C175.928 61.0851 175.876 62.2177 176.089 63.4239C176.288 64.5574 175.572 66.8283 174.734 68.3591C174.124 69.4729 172.906 70.0169 172.014 70.855C171.15 71.6659 170.188 72.5132 169.42 73.3929C168.653 74.2718 167.806 75.1216 166.871 75.9456C165.808 76.8832 164.324 77.6469 163.216 78.4131C161.904 79.3199 159.175 80.6489 157.435 81.308C156.269 81.7498 154.915 81.5087 153.411 81.6212C152.221 81.7103 151.087 81.6506 149.909 81.6367C147.616 81.6097 144.709 80.3756 143.22 80.0229C142.596 79.8748 139.936 79.1651 136.252 78.3117C134.958 78.0119 134.701 78.9176 134.585 79.405C134.24 80.8649 134.046 82.2999 133.99 83.4635C133.927 84.7709 133.37 86.3218 133.197 87.6888C133.055 88.8154 133.198 89.9558 133.199 91.0914C133.199 92.227 132.975 93.4707 132.762 94.8186C132.452 96.7745 131.593 99.3268 131.247 101.214C131.042 102.331 131.219 103.285 131.079 104.133C130.998 104.622 130.77 105.205 130.038 105.298C126.41 105.76 125.329 104.537 123.912 104.397C122.342 104.241 120.461 103.578 118.725 103.235C116.563 102.808 114.005 101.994 112.048 101.577C110.549 101.258 108.472 100.717 106.803 100.443C105.405 100.214 104.153 100.032 102.736 99.8917C101.166 99.736 99.7907 99.2419 98.4688 99.0834C96.9759 98.9045 95.5642 98.5876 94.3587 98.5176C92.8293 98.4288 91.569 98.1068 89.5704 97.5839C88.2477 97.2379 86.9749 97.1429 85.7274 97.0589C84.0239 96.633 82.893 96.6332 81.898 96.493C81.7534 96.3526 81.7533 96.0719 81.923 95.2723C82.2322 94.3433 82.5174 92.9244 82.6011 91.6765C82.7187 89.9241 83.0261 88.8412 83.0818 87.6776C83.1444 86.3702 83.3649 85.2685 83.3785 84.0908C83.3941 82.7403 83.4486 81.6107 83.4622 80.433C83.4826 78.6665 84.2121 76.7619 84.635 75.0614C84.9541 73.778 85.0609 72.5085 85.2007 71.0922C85.345 69.6299 85.9098 68.5359 85.7694 68.1106C85.0977 66.0769 80.5279 66.2689 79.3515 65.5452C78.1882 64.8295 77.1272 64.0017 75.9203 63.221C74.9304 62.5807 73.895 61.7905 72.9703 60.8686C72.1312 60.032 71.3123 59.0417 70.5032 57.9215C69.516 56.5549 69.6646 55.1868 69.3656 53.9518C69.0949 52.8331 69.3214 51.6703 69.2789 50.5207C69.2336 49.2962 69.1211 48.0143 69.5023 46.4388C69.7869 45.2628 70.583 41.6291 71.9483 39.3624C72.9533 37.6937 73.9896 37.0657 74.6704 36.1571C75.44 35.13 76.1126 33.804 77.134 33.0089C78.1554 32.2138 79.5659 31.3655 81.0151 30.8519C82.5298 30.3151 83.7356 30.1977 84.9554 29.9436C86.1765 29.6892 87.307 29.6867 88.4703 29.7427C89.7773 29.8055 94.5273 31.4293 97.373 32.6597C98.4928 33.1439 99.6101 34.1608 100.605 34.8709C101.53 35.5304 102.419 36.2308 103.243 37.1659C104.068 38.1021 104.971 38.7823 105.837 39.1688C107.065 39.7165 106.307 36.7779 106.306 35.6423C106.305 32.5116 108.851 27.7028 109.602 26.724C110.647 25.3616 111.794 24.2436 112.789 23.2499C114.042 21.9993 115.196 21.1246 116.951 20.1018C119.051 18.8779 120.872 18.3376 122.577 17.8315C122.611 17.8215 122.644 17.8115 122.678 17.8016C124.03 17.4002 125.368 17.2338 127.395 16.9638C128.679 16.7928 130.831 16.6953 132.853 16.7481C134.877 16.801 136.561 17.6521 138.632 18.1069C142.974 19.0604 143.909 20.2879 144.946 21.0121C146.054 21.7851 147.141 22.4991 148.348 23.2798C149.338 23.9201 150.149 24.8225 151.015 25.6326C151.942 26.5004 152.616 27.6293 153.129 28.7924C153.616 29.8968 153.839 31.0589 153.968 32.2374C154.11 33.5337 154.097 34.8306 153.733 36.9207C152.646 43.16 150.646 44.0742 149.88 45.0977C149.132 46.0979 148.116 46.8343 147.182 47.5762ZM122.678 17.8016L122.577 17.8315M147.182 47.5762C147.021 47.7044 146.862 47.8328 146.707 47.9628C145.716 48.7951 144.668 49.55 143.647 50.3451C142.625 51.1402 141.608 51.9323 140.798 52.798C140.374 53.2512 139.736 53.5794 139.226 53.6944C139.049 53.7343 139.052 53.3601 139.136 53.1032C139.482 52.0483 140.633 51.1482 141.641 50.2523C142.527 49.4653 143.579 48.8186 145.449 48.1671C146.054 47.9561 146.63 47.7577 147.182 47.5762Z" stroke="#3A3A3A" stroke-width="1.15512" stroke-linecap="round"/>
<path d="M98.0258 87.8763C98.1253 87.4126 98.1579 86.6507 98.307 85.9509C98.4704 85.1832 98.4063 84.4069 98.5472 83.7318C98.6789 83.1003 98.7545 82.3626 98.8947 81.3573C99.1276 79.6877 99.4182 78.8712 100.129 76.4839C100.289 75.9469 100.297 75.7307 100.774 74.2136C101.251 72.6965 102.188 69.8827 102.719 68.3673C103.517 66.3872 103.848 65.723 104.231 65.1575C104.314 64.9909 104.38 64.7935 104.747 64.6897" stroke="#3A3A3A" stroke-width="1.15512" stroke-linecap="round"/>
<path d="M117.064 90.5635C117.541 89.1304 118.441 86.0967 118.557 85.0825C118.679 84.0161 118.789 83.0551 119.029 82.0823C119.297 80.9953 120.027 78.1695 120.697 76.6537C120.986 75.9996 121.576 75.3422 122.066 74.6181C122.549 73.9054 123.071 73.3475 123.528 72.7229C124.316 71.7682 125.377 70.5728 125.994 69.8056C126.128 69.6548 126.276 69.5396 126.578 69.4707" stroke="#3A3A3A" stroke-width="1.15512" stroke-linecap="round"/>
<path d="M75.7455 164.642C77.2586 164.642 80.3017 164.734 82.5884 163.972C84.825 163.227 87.5604 163.972 89.1573 162.071C90.7542 160.171 89.4485 160.088 89.1659 159.703C87.8573 157.919 77.7325 158.364 71.9458 159.594C71.3462 159.722 71.372 160.636 71.3691 161.209C71.3663 161.783 71.5547 162.348 71.9344 162.827C72.3141 163.307 72.8793 163.684 73.4531 163.972C74.0269 164.26 74.5922 164.448 75.7455 164.642Z" fill="black" stroke="#3A3A3A" stroke-width="1.31253" stroke-linecap="round"/>
<path d="M101.161 158.003C102.674 158.003 105.717 157.912 108.003 158.674C110.24 159.419 112.975 158.674 114.572 160.574C116.169 162.475 114.864 162.558 114.581 162.943C113.272 164.727 103.147 164.281 97.3608 163.051C96.7612 162.924 96.787 162.01 96.7842 161.436C96.7813 160.863 96.9697 160.298 97.3494 159.818C97.7291 159.339 98.2943 158.962 98.8682 158.674C99.442 158.386 100.007 158.197 101.161 158.003Z" fill="black" stroke="#3A3A3A" stroke-width="1.31253" stroke-linecap="round"/>
<path d="M89.2509 206.67C87.3358 206.844 83.7629 206.956 83.1831 206.523C82.6433 206.121 82.5988 204.903 82.5878 203.607C82.5733 201.915 83.9392 200.667 84.6811 199.299C84.8672 198.955 85.0506 198.617 84.9712 198.298C84.5885 196.76 83.1834 195.865 82.7375 194.552C82.4765 193.783 83.0219 192.955 83.4542 192.375C84.2903 191.253 85.8553 190.855 87.1632 190.356C87.9596 190.228 88.7354 190.372 89.4166 190.742C89.7597 190.928 90.0978 191.111 91.1192 191.564" stroke="#2C2C2C" stroke-width="1.96047" stroke-linecap="round"/>
<path d="M166.933 137.781C167.159 136.844 167.769 134.987 168.326 134.197C168.941 133.325 169.937 132.741 171.963 131.577C173.356 130.778 176.344 131.744 177.947 132.591C178.939 133.114 179.04 134.468 179.407 135.481C179.956 136.998 178.631 139.217 178.074 140.007C177.47 140.864 176.284 141.189 175.348 141.696C174.491 142.16 173.682 142.869 173.084 143.649C172.565 144.449 172.177 145.047 171.783 146.174C171.517 147.104 171.117 148.759 170.81 150.029" stroke="#B32E40" stroke-width="2" stroke-linecap="round"/>
<path d="M169.649 153.332C170.115 153.099 170.46 153.03 170.614 153.068C171.229 153.604 171.097 153.961 171.15 154.246C171.203 154.531 170.925 154.838 170.684 154.97C170.443 155.102 170.058 155.009 169.756 154.897C169.454 154.785 169.174 154.671 169.161 154.483C169.133 154.092 169.214 153.548 169.649 153.332Z" stroke="#B32E40" stroke-width="1.5" stroke-linecap="round"/>
</svg>
