<svg width="192" height="365" viewBox="0 0 192 365" fill="none" xmlns="http://www.w3.org/2000/svg">
<path d="M27.8513 140.977C72.382 127.801 95.6373 127.898 140.14 140.977C130.705 231.815 120.062 279.883 94.9667 362.352C62.9621 277.849 47.68 229.576 27.8513 140.977Z" fill="#FFA54B" stroke="#474646" stroke-width="1.15512"/>
<path d="M130.578 126.588C130.578 125.355 130.767 122.864 131.198 121.715C131.673 120.446 132.678 119.421 134.73 117.366C136.14 115.954 139.926 116.259 142.051 116.83C143.366 117.183 143.869 118.835 144.588 119.985C145.664 121.705 144.735 124.861 144.305 126.01C143.838 127.257 142.537 128.017 141.581 128.928C140.705 129.762 139.955 130.887 139.474 132.036C139.091 133.185 138.804 134.046 138.661 135.565C138.612 136.801 138.612 138.978 138.612 140.648" stroke="#B32E40" stroke-width="2" stroke-linecap="round"/>
<path d="M137.85 144.997C138.328 144.568 138.71 144.379 138.899 144.379C139.765 144.861 139.712 145.345 139.854 145.684C139.996 146.022 139.76 146.488 139.516 146.724C139.272 146.961 138.798 146.961 138.415 146.912C138.032 146.863 137.675 146.805 137.606 146.575C137.464 146.097 137.405 145.396 137.85 144.997Z" stroke="#B32E40" stroke-width="1.5" stroke-linecap="round"/>
<path d="M104.669 129.677C104.669 128.41 104.31 125.865 103.673 123.133C103.048 120.456 103.035 108.123 102.583 97.2179C101.832 79.0851 103.035 75.7978 103.577 72.8809C104.158 69.753 105.029 66.8725 105.845 64.0512C106.887 60.4542 108.111 57.5867 109.113 55.399C110.251 52.9152 111.923 50.4858 113.467 48.208C115.239 45.5933 116.639 43.0244 118.278 40.5609C119.949 38.0495 121.54 35.7377 122.817 33.46C124.633 30.8163 126.441 28.6368 128.17 26.6295C128.625 26.2608 129.164 26.0805 130.264 25.8948" stroke="#474646" stroke-width="1.40677" stroke-linecap="round"/>
<path d="M106.847 60.3069C106.847 59.2199 106.129 57.0405 105.217 54.8529C104.241 52.5127 103.221 49.9396 102.042 46.7551C100.761 43.2966 99.5938 39.2008 98.5918 36.8275C97.5892 34.4528 95.4224 32.4604 93.2413 30.9064C90.4973 28.9512 86.1646 27.7192 83.0796 26.8999C80.5956 26.2402 78.1812 25.5343 74.911 25.2585C72.334 25.0411 69.468 24.4419 65.9256 24.5265C62.2639 24.6141 65.2748 33.531 65.7295 38.7092C66.1198 43.1536 68.9017 45.0017 71.7117 48.0961C74.1006 50.7268 76.8851 53.3808 79.0661 54.2957C81.345 55.2517 83.9645 55.7514 86.1456 56.0272C91.36 56.6867 99.7572 56.8438 101.938 57.1197C103.025 57.3901 104.119 57.756 105.206 58.1193C105.753 58.3023 106.292 60.1212 106.847 60.3069Z" fill="#5B8339" stroke="#474646" stroke-width="0.703385" stroke-linecap="round"/>
<path d="M106.303 58.6682C107.387 58.3077 109.56 56.8547 114.001 52.6761C116.606 50.2243 119.002 48.3009 120.998 46.6568C123.217 44.8292 126.256 43.1992 129.074 41.7407C131.317 40.5802 133.88 40.2823 138.313 39.6432C150.824 37.8395 153.125 40.4571 155.306 41.1863C157.618 41.9592 159.121 43.7345 159.848 44.5511C160.51 45.2946 158.593 46.8261 156.954 48.828C155.29 50.8598 154.051 53.195 151.965 55.0194C149.297 57.3533 147.157 58.843 144.976 60.3915C142.704 62.0044 140.263 63.5733 137.896 65.1273C135.947 66.4075 133.543 66.6758 121.87 66.6813C117.554 66.6833 115.572 63.9556 113.391 62.4972C112.304 61.7707 111.21 61.2191 110.213 60.6756C109.756 60.3123 107.218 59.7716 106.303 58.6682Z" fill="#5B8339" stroke="#474646" stroke-width="0.703385" stroke-linecap="round"/>
<path d="M103.035 104.005C103.754 102.918 106.292 100.738 108.563 99.3673C111.544 97.5676 113.371 95.6365 115.552 93.7248C117.647 91.8889 119.906 90.1743 122.177 88.806C124.543 87.3803 127.345 87.2575 130.163 86.0749C132.549 85.0736 135.154 84.5264 137.787 83.8873C140.186 83.305 149.607 83.2482 155.306 83.7917C157.595 84.01 159.66 85.6079 162.293 87.973C163.402 88.9694 164.567 89.4369 165.294 89.9804C166.951 91.2192 163.668 94.1617 162.941 96.3494C162.214 98.537 161.49 100.716 160.493 102.994C159.149 106.066 155.87 106.004 153.057 106.643C149.767 107.391 145.719 107.282 141.45 107.735C132.497 108.686 129.916 106.922 126.645 106.646C124.204 106.44 122.106 105.283 119.383 105.007C116.455 104.71 113.938 104.19 111.757 103.915C109.576 103.278 107.942 102.732 106.856 102.369C106.308 102.186 103.591 104.19 103.035 104.005Z" fill="#5B8339" stroke="#474646" stroke-width="0.703385" stroke-linecap="round"/>
<path d="M126.997 29.7184C126.997 25.3868 126.637 16.62 125.82 14.4323C124.95 12.1023 123.195 10.0653 120.925 7.96778C118.495 5.72385 115.571 4.41733 113.301 2.95891C110.835 1.37548 108.492 0.954274 104.955 0.678431C103.569 0.570313 99.8005 0.222335 95.169 0.402588C91.9117 0.529355 95.2261 9.4972 95.5011 12.5916C95.7187 15.039 96.8599 17.1443 98.1287 19.4221C99.5667 22.0034 102.291 23.3369 106.01 25.1569L106.017 25.1602C108.323 26.2886 110.648 26.2553 113.009 26.8944C116.1 27.1675 119.71 27.5335 123.792 27.6236C125.357 27.7137 126.441 28.9864 126.997 29.7184Z" fill="#5B8339"/>
<path d="M106.01 25.1569C106.012 25.158 106.015 25.1591 106.017 25.1602C108.323 26.2886 110.648 26.2553 113.009 26.8944C116.1 27.1675 119.71 27.5335 123.792 27.6236C125.357 27.7137 126.441 28.9864 126.997 29.7184C126.997 25.3868 126.637 16.62 125.82 14.4323C124.95 12.1023 123.195 10.0653 120.925 7.96778C118.495 5.72385 115.571 4.41733 113.301 2.95891C110.835 1.37548 108.492 0.954274 104.955 0.678431C103.569 0.570313 99.8005 0.222335 95.169 0.402588C91.9117 0.529355 95.2261 9.4972 95.5011 12.5916C95.7187 15.039 96.8599 17.1443 98.1287 19.4221C99.5667 22.0034 102.291 23.3369 106.01 25.1569ZM106.017 25.1602L106.01 25.1569" stroke="#474646" stroke-width="0.703385" stroke-linecap="round"/>
<path d="M129.719 26.9873C129.719 25.5398 130.983 22.0822 132.437 19.3511C133.855 16.6868 135.154 14.0746 137.063 11.521C139.798 7.86167 143.138 6.056 149.838 3.69086C156.343 1.39511 159.475 1.5005 162.383 1.22466C166.733 0.812035 172.185 1.48958 174.366 2.94799C174.913 3.31396 175.452 3.67447 175.461 4.04044C175.507 6.11167 171.662 6.04508 169.661 7.86127C167.789 9.56021 166.935 12.2283 165.125 14.8693C163.408 17.3726 161.315 19.6897 159.134 21.6097C157.043 23.4512 154.78 24.431 152.599 25.3459C150.497 26.2279 147.931 26.7917 145.054 27.424L144.978 27.4406C142.3 28.0292 138.639 28.0797 135.358 28.5331C134.452 28.6259 133.194 28.6259 132.276 28.4457C131.358 28.2654 130.819 27.9049 129.719 26.9873Z" fill="#5B8339"/>
<path d="M145.054 27.424C145.029 27.4295 145.003 27.4351 144.978 27.4406C142.3 28.0292 138.639 28.0797 135.358 28.5331C134.452 28.6259 133.194 28.6259 132.276 28.4457C131.358 28.2654 130.819 27.9049 129.719 26.9873C129.719 25.5398 130.983 22.0822 132.437 19.3511C133.855 16.6868 135.154 14.0746 137.063 11.521C139.798 7.86167 143.138 6.056 149.838 3.69086C156.343 1.39511 159.475 1.5005 162.383 1.22466C166.733 0.812035 172.185 1.48958 174.366 2.94799C174.913 3.31396 175.452 3.67447 175.461 4.04044C175.507 6.11167 171.662 6.04508 169.661 7.86127C167.789 9.56021 166.935 12.2283 165.125 14.8693C163.408 17.3726 161.315 19.6897 159.134 21.6097C157.043 23.4512 154.78 24.4309 152.599 25.3459C150.497 26.2279 147.931 26.7917 145.054 27.424ZM144.978 27.4406L145.054 27.424" stroke="#474646" stroke-width="0.703385" stroke-linecap="round"/>
<path d="M101.946 77.7859C99.0655 77.7859 89.2904 76.3439 84.1687 74.6943C81.1079 73.7085 77.092 71.9632 71.5619 69.3304C68.3416 67.7973 65.2965 65.5942 62.6554 63.5923C59.6127 61.2862 56.7576 59.0396 54.1246 56.6744C52.0585 54.8185 50.2228 52.6706 48.5836 50.483C47.1296 48.2954 45.681 46.1159 44.3169 43.9283C44.0419 43.3794 43.8622 42.8386 43.677 42.2814" stroke="#474646" stroke-width="1.40677" stroke-linecap="round"/>
<path d="M53.4793 57.5757C53.4793 61.3665 53.1199 69.0355 51.851 71.2231C50.4807 73.5856 48.4039 75.5901 45.956 78.141C43.8381 80.348 39.8868 82.5053 36.2463 84.3352C33.6252 85.6526 31.1627 86.886 28.9817 87.6152C27.8953 87.9785 25.1833 88.1642 21.9159 87.2629C16.8562 85.8673 19.9009 79.9818 19.2638 77.6139C19.0728 76.9042 19.1712 75.9834 19.3509 75.2487C20.7291 69.6146 29.1478 64.1413 31.1436 62.1339C32.866 60.4017 35.4975 59.9463 37.7684 58.8539C40.1676 57.6997 42.577 57.7614 45.21 57.4856C46.389 57.2152 47.4836 56.8492 48.8395 56.5761C49.6564 56.4832 52.3684 57.5757 53.4793 57.5757Z" fill="#5B8339" stroke="#474646" stroke-width="0.703385" stroke-linecap="round"/>
<path d="M72.5395 71.2313C72.7192 71.2368 74.892 67.9649 76.346 65.2338C77.8023 62.4984 78.8892 60.3178 80.5202 57.2234C81.8593 54.6829 82.8691 49.8067 83.5146 46.6891L83.5208 46.6595C84.0097 44.2984 84.3349 41.3857 84.4302 34.4787C84.4583 32.4425 83.7958 31.1822 83.2539 29.8194C82.1824 27.1243 79.0852 26.2662 76.9042 25.3513C74.7251 24.4372 72.5504 23.3494 70.5491 22.9807C68.628 22.6268 69.4572 26.9763 68.82 29.7074C68.1953 32.3853 68.1829 34.6234 67.7309 36.811C67.2789 38.9987 66.1898 41.1781 65.4627 43.8191C64.8113 46.1857 63.4669 48.6395 63.1919 51.4662C62.8634 54.843 63.0966 59.2035 64.3654 61.3911C65.6836 63.6637 66.9086 65.7581 68.6294 67.4924C69.4463 68.4893 70.176 69.5872 70.9902 70.5868C71.4449 71.0456 71.984 71.4061 72.5395 71.2313Z" fill="#5B8339"/>
<path d="M83.5146 46.6891C83.5167 46.6792 83.5187 46.6693 83.5208 46.6595C84.0097 44.2984 84.3349 41.3857 84.4302 34.4787C84.4583 32.4425 83.7958 31.1822 83.2539 29.8194C82.1824 27.1243 79.0852 26.2662 76.9042 25.3513C74.7251 24.4372 72.5504 23.3494 70.5491 22.9807C68.628 22.6268 69.4572 26.9763 68.82 29.7074C68.1953 32.3853 68.1829 34.6234 67.7309 36.811C67.2789 38.9987 66.1898 41.1781 65.4627 43.8191C64.8113 46.1857 63.4669 48.6395 63.1919 51.4662C62.8634 54.843 63.0966 59.2035 64.3654 61.3911C65.6836 63.6637 66.9086 65.7581 68.6294 67.4924C69.4463 68.4893 70.176 69.5872 70.9902 70.5868C71.4449 71.0456 71.984 71.4061 72.5395 71.2313C72.7192 71.2368 74.892 67.9649 76.346 65.2338C77.8023 62.4984 78.8892 60.3178 80.5202 57.2234C81.8593 54.6829 82.8691 49.8067 83.5146 46.6891ZM83.5208 46.6595L83.5146 46.6891" stroke="#474646" stroke-width="0.703385" stroke-linecap="round"/>
<path d="M45.8554 45.0126C45.8554 41.9428 46.2148 35.3772 46.852 32.8236C47.6052 29.8049 47.8485 27.1839 47.6743 24.4473C47.4975 21.6714 43.1434 21.8964 40.9624 20.438C38.7814 18.9796 36.6085 17.8871 34.4275 17.6113C33.3169 17.4708 31.5277 17.1552 29.6217 17.4256C27.4894 17.7281 27.5251 21.5141 26.8879 23.7017C26.5822 24.7515 26.6156 25.8893 26.3433 26.979C25.6954 29.5721 30.0519 32.078 32.2329 33.0831C34.5692 34.1597 36.5868 35.9016 38.7678 37.8134C39.8542 38.6327 40.9488 39.3646 42.0352 40.1812C42.5825 40.6373 45.2999 44.4554 45.8554 45.0126Z" fill="#5B8339" stroke="#474646" stroke-width="0.703385" stroke-linecap="round"/>
<path d="M98.2687 101.049C97.8279 99.716 96.0516 97.0434 93.7143 94.9168C91.2534 92.6776 88.933 90.1176 86.8127 87.9942C84.9574 86.1363 80.265 86.9828 76.5788 88.0947C72.4106 89.352 69.567 86.0987 67.1129 84.1997C65.9943 81.631 65.1062 79.6215 64.3282 78.2853C63.9909 77.6121 63.7706 76.949 62.8757 74.9261" stroke="#474646" stroke-width="1.15512" stroke-linecap="round"/>
<path d="M97.601 105.068C96.2721 105.068 93.6076 105.952 90.9331 107.63C88.5108 109.15 85.5941 109.529 82.9196 109.867C80.1561 110.217 75.8176 111.096 72.3451 109.653C69.5772 108.502 68.0044 105.751 66.2214 103.068C64.5032 100.483 63.7706 97.7133 62.8791 95.0306C62.6554 94.3575 62.4351 93.6944 62.3215 90.3687C62.208 87.0431 62.208 81.075 62.208 74.9261" stroke="#474646" stroke-width="1.15512" stroke-linecap="round"/>
<path d="M42.6222 132.905C42.8788 133.895 43.0236 135.07 43.0236 135.871C43.0982 136.535 43.1705 136.753 43.3186 136.824C44.1247 136.676 44.9999 136.383 46.4279 136.273C47.4149 136.016 48.4244 135.76 49.5371 135.687C51.2184 135.576 52.2768 135.5 53.4832 135.173C54.4341 134.916 55.6083 134.797 56.8096 134.549C57.8735 134.33 59.0653 134.358 60.3203 134.073C61.4532 133.816 62.4687 133.633 63.6094 133.449C64.9716 133.23 66.7184 133.113 67.9602 132.973C69.5823 132.79 71.7714 132.76 73.5547 132.533C74.9871 132.35 76.6132 132.378 77.8682 132.093C79.0011 131.835 80.1523 132.505 82.8408 131.208C83.3837 130.947 83.4097 130.435 83.3464 130.035C83.2367 129.341 82.8537 128.646 82.7246 127.727C82.5063 126.172 82.5139 123.97 82.2497 122.372C82.0676 121.27 81.9207 120.247 81.6278 119.366C81.335 118.485 80.9303 117.637 80.7504 116.726C80.5322 115.621 80.5639 114.273 80.2755 113.242C80.0189 112.325 79.7994 111.161 79.691 109.939C79.6548 109.531 79.6202 108.761 80.6989 108.659C83.7698 108.369 86.011 108.232 86.5325 108.185C87.7751 108.074 90.3429 108.28 92.1248 107.708C93.0394 107.414 93.9324 107.167 94.8304 106.79C95.9655 106.314 97.0751 106.151 97.864 105.507C99.0408 104.545 100.81 102.808 101.592 101.765C102.252 100.884 103.204 99.9076 103.785 98.905C104.296 98.0239 104.733 97.1452 105.1 96.2649C105.468 95.3837 105.994 94.4773 106.454 93.6247C106.929 92.7435 107.731 92.0065 107.916 90.9845C108.17 89.5798 108.139 87.6324 107.693 86.8043C107.218 85.9231 106.967 85.0308 106.634 84.1641C106.266 83.2082 105.75 82.1324 104.914 81.1202C104.217 80.2776 103.358 79.5153 102.464 79.0686C101.511 78.5923 100.478 77.9232 96.095 78.2645C93.7501 78.4471 91.5924 78.759 90.3239 78.8508C88.7885 78.9619 87.7345 79.0753 86.7068 79.3645C85.7922 79.622 84.4076 79.9307 83.1973 80.6494C82.5626 81.0263 81.9232 81.4732 81.2412 81.9812C81.1493 82.1224 81.0594 82.2632 80.9731 82.404C80.4203 83.3063 79.8039 84.163 79.2183 85.0442C78.6326 85.9253 78.0492 86.8032 77.6456 87.6843C77.4342 88.1457 77.0248 88.5655 76.6596 88.7866C76.5328 88.8634 76.4391 88.5721 76.438 88.351C76.4335 87.443 77.0928 86.4468 77.6423 85.4908C78.1249 84.6511 78.773 83.877 80.0518 82.8881C80.466 82.5677 80.8603 82.2649 81.2412 81.9812C81.773 81.1639 82.369 80.3298 82.6906 79.3601C83.0196 78.3679 84.3319 77.1412 83.5658 72.0183C83.3091 70.3022 82.9853 69.2924 82.5414 68.3232C82.1378 67.442 81.6661 66.5978 81.0049 65.8667C80.3084 65.0967 79.4958 64.3951 78.5548 63.9614C77.6763 63.5566 76.8163 63.0659 75.8853 62.825C74.7502 62.5313 73.7245 62.2585 72.6685 61.945C71.6793 61.6513 70.6393 60.9406 67.0335 61.3235C65.3138 61.5061 63.7916 61.281 62.2111 61.7635C60.6329 62.2453 58.9928 62.8775 58.0435 63.3421C56.5442 64.0758 55.5515 64.551 54.6085 65.2122L54.5383 65.2614C53.3488 66.0952 52.0786 66.9855 50.7688 68.4783C49.6742 69.7258 49.0066 70.7029 48.3592 71.9974C47.8449 73.026 47.2456 74.19 46.7876 75.5176C46.4586 76.4714 45.727 80.8615 46.5343 83.2907C46.8271 84.1718 48.1704 86.2562 47.0793 86.1486C46.3094 86.0727 45.4352 85.7785 44.5557 85.2653C43.6772 84.7527 42.8087 84.4391 41.9236 84.1663C40.9705 83.8726 39.8439 83.3724 38.8527 83.2863C36.3335 83.0674 32.2393 83.0356 31.2117 83.3248C30.297 83.5822 29.4227 83.8765 28.5433 84.3896C27.6648 84.9023 26.7618 85.3052 25.728 86.1134C24.7387 86.8868 23.8657 87.9098 23.28 88.791C22.6944 89.6722 22.5154 90.8752 22.1844 91.8712C21.8915 92.7523 21.2514 93.5076 20.9034 95.0625C20.4307 97.1746 20.7505 100.2 20.8332 101.187C20.944 102.508 21.3612 103.473 21.7117 104.412C22.0407 105.293 22.1649 106.254 22.6626 107.052C23.212 107.933 23.4494 109.033 24.5654 109.839C25.4801 110.499 26.3689 111.055 27.2338 111.488C28.1869 111.964 29.1916 112.309 30.1226 112.55C31.2577 112.844 32.292 113.212 33.3766 113.467C34.4734 113.724 37.9604 112.393 39.004 113.798C39.2223 114.091 39.067 115.086 39.332 116.259C39.5886 117.394 39.8329 118.407 39.9165 119.485C40.0273 120.914 39.9533 122.581 40.3925 123.957C40.6853 124.874 40.9341 125.765 41.2699 126.817C41.5627 127.734 41.6758 128.646 41.9641 129.677C42.2208 130.595 42.2618 131.514 42.6222 132.905Z" fill="white"/>
<path d="M81.2412 81.9812C81.9232 81.4732 82.5626 81.0263 83.1973 80.6494C84.4076 79.9307 85.7922 79.622 86.7068 79.3645C87.7345 79.0753 88.7885 78.9619 90.3239 78.8508C91.5924 78.759 93.7501 78.4471 96.095 78.2645C100.478 77.9232 101.511 78.5923 102.464 79.0686C103.358 79.5153 104.217 80.2776 104.914 81.1202C105.75 82.1324 106.266 83.2082 106.634 84.1641C106.967 85.0308 107.218 85.9231 107.693 86.8043C108.139 87.6323 108.17 89.5797 107.916 90.9845C107.731 92.0065 106.929 92.7435 106.454 93.6247C105.994 94.4773 105.468 95.3837 105.1 96.2649C104.733 97.1452 104.296 98.0239 103.785 98.905C103.204 99.9076 102.252 100.884 101.592 101.765C100.81 102.808 99.0408 104.545 97.864 105.507C97.0751 106.151 95.9655 106.314 94.8304 106.79C93.9324 107.167 93.0394 107.414 92.1248 107.708C90.3429 108.28 87.7751 108.074 86.5325 108.185C86.011 108.232 83.7698 108.369 80.6989 108.659C79.6202 108.761 79.6548 109.531 79.691 109.939C79.7994 111.161 80.0189 112.325 80.2755 113.242C80.5639 114.273 80.5322 115.621 80.7504 116.726C80.9303 117.637 81.335 118.485 81.6278 119.366C81.9207 120.247 82.0676 121.27 82.2497 122.372C82.5139 123.97 82.5063 126.172 82.7246 127.727C82.8537 128.646 83.2367 129.341 83.3464 130.035C83.4097 130.435 83.3837 130.947 82.8408 131.208C80.1523 132.505 79.0011 131.835 77.8682 132.093C76.6132 132.378 74.9871 132.35 73.5547 132.533C71.7714 132.76 69.5823 132.79 67.9602 132.973C66.7184 133.113 64.9716 133.23 63.6094 133.449C62.4687 133.633 61.4532 133.816 60.3203 134.073C59.0653 134.358 57.8735 134.33 56.8096 134.549C55.6083 134.797 54.4341 134.916 53.4832 135.173C52.2768 135.5 51.2184 135.576 49.5371 135.687C48.4244 135.76 47.4149 136.016 46.4279 136.273C44.9999 136.383 44.1247 136.676 43.3186 136.824C43.1705 136.753 43.0982 136.535 43.0236 135.871C43.0236 135.07 42.8788 133.895 42.6222 132.905C42.2618 131.514 42.2208 130.595 41.9641 129.677C41.6758 128.646 41.5627 127.734 41.2699 126.817C40.9341 125.765 40.6853 124.874 40.3925 123.957C39.9533 122.581 40.0273 120.914 39.9165 119.485C39.8329 118.407 39.5886 117.394 39.332 116.259C39.067 115.086 39.2223 114.091 39.004 113.798C37.9604 112.393 34.4734 113.724 33.3766 113.467C32.292 113.212 31.2577 112.844 30.1226 112.55C29.1916 112.309 28.1869 111.964 27.2338 111.488C26.3689 111.055 25.4801 110.499 24.5654 109.839C23.4494 109.033 23.212 107.933 22.6626 107.052C22.1649 106.254 22.0407 105.293 21.7117 104.412C21.3612 103.473 20.944 102.508 20.8332 101.187C20.7505 100.2 20.4307 97.1746 20.9034 95.0625C21.2514 93.5076 21.8915 92.7523 22.1844 91.8712C22.5154 90.8752 22.6944 89.6722 23.28 88.791C23.8657 87.9098 24.7387 86.8868 25.728 86.1134C26.7618 85.3052 27.6648 84.9023 28.5433 84.3896C29.4227 83.8765 30.297 83.5822 31.2117 83.3248C32.2393 83.0356 36.3335 83.0674 38.8527 83.2863C39.8439 83.3724 40.9705 83.8726 41.9236 84.1663C42.8087 84.4391 43.6772 84.7527 44.5557 85.2653C45.4352 85.7785 46.3094 86.0727 47.0793 86.1486C48.1704 86.2562 46.8271 84.1718 46.5343 83.2907C45.727 80.8615 46.4586 76.4714 46.7876 75.5176C47.2456 74.19 47.8449 73.026 48.3592 71.9974C49.0066 70.7029 49.6742 69.7258 50.7688 68.4783C52.0786 66.9855 53.3488 66.0952 54.5383 65.2614C54.5617 65.245 54.5851 65.2286 54.6085 65.2122C55.5515 64.551 56.5442 64.0758 58.0435 63.3421C58.9928 62.8775 60.6329 62.2453 62.2111 61.7635C63.7916 61.281 65.3138 61.5061 67.0335 61.3235C70.6393 60.9406 71.6793 61.6513 72.6685 61.945C73.7245 62.2585 74.7502 62.5313 75.8853 62.825C76.8163 63.0659 77.6763 63.5566 78.5548 63.9614C79.4958 64.3951 80.3084 65.0967 81.0049 65.8667C81.6661 66.5978 82.1378 67.442 82.5414 68.3232C82.9853 69.2924 83.3091 70.3022 83.5658 72.0183C84.3319 77.1412 83.0196 78.3679 82.6906 79.3601C82.369 80.3298 81.773 81.1639 81.2412 81.9812ZM54.6085 65.2122L54.5383 65.2614M81.2412 81.9812C81.1493 82.1224 81.0594 82.2632 80.9731 82.404C80.4203 83.3063 79.8039 84.163 79.2183 85.0442C78.6326 85.9253 78.0492 86.8032 77.6456 87.6843C77.4342 88.1457 77.0248 88.5655 76.6596 88.7866C76.5328 88.8634 76.4391 88.5721 76.438 88.351C76.4335 87.443 77.0928 86.4468 77.6423 85.4908C78.1249 84.6511 78.773 83.877 80.0518 82.888C80.466 82.5677 80.8603 82.2649 81.2412 81.9812Z" stroke="#3A3A3A" stroke-width="1.15512" stroke-linecap="round"/>
<path d="M53.5799 125.964C53.5375 125.578 53.3665 124.978 53.3016 124.397C53.2304 123.759 52.9808 123.173 52.9159 122.613C52.8552 122.089 52.7237 121.497 52.5733 120.68C52.3235 119.325 52.338 118.616 52.2731 116.58C52.2585 116.122 52.2095 115.952 52.1876 114.651C52.1658 113.351 52.1658 110.925 52.187 109.612C52.2943 107.869 52.3792 107.268 52.5296 106.731C52.5514 106.58 52.5514 106.409 52.8086 106.234" stroke="#3A3A3A" stroke-width="1.15512" stroke-linecap="round"/>
<path d="M69.0074 123.127C69.0074 121.891 68.9226 119.305 68.751 118.488C68.5705 117.629 68.4083 116.854 68.3434 116.038C68.2709 115.125 68.1075 112.743 68.2354 111.394C68.2906 110.812 68.578 110.149 68.7709 109.46C68.9607 108.783 69.2209 108.215 69.4137 107.612C69.7775 106.667 70.2905 105.465 70.5708 104.71C70.635 104.559 70.7199 104.431 70.9359 104.3" stroke="#3A3A3A" stroke-width="1.15512" stroke-linecap="round"/>
<path d="M52.668 239.711C52.1225 240.367 51.4652 241.682 50.4267 243.002C49.387 244.324 48.0737 245.42 46.7575 246.245C45.5655 246.993 44.1301 247.18 42.5412 247.346C41.1244 247.495 39.8579 248.169 38.5417 248.663C36.6065 249.39 35.1453 251.9 34.3221 253.22C33.5765 254.416 33.3904 255.856 32.6789 257.176C32.0103 258.417 31.9641 259.811 31.6372 261.131C31.31 262.452 30.8731 263.767 30.5412 265.087C30.1814 266.518 29.013 267.505 27.9696 268.659C26.9261 269.812 25.7267 270.801 24.1378 272.174C22.9952 273.161 21.7831 274.097 20.7939 275.305C19.79 276.532 19.2592 277.941 18.8205 279.261C18.0202 281.669 18.0564 285.522 17.179 286.842C16.3142 288.144 14.6649 289.366 13.237 290.416C12.0694 291.274 10.6096 291.897 9.62043 293.105C9.12033 293.716 8.95987 294.861 8.7972 296.069C8.60334 297.508 6.55428 298.048 5.34985 298.712C4.13411 299.383 2.72243 299.591 1.67902 300.632C1.12877 301.182 0.635613 301.677 0.579745 302.335C0.55135 302.669 0.849224 302.993 1.34053 303.161C3.57267 303.925 5.00971 302.452 6.32589 302.012C6.65616 301.902 6.98151 301.793 7.14911 301.9C7.31671 302.007 7.31671 302.333 7.15404 302.61C6.44449 303.818 5.56839 304.97 4.74516 306.291C3.97745 307.522 3.48486 308.926 3.53579 310.411C3.5467 310.729 4.01007 310.796 4.39152 310.852L4.40831 310.854C4.79281 310.91 5.22661 310.91 5.5043 310.747C6.62496 310.089 6.54771 308.28 7.36765 307.014C8.17098 305.774 8.84814 304.98 9.33945 304.431C9.57519 304.168 9.9392 304.1 10.161 304.207C10.6511 304.444 10.603 307.696 10.8199 311.817C10.8945 313.233 11.4706 313.218 11.8025 313.055C13.1637 312.385 13.2321 309.282 13.5591 307.289C13.6713 306.605 13.8894 305.317 14.052 303.888C14.1062 303.412 14.5401 303.546 14.7619 303.766C15.2152 304.214 15.4208 304.974 15.9121 305.523C16.8309 306.549 18.1583 306.296 18.8139 306.187C19.1569 306.13 19.4695 305.86 19.6371 305.422C20.0312 304.391 19.5878 303.332 19.0965 302.729C18.1436 301.559 16.525 301.463 15.2088 300.969C14.8634 300.839 14.5532 300.586 14.3314 300.311C13.9009 299.777 13.8894 298.721 13.9978 297.569C14.0796 296.7 14.7405 296.101 15.2812 295.611L15.3091 295.586C16.466 294.537 18.155 294.871 19.1984 293.829C19.7487 293.28 20.3503 292.784 20.7331 292.126C21.6368 290.574 21.3362 288.173 21.7207 286.689C22.2606 284.606 22.1052 281.923 22.7592 279.93C23.2209 278.523 25.0563 278.172 26.0997 277.072C27.0803 276.039 28.4544 275.317 29.6046 274.27C30.8156 273.169 31.7407 271.691 32.6181 270.371C33.4956 269.051 34.1528 267.736 34.3188 266.415C34.5003 264.972 34.8101 263.45 35.2488 262.13C35.7113 260.739 35.796 259.165 36.3432 257.845C36.9979 256.265 38.8589 255.757 40.175 254.931C41.3671 254.183 42.8024 253.997 44.1186 253.283C45.3555 252.612 46.746 252.349 48.0622 251.58C49.3798 250.812 50.6896 250.588 52.0058 249.878C52.7883 249.456 53.322 248.723 53.9234 248.23C55.4202 247.003 54.4299 244.023 53.9888 242.696L53.9842 242.682C53.8741 242.351 53.7656 242.025 53.6013 241.693C53.437 241.362 53.2201 240.047 52.668 239.711Z" fill="#3A3A3A"/>
<path d="M4.40831 310.854C4.79281 310.91 5.22661 310.91 5.5043 310.747C6.62496 310.089 6.54771 308.28 7.36765 307.014C8.17098 305.774 8.84814 304.98 9.33944 304.431C9.57519 304.168 9.9392 304.1 10.161 304.207C10.6511 304.444 10.603 307.696 10.8199 311.817C10.8945 313.233 11.4706 313.218 11.8025 313.055C13.1637 312.385 13.2321 309.282 13.5591 307.289C13.6713 306.605 13.8894 305.317 14.052 303.888C14.1062 303.412 14.5401 303.546 14.7619 303.766C15.2152 304.214 15.4208 304.974 15.9121 305.523C16.8309 306.549 18.1583 306.296 18.8139 306.187C19.1569 306.13 19.4695 305.86 19.6371 305.422C20.0312 304.391 19.5878 303.332 19.0965 302.729C18.1436 301.559 16.525 301.463 15.2088 300.969C14.8634 300.839 14.5532 300.586 14.3314 300.311C13.9009 299.777 13.8894 298.721 13.9978 297.569C14.0796 296.7 14.7405 296.101 15.2812 295.611M4.40831 310.854L4.39152 310.852M15.2812 295.611C15.2905 295.603 15.2998 295.594 15.3091 295.586C16.466 294.537 18.155 294.871 19.1984 293.829C19.7487 293.28 20.3503 292.784 20.7331 292.126C21.6368 290.574 21.3362 288.173 21.7207 286.689C22.2606 284.606 22.1052 281.923 22.7592 279.93C23.2209 278.523 25.0563 278.172 26.0997 277.072C27.0803 276.039 28.4544 275.317 29.6046 274.27C30.8156 273.169 31.7407 271.691 32.6181 270.371C33.4956 269.051 34.1528 267.736 34.3188 266.415C34.5003 264.972 34.8101 263.45 35.2488 262.13C35.7113 260.739 35.796 259.165 36.3432 257.845C36.9979 256.265 38.8589 255.757 40.175 254.931C41.3671 254.183 42.8024 253.997 44.1186 253.283C45.3555 252.612 46.746 252.349 48.0622 251.58C49.3798 250.812 50.6896 250.588 52.0058 249.878C52.7883 249.456 53.322 248.723 53.9234 248.23C55.4203 247.003 54.4299 244.023 53.9888 242.696C53.9873 242.691 53.9857 242.687 53.9842 242.682C53.8741 242.351 53.7656 242.025 53.6013 241.693C53.437 241.362 53.2201 240.047 52.668 239.711C52.1225 240.367 51.4652 241.682 50.4267 243.002C49.387 244.324 48.0737 245.42 46.7575 246.245C45.5655 246.993 44.1301 247.18 42.5412 247.346C41.1244 247.495 39.8579 248.169 38.5417 248.663C36.6065 249.39 35.1453 251.9 34.3221 253.22C33.5765 254.416 33.3904 255.856 32.6789 257.176C32.0103 258.417 31.9641 259.811 31.6372 261.131C31.31 262.452 30.8731 263.767 30.5412 265.087C30.1814 266.518 29.013 267.505 27.9696 268.659C26.9261 269.812 25.7267 270.801 24.1378 272.174C22.9952 273.161 21.7831 274.097 20.7939 275.305C19.79 276.532 19.2592 277.941 18.8205 279.261C18.0202 281.669 18.0564 285.522 17.179 286.842C16.3142 288.144 14.6649 289.366 13.237 290.416C12.0694 291.274 10.6096 291.897 9.62043 293.105C9.12033 293.716 8.95987 294.861 8.7972 296.069C8.60334 297.508 6.55428 298.048 5.34985 298.712C4.13411 299.383 2.72243 299.591 1.67902 300.632C1.12877 301.182 0.635613 301.677 0.579745 302.335C0.55135 302.669 0.849224 302.993 1.34053 303.161C3.57267 303.925 5.00971 302.452 6.32589 302.012C6.65616 301.902 6.98151 301.793 7.14911 301.9C7.31671 302.007 7.31671 302.333 7.15404 302.61C6.44449 303.818 5.56839 304.97 4.74516 306.291C3.97745 307.522 3.48486 308.926 3.53579 310.411C3.5467 310.729 4.01007 310.796 4.39152 310.852C4.39714 310.853 4.40274 310.853 4.40831 310.854M15.3091 295.586L15.2812 295.611M53.9842 242.682L53.9888 242.696" stroke="#3A3A3A" stroke-width="1.15512" stroke-linecap="round"/>
<path d="M127.454 239.373C127.221 239.287 127.018 239.226 126.855 239.199C126.638 239.853 126.525 241.605 125.929 243.199C125.875 245 125.864 246.513 126.314 246.959C126.535 247.176 126.846 247.335 127.187 247.394C129.051 247.721 131.912 247.789 132.575 249.146C132.737 249.477 132.688 249.92 132.792 250.293C133.175 251.66 133.743 253.01 134.428 254.28C135.135 255.593 134.524 257.465 136.171 259.47C136.661 260.067 137.435 260.264 138.243 260.504C139.716 260.942 141.516 261.027 143.417 261.541C144.833 261.925 148.718 261.497 151.04 262.471C152.348 263.02 153.872 263.309 154.961 264.221C155.613 264.766 156.047 265.425 156.265 266.079C156.701 267.392 157.527 268.606 158.171 270.012C158.772 271.325 160.008 272.24 161.114 273.343C162.151 274.379 163.397 275.011 164.763 275.308C167.516 275.906 172.736 275.709 173.419 277.114C173.581 277.447 173.684 278.028 173.47 278.425C172.705 279.846 170.543 281.721 172.336 284.215C172.725 284.755 173.623 284.973 173.968 284.588C174.999 283.438 174.984 281.533 176.254 281.04C176.528 280.934 176.91 280.997 177.069 281.263C177.394 281.809 177.625 282.828 178.157 284.105C178.704 285.417 178.224 288.558 179.575 289.893C179.796 290.111 180.119 290.219 180.448 290.162C180.776 290.104 181.25 289.903 181.261 289C181.312 284.749 179.608 283.197 180.609 281.257C180.776 280.934 181.099 281.042 181.372 281.263C181.645 281.485 181.861 281.809 182.08 282.138C182.952 283.451 184.04 284.539 185.349 285.414C186.657 286.289 187.928 287.774 189.27 287.54C189.598 287.482 189.922 287.266 190.139 286.991C190.356 286.715 190.464 286.391 190.462 286.061C190.461 285.732 190.4 285.371 190.132 285.078C188.932 283.766 188.47 281.881 186.973 281.257C185.664 280.711 183.779 280.826 183.057 279.672C182.952 279.505 183.168 279.181 183.442 278.907L183.464 278.885C183.733 278.616 184.042 278.308 184.535 278.309C186.657 278.312 187.869 278.993 189.325 279.403C189.709 279.512 190.141 279.512 190.356 279.122C190.572 278.732 190.7 277.909 190.405 277.484C189.915 276.778 189.386 275.157 187.675 275.031C186.207 274.923 184.993 274.987 184.359 275.253C183.05 275.802 181.151 276.658 179.784 275.905C179.137 275.548 178.206 274.543 177.565 273.84C177.562 273.856 177.56 273.871 177.557 273.884C177.526 274.049 176.966 273.402 176.906 273.288C176.683 272.865 177.019 273.243 177.565 273.84C177.61 273.526 177.598 272.717 177.062 272.352C175.862 271.534 174.623 270.862 173.249 270.605C170.052 270.007 164.786 269.916 163.447 269.021C162.138 268.145 160.777 267.191 160.236 265.741C159.746 264.429 159.344 262.973 158.493 261.809C157.452 260.385 156.018 259.112 154.624 258.588C153.316 258.097 152.028 257.606 150.648 257.223C149.068 256.786 147.605 257.209 144.49 256.186C142.644 255.58 141.355 254.631 140.576 253.287C139.814 251.975 139.38 250.667 138.943 249.354C138.507 248.042 138.438 246.529 137.581 245.421C136.651 244.22 135.305 243.434 134.039 242.747C132.73 242.037 131.52 241.209 130.118 240.563C129.136 240.11 128.157 239.63 127.454 239.373Z" fill="#3A3A3A"/>
<path d="M126.855 239.199C126.638 239.853 126.525 241.605 125.929 243.199C125.875 245 125.864 246.513 126.314 246.959C126.535 247.176 126.846 247.335 127.187 247.394C129.051 247.721 131.912 247.789 132.575 249.146C132.737 249.477 132.688 249.92 132.792 250.293C133.175 251.66 133.743 253.01 134.428 254.28C135.135 255.593 134.524 257.465 136.171 259.47C136.661 260.067 137.435 260.264 138.243 260.504C139.716 260.942 141.516 261.027 143.417 261.541C144.833 261.925 148.718 261.497 151.04 262.471C152.348 263.02 153.872 263.309 154.961 264.221C155.613 264.766 156.047 265.425 156.265 266.079C156.701 267.392 157.527 268.606 158.171 270.012C158.772 271.325 160.008 272.24 161.114 273.343C162.151 274.379 163.397 275.011 164.763 275.308C167.516 275.906 172.736 275.709 173.419 277.114C173.581 277.447 173.684 278.028 173.47 278.425C172.705 279.846 170.543 281.721 172.336 284.215C172.725 284.755 173.623 284.973 173.968 284.588C174.999 283.438 174.984 281.533 176.254 281.04C176.528 280.934 176.91 280.997 177.069 281.263C177.394 281.809 177.625 282.828 178.157 284.105C178.704 285.417 178.224 288.558 179.575 289.893C179.796 290.111 180.119 290.219 180.448 290.162C180.776 290.104 181.25 289.903 181.261 289C181.312 284.749 179.608 283.197 180.609 281.257C180.776 280.934 181.099 281.042 181.372 281.263C181.645 281.485 181.861 281.809 182.08 282.138C182.952 283.451 184.04 284.539 185.349 285.414C186.657 286.289 187.928 287.774 189.27 287.54C189.598 287.482 189.922 287.266 190.139 286.991C190.356 286.715 190.464 286.391 190.462 286.061C190.461 285.732 190.4 285.371 190.132 285.078C188.932 283.766 188.47 281.881 186.973 281.257C185.664 280.711 183.779 280.826 183.057 279.672C182.952 279.505 183.168 279.181 183.442 278.907M126.855 239.199C127.018 239.226 127.221 239.287 127.454 239.373M126.855 239.199C126.919 239.007 127.205 239.153 127.454 239.373M183.442 278.907L183.464 278.885M177.565 273.84C178.206 274.543 179.137 275.548 179.784 275.905C181.151 276.658 183.05 275.802 184.359 275.253C184.993 274.987 186.207 274.923 187.675 275.031C189.386 275.157 189.915 276.778 190.405 277.484C190.7 277.909 190.572 278.732 190.356 279.122C190.141 279.512 189.709 279.512 189.325 279.403C187.869 278.993 186.657 278.312 184.535 278.309C184.042 278.308 183.733 278.616 183.464 278.885C183.457 278.892 183.45 278.9 183.442 278.907M127.836 239.855C127.789 239.721 127.631 239.529 127.454 239.373M127.454 239.373C128.157 239.63 129.136 240.11 130.118 240.563C131.52 241.209 132.73 242.037 134.039 242.747C135.305 243.434 136.651 244.22 137.581 245.421C138.438 246.529 138.507 248.042 138.943 249.354C139.38 250.667 139.814 251.975 140.576 253.287C141.355 254.631 142.644 255.58 144.49 256.186C147.605 257.209 149.068 256.786 150.648 257.223C152.028 257.606 153.316 258.097 154.624 258.588C156.018 259.112 157.452 260.385 158.493 261.809C159.344 262.973 159.746 264.429 160.236 265.741C160.777 267.191 162.138 268.145 163.447 269.021C164.786 269.916 170.052 270.007 173.249 270.605C174.623 270.862 175.862 271.534 177.062 272.352C177.598 272.717 177.61 273.526 177.565 273.84M177.565 273.84C177.562 273.856 177.56 273.871 177.557 273.884C177.526 274.049 176.966 273.402 176.906 273.288C176.683 272.865 177.019 273.243 177.565 273.84Z" stroke="#3A3A3A" stroke-width="1.15512" stroke-linecap="round"/>
<path d="M92.5807 185.759C92.5807 184.863 92.5062 183.06 93.1276 181.705C93.7353 180.38 93.1276 178.759 94.6775 177.813C96.2275 176.867 96.295 177.641 96.6092 177.808C98.0639 178.584 97.7006 184.582 96.6976 188.01C96.5936 188.365 95.8481 188.35 95.3804 188.352C94.9126 188.353 94.4518 188.242 94.0608 188.017C93.6698 187.792 93.3626 187.457 93.1276 187.117C92.8925 186.777 92.7389 186.442 92.5807 185.759Z" fill="black" stroke="#3A3A3A" stroke-width="1.31253" stroke-linecap="round"/>
<path d="M82.5751 185.759C82.5751 184.863 82.6496 183.06 82.0282 181.705C81.4204 180.38 82.0282 178.759 80.4782 177.813C78.9283 176.867 78.8608 177.641 78.5466 177.808C77.0919 178.584 77.4551 184.582 78.4582 188.01C78.5621 188.365 79.3076 188.35 79.7754 188.352C80.2432 188.353 80.704 188.242 81.095 188.017C81.4859 187.792 81.7931 187.457 82.0282 187.117C82.2632 186.777 82.4168 186.442 82.5751 185.759Z" fill="black" stroke="#3A3A3A" stroke-width="1.31253" stroke-linecap="round"/>
<path d="M78.5779 203.352C79.6891 203.381 80.4093 203.559 80.8672 203.812C82.2668 204.584 81.1983 207.434 81.0195 207.746C80.6137 208.087 80.2168 208.299 79.923 208.344C79.7589 208.359 79.5643 208.359 79.3639 208.27" stroke="#2C2C2C" stroke-linecap="round"/>
<path d="M82.5779 205.352C82.8863 205.352 83.1947 205.352 84.4484 205.352C85.7022 205.352 87.8919 205.352 89.097 205.352C90.7695 205.352 91.2059 205.352 91.5625 205.352C91.7956 205.352 92.1349 205.352 92.5779 205.352" stroke="#2C2C2C" stroke-linecap="round"/>
<path d="M118.578 135.637C118.578 134.638 118.731 132.622 119.079 131.692C119.464 130.665 120.278 129.836 121.938 128.173C123.079 127.03 126.144 127.276 127.863 127.739C128.927 128.024 129.335 129.362 129.916 130.292C130.787 131.684 130.036 134.239 129.688 135.169C129.31 136.177 128.257 136.793 127.483 137.53C126.774 138.205 126.167 139.115 125.778 140.045C125.468 140.975 125.236 141.672 125.12 142.902C125.08 143.901 125.08 145.664 125.08 147.016" stroke="#B32E40" stroke-width="1.61865" stroke-linecap="round"/>
<path d="M124.464 150.535C124.85 150.188 125.159 150.035 125.312 150.035C126.014 150.425 125.971 150.817 126.086 151.091C126.2 151.365 126.009 151.741 125.812 151.933C125.614 152.125 125.231 152.125 124.921 152.085C124.611 152.046 124.322 151.999 124.266 151.812C124.151 151.426 124.104 150.858 124.464 150.535Z" stroke="#B32E40" stroke-width="1.21399" stroke-linecap="round"/>
</svg>
